<svg xmlns="http://www.w3.org/2000/svg" xmlns:xlink="http://www.w3.org/1999/xlink" viewBox="0 0 330.08 326.64"><defs><style>.cls-1{fill:url(#linear-gradient);}.cls-2{fill:#fff;}</style><linearGradient id="linear-gradient" y1="163.32" x2="330.08" y2="163.32" gradientUnits="userSpaceOnUse"><stop offset="0" stop-color="#3cb7b8"/><stop offset="1" stop-color="#208ccc"/></linearGradient></defs><title>4430</title><g id="Layer_2" data-name="Layer 2"><g id="Layer_1-2" data-name="Layer 1"><rect class="cls-1" width="330.08" height="326.64"/><path class="cls-2" d="M220.49,94.74a2.84,2.84,0,0,1-.2.73c0,.12-5.7,11.69-22.87,4.48-10.09-4.23-16-.82-19,2.31a49.42,49.42,0,0,1,33.14,49.6,8.25,8.25,0,0,1-3.27,6.09,7.93,7.93,0,0,1-6.75,1.35l-.31-.07a7.69,7.69,0,0,1-5.8-8A33,33,0,0,0,170.72,117,32.16,32.16,0,0,0,146,120.76a32.62,32.62,0,0,0-14.92,20.29l-8.33,33.69a33.23,33.23,0,0,0,4.95,27,32.89,32.89,0,0,0,23.6,13.93c16,1.64,31-9.26,34.93-25.35l2.56-10.22,0-.24-10.19-2.57a1.89,1.89,0,0,1-.4-.08l-21.68-5.5-13.16-3.33a1,1,0,0,1-.26-.08l-5.32-1.34a9,9,0,0,1-6.71-8.7,9.34,9.34,0,0,1,.25-2.15,8.86,8.86,0,0,1,10.75-6.52l18.76,4.76,32.27,8.15,14.29,3.61c.24.08.51.13.76.23l.41.13.2.09h0l-1.08,4.35-1.42,5.65-.67,2.78L205,181.8l-.42,1.7-.07.23-.07.24L202,194.21c-5.36,21.6-24.2,37.16-45.81,37.92l-1.52,0a47.72,47.72,0,0,1-6.54-.46,48.89,48.89,0,0,1-34-21.22,50,50,0,0,1-7-39.69l8.33-33.69C121.91,110.92,148.09,94.84,174,101c3.95-5.23,12.22-10.27,25-4.93,13.36,5.63,17.38-2,17.55-2.43a2.08,2.08,0,0,1,2.76-1A2.15,2.15,0,0,1,220.49,94.74Z"/><line class="cls-2" x1="168.2" y1="127.87" x2="164.24" y2="145.17"/><path class="cls-2" d="M164.25,150.69a5.89,5.89,0,0,1-1.24-.14,5.52,5.52,0,0,1-4.08-6.62l3.95-17.3a5.46,5.46,0,1,1,10.63,2.48l-3.95,17.3A5.47,5.47,0,0,1,164.25,150.69Z"/></g></g></svg>