<svg xmlns="http://www.w3.org/2000/svg" viewBox="0 0 309.6 360.45"><defs><style>.cls-1{fill:none;stroke:#d8d9da;stroke-linecap:round;stroke-miterlimit:10;stroke-width:8.66px;}.cls-2{fill:#d8d9da;}</style></defs><title>Asset-90</title><g id="Layer_2" data-name="Layer 2"><g id="Layer_1-2" data-name="Layer 1"><path class="cls-1" d="M4.33,109.15H44.87a19.87,19.87,0,0,1,19.36,15.36l32,137.42a19.87,19.87,0,0,0,19.36,15.36H258.08a19.87,19.87,0,0,0,19-14.16l27.3-91a19.87,19.87,0,0,0-18.92-25.59L69.06,145.25"/><path class="cls-1" d="M263.35,277.29h-163A16.74,16.74,0,0,0,83.58,294h0a16.73,16.73,0,0,0,16.74,16.73h163"/><circle class="cls-1" cx="236.05" cy="343.28" r="12.84"/><circle class="cls-1" cx="121.16" cy="343.28" r="12.84"/><path class="cls-2" d="M184.75,0C139.17-.12,104,36.87,102.89,78.76a82.1,82.1,0,0,0,31.8,67.58h12.84a74.2,74.2,0,0,1-37.44-64.95c-.87-39.68,32.37-73.3,73.31-74.16,41.32-.87,74.79,32,75.66,74.19.56,27-15.05,51.75-37.58,64.92h12.78c19.31-14.85,31.92-38,32-63.76C266.41,37,230,.12,184.75,0Z"/><path class="cls-2" d="M185.05,99.25c12.45.57,23.73,4.84,32.84,14.21,1.8,1.85,3.41,4,.92,6.22s-4.34.5-6.18-1.39c-15.21-15.66-41.17-15.63-56.17,0-.25.27-.51.53-.75.8-1.64,1.86-3.56,2.17-5.42.53s-1.52-3.68.11-5.12c3.62-3.18,7.19-6.58,11.29-9.06C168.65,101.25,176.47,99.49,185.05,99.25Z"/><path class="cls-2" d="M157.08,78.11c-10.28.06-18.43-7.71-18.56-16.76,0-2.39.76-4.51,3.21-4.26,1.37.14,3.32,2.07,3.63,3.49.8,3.61,2,6.68,5.25,8.73a10.58,10.58,0,0,0,15.76-6.15,19.29,19.29,0,0,0,.46-2.5c.27-2.41,1.49-4,4-3.68s3.08,2.3,3,4.62c-.24,6.78-5.64,13.77-12.25,15.62C159.84,77.7,158,77.93,157.08,78.11Z"/><path class="cls-2" d="M212.78,78.12c-8.88-.09-16.54-7-17.34-15.56-.24-2.57-.26-5.21,3-5.58,3.06-.35,3.73,2.07,4,4.52a10.16,10.16,0,0,0,7.47,9,9.54,9.54,0,0,0,10.61-2.89,15.67,15.67,0,0,0,2.85-6.09c.63-2.38,1.08-4.83,4.12-4.49,3.27.37,3.28,3,3,5.58C229.77,71.16,221.71,78.21,212.78,78.12Z"/><line class="cls-1" x1="263.35" y1="181.53" x2="113.39" y2="181.53"/><line class="cls-1" x1="263.35" y1="213.25" x2="113.39" y2="213.25"/><line class="cls-1" x1="263.35" y1="244.96" x2="113.39" y2="244.96"/></g></g></svg>