<svg xmlns="http://www.w3.org/2000/svg" viewBox="0 0 309.6 445.93"><defs><style>.cls-1{fill:#d8d9da;}.cls-2{fill:none;stroke:#d8d9da;stroke-linecap:round;stroke-miterlimit:10;stroke-width:8.66px;}</style></defs><title>Asset -97654</title><g id="Layer_2" data-name="Layer 2"><g id="Layer_1-2" data-name="Layer 1"><path class="cls-1" d="M101.39,436a11,11,0,0,1-5.89-1.39,6,6,0,0,1-2.78-4.06,9.45,9.45,0,0,1-4.85,1.19,10.15,10.15,0,0,1-3.35-.52,8,8,0,0,1-2.62-1.46,6.53,6.53,0,0,1-1.74-2.31,7.41,7.41,0,0,1-.62-3.09,8.65,8.65,0,0,1,3.3-6.79q3.28-2.82,9.49-4.21l0-3.17,5-.89-.2,17.14a3.45,3.45,0,0,0,1,2.85,5,5,0,0,0,3.29.87l.8.49v4.86Zm-8.87-28.88-3.17-3.23-3.17,3.23-3.71-3.77,3.71-3.77,3.17,3.22,3.17-3.22,3.72,3.77Zm-3.76,19.07a11.12,11.12,0,0,0,3.76-.59l-.14-7a18.85,18.85,0,0,0-3.25.57,12.61,12.61,0,0,0-2.75,1.07,6.39,6.39,0,0,0-1.88,1.46,2.62,2.62,0,0,0-.7,1.71,2.21,2.21,0,0,0,.4,1.33,2.64,2.64,0,0,0,1.07.87,5.55,5.55,0,0,0,1.58.47A11.83,11.83,0,0,0,88.76,426.21Z"/><path class="cls-1" d="M121.26,432.85a34.64,34.64,0,0,1-4.26,1.31c-1.55.38-3.19.71-4.93,1s-3.5.5-5.3.65-3.59.22-5.38.22l-.79-.49v-4.86l.79-.49c1.62,0,3.26-.05,4.91-.15a7.93,7.93,0,0,1-2-5.45,9.58,9.58,0,0,1,2.65-6.67,9.12,9.12,0,0,1,2.85-2,8.32,8.32,0,0,1,3.51-.75,8.48,8.48,0,0,1,3.89.92,8.08,8.08,0,0,1,3,2.6l-2.23,3a19.19,19.19,0,0,0-2-.69,8,8,0,0,0-2.23-.3,6.41,6.41,0,0,0-3.76,1.07,3.25,3.25,0,0,0-1.54,2.8A3.52,3.52,0,0,0,110,427.3a9.86,9.86,0,0,0,4.78,1.69c1.19-.2,2.37-.43,3.54-.67l3.6-.77Zm-8-20.81-3.72-3.77,3.72-3.76,3.71,3.76Z"/><path class="cls-1" d="M123.29,440.93a39.94,39.94,0,0,0,5-2.31,28.61,28.61,0,0,0,4-2.6,14.14,14.14,0,0,0,2.63-2.62,4.17,4.17,0,0,0,.94-2.43,7,7,0,0,0-.37-2,24.71,24.71,0,0,0-1-2.7c-.45-1-1-2-1.54-3.12s-1.21-2.16-1.91-3.22l4.61-2.58a25.37,25.37,0,0,1,3.42,6.44,19.45,19.45,0,0,1,1.24,6.54,13.18,13.18,0,0,1-3.64,9,25.47,25.47,0,0,1-10.28,6.54Z"/><path class="cls-1" d="M154.06,436a10,10,0,0,1-6.49-1.86,6.61,6.61,0,0,1-2.33-5.32L145,404.41l5.05-.89-.2,22.94a3.62,3.62,0,0,0,1,2.85,4.92,4.92,0,0,0,3.27.87l.8.49v4.86Z"/><path class="cls-1" d="M168.18,425.37a8,8,0,0,1-4.85,1.49,7.19,7.19,0,0,1-5.33-2,7.6,7.6,0,0,1-2-5.63,11.12,11.12,0,0,1,.64-3.81,10.7,10.7,0,0,1,1.73-3.12,8.27,8.27,0,0,1,2.55-2.11,6.62,6.62,0,0,1,3.1-.77,6.08,6.08,0,0,1,3.69,1.14,8.6,8.6,0,0,1,2.6,3.27,19.15,19.15,0,0,1,1.57,5.23,43.4,43.4,0,0,1,.52,7,12.32,12.32,0,0,1-1,5.55,6.41,6.41,0,0,1-3.34,3,11.61,11.61,0,0,1-2.18.72,19.11,19.11,0,0,1-2.68.42c-1,.1-2.11.18-3.37.23s-2.68.07-4.26.07h-1.49l-.79-.49v-4.86l.79-.49h1.49c1.78,0,3.44,0,5-.08s2.87-.13,4-.25a11.62,11.62,0,0,0,2.68-.52c.64-.23,1-.53,1-.89Zm-4.26-3.17a7.34,7.34,0,0,0,4.07-1,12.9,12.9,0,0,0-1.29-4.88,3.06,3.06,0,0,0-2.83-1.61,3.71,3.71,0,0,0-2.82,1.21,4.34,4.34,0,0,0-1.14,3.1,2.92,2.92,0,0,0,1,2.38A4.61,4.61,0,0,0,163.92,422.2Zm.1-15.86-3.71-3.76,3.71-3.77,3.72,3.77Z"/><path class="cls-1" d="M207.28,436a11,11,0,0,1-5.9-1.39,5.92,5.92,0,0,1-2.77-4.06,9.51,9.51,0,0,1-4.86,1.19,10.09,10.09,0,0,1-3.34-.52,8.09,8.09,0,0,1-2.63-1.46,6.51,6.51,0,0,1-1.73-2.31,7.26,7.26,0,0,1-.62-3.09,8.64,8.64,0,0,1,3.29-6.79,21.75,21.75,0,0,1,9.49-4.21l-.05-3.17,5.05-.89L203,426.46a3.41,3.41,0,0,0,1,2.85,5.05,5.05,0,0,0,3.3.87l.79.49v4.86Zm-8.87-28.88-3.17-3.23-3.17,3.23-3.72-3.77,3.72-3.77,3.17,3.22,3.17-3.22,3.71,3.77Zm-3.77,19.07a11.18,11.18,0,0,0,3.77-.59l-.15-7a19,19,0,0,0-3.25.57,12.82,12.82,0,0,0-2.75,1.07,6.39,6.39,0,0,0-1.88,1.46,2.6,2.6,0,0,0-.69,1.71,2.2,2.2,0,0,0,.39,1.33,2.71,2.71,0,0,0,1.07.87,5.65,5.65,0,0,0,1.58.47A11.92,11.92,0,0,0,194.64,426.21Z"/><path class="cls-1" d="M222.64,436a12.31,12.31,0,0,1-4.56-.72,7,7,0,0,1-2.93-2.15,7.11,7.11,0,0,1-3.22,2.15,13.85,13.85,0,0,1-4.65.72l-.8-.49v-4.86l.8-.49a10.8,10.8,0,0,0,3.84-.57c1-.38,1.46-.94,1.46-1.66l-.25-23.54,5-.89L217.14,428a4.13,4.13,0,0,0,2,1.66,9.91,9.91,0,0,0,3.47.48l.79.49v4.86Z"/><path class="cls-1" d="M221.84,435.53v-4.86l.8-.49a7.94,7.94,0,0,0,2-.23,3.15,3.15,0,0,0,1.51-1,7.59,7.59,0,0,0,1.26-2.16,36.25,36.25,0,0,0,1.29-3.74l4.11,1.09a42.18,42.18,0,0,1-1.33,5.92,10.4,10.4,0,0,1-1.89,3.62,5.89,5.89,0,0,1-2.82,1.81,15,15,0,0,1-4.16.49Zm36.37-14.92c-.06,1.39-.13,2.58-.2,3.57s-.14,1.87-.22,2.63-.18,1.42-.3,2a13.89,13.89,0,0,1-.42,1.66Q255.44,436,248.6,436a9.42,9.42,0,0,1-3.57-.64,6.71,6.71,0,0,1-2.57-1.79,8.59,8.59,0,0,1-6.35,2.43,8.34,8.34,0,0,1-5.12-1.53,6.84,6.84,0,0,1-2.46-5l2.13-3.67a6.18,6.18,0,0,0,1.86,3.3,5.39,5.39,0,0,0,3.59,1.11c2.51,0,4-1,4.36-3,.07-.39.15-.85.25-1.36s.19-1.05.27-1.61.17-1.12.25-1.66.16-1,.22-1.46l4.27.54c-.24,1.82-.39,3.17-.47,4.07s-.13,1.42-.13,1.58a2.59,2.59,0,0,0,1,2.08,4.42,4.42,0,0,0,2.9.84,4.09,4.09,0,0,0,3-.89,3.73,3.73,0,0,0,1.09-2c.1-.49.19-1.09.27-1.78s.17-1.39.25-2.08.15-1.35.2-2,.09-1.07.12-1.36Zm4,15.41a10.66,10.66,0,0,1-4.91-1.11,6.48,6.48,0,0,1-3.12-3.5l3.17-4.11q0,2.88,4.86,2.88l.79.49v4.86Z"/><path class="cls-1" d="M261.38,435.53v-4.86l.8-.49a10.8,10.8,0,0,0,3.84-.57c1-.38,1.46-.94,1.46-1.66l-.25-23.54,5-.89L272,427.45a9,9,0,0,1-.82,4,7.3,7.3,0,0,1-2.18,2.65,8.79,8.79,0,0,1-3.15,1.47,15.64,15.64,0,0,1-3.71.44Z"/><path class="cls-1" d="M278.33,436,278,404.41l5-.89-.29,32.5Z"/><path class="cls-2" d="M4.33,109.15H44.87a19.87,19.87,0,0,1,19.36,15.36l32,137.42a19.87,19.87,0,0,0,19.36,15.36H258.08a19.87,19.87,0,0,0,19-14.16l27.3-91a19.87,19.87,0,0,0-18.92-25.59L69.06,145.25"/><path class="cls-2" d="M263.35,277.29h-163A16.74,16.74,0,0,0,83.58,294h0a16.73,16.73,0,0,0,16.74,16.73h163"/><circle class="cls-2" cx="236.05" cy="343.28" r="12.84"/><circle class="cls-2" cx="121.16" cy="343.28" r="12.84"/><path class="cls-1" d="M184.75,0C139.17-.12,104,36.87,102.89,78.76a82.1,82.1,0,0,0,31.8,67.58h12.84a74.2,74.2,0,0,1-37.44-64.95c-.87-39.68,32.37-73.3,73.31-74.16,41.32-.87,74.79,32,75.66,74.19.56,27-15.05,51.75-37.58,64.92h12.78c19.31-14.85,31.92-38,32-63.76C266.41,37,230,.12,184.75,0Z"/><path class="cls-1" d="M185.05,99.25c12.45.57,23.73,4.84,32.84,14.21,1.8,1.85,3.41,4,.92,6.22s-4.34.5-6.18-1.39c-15.21-15.66-41.17-15.63-56.17,0-.25.27-.51.53-.75.8-1.64,1.86-3.56,2.17-5.42.53s-1.52-3.68.11-5.12c3.62-3.18,7.19-6.58,11.29-9.06C168.65,101.25,176.47,99.49,185.05,99.25Z"/><path class="cls-1" d="M157.08,78.11c-10.28.06-18.43-7.71-18.56-16.76,0-2.39.76-4.51,3.21-4.26,1.37.14,3.32,2.07,3.63,3.49.8,3.61,2,6.68,5.25,8.73a10.58,10.58,0,0,0,15.76-6.15,19.29,19.29,0,0,0,.46-2.5c.27-2.41,1.49-4,4-3.68s3.08,2.3,3,4.62c-.24,6.78-5.64,13.77-12.25,15.62C159.84,77.7,158,77.93,157.08,78.11Z"/><path class="cls-1" d="M212.78,78.12c-8.88-.09-16.54-7-17.34-15.56-.24-2.57-.26-5.21,3-5.58,3.06-.35,3.73,2.07,4,4.52a10.16,10.16,0,0,0,7.47,9,9.54,9.54,0,0,0,10.61-2.89,15.67,15.67,0,0,0,2.85-6.09c.63-2.38,1.08-4.83,4.12-4.49,3.27.37,3.28,3,3,5.58C229.77,71.16,221.71,78.21,212.78,78.12Z"/><line class="cls-2" x1="263.35" y1="181.53" x2="113.39" y2="181.53"/><line class="cls-2" x1="263.35" y1="213.25" x2="113.39" y2="213.25"/><line class="cls-2" x1="263.35" y1="244.96" x2="113.39" y2="244.96"/></g></g></svg>