<svg xmlns="http://www.w3.org/2000/svg" xmlns:xlink="http://www.w3.org/1999/xlink" viewBox="0 0 95.64 95.63"><defs><style>.cls-1{fill:#1a233a;}.cls-2{fill:url(#linear-gradient);}</style><linearGradient id="linear-gradient" x1="14.2" y1="51.81" x2="81.44" y2="51.81" gradientUnits="userSpaceOnUse"><stop offset="0" stop-color="#226d37"/><stop offset="0.59" stop-color="#215529"/><stop offset="1" stop-color="#21421d"/></linearGradient></defs><title>c-3</title><g id="Layer_2" data-name="Layer 2"><g id="Layer_1-2" data-name="Layer 1"><path class="cls-1" d="M83.24,68.6c-2.11-.63-2.64-2.1-2.63-4.07.06-7.29,0-14.58,0-21.87,0-2.69.62-3.49,3.39-4.16C83.19,26.29,78,16.42,67.67,9.78c-12.48-8-25.5-8.24-38.38-.87C18.69,15,10.84,28.58,11.77,38.55a10.22,10.22,0,0,1,1.21.31,2.75,2.75,0,0,1,1.95,2.6C15,49.18,15,56.89,15,64.61c0,2.92-1,4-3.9,4H8.54A7.94,7.94,0,0,1,.17,61.28,15.21,15.21,0,0,1,0,59.37c0-3.75,0-7.51,0-11.26a14.52,14.52,0,0,1,.27-2.8c.84-3.91,3.28-6.09,7.55-6.76.72-12,5.55-22,14.94-29.68A38.67,38.67,0,0,1,48.73,0a40.13,40.13,0,0,1,39.1,38.6,7.23,7.23,0,0,1,5.78,2.93,10.7,10.7,0,0,1,2,7c0,3.67,0,7.34,0,11a9.51,9.51,0,0,1-2.82,7.05,6.13,6.13,0,0,1-4.46,1.94c-1,0-1.28.34-1.51,1.23A30,30,0,0,1,74.71,87.41c-4.19,3-9,4.17-14,4.93a8.52,8.52,0,0,1-1.4.18,2,2,0,0,0-1.91,1.15,4.1,4.1,0,0,1-3.69,1.93c-2.94,0-5.89.05-8.83,0a4.48,4.48,0,1,1,.07-9c2.86,0,5.72,0,8.58,0a4.76,4.76,0,0,1,3.73,1.64,1.71,1.71,0,0,0,1.15.53C71.53,87.93,79.71,80.5,83,69.61,83.09,69.33,83.14,69,83.24,68.6Z"/><path class="cls-2" d="M47.13,18.2a33.62,33.62,0,1,0,34.3,32.92A33.62,33.62,0,0,0,47.13,18.2ZM67.24,70.46A26.92,26.92,0,1,1,28.4,33.17a26.94,26.94,0,0,1,29.39-6.38c.75.31,1.5.64,2.22,1l-.15-.05a1.29,1.29,0,0,0-.28-.08,3.55,3.55,0,0,1,.88.41h0a2.47,2.47,0,0,0,.27.21c.06,0,.11.1.16.14s.09.11.15.16a2.55,2.55,0,0,0,.23.24s0,0,0,0l0,0s0,0,0,0l.23.33a1.19,1.19,0,0,0,.09.15.78.78,0,0,1,.11.2,0,0,0,0,1,0,0c0,.1.09.21.12.31a.1.1,0,0,1,0,.08.66.66,0,0,1,0,.15.19.19,0,0,1,0,.08.08.08,0,0,1,0,.07v0c0,.11,0,.24.07.35a.59.59,0,0,1,0,.19.13.13,0,0,1,0,.09V31a3.56,3.56,0,0,1-.05.65s0,0,0,0a4.36,4.36,0,0,1-.22.75.25.25,0,0,1,0,.07c-.06.12-.12.25-.19.36l-.08.14h0l-.16.23a.19.19,0,0,0-.06.07.65.65,0,0,1-.13.16.41.41,0,0,1-.11.12c-.06.06-.13.12-.19.19l-.07.07h0a3.52,3.52,0,0,1-.83.52h0s0,0,0,0l-.3.11-.5.13H59l-.29,0h-.19l-.48,0H58a3,3,0,0,1-.45-.1.47.47,0,0,0-.09,0l-.16,0a.67.67,0,0,0-.15-.06h0l-.08,0a1.65,1.65,0,0,1-.32-.18h0L56.27,34c.06,0,.11.11.18.15l.17.12A19.66,19.66,0,1,0,67.47,51.4a19.13,19.13,0,0,0-1.82-7.86L57.16,49.8l-.66.49a4.43,4.43,0,0,1-.73.35c-1.19.42-2.42.75-3.62,1.17a.83.83,0,0,0-.47.52,5.89,5.89,0,0,1-.57,1.93,6.26,6.26,0,0,1-4,3,10.9,10.9,0,0,1-6.35-.15c-.36-.11-.89-.49-.91-.77a1.56,1.56,0,0,1,.67-1.09,5.35,5.35,0,0,0,2.26-3.44,5.06,5.06,0,0,1,3.12-3.8,4,4,0,0,1,1.78-.27,4.07,4.07,0,0,1,1.47.39,8.23,8.23,0,0,0,.8-1.07,9.29,9.29,0,0,1,2.26-2.66l.79-.58,8.43-6.23,5.93-4.37a27.09,27.09,0,0,1,4.25,5.89c.3.55.56,1.11.82,1.67a26.74,26.74,0,0,1,2.33,10.43,27.14,27.14,0,0,1-1.89,10.53A26.82,26.82,0,0,1,67.24,70.46ZM50.62,48.71a.83.83,0,0,0,.1.74c.28.35.7.92,1,.87a30.41,30.41,0,0,0,3.21-1l-2.33-3.31C51.89,47,51.22,47.82,50.62,48.71Zm-3.39.53a3.19,3.19,0,0,0-2.83,2.33c-.1.35-.2.69-.32,1a7.82,7.82,0,0,1-2,3.38,10.14,10.14,0,0,0,4.46,0l.47-.15a6.28,6.28,0,0,0,2.18-1.44,2.69,2.69,0,0,0,.64-3.44A2.79,2.79,0,0,0,47.23,49.24Z"/></g></g></svg>