<svg xmlns="http://www.w3.org/2000/svg" viewBox="0 0 91.23 91.91"><defs><style>.cls-1{fill:#235e2f;stroke:#235e2f;stroke-miterlimit:10;}</style></defs><title>icon-7</title><g id="Layer_2" data-name="Layer 2"><g id="Layer_1-2" data-name="Layer 1"><path class="cls-1" d="M48.7,20.2C56,16.55,62.81,12.81,69.9,9.73c4.6-2,9.59-3.07,14.44-4.45a6.68,6.68,0,0,1,2.81.06c2.56.43,3.9,2.54,2.9,4.93a12.37,12.37,0,0,1-2.82,4.38c-4,3.63-8.15,7-12.28,10.53-.75.64-1.61,1.17-2.53,1.83,1.82.62,3.51,1.07,5.09,1.75,8.68,3.75,13.53,12.1,13.2,22.63-.53,17.49-13.3,33.14-31.13,38.16C32.75,97.11,6.43,80.89,1.25,53.6-3.49,28.67,14.9,3.72,40.17.82A36.82,36.82,0,0,1,45.62.51a6.73,6.73,0,0,1,6.15,3.61c1.3,2.49.71,4.79-.68,7.08a20.78,20.78,0,0,0-2.32,4.88A15.3,15.3,0,0,0,48.7,20.2ZM21.52,52.77c-2.79-.14-4.82-.2-6.84-.37-1.85-.15-2.62-1.31-1.71-2.91,2.18-3.88,4.39-7.76,6.89-11.42,1.95-2.85,4.93-3.84,8.4-3.27a2.6,2.6,0,0,0,1.83-.32q7.44-5.61,14.76-11.37a1.91,1.91,0,0,0,.66-1.58c-1.35-4.46-.13-8.34,2.34-12.09.62-.95,1.15-2.7.69-3.43-.61-1-2.21-1.4-3.44-1.9a4.77,4.77,0,0,0-1.81,0C18.64,5.09-.23,29.54,4.89,53.81c5.18,24.54,28.82,39,53.09,32.43C74.67,81.73,86.5,67.6,87.14,51.41c.47-11.94-6.49-20-18.21-21a5.72,5.72,0,0,0-3.16.87c-9.32,5.52-18.85,10.57-29.22,13.86A3,3,0,0,0,35,46.68c-1.36,3-3.47,5-6.8,5.43C25.74,52.44,23.25,52.6,21.52,52.77ZM47.05,25.89l5.14,9c4-2.25,8-4.41,11.9-6.8C71.3,23.63,78.33,19,84.2,12.77a35,35,0,0,0,2.66-3.58l-.6-.78C71.66,10.89,59.34,18.55,47.05,25.89ZM49,36.5l-5-8.71L32.81,36.68l2.94,5.09ZM17,48.59l.48.68c3.46-.22,6.93-.29,10.37-.71a4.71,4.71,0,0,0,4-4.23,5.31,5.31,0,0,0-2.84-5.55c-1.9-1-4.34-.89-5.6.7C21.15,42.39,19.15,45.54,17,48.59Z"/><path class="cls-1" d="M38.83,18.62a7,7,0,0,1-7.11,7,7.16,7.16,0,0,1-7-7.14,7.22,7.22,0,0,1,7.18-7A7.08,7.08,0,0,1,38.83,18.62ZM31.88,22a3.49,3.49,0,0,0-.08-7,3.49,3.49,0,1,0,.08,7Z"/><path class="cls-1" d="M47.74,77a7.11,7.11,0,0,1-7.14,7,7.22,7.22,0,0,1-7.05-7.16,7.1,7.1,0,0,1,7.19-7A7,7,0,0,1,47.74,77Zm-7-3.52a3.4,3.4,0,0,0-3.58,3.34,3.5,3.5,0,0,0,3.56,3.6,3.45,3.45,0,0,0,3.47-3.47A3.39,3.39,0,0,0,40.73,73.46Z"/><path class="cls-1" d="M62,80.41a7.07,7.07,0,0,1,0-14.14,7.2,7.2,0,0,1,7.13,7.08A7.12,7.12,0,0,1,62,80.41Zm3.54-7.07A3.55,3.55,0,0,0,62,69.87a3.45,3.45,0,0,0-3.54,3.6,3.41,3.41,0,0,0,3.58,3.35A3.49,3.49,0,0,0,65.52,73.34Z"/><path class="cls-1" d="M76.08,62.63a6.92,6.92,0,0,1-7-7.12,7,7,0,0,1,7.14-7,7,7,0,1,1-.19,14.08Zm0-3.54a3.51,3.51,0,0,0,3.6-3.32,3.59,3.59,0,0,0-3.47-3.68,3.5,3.5,0,1,0-.13,7Z"/><path class="cls-1" d="M46.31,63.09a16.81,16.81,0,0,1-11.62-4.52c-.92-.87-1.5-1.86-.51-3s2-.63,2.92.3c4.19,4.37,12,4.36,17,1.55a8.38,8.38,0,0,0,4.34-5.57c.25-1.15.84-2.13,2.2-1.82s1.47,1.57,1.23,2.77c-.85,4.44-5.66,8.66-11.12,9.71C49.26,62.81,47.78,62.91,46.31,63.09Z"/><path class="cls-1" d="M30,66.17a7.08,7.08,0,0,1-14.16.18A7.08,7.08,0,0,1,30,66.17Zm-7.11,3.61a3.6,3.6,0,0,0,3.59-3.58,3.56,3.56,0,0,0-7.11-.07A3.6,3.6,0,0,0,22.89,69.78Z"/></g></g></svg>