<svg xmlns="http://www.w3.org/2000/svg" viewBox="0 0 109.09 108.69"><defs><style>.cls-1{fill:#235e2f;stroke:#235e2f;stroke-miterlimit:10;stroke-width:1.09px;}</style></defs><title>icon-8</title><g id="Layer_2" data-name="Layer 2"><g id="Layer_1-2" data-name="Layer 1"><path class="cls-1" d="M83.54.55h.11a1.25,1.25,0,0,0,.23.23l4.06,2.85c.61.43,1.21.86,1.83,1.27a.57.57,0,0,1,.29.54,3.38,3.38,0,0,0,0,.45V37.2h.61c2.08,0,4.15,0,6.23,0a8.45,8.45,0,0,1,8,5.88,9.78,9.78,0,0,1,.4,3q0,23.87,0,47.72v.73h3.31v6.27c-.06.28-.11.56-.18.83a8.33,8.33,0,0,1-6.69,6.27c-.25,0-.49.13-.73.19H8.34c-.26-.06-.52-.14-.78-.19A8.44,8.44,0,0,1,.73,101a4,4,0,0,0-.18-.56V94.58c1.14,0,2.27,0,3.44,0v-.73Q4,69.78,4,45.69a8.44,8.44,0,0,1,5.48-7.94,8.91,8.91,0,0,1,3.07-.55h6.07l.56,0v-.71q0-15.4,0-30.81a.91.91,0,0,1,.45-.86c1.89-1.3,3.76-2.63,5.64-3.94.14-.1.26-.21.39-.31h.1c.06,0,.11.12.17.17l4.31,3,.29.17a1.54,1.54,0,0,0,.23-.14l4.35-3a1.29,1.29,0,0,0,.16-.17h.1l.11.1,4.35,3,.35.23.46-.32,4-2.78c.37-.26.37-.26.74,0l4,2.78.47.33c.29-.2.57-.39.84-.59l4-2.79h.1a.87.87,0,0,0,.16.17l4.35,3c.08.06.17.1.25.15l.27-.18L64,.72l.17-.17h.1a1.66,1.66,0,0,0,.14.13L68.8,3.73l.29.17a1.06,1.06,0,0,0,.19-.11L73.67.72a.87.87,0,0,0,.16-.17h.1l4.8,3.39Zm-61,87.21a.69.69,0,0,0,.21.06h63.5c.1,0,.2,0,.3,0l.05,0,0-.06V6.87L83.55,4.68,78.73,8.06,73.91,4.68,69.09,8.06,64.27,4.69,59.44,8.05,54.63,4.69,49.81,8.06,45,4.69,40.16,8.06,35.34,4.69,30.52,8.05,25.69,4.69c-.88.61-1.73,1.24-2.62,1.82a1,1,0,0,0-.52,1q0,39.82,0,79.65ZM96.78,91.2H12.51s0-.08-.06-.11a.68.68,0,0,1,0-.15V47.63a1.2,1.2,0,0,1,0-.2s0,0,0,0l.09-.08h6.57V40.63l-.36,0c-2.13,0-4.25,0-6.38,0a5.49,5.49,0,0,0-1.39.2,5.06,5.06,0,0,0-3.65,5q0,24.1,0,48.22v.55H47.81a.53.53,0,0,1,.06.15c0,.49,0,1,0,1.47A1.65,1.65,0,0,0,49.63,98H59.76a1.67,1.67,0,0,0,1.61-1.63c0-.41,0-.81,0-1.22,0-.16,0-.32,0-.52H91.75c1.69,0,3.37,0,5.06,0s3.36,0,5.06,0v-49a4.94,4.94,0,0,0-.38-1.82,5,5,0,0,0-4.76-3.16c-2.06,0-4.11,0-6.17,0l-.44,0a65.33,65.33,0,0,0,0,6.72h6.63Zm-3.37-3.4v-37H90.08V87.8Zm-77.56-37v37h3.28c.1-.75.07-36.68,0-37Z"/><path class="cls-1" d="M51.54,61.13c.15.17.28.3.41.43L57.42,67a5.07,5.07,0,0,1-1.51,8.29,4.86,4.86,0,0,1-5.48-1c-1.2-1.11-2.33-2.3-3.48-3.46l-2.19-2.18-.41-.39L42,70.69,30.05,58.77c.17-.18.3-.33.45-.47q5.39-5.38,10.77-10.76a3,3,0,0,0,.68-1q3.15-8.22,6.31-16.43l.24-.58L71.25,52.22l-.61.25L54.08,58.84a2.22,2.22,0,0,0-.75.49C52.75,59.94,52.15,60.52,51.54,61.13ZM65.18,51,49.79,35.55c-.11.27-.19.45-.26.64q-2.39,6.18-4.76,12.35a2.23,2.23,0,0,1-.46.71c-.64.67-1.31,1.32-2,2l-.27.29,7.15,7.16,2.16-2.18a2.46,2.46,0,0,1,.88-.58c4.12-1.57,8.24-3.16,12.35-4.74ZM35,58.69l7,7c1.51-1.52,3.08-3.08,4.57-4.57l-7-7ZM46.83,66l.2.22,5.62,5.62a1.94,1.94,0,0,0,.26.23A1.68,1.68,0,0,0,55,69.42L49.4,63.81l-.23-.21Z"/><path class="cls-1" d="M27.67,13.62l.37,0h2.87c.11.38.16,19.32.05,20.21H27.7C27.6,33.46,27.56,14.47,27.67,13.62Z"/><path class="cls-1" d="M81.58,84.44H78.34c-.1-.38-.15-19.21,0-20.19h3.26C81.64,64.61,81.68,83.49,81.58,84.44Z"/><path class="cls-1" d="M34.39,27.06V13.63h3.28c.11.35.13,12.87,0,13.43Z"/><path class="cls-1" d="M74.83,84.44h-3.3V71h3.3Z"/><path class="cls-1" d="M37.05,70.72,34.82,73l-7-7L30,63.66Z"/><path class="cls-1" d="M70.65,27.89l2.22,2.2-7,7-2.21-2.21Z"/><path class="cls-1" d="M71.05,46.07l-.87-3.26L80,40.19l.87,3.26Z"/><path class="cls-1" d="M57.93,30.56l-3.27-.88,2.62-9.75c1.09.23,2.14.56,3.26.85Z"/><path class="cls-1" d="M68.11,77.74v6.64a19.31,19.31,0,0,1-3.34,0V77.74Z"/></g></g></svg>