<svg xmlns="http://www.w3.org/2000/svg" viewBox="0 0 111.96 111.96"><defs><style>.cls-1{fill:#235e2f;stroke:#235e2f;stroke-miterlimit:10;}</style></defs><title>icon-9</title><g id="Layer_2" data-name="Layer 2"><g id="Layer_1-2" data-name="Layer 1"><path class="cls-1" d="M.5,32.16V29.8c.06-.39.14-.77.19-1.16.17-1.2.25-2.42.5-3.6A30,30,0,0,1,13.77,5.93,29.39,29.39,0,0,1,28.1.69L29.9.5h2.36a5.4,5.4,0,0,0,.58.09,28.77,28.77,0,0,1,5.39.82A30.39,30.39,0,0,1,58.41,17.66c.07.14.15.27.25.46l.27-.53a11,11,0,0,1,2.34-3.31,4.3,4.3,0,0,1,7.09,1.77,5.64,5.64,0,0,1,.21,1.64c0,3.63,0,7.26,0,10.88a10.69,10.69,0,0,0,.08,1.5,7.39,7.39,0,0,0,7.18,6.26c1,0,2,0,3,0,.14,0,.28,0,.48,0v-3.5H97.21V45.26H104a10,10,0,0,1,1.34.08,7.13,7.13,0,0,1,6,5.3c.06.24.11.48.16.72V67.78c-.08.37-.15.73-.26,1.08a7.14,7.14,0,0,1-6.81,5H89.05c-.89,0-1.79,0-2.68,0a3.58,3.58,0,0,0-3.44,3,3.54,3.54,0,0,0,2.47,3.91,4.93,4.93,0,0,0,1.38.18h17c.34,0,.68,0,1,0a7.14,7.14,0,0,1,6.5,5.35c.06.26.11.52.16.78v2c-.08.34-.14.69-.24,1a7.06,7.06,0,0,1-2.88,3.88,7.36,7.36,0,0,1-4.21,1.21q-26.25,0-52.51,0c-.16,0-.32,0-.48,0a2.34,2.34,0,0,0-.39,0c-.09.89-.13,1.75-.27,2.6A16.12,16.12,0,0,1,37.7,111.16c-.56.11-1.12.2-1.68.3H17c-.12,0-.24-.07-.36-.09-.85-.15-1.7-.24-2.53-.44A17.91,17.91,0,0,1,.8,96.24c-.09-.58-.2-1.16-.3-1.73V92.68c.07-.31.14-.62.2-.94.17-.93.28-1.87.52-2.79A17.85,17.85,0,0,1,18.39,75.7c5.42,0,10.84,0,16.26,0a17.07,17.07,0,0,1,2.67.22,16.09,16.09,0,0,1,13.32,14.6c0,.4.06.81.1,1.27h53.72a3.6,3.6,0,0,0,3.45-3.1,3.55,3.55,0,0,0-2.46-3.87,4.86,4.86,0,0,0-1.37-.18H86.75a7.48,7.48,0,0,1-1.34-.09,7.15,7.15,0,0,1-4-12.06,6.93,6.93,0,0,1,5.25-2.16c2.59,0,5.19,0,7.78,0,3.27,0,6.54,0,9.82,0A3.65,3.65,0,0,0,108,66.61c0-4.69,0-9.37,0-14.06a4,4,0,0,0-.07-.85,3.5,3.5,0,0,0-3.44-2.83c-2.29,0-4.58,0-6.87,0a2.22,2.22,0,0,0-.36.06V63.14H79.31c0-.53,0-1,0-1.56A7.54,7.54,0,0,0,79.25,60l-.51.32-2.1,1.39a8.66,8.66,0,0,1-4.81,1.43q-12.34,0-24.68,0a5.35,5.35,0,0,1-5-3.35c-.06-.16-.13-.32-.2-.49l-.6.22a30,30,0,0,1-16.63,1.18,30.45,30.45,0,0,1-24-27.46C.66,32.89.56,32.52.5,32.16Zm50.13-1.22a19.66,19.66,0,1,0-7.85,15.72,5.38,5.38,0,0,1,.32-6.76c-.1-.14-.21-.28-.31-.43a5.18,5.18,0,0,1-1-3.26A5.35,5.35,0,0,1,47.11,31h3Zm28.65,9H75.73A10.23,10.23,0,0,1,73,39.49,10.93,10.93,0,0,1,65,29c0-3.7,0-7.41,0-11.11V17.4a.76.76,0,0,0-1.27-.51c-.1.09-.2.2-.3.31a7.65,7.65,0,0,0-2,5.13c0,2.22,0,4.44,0,6.65a6.34,6.34,0,0,1-.14,1.38,5.33,5.33,0,0,1-5.24,4.17H47.52a4.87,4.87,0,0,0-.54,0,1.8,1.8,0,0,0-1.63,1.53A1.76,1.76,0,0,0,46.49,38a3.37,3.37,0,0,0,.9.12h5.06v3.56l-.55,0H48.57c-.52,0-1,0-1.55,0a1.78,1.78,0,0,0-.41,3.48,2.65,2.65,0,0,0,.69.07c1.52,0,3,0,4.56,0h.59v3.6H47.7a6.26,6.26,0,0,0-.75,0,1.77,1.77,0,0,0-.33,3.46,2.68,2.68,0,0,0,.74.09h5.07a18.75,18.75,0,0,1,0,3.57h-5a3,3,0,0,0-.79.09,1.73,1.73,0,0,0-1.28,1.67,1.75,1.75,0,0,0,1.2,1.72,3,3,0,0,0,.85.1H71.63a5.59,5.59,0,0,0,3.24-1c1.09-.74,2.2-1.47,3.3-2.2A1.62,1.62,0,0,1,79.28,56Zm-53.69,68c.12-1.1.07-28.19-.06-28.6h-.41c-2.25,0-4.51,0-6.76,0a15.81,15.81,0,0,0-2.82.31,14.3,14.3,0,0,0,2.85,28.3c2.25,0,4.5,0,6.76,0Zm16.24-56.3A23.26,23.26,0,1,1,23.7,8.9a22.05,22.05,0,0,1,18.12,1.51C49.9,14.8,53.92,21.8,54.34,31c.51,0,1,0,1.51,0a1.85,1.85,0,0,0,2-2.06A28.37,28.37,0,0,0,57,24.05,26.86,26.86,0,1,0,20.61,55.69,26.72,26.72,0,0,0,42,55.41a1.44,1.44,0,0,0,.48-.32,10.85,10.85,0,0,0,.61-.9A5.71,5.71,0,0,1,41.83,51.57Zm41.1,8H93.6V36.36H82.93ZM29.27,79.27v12.5h3.81s.07-.07.08-.1a1.63,1.63,0,0,0,.09-.19,5.28,5.28,0,0,1,5-3.27c2.55,0,5.11,0,7.67,0l.59,0c-.05-.16-.07-.24-.09-.33a12.57,12.57,0,0,0-11.56-8.57c-1.18,0-2.36,0-3.54,0Z"/><path class="cls-1" d="M32.81,47.05H29.25c0-.64,0-1.28,0-1.91V43.25a7.3,7.3,0,0,1-4.45-3.43,6.09,6.09,0,0,1-.86-3.46h3.47c.05.26.09.5.14.74a3.53,3.53,0,0,0,3.37,2.79c1.11,0,2.22,0,3.33,0a2.09,2.09,0,0,0,.28,0s.05,0,.05-.06c0-1.36.08-2.72-.05-4.07a3.44,3.44,0,0,0-3.15-3,14.52,14.52,0,0,1-2.28-.3,7,7,0,0,1-5.2-6.61c-.05-2.37,0-4.75,0-7.13a2.32,2.32,0,0,1,0-.29c1.75,0,3.51,0,5.31,0V15a17,17,0,0,1,3.57-.07v3.77a7.21,7.21,0,0,1,4.47,3.44,6.55,6.55,0,0,1,.9,3.46H34.63L34.54,25a3.46,3.46,0,0,0-3.19-3c-1.23-.08-2.47,0-3.7,0a1,1,0,0,0-.18,0c0,.13,0,.27,0,.41,0,1,0,2,0,3a3.66,3.66,0,0,0,3.66,3.74,7.08,7.08,0,0,1,6.9,5.6,5.9,5.9,0,0,1,.17,1.32c0,2.34,0,4.69,0,7a2.75,2.75,0,0,1,0,.34l-1.74,0H32.81Z"/></g></g></svg>