<svg xmlns="http://www.w3.org/2000/svg" viewBox="0 0 214.91 174.55"><defs><style>.cls-1{fill:#235e2f;}</style></defs><title>img-2</title><g id="Layer_2" data-name="Layer 2"><g id="Layer_1-2" data-name="Layer 1"><path class="cls-1" d="M193.15,85.08c-4.84-1-9.68-1.89-14.51-2.9a2.61,2.61,0,0,0-2.89,1.1C174,85.58,172,87.76,170.18,90c-.78.94-1.5,1.92-2.25,2.88q-1.59,2-3.19,4c-1.09,1.37-2.2,2.72-3.3,4.08-.09.11-.21.21-.31.33-1.8,2.32-3.58,4.65-5.41,7a10.22,10.22,0,0,1-1.62,1.6c-.6.49-1.17.28-1.28-.47-.26-1.83-.45-3.68-.67-5.52-.11-1-.22-1.91-.34-2.87,0-.22-.12-.44-.14-.67-.24-2.44-.46-4.89-.71-7.34-.09-.86-.25-1.7-.35-2.56s-.18-1.81-.3-2.71a23.19,23.19,0,0,0-.46-2.77c-.33-1.27-1.17-1.53-2.23-.76-3.55,2.54-7.09,5.11-10.65,7.65-1.92,1.37-3.89,2.66-5.8,4.06-2.86,2.1-5.67,4.28-8.53,6.39-1.25.93-2.58,1.73-3.83,2.64-3.08,2.24-6.13,4.53-9.21,6.76-1.58,1.15-3.22,2.23-4.82,3.35-2.08,1.46-4.17,2.91-6.22,4.42-2.82,2.08-5.58,4.23-8.41,6.29-1.52,1.11-3.13,2.09-4.67,3.16A4.15,4.15,0,0,0,84.42,130a1.46,1.46,0,0,0,.46,2.12c1.48,1.23,2.88,2.54,4.39,3.74s3,2.23,4.49,3.34c.33.24.64.5,1,.73.64.46,1.3.89,1.93,1.35s1,.75,1.51,1.14c.26.2.49.44.77.62,1.13.73,2.24,1.48,3.41,2.14,2.14,1.22,4.31,2.38,6.46,3.56.47.26.91.55,1.38.8,1.1.57,2.21,1.13,3.32,1.68l1.91,1c1.08.54,2.15,1.14,3.26,1.61,1.38.59,1.65,1.28.84,2.53a6.46,6.46,0,0,1-.8,1,1.62,1.62,0,0,1-2.26.25c-1.14-.64-2.34-1.18-3.52-1.77,0,0-.1,0-.14-.05l-7.14-3.87c-.58-.31-1.15-.65-1.71-1l-2.76-1.59c-.39-.23-.77-.49-1.16-.73-1-.57-1.94-1.11-2.87-1.71-1.92-1.24-3.84-2.47-5.69-3.79-1.32-.94-2.53-2-3.78-3s-2.48-2-3.69-3-2.19-1.95-3.28-2.93c-.78-.69-1.16-.75-2-.13-2.67,1.94-5.31,3.92-8,5.86-1.55,1.11-3.15,2.15-4.71,3.25-4.44,3.14-8.88,6.27-13.28,9.46-3,2.19-6,4.49-9,6.71-.94.7-1.95,1.28-2.9,2-1.46,1.05-2.86,2.19-4.34,3.21-3.86,2.68-7.73,5.35-11.63,8a7.87,7.87,0,0,1-2.59,1.08c-1.93.44-3.75,1.26-5.86,1.09a26.84,26.84,0,0,1-6.23-1.35,3.54,3.54,0,0,1-1-.43,25.23,25.23,0,0,1-5.86-5.25,22.62,22.62,0,0,1-3.26-7.57,7.34,7.34,0,0,1-.1-2.05c0-1.06,0-2.13.08-3.19a3.51,3.51,0,0,1,.19-1.12c.42-1.17.82-2.36,1.35-3.48a18.39,18.39,0,0,1,1.48-2.27c.16-.23.38-.41.53-.64a16.59,16.59,0,0,1,5-4.92c2.61-1.71,5.28-3.33,8-4.95,2.08-1.27,4.21-2.45,6.29-3.71,3.27-2,6.51-4,9.78-6,2.56-1.55,5.17-3,7.73-4.57,1.53-.91,3-1.91,4.52-2.84,4.45-2.69,8.92-5.36,13.37-8,.83-.5,1.64-1,2.42-1.6a1.69,1.69,0,0,0,.61-2.34c-1.07-2.38-2.19-4.74-3.2-7.15-.63-1.49-1.09-3-1.6-4.58S55.46,93.23,55,91.59c-.49-1.83-.9-3.7-1.27-5.56-.43-2.14-.78-4.29-1.16-6.44q-.17-.95-.27-1.89c-.11-1.06-.21-2.12-.29-3.18s-.12-2-.16-3c0-1.45-.73-1.85-2-1.21s-2.63,1.22-3.92,1.87c-.67.34-1.29.8-2,1.19-1.08.66-2.18,1.3-3.27,1.95a5.73,5.73,0,0,1-.59.35,2.32,2.32,0,0,1-3.27-2.15,1.57,1.57,0,0,1,.84-1.44c2.66-1.53,5.3-3.1,8-4.57a31.49,31.49,0,0,1,3.9-1.7,2.86,2.86,0,0,0,2.16-3c0-1.55-.12-3.1-.1-4.64A28.38,28.38,0,0,1,51.9,55c.25-2,.55-4,.82-6,.06-.46.08-.91.12-1.37.11-1.23.1-2.48.33-3.69,1.09-5.72,2.24-11.43,3.37-17.14.07-.35.14-.7.22-1.05A2,2,0,0,1,59.19,24c1.46.13,2.21,1.05,1.78,2.45-1.59,5.14-2.32,10.47-3.36,15.73-.58,3-.79,6-1.09,9s-.48,6.22-.78,9.32c-.19,2,.4,2.69,2.44,2.46a2.5,2.5,0,0,0,1-.28,6.41,6.41,0,0,1,3-.72c.56,0,1.1-.21,1.65-.31s1.39-.23,2.1-.31a16.55,16.55,0,0,0,2.12-.22,16.51,16.51,0,0,1,5.15-.28,9.36,9.36,0,0,0,2,0c2.35-.35,4.65.13,7,.32a98.41,98.41,0,0,1,12.45,2.26c3.51.75,6.95,1.88,10.4,2.93a13.37,13.37,0,0,1,2.65,1.32,1.41,1.41,0,0,1,.69,1.89,6,6,0,0,1-.65,1.2,1.44,1.44,0,0,1-1.88.52c-2-.7-4-1.37-6-2-2.23-.75-4.43-1.63-6.7-2.19-2.58-.63-5.15-1.47-7.87-1.28a1.72,1.72,0,0,1-.6,0c-2.83-.76-5.76-.38-8.63-.74a21.34,21.34,0,0,0-3.57.08c-.78,0-1.57.06-2.35.14-1,.11-2,.25-3,.39a4.81,4.81,0,0,1-.9.19c-2.14-.11-4.16.62-6.22,1a19.73,19.73,0,0,0-3.31,1.09,1.28,1.28,0,0,0-.78,1.44c.27,2.67.56,5.34.84,8,0,.2.07.4.08.6a48.93,48.93,0,0,0,1.4,8.24c.42,1.9.84,3.81,1.37,5.69.44,1.6,1,3.18,1.56,4.74.84,2.29,1.72,4.56,2.62,6.82.37.92.79,1.81,1.25,2.69a1.36,1.36,0,0,0,2.06.62c1.39-.74,2.74-1.55,4.08-2.36,1.61-1,3.21-2,4.8-3,2.59-1.61,5.14-3.28,7.75-4.85s5.17-2.93,7.72-4.44c1.51-.89,2.95-1.91,4.43-2.83q5.17-3.23,10.38-6.4c1.92-1.18,3.88-2.31,5.81-3.49,3.62-2.2,7.22-4.43,10.85-6.62,3.44-2.07,6.91-4.09,10.36-6.14a6.3,6.3,0,0,0,.76-.51,1.18,1.18,0,0,0,.27-1.8,5.92,5.92,0,0,0-1.19-1c-1.92-1.41-3.85-2.8-5.79-4.19-.29-.21-.59-.4-.89-.58s-.52-.22-.75-.38L121,54.78c-.39-.28-.8-.53-1.19-.82-.74-.53-1.45-1.1-2.2-1.61-.58-.4-1.24-.7-1.81-1.11A5.71,5.71,0,0,1,114.46,50a1.12,1.12,0,0,1,.67-1.81c2.5-.76,5-1.47,7.5-2.25,1.64-.52,3.25-1.12,4.88-1.67.93-.31,1.88-.59,2.82-.88,1.43-.44,2.86-.86,4.28-1.32.7-.22,1.38-.48,2.06-.73.12,0,.23-.12.35-.15,2.6-.76,5.2-1.54,7.81-2.25A3.75,3.75,0,0,0,148,35.31c0-.33.1-.65.16-1q2.76-13.84,5.5-27.69c.15-.72.21-1.47.41-2.17a1.22,1.22,0,0,1,.69-.79,1.22,1.22,0,0,1,1,.39c1,1.17,2,2.38,2.94,3.59q3,3.77,5.92,7.54,2,2.49,3.9,5c2.16,2.77,4.32,5.52,6.45,8.3a3.07,3.07,0,0,0,3.1,1.3c2.74-.33,5.5-.46,8.25-.76,2.18-.24,4.36-.6,6.53-.9l2.48-.36,3-.42c.1,0,.2-.07.3-.08,2.54-.26,5.08-.5,7.62-.78q3.09-.33,6.18-.77c.41-.06.8-.4,1.21-.43a1.66,1.66,0,0,1,1.22.29c.22.26.08.82.1,1.25,0,.05,0,.1-.07.14l-3.61,5.45c-.07.1-.17.2-.23.3l-3.26,5.49L206.65,40c-.51.87-1,1.75-1.54,2.62-1,1.7-2.1,3.4-3.15,5.09-.48.78-1,1.54-1.45,2.32-.37.58-.73,1.16-1.09,1.74s-.78,1.3-1.19,2A16,16,0,0,1,197,55.5a2.26,2.26,0,0,0-.51,2.47c.76,1.83,1.59,3.62,2.39,5.43.51,1.16,1,2.33,1.53,3.49.33.74.71,1.45,1,2.19,1.1,2.37,2.2,4.74,3.28,7.12s2,4.55,3.05,6.8c.49,1.08,1.16,2.09,1.61,3.19a2.41,2.41,0,0,1,0,1.63c-.09.23-.81.38-1.2.3-5-1-10-2-15-3ZM153.72,27.47h.08c-.82,4.15-1.65,8.29-2.46,12.43-.14.7-.34,1.36-1.09,1.62-1.32.45-2.64.9-4,1.32s-2.63.76-3.93,1.19c-1.51.5-3,1.12-4.5,1.59-2.63.83-5.29,1.57-7.94,2.38-1.86.56-3.72,1.15-5.56,1.77-.35.12-.8.42-.86.71a1.26,1.26,0,0,0,.45,1c1.69,1.34,3.42,2.61,5.13,3.9.14.1.33.15.48.25l4.77,3.2c.06.05.1.12.16.16l5.26,3.82c.89.66,1.81,1.31,2.64,2.05.6.54.46,1.13-.25,1.55-1.37.78-2.74,1.55-4.1,2.34-3,1.78-6.1,3.55-9.12,5.38-3.39,2-6.75,4.14-10.12,6.22L109.64,86c-2,1.25-4,2.52-6.1,3.75-2.67,1.61-5.37,3.18-8.05,4.78-2.33,1.4-4.64,2.83-7,4.23-3,1.85-6.09,3.67-9.12,5.53-1.5.91-3,1.9-4.44,2.82-1.94,1.2-3.93,2.34-5.85,3.57a1.49,1.49,0,0,0-.41,2.22c1.73,2.47,3.44,5,5.26,7.37,1.42,1.88,3,3.65,4.5,5.47a2.36,2.36,0,0,0,3.19.64c1.31-.86,2.64-1.72,3.91-2.64,2.85-2.08,5.67-4.2,8.51-6.29,2-1.48,4-2.94,6-4.4,2.4-1.75,4.79-3.51,7.21-5.24q3.41-2.44,6.84-4.84c1.27-.88,2.6-1.68,3.85-2.6,3-2.19,5.86-4.44,8.82-6.63,2.08-1.54,4.21-3,6.33-4.5,1.42-1,2.87-1.93,4.26-2.94q4.47-3.24,8.91-6.54c1.66-1.23,3.31-2.5,5-3.77a1.18,1.18,0,0,1,2,.68,16.59,16.59,0,0,1,.33,2.56c.12,1.08.24,2.16.37,3.24.07.58.16,1.16.21,1.74.22,2.45.42,4.9.62,7.35a.87.87,0,0,0,0,.22,14.26,14.26,0,0,1,.59,4.2,9.94,9.94,0,0,0,.74,2.93c.32.8,1,.82,1.54.14.8-1,1.54-2.14,2.34-3.18,1.09-1.4,2.22-2.77,3.32-4.15s2.19-2.72,3.28-4.09,2.1-2.59,3.14-3.9,2.37-2.85,3.43-4.35c.93-1.31,1.68-1.75,3.27-1.48.85.14,1.7.33,2.55.5,7.17,1.46,14.35,2.93,21.53,4.36.45.09,1.19,0,1.38-.27a1.92,1.92,0,0,0,.12-1.56c-.75-1.83-1.61-3.61-2.45-5.4-.91-2-1.88-3.88-2.76-5.85-1.76-3.88-3.46-7.79-5.21-11.68a2.27,2.27,0,0,1,.25-2.35c1.28-2,2.48-4,3.7-6L199,44c.05-.09.12-.16.18-.25.46-.72.94-1.44,1.38-2.18,1-1.74,2-3.49,3.07-5.23.14-.24.4-.4.54-.64.69-1.18,1.43-2.34,2-3.57.36-.74,0-1.24-.81-1.19-1.41.07-2.83.21-4.24.38-2.32.28-4.63.61-6.94.92-.15,0-.3,0-.46,0l-3.17.33c-.65.08-1.3.2-2,.28l-3.09.37-2.34.27-6.58.79a2.46,2.46,0,0,0-.51.15,1.7,1.7,0,0,1-2.07-.48c-1.68-2-3.37-3.94-5-6s-3.34-4.35-5-6.51c-1.47-1.88-3-3.73-4.44-5.61a14.41,14.41,0,0,0-1.1-1.55,2.27,2.27,0,0,0-1.39-.68c-.27,0-.57.64-.83,1a.88.88,0,0,0-.1.37Q155,21.26,153.72,27.47ZM4.29,154.87a5.53,5.53,0,0,0,.06,3.46,6,6,0,0,1,.16,1.06,12.11,12.11,0,0,0,2,5,19.94,19.94,0,0,0,2.14,2.55A11.27,11.27,0,0,0,14.29,170a8.36,8.36,0,0,0,2.34.25,14.8,14.8,0,0,0,8.09-2.79c3.34-2.31,6.6-4.73,9.89-7.11,2.52-1.81,5-3.61,7.54-5.43l7.64-5.54c.7-.5,1.44-1,2.14-1.46l9.66-7c2-1.43,4-2.83,5.94-4.26,2.62-1.89,5.21-3.8,7.82-5.7,1-.72,1.06-1.42.24-2.2a72.4,72.4,0,0,1-7.43-9c-1.19-1.54-2.14-3.27-3.24-4.89-.67-1-1.15-1.08-2.18-.48-.86.5-1.66,1.09-2.5,1.6-1.49.92-3,1.79-4.5,2.71-2.45,1.5-4.87,3-7.32,4.52-1.28.78-2.61,1.48-3.89,2.24-1,.61-2,1.28-3,1.9-2.71,1.65-5.44,3.27-8.15,4.92-1.43.87-2.82,1.79-4.26,2.65-2.1,1.26-4.24,2.49-6.35,3.75-1.91,1.14-3.83,2.3-5.73,3.47-1.55,1-3.09,2-4.62,3a26.15,26.15,0,0,0-2.29,1.61c-.78.64-1.5,1.36-2.22,2.07A12,12,0,0,0,4.29,154.87Z"/><path class="cls-1" d="M108.47,5.18c2.77.77,6,1.62,9.16,2.58a30.17,30.17,0,0,1,2.81,1.36c1.14.5,2.33.87,3.48,1.35.72.31,1.39.72,2.08,1.09L128.59,13l.07,0,5.52,3.61.23.2c1.45,1.05,2.94,2.05,4.36,3.15a46.68,46.68,0,0,1,3.64,3.11,1.81,1.81,0,0,1,.25,2.76,2.36,2.36,0,0,1-3.4.41c-1.14-1-2.23-2-3.36-3.05-.36-.32-.78-.58-1.16-.87s-1-.81-1.56-1.21-1-.7-1.48-1a5.52,5.52,0,0,1-.8-.44c-1.17-1.13-2.69-1.7-4-2.59a56.34,56.34,0,0,0-9.08-4.57c-1.89-.85-3.89-1.45-5.86-2.12a12.49,12.49,0,0,0-1.64-.3l-7.47-1.54a11.31,11.31,0,0,0-1.65-.24c-1.95-.1-3.9-.17-5.85-.25a1.08,1.08,0,0,1-1.07-.82c-.52-1.69.29-3.59,2.46-3.47,1.27.06,2.54.12,3.8.28C103,4.36,105.52,4.75,108.47,5.18Z"/><path class="cls-1" d="M148.2,160a8,8,0,0,1-1.16-1c-1.75-2.17-3.46-4.38-5.2-6.56a1.63,1.63,0,0,0-2.47-.33c-2,1.44-3.93,2.88-5.88,4.34a2,2,0,0,1-2.32.4,2.74,2.74,0,0,1-1.41-2.31,1.82,1.82,0,0,1,.65-1.35c1.79-1.33,3.64-2.6,5.51-3.81,1.68-1.1,1.82-2.09.51-3.62s-2.53-3.05-3.72-4.64c-.86-1.16-.7-1.82.49-2.67.25-.18.5-.36.75-.52a1.22,1.22,0,0,1,1.82.24c1.54,1.85,3.07,3.72,4.56,5.61.91,1.14,1.36,1.29,2.56.51,2.43-1.58,4.83-3.19,7.23-4.81a2.56,2.56,0,0,1,2-.6,3.08,3.08,0,0,1,1.92,2.73,1.77,1.77,0,0,1-.68.94c-2.49,1.71-5,3.38-7.52,5.07a1.38,1.38,0,0,0-.45,2.21c1.23,1.65,2.53,3.24,3.8,4.85.59.76,1.18,1.53,1.76,2.3a1.38,1.38,0,0,1-.08,1.88A3,3,0,0,1,148.2,160Z"/><path class="cls-1" d="M30.82,102.17a5.88,5.88,0,0,1-1.11-.84c-1.44-1.74-2.85-3.51-4.25-5.27-.37-.46-.7-.94-1-1.42a1.45,1.45,0,0,0-2.33-.47C20,95.57,18,97,16,98.41c-1.68,1.15-2.71.84-3.57-1A1.7,1.7,0,0,1,13,95.18c2.06-1.45,4.11-2.89,6.15-4.36a1.59,1.59,0,0,0,.2-2.56c-1.4-1.6-2.76-3.24-4.1-4.89A1.76,1.76,0,0,1,15,81.3a2.5,2.5,0,0,1,2-1.58,1.69,1.69,0,0,1,1.51.72c1.49,1.93,3,3.84,4.52,5.75a1.56,1.56,0,0,0,2.5.34c.84-.61,1.61-1.31,2.43-2,.66-.51,1.35-1,2-1.46.94-.66,1.87-1.32,2.83-1.93a1.67,1.67,0,0,1,2.67.54,7.36,7.36,0,0,1,.54.83,1.58,1.58,0,0,1-.36,2Q32.88,86.57,30,88.59c-.54.38-1.13.68-1.68,1-1,.64-1.1,1.15-.54,2.18a8.75,8.75,0,0,0,.87,1.25c1.48,1.83,3,3.63,4.46,5.5,1.1,1.44,1,1.56-.32,2.81A2.19,2.19,0,0,1,30.82,102.17Z"/><path class="cls-1" d="M62.81,16.47a4,4,0,0,1,.69-.95c2-1.44,3.93-2.88,6-4.25,1.28-.87,1.49-1.68.52-2.87-1.37-1.66-2.76-3.31-4.15-5A1.85,1.85,0,0,1,66.31.67,3.68,3.68,0,0,1,67.83,0,1.53,1.53,0,0,1,69,.44c1,1.15,1.9,2.38,2.84,3.58.66.84,1.31,1.69,2,2.49s1.41.75,2.28.12c1.61-1.19,3.27-2.31,4.92-3.46L83.74,1.3a1.55,1.55,0,0,1,2.38.37,7.16,7.16,0,0,1,.57.9,1.52,1.52,0,0,1-.45,2.22c-.77.58-1.61,1.07-2.39,1.64-1.12.82-2.22,1.69-3.34,2.52-.43.32-.9.57-1.34.86a1.76,1.76,0,0,0-.37,2.8c1.47,1.72,2.89,3.48,4.33,5.21.35.41.73.78,1.07,1.19a1.2,1.2,0,0,1-.06,1.88c-.43.43-.9.82-1.35,1.23a1,1,0,0,1-1.62,0c-1-1.05-1.87-2.13-2.78-3.22-1.28-1.55-2.52-3.12-3.79-4.67a1.19,1.19,0,0,0-1.77-.13c-1.11.81-2.16,1.7-3.28,2.49S67,18.27,65.72,19.05a1.21,1.21,0,0,1-1.89-.45C63.4,18,62.63,17.48,62.81,16.47Z"/><path class="cls-1" d="M149,131.38c-.14,1.05-1.24,1.65-2.66,1.5-1-.11-1.49-.66-1.47-1.84,0-2.74.11-5.47.12-8.21a13.8,13.8,0,0,0-.25-2.11c-.11-.7-.28-1.39-.33-2.09a19.6,19.6,0,0,0-1.49-5.49c-.46-1.15-.9-2.31-1.46-3.42-.74-1.44-1.53-2.86-2.39-4.23s-.49-2.29,1-3.22c1-.6,2-.25,2.64.91,1,1.78,2.08,3.55,3.07,5.34a11.39,11.39,0,0,1,.86,2.11c.59,1.8,1.54,3.49,1.58,5.45a1.93,1.93,0,0,0,.07.53,32.08,32.08,0,0,1,1,10.91C149.18,128.8,149.06,130.09,149,131.38Z"/></g></g></svg>