<svg xmlns="http://www.w3.org/2000/svg" xmlns:xlink="http://www.w3.org/1999/xlink" viewBox="0 0 391.19 367.76"><defs><style>.cls-1{fill:#00a2fa;}.cls-2{fill:#ff4d41;}.cls-3{fill:#e8332e;}.cls-4{fill:#fff;}.cls-5{fill:#3660a3;}.cls-6{fill:#224d8c;}.cls-7{fill:#ffc348;}.cls-8{fill:#eaaa39;}.cls-9{fill:#ffebc7;}.cls-10{fill:#e5322e;}.cls-11{fill:#00b0f3;}.cls-12{fill:#1353a0;}.cls-13{fill:url(#linear-gradient);}.cls-14{fill:#755926;}.cls-15{fill:#4f3912;}.cls-16{fill:#e2f1fd;}.cls-17{fill:#ffbea5;}.cls-18{fill:#f9b5a0;}.cls-19{fill:#efa68f;}.cls-20{fill:#e9ba9c;}.cls-21{fill:#fcd8c9;}.cls-22{fill:#471544;}.cls-23{fill:#f7b09a;}.cls-24{fill:#ffefe9;opacity:0.6;}.cls-25{opacity:0.1;}.cls-26{fill:#ffa031;}.cls-27{fill:#ffbe45;}.cls-28{fill:#ffcf83;}.cls-29{fill:#f2f2f2;}.cls-30{fill:#d7edf9;}.cls-31{fill:#1f8ddf;}.cls-32{fill:url(#radial-gradient);}.cls-33{fill:#020202;}</style><linearGradient id="linear-gradient" x1="-313.31" y1="-297.04" x2="-313.31" y2="-351" gradientTransform="translate(622.53 355.3)" gradientUnits="userSpaceOnUse"><stop offset="0" stop-color="#ffd38b"/><stop offset="0.48" stop-color="#e248a7"/><stop offset="1" stop-color="#7461c7"/></linearGradient><radialGradient id="radial-gradient" cx="51.7" cy="179.73" r="68.76" gradientTransform="translate(-21.3 -26.35)" gradientUnits="userSpaceOnUse"><stop offset="0.09" stop-color="#faf707"/><stop offset="0.73" stop-color="#fffc00"/></radialGradient></defs><title>img-10</title><g id="Layer_2" data-name="Layer 2"><g id="Layer_1-2" data-name="Layer 1"><path class="cls-1" d="M307.93,275.69a13.57,13.57,0,1,1,9.65,3.83A13.47,13.47,0,0,1,307.93,275.69Zm15.12-15.6a8.16,8.16,0,1,0,2.48,5.73A8.09,8.09,0,0,0,323.05,260.09Z"/><path class="cls-1" d="M293.09,291.91h0a2.81,2.81,0,0,1-.13-4l14.45-15.45a2.81,2.81,0,0,1,4-.13h0a2.81,2.81,0,0,1,.13,4l-14.46,15.45A2.8,2.8,0,0,1,293.09,291.91Z"/><path class="cls-1" d="M111.21,178.73h0a3.65,3.65,0,0,0-5,1.45l-9.33,17.09-6.54-3.57a3.65,3.65,0,0,0-4.95,1.46h0a3.64,3.64,0,0,0,1.45,5l12.86,7h0l.08,0,12.83-23.49A3.64,3.64,0,0,0,111.21,178.73Z"/><circle class="cls-2" cx="330.25" cy="118.4" r="15.1" transform="translate(112.26 393.29) rotate(-71.31)"/><rect class="cls-3" x="323.91" y="117.83" width="3.24" height="9.72" transform="translate(-22.24 131.46) rotate(-22.1)"/><path class="cls-3" d="M327.34,117.33h0a24.94,24.94,0,0,1,1-4.17c.48-1.13-.11-3.06-.27-3.53a.14.14,0,0,1,.07-.16h0a1.72,1.72,0,0,1,2.23,1l1.45,3.57,3.13-1.27a2,2,0,0,1,2.63,1.11l2.45,6a2,2,0,0,1-1.11,2.63l-8.14,3.3a.83.83,0,0,1-1.08-.46l-2.81-6.93A.82.82,0,0,1,327.34,117.33Z"/><rect class="cls-4" x="323.1" y="117.05" width="3.24" height="9.72" transform="translate(-22.01 131.1) rotate(-22.1)"/><path class="cls-4" d="M326.54,116.56h0a24.71,24.71,0,0,1,1-4.17c.48-1.14-.12-3.06-.28-3.54a.12.12,0,0,1,.08-.15h0a1.7,1.7,0,0,1,2.22.94l1.45,3.58,3.14-1.28a2,2,0,0,1,2.63,1.11l2.45,6a2,2,0,0,1-1.11,2.62L330,125a.83.83,0,0,1-1.08-.46l-2.82-6.93A.83.83,0,0,1,326.54,116.56Z"/><circle class="cls-5" cx="160.18" cy="75.86" r="9.81" transform="translate(77.36 232.56) rotate(-87.48)"/><rect class="cls-6" x="155.45" y="70.8" width="2.11" height="6.32" transform="translate(105.51 -91.46) rotate(47.57)"/><path class="cls-6" d="M160.18,73.85h0a16.44,16.44,0,0,1,2.76-.33,4,4,0,0,0,2.09-1,.09.09,0,0,1,.11,0h0a1.12,1.12,0,0,1-.07,1.57l-1.85,1.69,1.48,1.63a1.31,1.31,0,0,1-.08,1.85l-3.13,2.85a1.31,1.31,0,0,1-1.85-.08l-3.85-4.21a.55.55,0,0,1,0-.77l3.58-3.27A.55.55,0,0,1,160.18,73.85Z"/><rect class="cls-4" x="155.74" y="70.13" width="2.11" height="6.32" transform="translate(105.11 -91.89) rotate(47.57)"/><path class="cls-4" d="M160.47,73.19h0a16.11,16.11,0,0,1,2.76-.34,3.88,3.88,0,0,0,2.09-1,.08.08,0,0,1,.11,0h0a1.12,1.12,0,0,1-.07,1.57l-1.85,1.69L165,76.78a1.31,1.31,0,0,1-.08,1.85l-3.13,2.86a1.31,1.31,0,0,1-1.85-.08l-3.85-4.22a.54.54,0,0,1,0-.76l3.58-3.28A.55.55,0,0,1,160.47,73.19Z"/><path class="cls-5" d="M70,272.35a9.81,9.81,0,1,1-13.86.48A9.81,9.81,0,0,1,70,272.35Z"/><rect class="cls-6" x="60.65" y="280.18" width="2.11" height="6.32" transform="translate(-187.55 135.16) rotate(-46.98)"/><path class="cls-6" d="M61.31,279.68h0a16,16,0,0,1-.55-2.73,3.94,3.94,0,0,0-1.13-2,.08.08,0,0,1,0-.11h0a1.11,1.11,0,0,1,1.57-.06L63,276.49l1.5-1.61a1.32,1.32,0,0,1,1.85-.06l3.09,2.89a1.31,1.31,0,0,1,.07,1.85l-3.9,4.17a.54.54,0,0,1-.76,0l-3.55-3.31A.55.55,0,0,1,61.31,279.68Z"/><rect class="cls-4" x="59.97" y="279.94" width="2.11" height="6.32" transform="translate(-187.6 134.58) rotate(-46.98)"/><path class="cls-4" d="M60.63,279.45h0a16.22,16.22,0,0,1-.55-2.73,4,4,0,0,0-1.13-2,.08.08,0,0,1,0-.11h0a1.11,1.11,0,0,1,1.57-.05l1.83,1.71,1.5-1.61a1.31,1.31,0,0,1,1.85-.07l3.1,2.89a1.3,1.3,0,0,1,.06,1.85L65,283.5a.53.53,0,0,1-.76,0l-3.56-3.31A.54.54,0,0,1,60.63,279.45Z"/><path class="cls-5" d="M383.83,225.9a8.37,8.37,0,1,1-4.47-11A8.37,8.37,0,0,1,383.83,225.9Z"/><rect class="cls-6" x="371.69" y="219.8" width="1.8" height="5.39" transform="translate(115.41 -127.06) rotate(22.81)"/><path class="cls-6" d="M375.39,221.1h0a14,14,0,0,1,2-1.25,3.37,3.37,0,0,0,1.27-1.49.07.07,0,0,1,.09,0h0a1,1,0,0,1,.51,1.24l-.83,2,1.73.73a1.11,1.11,0,0,1,.59,1.46l-1.4,3.33a1.11,1.11,0,0,1-1.46.6l-4.49-1.89a.46.46,0,0,1-.25-.6l1.61-3.82A.46.46,0,0,1,375.39,221.1Z"/><rect class="cls-4" x="371.67" y="219.18" width="1.8" height="5.39" transform="translate(115.17 -127.1) rotate(22.81)"/><path class="cls-4" d="M375.38,220.48h0a14,14,0,0,1,2-1.25c.63-.25,1.15-1.24,1.27-1.49a.07.07,0,0,1,.09,0h0a.94.94,0,0,1,.5,1.24l-.82,2,1.73.73a1.12,1.12,0,0,1,.59,1.46l-1.4,3.33a1.11,1.11,0,0,1-1.46.6l-4.49-1.89a.46.46,0,0,1-.25-.6l1.61-3.82A.46.46,0,0,1,375.38,220.48Z"/><path class="cls-2" d="M57.48,41.31a10.39,10.39,0,1,1-6.88-13A10.39,10.39,0,0,1,57.48,41.31Z"/><rect class="cls-3" x="42.05" y="35.15" width="2.23" height="6.69" transform="translate(13.22 -10.99) rotate(17.09)"/><path class="cls-3" d="M46.47,36.43h0a16.52,16.52,0,0,1,2.34-1.79,4.19,4.19,0,0,0,1.39-2,.09.09,0,0,1,.11-.05h0a1.16,1.16,0,0,1,.77,1.47l-.78,2.54,2.23.69A1.39,1.39,0,0,1,53.45,39L52.13,43.3a1.39,1.39,0,0,1-1.73.92l-5.78-1.78a.57.57,0,0,1-.38-.71l1.51-4.92A.57.57,0,0,1,46.47,36.43Z"/><rect class="cls-4" x="41.96" y="34.39" width="2.23" height="6.69" transform="translate(12.99 -10.99) rotate(17.09)"/><path class="cls-4" d="M46.37,35.67h0a17.45,17.45,0,0,1,2.35-1.8,4.12,4.12,0,0,0,1.39-2,.08.08,0,0,1,.1-.05h0A1.17,1.17,0,0,1,51,33.29l-.78,2.54,2.23.68a1.4,1.4,0,0,1,.92,1.74L52,42.54a1.4,1.4,0,0,1-1.74.92l-5.77-1.78a.56.56,0,0,1-.38-.72L45.66,36A.56.56,0,0,1,46.37,35.67Z"/><circle class="cls-2" cx="349.85" cy="321" r="10.39" transform="translate(-120.85 258.7) rotate(-35)"/><rect class="cls-3" x="345.94" y="321.04" width="2.23" height="6.69" transform="translate(-116.11 218.79) rotate(-30.22)"/><path class="cls-3" d="M347.77,320.56h0a16.8,16.8,0,0,1,.27-2.94,4.14,4.14,0,0,0-.53-2.38.08.08,0,0,1,0-.11h0a1.17,1.17,0,0,1,1.61.43l1.34,2.29,2-1.17a1.38,1.38,0,0,1,1.9.5l2.26,3.87a1.39,1.39,0,0,1-.5,1.9l-5.23,3a.57.57,0,0,1-.78-.2l-2.59-4.45A.56.56,0,0,1,347.77,320.56Z"/><rect class="cls-4" x="345.31" y="320.59" width="2.23" height="6.69" transform="matrix(0.86, -0.5, 0.5, 0.86, -115.97, 218.42)"/><path class="cls-4" d="M347.15,320.11h0a16.8,16.8,0,0,1,.27-2.94,4.31,4.31,0,0,0-.53-2.38.08.08,0,0,1,0-.11h0a1.17,1.17,0,0,1,1.61.43l1.34,2.29,2-1.17a1.39,1.39,0,0,1,1.9.5L356,320.6a1.39,1.39,0,0,1-.5,1.9l-5.23,3.05a.58.58,0,0,1-.78-.21l-2.59-4.45A.56.56,0,0,1,347.15,320.11Z"/><ellipse class="cls-7" cx="113.11" cy="107.02" rx="25" ry="16.43" transform="translate(-23.18 31.71) rotate(-14.49)"/><polygon class="cls-7" points="101.15 120.13 97.38 140.3 112.3 120.51 101.15 120.13"/><path class="cls-8" d="M106.89,109.06a4.23,4.23,0,1,1-5.15-3A4.23,4.23,0,0,1,106.89,109.06Z"/><path class="cls-8" d="M118.29,106.12a4.22,4.22,0,1,1-5.15-3A4.21,4.21,0,0,1,118.29,106.12Z"/><path class="cls-8" d="M129.7,103.17a4.23,4.23,0,1,1-5.15-3A4.24,4.24,0,0,1,129.7,103.17Z"/><path class="cls-9" d="M106.37,108.76a4.22,4.22,0,1,1-5.14-3A4.22,4.22,0,0,1,106.37,108.76Z"/><path class="cls-9" d="M117.78,105.81a4.23,4.23,0,1,1-5.15-3A4.23,4.23,0,0,1,117.78,105.81Z"/><path class="cls-9" d="M129.18,102.87a4.22,4.22,0,1,1-5.15-3A4.22,4.22,0,0,1,129.18,102.87Z"/><ellipse class="cls-7" cx="374.7" cy="270.82" rx="12.93" ry="19.67" transform="translate(-83.33 333.65) rotate(-43.67)"/><polygon class="cls-7" points="361.11 267.63 345.8 272.78 365.13 275.44 361.11 267.63"/><path class="cls-8" d="M370.91,267.33a3.32,3.32,0,1,1,.11-4.7A3.32,3.32,0,0,1,370.91,267.33Z"/><path class="cls-8" d="M377.31,274a3.32,3.32,0,1,1,.11-4.69A3.33,3.33,0,0,1,377.31,274Z"/><path class="cls-8" d="M383.71,280.74a3.32,3.32,0,1,1,.11-4.7A3.32,3.32,0,0,1,383.71,280.74Z"/><path class="cls-9" d="M370.92,266.86a3.32,3.32,0,1,1,.11-4.7A3.32,3.32,0,0,1,370.92,266.86Z"/><path class="cls-9" d="M377.32,273.56a3.32,3.32,0,1,1,.11-4.7A3.32,3.32,0,0,1,377.32,273.56Z"/><path class="cls-9" d="M383.72,280.27a3.32,3.32,0,1,1,.11-4.7A3.33,3.33,0,0,1,383.72,280.27Z"/><circle class="cls-2" cx="97.38" cy="159.29" r="8.02" transform="translate(-70.66 240.66) rotate(-84.4)"/><path class="cls-10" d="M102.2,160.39a2.55,2.55,0,0,0-2.1-3.55,2.58,2.58,0,0,0-1.73.53,2.64,2.64,0,0,0-.93-1.55A2.54,2.54,0,0,0,93.51,157c-.74,1.68.52,4.13,2,6.42a.8.8,0,0,0,.88.34C99,163.1,101.62,162.13,102.2,160.39Z"/><path class="cls-4" d="M102.1,160a2.54,2.54,0,0,0-2.1-3.54,2.66,2.66,0,0,0-1.73.52,2.6,2.6,0,0,0-.93-1.54,2.53,2.53,0,0,0-3.93,1.21c-.74,1.68.52,4.13,2,6.42a.8.8,0,0,0,.88.34C98.94,162.72,101.52,161.75,102.1,160Z"/><circle class="cls-2" cx="275.63" cy="301.32" r="7.05" transform="translate(-38.61 40.51) rotate(-7.86)"/><path class="cls-10" d="M279.63,299.62a2.23,2.23,0,0,0-3.32-1.44,2.29,2.29,0,0,0-1,1.26,2.34,2.34,0,0,0-1.46-.62,2.23,2.23,0,0,0-2.18,2.89c.34,1.58,2.5,2.67,4.74,3.54a.7.7,0,0,0,.8-.22C278.78,303.18,280.11,301.16,279.63,299.62Z"/><path class="cls-4" d="M279.37,299.4A2.24,2.24,0,0,0,276,298a2.31,2.31,0,0,0-1,1.26,2.2,2.2,0,0,0-3.63,2.27c.34,1.57,2.5,2.67,4.74,3.53a.7.7,0,0,0,.8-.21C278.51,303,279.85,300.94,279.37,299.4Z"/><circle class="cls-2" cx="269.36" cy="81.83" r="7.05" transform="translate(187.13 351.07) rotate(-89.91)"/><path class="cls-10" d="M273.68,82.3a2.23,2.23,0,0,0-2.2-2.88,2.28,2.28,0,0,0-1.45.63,2.29,2.29,0,0,0-1-1.25,2.23,2.23,0,0,0-3.31,1.45c-.47,1.55.88,3.56,2.41,5.41a.71.71,0,0,0,.8.2C271.2,85,273.35,83.88,273.68,82.3Z"/><path class="cls-4" d="M273.56,82a2.24,2.24,0,0,0-2.2-2.88,2.38,2.38,0,0,0-1.46.63,2.21,2.21,0,0,0-4.28.21c-.47,1.54.88,3.55,2.41,5.4a.73.73,0,0,0,.81.21C271.07,84.67,273.22,83.56,273.56,82Z"/><rect class="cls-11" x="84.91" y="4.39" width="56.39" height="56.39" rx="9.37" transform="translate(-4.6 31.78) rotate(-15.68)"/><path class="cls-4" d="M94.19,37.69s6.37,3.57,11.16-1.8S107.9,24,112.78,19c6.15-6.37,16.68.71,12.3,13.37C119.5,48.43,104.79,50.39,94.19,37.69Z"/><path class="cls-4" d="M123,22.8,129.35,21c.74-.21,1.29.44.83,1l-4.9,5.8Z"/><path class="cls-4" d="M113.38,26.62s-9,2.12-15.32.68a1.27,1.27,0,0,0-1.43,1.76,13.3,13.3,0,0,0,9.72,7.79C115.05,38.43,113.38,26.62,113.38,26.62Z"/><rect class="cls-12" x="295.36" y="164.32" width="51.08" height="51.08" rx="8.49" transform="translate(-46.87 128.48) rotate(-21.14)"/><path class="cls-4" d="M337.74,210.73l-5.6,2.17-11.83-30.62a8.58,8.58,0,0,1,4.9-11.09l5.34-2.06,2.16,5.59-5.33,2.06a2.59,2.59,0,0,0-1.48,3.34Z"/><rect class="cls-4" x="315.92" y="186.48" width="21.4" height="6" transform="translate(-46.35 130.52) rotate(-21.14)"/><path class="cls-13" d="M291.21,4.3h36a9,9,0,0,1,9,9v36a9,9,0,0,1-9,9h-36a9,9,0,0,1-9-9v-36a9,9,0,0,1,9-9Z" transform="translate(9.15 -49.68) rotate(9.32)"/><path class="cls-4" d="M315.75,50.85l-19-3.12a8,8,0,0,1-6.6-9.2l3.12-19a8,8,0,0,1,9.2-6.61l19,3.12a8,8,0,0,1,6.61,9.2l-3.12,19A8,8,0,0,1,315.75,50.85Zm-14-33.67a3.7,3.7,0,0,0-4.25,3l-3.12,19a3.71,3.71,0,0,0,3.05,4.25l19,3.12a3.7,3.7,0,0,0,4.24-3.05l3.12-19a3.69,3.69,0,0,0-3-4.24Z"/><path class="cls-4" d="M307.7,40.43a8.65,8.65,0,1,1,9.94-7.14A8.67,8.67,0,0,1,307.7,40.43Zm2.11-12.83a4.34,4.34,0,1,0,3.58,5A4.35,4.35,0,0,0,309.81,27.6Z"/><path class="cls-4" d="M320.87,24.71a2,2,0,1,1-1.63-2.27A2,2,0,0,1,320.87,24.71Z"/><rect class="cls-2" x="26" y="195.62" width="54.83" height="54.83" rx="9.11" transform="translate(-126.98 81.43) rotate(-38.4)"/><path class="cls-4" d="M37,215.27l24.86-2.89c2.18-.26,4.59,2.78,3.85,4.85l-8.5,23.54c-.61,1.68-2.93,1.45-4.43-.44L36.44,219.69C34.94,217.8,35.25,215.48,37,215.27Z"/><circle class="cls-7" cx="211.62" cy="53.77" r="16.77" transform="translate(58.29 209.22) rotate(-59.65)"/><path class="cls-2" d="M209.51,49.37a2.82,2.82,0,0,0-4.11-2,3,3,0,0,0-1.28,1.53,2.92,2.92,0,0,0-1.8-.87,2.81,2.81,0,0,0-2.92,3.51c.34,2,3,3.53,5.76,4.75a.92.92,0,0,0,1-.22C208.22,53.81,210,51.34,209.51,49.37Z"/><path class="cls-2" d="M221.87,46.8a2.81,2.81,0,0,0-4.1-2,2.93,2.93,0,0,0-1.29,1.53A2.79,2.79,0,0,0,211.76,49c.34,2,3,3.52,5.77,4.75a.91.91,0,0,0,1-.22C220.58,51.24,222.39,48.77,221.87,46.8Z"/><path class="cls-14" d="M204.5,59.89a8.21,8.21,0,0,0,16.08-3.34Z"/><path class="cls-7" d="M381.7,142.25a15.77,15.77,0,1,1-20.26-9.32A15.78,15.78,0,0,1,381.7,142.25Z"/><path class="cls-14" d="M361.15,154.41a7.72,7.72,0,0,0,14.48-5.36Z"/><path class="cls-15" d="M364.47,147.32a.39.39,0,0,1-.5-.23,4.17,4.17,0,0,0-7.83,2.9.38.38,0,0,1-.23.5.38.38,0,0,1-.5-.23,5,5,0,1,1,9.3-3.44A.39.39,0,0,1,364.47,147.32Z"/><path class="cls-15" d="M376.68,142.81a.4.4,0,0,1-.51-.23,4.17,4.17,0,1,0-7.82,2.89.41.41,0,0,1-.23.51.4.4,0,0,1-.51-.24,5,5,0,1,1,9.3-3.44A.4.4,0,0,1,376.68,142.81Z"/><path class="cls-11" d="M356.29,152.09s-7.37,7.54-3.68,9C356.58,162.75,356.29,152.09,356.29,152.09Z"/><path class="cls-11" d="M353.53,149.76s-12.46-4.35-12.2.63C341.6,155.75,353.53,149.76,353.53,149.76Z"/><path class="cls-11" d="M353,145.12s-5.8-8.8-8.05-5.52C342.47,143.14,353,145.12,353,145.12Z"/><path class="cls-11" d="M378.14,144s10.51.92,8.68,4.46C384.86,152.29,378.14,144,378.14,144Z"/><path class="cls-11" d="M378.72,140.43s6.63-11.4,9.68-7.46C391.68,137.23,378.72,140.43,378.72,140.43Z"/><path class="cls-11" d="M376.14,136.54s-1.32-10.46,2.53-9.43C382.81,128.22,376.14,136.54,376.14,136.54Z"/><circle class="cls-7" cx="237.86" cy="310.61" r="13.35" transform="translate(-135.3 193.09) rotate(-35.07)"/><path class="cls-15" d="M233,311.52a.33.33,0,0,1,.14.45,3.53,3.53,0,0,0,6.25,3.29.34.34,0,0,1,.45-.14.33.33,0,0,1,.13.45,4.19,4.19,0,1,1-7.42-3.91A.34.34,0,0,1,233,311.52Z"/><path class="cls-15" d="M236,305.1a2.1,2.1,0,1,1-.88-2.83A2.09,2.09,0,0,1,236,305.1Z"/><path class="cls-15" d="M246.91,310.84A2.1,2.1,0,1,1,246,308,2.11,2.11,0,0,1,246.91,310.84Z"/><path class="cls-16" d="M141.81,361.51s.12.07.16.11a1.62,1.62,0,0,1-.14-.16S141.82,361.49,141.81,361.51Z"/><path class="cls-16" d="M295.33,159.19c-2.22-11.58-19.08-9.43-28.47-7.58-.46.08-.89.17-1.29.26v26.95c.8-.25,1.6-.5,2.4-.77a100.81,100.81,0,0,0,11.11-4.43C285.49,170.62,297,168,295.33,159.19Z"/><path class="cls-16" d="M265.54,256.14s0,0,.07-.05c2.76-2,6.45-1.25,9.12.61,7.43,5.16,6.69,21.64-4,22.23a7.24,7.24,0,0,1-5.23-1.77h0v5.6a9.91,9.91,0,0,1-9.92,9.92H219.47c-1.67,1.66-3.47,3.43-5.38,5.28-13.77,13.38-32.61,30.56-42.1,34.17-16,6.09-26.9,24.87-26.9,24.87l-8.69,10.76H27c4.26-4.5,81.41-85.91,85-93.35,3.23-6.66,3.81-14.87,5-22.08,2.3-14.3,6.56-27.52,11.27-41.19,5-14.58,11.08-29,14.05-44.25.74-3.82,2.25-7.08,3-10.91.48-2.31,1.29-4.19,1.33-6.39a7.8,7.8,0,0,0-.06-1.35c-.07-.53-.13-1.05-.19-1.56,0-.2,0-.4-.07-.6,0-.41-.1-.82-.14-1.22a.17.17,0,0,1,0-.08c-.1-.9-.2-1.75-.29-2.58,0-.14,0-.29,0-.42a1.34,1.34,0,0,1,0-.2c0-.4-.09-.81-.13-1.21s-.05-.51-.08-.76,0-.38,0-.56-.05-.56-.08-.84c0-.07,0-.15,0-.23-.26-2.87-.46-5.56-.67-8.71a5.75,5.75,0,0,1,0-.84,2.3,2.3,0,0,1,0-.26,1.6,1.6,0,0,1,0-.23,1.34,1.34,0,0,1,.07-.27c0-.1.05-.2.08-.3s.14-.34.21-.5.05-.13.08-.18a4.17,4.17,0,0,1,.4-.6l.12-.13c.12-.14.25-.26.38-.39l.18-.15a4.73,4.73,0,0,1,.39-.28L147,125a3.68,3.68,0,0,1,.44-.23l.2-.09a7,7,0,0,1,.69-.24,6.29,6.29,0,0,1,1.38-.19,5.66,5.66,0,0,1,2.26.38c3.29,1.31,5,3.51,7.07,6.18a2.28,2.28,0,0,1,.33.37l-.21-.23.41.52a24.35,24.35,0,0,1,3.87,7.42V100.21a9.92,9.92,0,0,1,9.92-9.92h82.23a9.91,9.91,0,0,1,9.92,9.92v82.31c20.11-2.47,16.08,17.07,14,26.73-1.45,6.78-8.75,8.4-14,5.71v3.86c20.11-2.47,19.68,17.29,15,26-2.7,5-9.26,6.73-15,6.19Z"/><path class="cls-17" d="M226,279.74s-7.07,7.4-16.52,16.59c-13.78,13.39-32.62,30.56-42.11,34.17-16,6.1-26.9,24.87-26.9,24.87l-10,12.39H20.94c15.77-16.69,83.2-88.22,86.47-95s3.81-14.87,5-22.08c2.29-14.3,6.55-27.52,11.26-41.2,5-14.58,11.08-29,14-44.24.75-3.83,2.26-7.09,3.05-10.91.47-2.31,1.28-4.2,1.33-6.39a8.92,8.92,0,0,0-.07-1.35c-1-8-1.36-12.53-1.79-19a4.48,4.48,0,0,1,3.54-4.82,6.09,6.09,0,0,1,3.64.18,11.84,11.84,0,0,1,2.35,1.25c2.09,1.42,3.47,3.36,5.25,5.6,3.26,4.06,4.93,9.84,5.73,15.41a69.81,69.81,0,0,1,.57,13.59c-.38,6.66-2.66,19.23-2.28,27s6.09,22.27,6.34,30.91-2.12,64.54.17,70.63,3.78,1.26,3.78,1.26Z"/><path class="cls-18" d="M226,279.74s-7.06,7.4-16.52,16.6c-15.05-.44-30.5,3.85-44.92-.46-2.7-.81-5.51-2.07-6.88-4.53a12.73,12.73,0,0,1-1.13-5.87q-1.11-34-2.21-68.07c-.18-5.59-.36-11.2-.19-16.79.33-10.92,2.09-21.68,4-32.41,1.27-7.29-3.49-16.05,2-22.31.2-.22.4-.43.61-.63a70.48,70.48,0,0,1,.56,13.59c-.38,6.66-2.67,19.23-2.28,27s6.09,22.27,6.34,30.91-2.11,64.54.17,70.63,3.77,1.26,3.77,1.26Z"/><path class="cls-19" d="M173.29,157s-11.84,2.54-24.11,12.44C149.18,169.39,163.57,160.88,173.29,157Z"/><path class="cls-19" d="M109.63,274.2s6.47,20.54,26,40.64C135.67,314.84,118.21,290.76,109.63,274.2Z"/><path class="cls-20" d="M147.36,169.16c.09,0-.09,0,0,0Z"/><path class="cls-20" d="M199.48,308.39Z"/><path class="cls-20" d="M154.38,129.12c.14.14.27.29.41.44A1.81,1.81,0,0,0,154.38,129.12Z"/><path class="cls-20" d="M137.36,360Z"/><path class="cls-20" d="M137.36,360l-.14-.16a.08.08,0,0,1,0,0S137.32,360,137.36,360Z"/><path class="cls-21" d="M146.4,142.76a14.37,14.37,0,0,1-1.89,2.93,7.76,7.76,0,0,1-2.27,2.19l-.17.09a8.92,8.92,0,0,0-.07-1.35c-.3-2.43-.54-4.54-.75-6.47-.47-4.46-.74-8-1-12.5a5.31,5.31,0,0,1,.08-1.34,4.51,4.51,0,0,1,3.46-3.48,6.71,6.71,0,0,0,.32.78,26,26,0,0,1,2,5.8,44.36,44.36,0,0,1,1,7.08A13.68,13.68,0,0,1,146.4,142.76Z"/><path class="cls-22" d="M260.94,98.58V281.13a9.94,9.94,0,0,1-9.93,9.93H168.78a9.93,9.93,0,0,1-9.92-9.93V98.58a9.93,9.93,0,0,1,9.92-9.92H251A9.93,9.93,0,0,1,260.94,98.58Z"/><rect class="cls-4" x="163.09" y="94.52" width="93.61" height="190.67" rx="11.35"/><path class="cls-17" d="M290.72,157.57c1.7,8.81-9.84,11.42-16.25,14.43a102,102,0,0,1-11.11,4.43c-.8.27-1.6.52-2.4.77v-27l1.29-.26C271.64,148.14,288.5,146,290.72,157.57Z"/><path class="cls-23" d="M263.36,176.43c-.8.27-1.6.52-2.4.77v-27l1.29-.26c.05,2.12-.21,4.39-.17,6.24a51.74,51.74,0,0,0,.29,5.28c.39,3,1.32,5.92,1.53,8.94A19.5,19.5,0,0,1,263.36,176.43Z"/><path class="cls-24" d="M142.81,138.28a2.31,2.31,0,0,1-.26.93,2,2,0,0,1-.77.68,3.26,3.26,0,0,1-.53.26c-.47-4.46-.74-8-1-12.5a5.31,5.31,0,0,1,.08-1.34c.77.26,1.46,1.68,1.72,2.55A23.61,23.61,0,0,1,142.81,138.28Z"/><path class="cls-25" d="M260.94,192.72v22.61a12.39,12.39,0,0,1-2-.52,7.85,7.85,0,0,1-5-4.63,11.06,11.06,0,0,1-.4-3.25q-.06-2.49,0-5c.1-3.47,1-6.68,4.29-8.41A8.15,8.15,0,0,1,260.94,192.72Z"/><path class="cls-25" d="M260.94,228.48V250.7a38.89,38.89,0,0,1-4.81.34,7.33,7.33,0,0,1-5.56-2.31c-1.35-1.65-1.5-4-1.41-6.09.05-1.31.16-2.62.34-3.92.38-2.66,1.18-5.53,3.42-7,2.07-1.39,4.75-1.54,7-2.63C260.26,228.89,260.6,228.68,260.94,228.48Z"/><path class="cls-25" d="M260.94,254.52v23.74a14.07,14.07,0,0,1-3.83-2.72,7,7,0,0,1-1.44-1.84A8.26,8.26,0,0,1,255,271c-.27-2.24-.55-4.48-.81-6.73a19.46,19.46,0,0,1-.17-5.11,6.66,6.66,0,0,1,2.35-4.42C258.16,253.42,259.67,253.57,260.94,254.52Z"/><path class="cls-17" d="M266.17,277.3a7.25,7.25,0,0,1-5.22-1.76,11.82,11.82,0,0,1-3.68-8.23c-.28-4.09.06-10.23,3.73-12.85,2.76-2,6.45-1.24,9.12.61C277.55,260.24,276.82,276.71,266.17,277.3Z"/><path class="cls-21" d="M266.18,260.46a9.14,9.14,0,0,1,1.57,4.86c.13,1.72,0,3.45.13,5.17a2.25,2.25,0,0,0,.73,1.78,2.35,2.35,0,0,0,1.88.08,3.19,3.19,0,0,0,2-1.05,3.09,3.09,0,0,0,.4-1.31c.46-3.2.57-6.61-.8-9.54s-4.58-5.22-7.75-4.58c-1.17.24-3.36,1.21-1.75,2.38C263.83,259.13,265.17,259.11,266.18,260.46Z"/><path class="cls-24" d="M270.57,269c-.11.38-.2.84.08,1.12a.75.75,0,0,0,1-.1,2.11,2.11,0,0,0,.44-1c.21-1,1-8.21-.67-7.71-1.2.35-.37,2.29-.3,3A13,13,0,0,1,270.57,269Z"/><path class="cls-17" d="M260.93,217.2v12.26s-12.87,5.73-9.83,14.55c2.26,6.57,19.93,8.28,24.83-.82C280.61,234.49,281,214.72,260.93,217.2Z"/><path class="cls-21" d="M258.81,236.2c-1.61,1.26-.77,5-1.29,7-.48,1.82,1.06,3.69,2.87,4.21a9.43,9.43,0,0,0,5.53-.56,16.37,16.37,0,0,0,6.41-3.49,7.45,7.45,0,0,0,2.4-6.63c-.59-2.83-4.68-6.94-7.86-5.79S261.47,234.14,258.81,236.2Z"/><path class="cls-24" d="M268.13,236.7a4.1,4.1,0,0,1,.34,5.65,3.75,3.75,0,0,0-.63.75.76.76,0,0,0,.08.9.93.93,0,0,0,.34.18,3,3,0,0,0,3.13-1.2,7.86,7.86,0,0,0,1.29-3.29,9.3,9.3,0,0,0,.26-2.29c-.1-2.38-2.37-5.13-4.89-5.25a2.1,2.1,0,0,0-2.28,1.92C265.76,235.4,267.27,236,268.13,236.7Z"/><path class="cls-17" d="M260.93,180.89v12.26s-8,5.64-5,14.48,17,9.66,19,0S281,178.42,260.93,180.89Z"/><path class="cls-21" d="M259.4,198.92a5,5,0,0,0-.39,3.77,14.1,14.1,0,0,0,1.64,3.52,14.3,14.3,0,0,0,3,3.93,5.13,5.13,0,0,0,4.62,1.18,6.72,6.72,0,0,0,3.49-3.36,25.58,25.58,0,0,0,3-8.37,4.11,4.11,0,0,0-.37-3.13,3.93,3.93,0,0,0-1.46-1.08,19.37,19.37,0,0,0-6.26-1.92c-2.31-.3-2.42.44-3.62,1.86S260.27,197.46,259.4,198.92Z"/><path class="cls-24" d="M266.11,198.29a16.09,16.09,0,0,0,2.94.57,2.14,2.14,0,0,1,.89.34c.7.52.66,1.55.56,2.41l-.28,2.3a1.33,1.33,0,0,0,0,.74c.25.5,1.05.45,1.43,0a2.61,2.61,0,0,0,.52-1.56c.07-.63.13-1.25.2-1.88a5.86,5.86,0,0,0,0-2.17,4.07,4.07,0,0,0-2.2-2.47,10.17,10.17,0,0,0-4.42-1.2C263.59,195.56,264.63,197.69,266.11,198.29Z"/><path class="cls-16" d="M229.2,200.32h0l-.09,0-.91-.35c4.13-25.07,1.05-42.27-3.46-53.51-.16-.4-.33-.77-.49-1.16l0-.06c-4.34-10.17-9.74-15.13-11.36-16.46h0c-.31-.26-.49-.38-.49-.38s-7.14,5-12.36,18c-4.51,11.23-7.59,28.42-3.47,53.46-.36.12-.7.26-1,.4l-.09,0h0C175.59,208.93,183.77,247,183.77,247c4.2-13.74,15.06-16.91,19.1-17.62.23,0,.56-.09.93-.12l0,.08q1.17,3.63,2.51,7.42c-4.74,14.57-3,24-.23,29.7a18.11,18.11,0,0,0,6.27,7.5,18.13,18.13,0,0,0,6.26-7.5c2.79-5.71,4.51-15.13-.22-29.69q1.34-3.79,2.51-7.43l0-.07.8.11c4,.71,14.9,3.88,19.1,17.62C240.84,247,249,208.93,229.2,200.32Z"/><path class="cls-26" d="M205.3,230.1c.39-1,.82-2,1.27-3.09h6.11c.46,1.05.88,2.08,1.28,3.09,6.79,17.31,5,28.14,1.93,34.45a18,18,0,0,1-6.26,7.5,18,18,0,0,1-6.26-7.5C200.28,258.24,198.5,247.41,205.3,230.1Z"/><path class="cls-27" d="M206.48,235.38c.28-.73.59-1.48.92-2.25h4.45q.5,1.16.93,2.25c4.95,12.61,3.66,20.49,1.41,25.09a13.19,13.19,0,0,1-4.56,5.46,13.19,13.19,0,0,1-4.56-5.46C202.82,255.87,201.53,248,206.48,235.38Z"/><path class="cls-28" d="M207.33,238.88c.21-.53.44-1.08.68-1.64h3.24c.24.56.46,1.11.67,1.64,3.6,9.17,2.66,14.91,1,18.25a9.59,9.59,0,0,1-3.32,4,9.5,9.5,0,0,1-3.32-4C204.68,253.79,203.73,248.05,207.33,238.88Z"/><path class="cls-2" d="M217.45,196.69v30.59s15.45.79,20.65,17.81C238.1,245.09,248.51,196.69,217.45,196.69Z"/><path class="cls-25" d="M226.46,198.41s.18,16.93-7.15,29.13a8.81,8.81,0,0,0-2.71-.16l7.84-29.74S226.26,198.32,226.46,198.41Z"/><path class="cls-2" d="M201.68,196.69v30.59s-15.45.79-20.65,17.81C181,245.09,170.62,196.69,201.68,196.69Z"/><path class="cls-25" d="M192.67,198.41s-.18,16.93,7.15,29.13a8.81,8.81,0,0,1,2.71-.16l-7.84-29.74S192.87,198.32,192.67,198.41Z"/><path class="cls-29" d="M218.17,227.44q-1.17,3.63-2.51,7.43H203.6q-1.35-3.8-2.52-7.43c-13.41-41.67-9.91-67.74-3.81-82.93,5.22-13,12.36-18.06,12.36-18.06s7.13,5,12.36,18.06C228.08,159.7,231.59,185.77,218.17,227.44Z"/><path class="cls-2" d="M222,144.51H197.27c5.22-13,12.36-18.06,12.36-18.06S216.76,131.48,222,144.51Z"/><circle class="cls-2" cx="209.63" cy="176.19" r="10.88" transform="translate(-9.79 340.02) rotate(-76.79)"/><path class="cls-30" d="M216.36,176.19a6.73,6.73,0,0,1-6.73,6.73l-.52,0a6.85,6.85,0,0,1-2.43-.66,3.47,3.47,0,0,1-.33-.18,6.73,6.73,0,0,1,3.28-12.6h.17a6.68,6.68,0,0,1,4.14,1.56l.28.25a6.75,6.75,0,0,1,2.14,4.92Z"/><path class="cls-4" d="M213.94,171l-7.59,11a6.78,6.78,0,0,1-2.95-3.3l6.4-9.3A6.68,6.68,0,0,1,213.94,171Z"/><path class="cls-4" d="M215.71,173.31l-6.6,9.59a6.85,6.85,0,0,1-2.43-.66l7.54-11A6.55,6.55,0,0,1,215.71,173.31Z"/><path class="cls-31" d="M218.17,227.44q-1.17,3.63-2.51,7.43H203.6q-1.35-3.8-2.52-7.43Z"/><path class="cls-25" d="M222,144.51c-4.42-11-10.19-16.3-11.88-17.68,4.45,21.73,13.69,79.48-6.51,108h12.06q1.34-3.8,2.51-7.43C231.6,185.77,228.09,159.7,222,144.51Z"/><rect class="cls-16" x="170.73" y="101.01" width="79.91" height="6.58"/><rect class="cls-16" x="170.73" y="111.82" width="79.91" height="6.58"/><rect class="cls-32" x="5.34" y="95.83" width="53.6" height="53.6" rx="11.01" transform="translate(-50.69 26.66) rotate(-26.11)"/><path class="cls-33" d="M18.44,116.08v-.5a9.69,9.69,0,0,1,.46-3,9,9,0,0,1,1.13-2.3,9.62,9.62,0,0,1,1.44-1.68,10.38,10.38,0,0,1,1.43-1.12,13.49,13.49,0,0,1,1.53-.85A13.33,13.33,0,0,1,26,106a10.62,10.62,0,0,1,1.84-.41,9.57,9.57,0,0,1,2.27,0,8.94,8.94,0,0,1,2.54.64,10,10,0,0,1,2.65,1.62c1.5,1.25,2.74,4.24,3.74,6.64.15.38.31.75.46,1.1l.06.15.15.07a2,2,0,0,0,1.47-.15h0a4,4,0,0,0,1-.72,9.7,9.7,0,0,1,.77-.8,1.67,1.67,0,0,1,1.36-.23c.35.15.27.62.15.89a4.36,4.36,0,0,1-.74,1q-.15.16-.39.39c-.68.65-1.71,1.64-1.65,2.81a2.51,2.51,0,0,0,1.13,1.82c.31.27,5.16,4.33,10.77,2.64a.3.3,0,0,1,0,.1c0,.25-.2,1.24-3.41,3.48-.51.35-.34,1-.15,1.81.07.28.14.56.19.87,0,.09,0,.1-.07.14l0,0a5,5,0,0,1-.7.24,10.68,10.68,0,0,0-2.14.78,9.52,9.52,0,0,0-1.42.85,7.92,7.92,0,0,0-2.14,2.83,15.12,15.12,0,0,1-1.2,2,6.56,6.56,0,0,1-1.83,1.69c-.16.1-.33.18-.49.27a7.2,7.2,0,0,1-2.5.85,9.24,9.24,0,0,1-2.35-.05l-1-.15a7.89,7.89,0,0,0-3.55,0,9.36,9.36,0,0,0-1.53.6,10.78,10.78,0,0,0-1.92,1.22,5.29,5.29,0,0,1-.61.42c-.13.07-.14.06-.21,0s-.39-.46-.57-.69c-.51-.63-.94-1.18-1.52-1-3.74,1.16-4.66.72-4.85.56l-.06-.08c4.77-3.4,4.53-9.72,4.51-10.13a2.52,2.52,0,0,0-.75-2c-.88-.77-2.29-.56-3.23-.41l-.54.07c-.57,0-2.37.07-1.71-1a1.27,1.27,0,0,1,.58-.52,3,3,0,0,1,.84-.13,4.61,4.61,0,0,0,1.62-.41A2,2,0,0,0,22,124.43l0-.16-.07-.14-.59-1C20.12,120.83,18.52,118,18.44,116.08Zm1.47-7.16a10.09,10.09,0,0,0-1.75,3,10.72,10.72,0,0,0-.65,4.19c.08,2.18,1.75,5.1,3.08,7.44h0l.44.77a1.52,1.52,0,0,1-.54.39,3.62,3.62,0,0,1-1.34.33,3.58,3.58,0,0,0-1.17.23,2.14,2.14,0,0,0-.87.79,1.65,1.65,0,0,0-.28,1.34,1.49,1.49,0,0,0,1.12,1,4.69,4.69,0,0,0,1.7.11c.18,0,.39,0,.61-.07.77-.12,1.92-.29,2.48.19a1.66,1.66,0,0,1,.43,1.31v0a11.49,11.49,0,0,1-.19,2.56,12,12,0,0,1-1.27,3.78,9.71,9.71,0,0,1-1.21,1.7,18,18,0,0,1-1.39,1.23,1,1,0,0,0-.33,1.28,1.35,1.35,0,0,0,.27.32,2.47,2.47,0,0,0,1.71.45,16.38,16.38,0,0,0,3.94-.8,5.1,5.1,0,0,1,.59.66c.19.24.38.49.61.74a1,1,0,0,0,1.31.23,4.94,4.94,0,0,0,.76-.52,10.57,10.57,0,0,1,1.77-1.13,9.56,9.56,0,0,1,1.39-.54,7.09,7.09,0,0,1,3.13.07l.3,0a16.25,16.25,0,0,0,2.19.22,7.64,7.64,0,0,0,2.42-.37,9.8,9.8,0,0,0,1.29-.55,9.38,9.38,0,0,0,1.33-.8,8.07,8.07,0,0,0,1.66-1.74c.21-.3.41-.61.6-.94a10.27,10.27,0,0,0,.51-.92h0a7,7,0,0,1,1.87-2.51,9.53,9.53,0,0,1,1.28-.78,10.4,10.4,0,0,1,2-.71,4.91,4.91,0,0,0,.87-.31h0a1,1,0,0,0,.58-1.13c0-.33-.13-.63-.2-.93a4.16,4.16,0,0,1-.16-.87,15.86,15.86,0,0,0,3-2.62,2.57,2.57,0,0,0,.7-1.63,1.43,1.43,0,0,0-.09-.41.93.93,0,0,0-1.13-.53c-5.15,1.55-9.71-2.29-9.9-2.46l0,0a1.65,1.65,0,0,1-.77-1.13c0-.74.81-1.55,1.36-2.09a6.09,6.09,0,0,0,.44-.43,4.41,4.41,0,0,0,1-1.55,1.48,1.48,0,0,0,0-1.19,1.86,1.86,0,0,0-2.46-.6,4,4,0,0,0-1.11.88,3.71,3.71,0,0,1-1,.84,1.37,1.37,0,0,1-.54.13c-.1-.23-.2-.46-.3-.71l0-.11c-1-2.49-2.32-5.6-4-7A11,11,0,0,0,32.22,105a10,10,0,0,0-3.45-.45,11.58,11.58,0,0,0-3.54.73c-.43.16-.87.34-1.29.54a13.5,13.5,0,0,0-2.58,1.66A10.89,10.89,0,0,0,19.91,108.92Z"/><path class="cls-4" d="M50.22,127c3.21-2.24,3.42-3.23,3.41-3.48a.3.3,0,0,0,0-.1C48,125.1,43.15,121,42.84,120.77A2.51,2.51,0,0,1,41.71,119c-.06-1.17,1-2.16,1.65-2.81q.24-.23.39-.39a4.36,4.36,0,0,0,.74-1c.12-.27.2-.74-.15-.89a1.67,1.67,0,0,0-1.36.23,9.7,9.7,0,0,0-.77.8,4,4,0,0,1-1,.72h0a2,2,0,0,1-1.47.15l-.15-.07-.06-.15c-.15-.35-.31-.72-.46-1.1-1-2.4-2.24-5.39-3.74-6.64a10,10,0,0,0-2.65-1.62,8.94,8.94,0,0,0-2.54-.64,9.57,9.57,0,0,0-2.27,0A10.62,10.62,0,0,0,26,106a13.33,13.33,0,0,0-1.61.67,13.49,13.49,0,0,0-1.53.85,10.38,10.38,0,0,0-1.43,1.12A9.62,9.62,0,0,0,20,110.31a9,9,0,0,0-1.13,2.3,9.69,9.69,0,0,0-.46,3v.5c.08,2,1.68,4.75,3,7l.59,1,.07.14,0,.16a2,2,0,0,1-1.11,1.13,4.61,4.61,0,0,1-1.62.41,3,3,0,0,0-.84.13,1.27,1.27,0,0,0-.58.52c-.66,1,1.14,1,1.71,1l.54-.07c.94-.15,2.35-.36,3.23.41a2.52,2.52,0,0,1,.75,2c0,.41.26,6.73-4.51,10.13l.06.08c.19.16,1.11.6,4.85-.56.58-.19,1,.36,1.52,1,.18.23.36.46.57.69s.08.09.21,0a5.29,5.29,0,0,0,.61-.42,10.78,10.78,0,0,1,1.92-1.22,9.36,9.36,0,0,1,1.53-.6,7.89,7.89,0,0,1,3.55,0l1,.15a9.24,9.24,0,0,0,2.35.05,7.2,7.2,0,0,0,2.5-.85c.16-.09.33-.17.49-.27a6.56,6.56,0,0,0,1.83-1.69,15.12,15.12,0,0,0,1.2-2,7.92,7.92,0,0,1,2.14-2.83,9.52,9.52,0,0,1,1.42-.85,10.68,10.68,0,0,1,2.14-.78,5,5,0,0,0,.7-.24l0,0c.09,0,.09-.05.07-.14,0-.31-.12-.59-.19-.87C49.88,128,49.71,127.34,50.22,127Z"/></g></g></svg>