<svg xmlns="http://www.w3.org/2000/svg" xmlns:xlink="http://www.w3.org/1999/xlink" viewBox="0 0 221.38 221.38"><defs><style>.cls-1{fill:url(#linear-gradient);}.cls-2{fill:#fff;}</style><linearGradient id="linear-gradient" y1="110.69" x2="221.38" y2="110.69" gradientUnits="userSpaceOnUse"><stop offset="0" stop-color="#226d37"/><stop offset="0.59" stop-color="#215529"/><stop offset="1" stop-color="#21421d"/></linearGradient></defs><title>img-6</title><g id="Layer_2" data-name="Layer 2"><g id="Layer_1-2" data-name="Layer 1"><rect class="cls-1" width="221.38" height="221.38" rx="110.69"/><path class="cls-2" d="M47.49,80.8a3.59,3.59,0,0,0,.22-.68,13.7,13.7,0,0,1,11.6-11.59,14.34,14.34,0,0,1,2-.13q19,0,37.94,0a2.87,2.87,0,0,1,2.84,1.75,2.74,2.74,0,0,1-2.44,3.75c-.2,0-.41,0-.61,0H61.86a9.75,9.75,0,0,0-3,.37A8.23,8.23,0,0,0,53.05,82c0,.1,0,.2,0,.31q0,38,0,76.07a8.24,8.24,0,0,0,8.34,8.4H146c0-.3,0-.55,0-.81V142.48a4,4,0,0,1,.12-1.1,2.62,2.62,0,0,1,2.56-1.91h24.58c0-.18.05-.33.06-.49a2.08,2.08,0,0,0,0-.25V82.27a8.11,8.11,0,0,0-3.81-7.1,7.6,7.6,0,0,0-4.11-1.27l-1.11,0H127.18a4.14,4.14,0,0,1-1.27-.17,2.71,2.71,0,0,1-1.79-3,2.75,2.75,0,0,1,2.54-2.35H165a13.69,13.69,0,0,1,13.48,11.16c.08.41.14.83.2,1.25v62a4.6,4.6,0,0,1-1.33,1.92q-13,12.94-25.9,25.9a6.42,6.42,0,0,1-2.29,1.7H60c-.34-.08-.67-.18-1-.23a13.69,13.69,0,0,1-11.31-11.52,4.08,4.08,0,0,0-.23-.67Zm104,82c1.09-.89,17.53-17.42,17.73-17.81-.77-.12-17.29-.09-17.73,0Z"/><path class="cls-2" d="M114.27,41.08l1.13.23a10.94,10.94,0,0,1,1.14,21.11l-.65.21v.72q0,12,0,23.91a3.76,3.76,0,0,1-.16,1.21,2.72,2.72,0,0,1-5.29-.84v-25l-.53-.19a10.95,10.95,0,0,1,1.44-21.24l.71-.14Z"/><path class="cls-2" d="M113.14,128.53H72.44a3.92,3.92,0,0,1-1.09-.12,2.73,2.73,0,0,1,.56-5.32c.23,0,.45,0,.68,0h81.15a4.52,4.52,0,0,1,1.22.12,2.73,2.73,0,0,1-.75,5.33H113.14Z"/><path class="cls-2" d="M113.16,106.66H72.52a4.42,4.42,0,0,1-1.09-.09,2.73,2.73,0,0,1,.64-5.36h82.2a2.72,2.72,0,0,1,2.62,2.72,2.68,2.68,0,0,1-2.66,2.73H113.16Z"/><path class="cls-2" d="M102.22,150.4H72.47a3.91,3.91,0,0,1-1.27-.19,2.66,2.66,0,0,1-1.72-3,2.74,2.74,0,0,1,2.58-2.31h59.82a4.69,4.69,0,0,1,.92.07,2.73,2.73,0,0,1,2.24,2.87,2.77,2.77,0,0,1-2.63,2.55H102.22Z"/></g></g></svg>