<svg xmlns="http://www.w3.org/2000/svg" xmlns:xlink="http://www.w3.org/1999/xlink" viewBox="0 0 221.38 221.38"><defs><style>.cls-1{fill:url(#linear-gradient);}.cls-2{fill:#fff;}</style><linearGradient id="linear-gradient" y1="110.69" x2="221.38" y2="110.69" gradientUnits="userSpaceOnUse"><stop offset="0" stop-color="#226d37"/><stop offset="0.59" stop-color="#215529"/><stop offset="1" stop-color="#21421d"/></linearGradient></defs><title>img-7</title><g id="Layer_2" data-name="Layer 2"><g id="Layer_1-2" data-name="Layer 1"><rect class="cls-1" width="221.38" height="221.38" rx="110.69"/><path class="cls-2" d="M55.56,131.55a16,16,0,0,1,1.71-2.48q24-24.1,48.12-48.16c2-2,3.07-2,5.07,0,3,3,6,6,8.94,8.85l27.53-27.53c-.25,0-.67-.08-1.1-.08-3.21,0-6.43.05-9.65,0A2.5,2.5,0,0,1,133.54,60a2.55,2.55,0,0,1,1.78-2.91c.2-.07.39-.16.58-.24h18a3.42,3.42,0,0,1,2.58,2.32v10.3c-.06,2.22-.13,4.43-.16,6.65,0,2.39-.84,3.57-2.54,3.6s-2.65-1.23-2.65-3.63V66c-.57.52-.94.84-1.28,1.19Q136,81,122.18,94.79c-2,2-3.15,2-5.19,0l-8.76-8.71a1.81,1.81,0,0,0-.33-.19l-1.06,1-45.9,45.86-.18.18c-2.22,2.21-4.09,1.8-5.2-1.13Z"/><path class="cls-2" d="M144.4,164.51c0-.51-.12-1-.12-1.53q0-33.4,0-66.82V94.79H149v1.39q0,33.41,0,66.82a12.92,12.92,0,0,1-.17,1.51Z"/><path class="cls-2" d="M124.06,164.51a7.65,7.65,0,0,1-.21-1.24q0-27,0-54.06v-1h4.87c0,.44.06.89.06,1.35V163c0,.52-.05,1-.08,1.54Z"/><path class="cls-2" d="M103.71,164.51V123.15h4.9v41.36Z"/><path class="cls-2" d="M83.37,164.51c0-2.14-.05-4.28-.06-6.42v-29h4.92v1.41q0,16.26,0,32.53a10.69,10.69,0,0,1-.21,1.49Z"/><path class="cls-2" d="M63.28,164.51c-.05-1-.14-2-.15-3,0-3.37,0-6.74,0-10.19h4.52a3,3,0,0,1,.16.69q0,5.83,0,11.68a5.28,5.28,0,0,1-.15.87Z"/><path class="cls-2" d="M156.51,59.19a3.42,3.42,0,0,0-2.58-2.32h2.58Z"/></g></g></svg>