<svg xmlns="http://www.w3.org/2000/svg" viewBox="0 0 595.58 361.82"><defs><style>.cls-1{isolation:isolate;}.cls-2{fill:#e7e8e8;}.cls-2,.cls-20,.cls-22,.cls-23,.cls-24,.cls-33{mix-blend-mode:multiply;}.cls-3{fill:#2bc386;}.cls-4{fill:#f44b4b;}.cls-5{fill:#ffebc5;}.cls-6{fill:#d4d2b4;}.cls-7{fill:#bcbca1;}.cls-8{fill:#d83080;}.cls-9{fill:#c22a74;}.cls-10{fill:#7084c4;}.cls-11{fill:#8499c2;}.cls-12{fill:#566896;}.cls-13{fill:#8495c4;}.cls-14{fill:#b53333;}.cls-15{fill:#1b865a;}.cls-16{fill:#2f2383;}.cls-17{fill:#403b98;}.cls-18{fill:#909294;}.cls-19,.cls-21,.cls-25{fill:#fff;}.cls-20{fill:#f2a6ca;}.cls-21{opacity:0.25;}.cls-21,.cls-25{mix-blend-mode:overlay;}.cls-22{fill:#7268c6;}.cls-23{fill:#47f7c0;}.cls-24{fill:#87d0b2;}.cls-26{fill:#fbfaac;}.cls-27{fill:#241b68;}.cls-28{fill:#191348;}.cls-29{fill:#2a1e74;}.cls-30{fill:#2fe3a2;}.cls-31{fill:#1dd893;}.cls-32{fill:#25e8a1;}.cls-33{fill:#4fe8af;}.cls-34{fill:#1e1868;}.cls-35{fill:#fa8787;}.cls-36{fill:#bdb676;}.cls-37{fill:#e8e496;}.cls-38{fill:#7c77c4;}</style></defs><title>img-1</title><g class="cls-1"><g id="Layer_2" data-name="Layer 2"><g id="Layer_1-2" data-name="Layer 1"><ellipse class="cls-2" cx="297.79" cy="213.29" rx="297.79" ry="120.46"/><polygon class="cls-3" points="443.17 105.51 459.95 96.92 459.68 180.56 442.9 189.15 443.17 105.51"/><polygon class="cls-4" points="423.89 95.7 440.67 87.11 459.95 96.92 443.17 105.51 423.89 95.7"/><polygon class="cls-5" points="443.17 105.51 442.9 189.15 423.63 179.34 423.89 95.7 443.17 105.51"/><g class="cls-1"><polygon class="cls-6" points="145.14 120.94 168.51 108.98 172.03 110.77 148.66 122.73 145.14 120.94"/><polygon class="cls-6" points="152.75 124.81 176.12 112.85 179.65 114.64 156.28 126.61 152.75 124.81"/><polygon class="cls-6" points="160.38 128.69 183.74 116.73 187.27 118.52 163.9 130.48 160.38 128.69"/><polygon class="cls-7" points="145.22 94.15 168.59 82.19 168.51 108.98 145.14 120.94 145.22 94.15"/><polygon class="cls-4" points="148.75 95.95 148.66 122.73 145.14 120.94 145.22 94.15 148.75 95.95"/><polygon class="cls-8" points="145.22 94.15 168.59 82.19 172.12 83.98 148.75 95.95 145.22 94.15"/><polygon class="cls-9" points="148.75 95.95 172.12 83.98 172.03 110.77 148.66 122.73 148.75 95.95"/><polygon class="cls-7" points="152.84 98.03 176.21 86.06 176.12 112.85 152.75 124.81 152.84 98.03"/><polygon class="cls-7" points="145.98 86.42 169.35 74.45 169.34 77.33 145.97 89.3 145.98 86.42"/><polygon class="cls-10" points="140.22 83.48 163.59 71.52 169.35 74.45 145.98 86.42 140.22 83.48"/><polygon class="cls-9" points="156.37 99.82 179.74 87.86 179.65 114.64 156.28 126.61 156.37 99.82"/><polygon class="cls-8" points="152.84 98.03 176.21 86.06 179.74 87.86 156.37 99.82 152.84 98.03"/><polygon class="cls-7" points="160.46 101.9 183.83 89.94 183.74 116.73 160.38 128.69 160.46 101.9"/><polygon class="cls-4" points="163.98 103.69 163.9 130.48 160.38 128.69 160.46 101.9 163.98 103.69"/><polygon class="cls-8" points="160.46 101.9 183.83 89.94 187.35 91.73 163.98 103.69 160.46 101.9"/><polygon class="cls-9" points="163.98 103.69 187.35 91.73 187.27 118.52 163.9 130.48 163.98 103.69"/><polygon class="cls-6" points="145.97 89.3 169.34 77.33 186.64 86.13 163.27 98.09 145.97 89.3"/><polygon class="cls-7" points="163.28 95.21 186.65 83.25 186.64 86.13 163.27 98.09 163.28 95.21"/><path class="cls-11" d="M163.28,95.21,169,98.15l-.17,52.69-28.82-14.66.17-52.7L146,86.42V89.3l17.3,8.79Zm-7,31.4.09-26.79L152.84,98l-.09,26.78,3.53,1.8m-7.62-3.88L148.75,96l-3.53-1.8-.08,26.79,3.52,1.79m15.24,7.75.08-26.79-3.52-1.79-.08,26.79,3.52,1.79"/><polygon class="cls-4" points="156.37 99.82 156.28 126.61 152.75 124.81 152.84 98.03 156.37 99.82"/><polygon class="cls-6" points="147.96 73.91 171.32 61.94 175.01 63.82 151.64 75.78 147.96 73.91"/><polygon class="cls-7" points="147.97 70.17 171.34 58.21 171.32 61.94 147.96 73.91 147.97 70.17"/><polygon class="cls-9" points="151.66 72.05 175.03 60.08 175.01 63.82 151.64 75.78 151.66 72.05"/><polygon class="cls-8" points="147.97 70.17 171.34 58.21 175.03 60.08 151.66 72.05 147.97 70.17"/><polygon class="cls-4" points="151.66 72.05 151.64 75.78 147.96 73.91 147.97 70.17 151.66 72.05"/><polygon class="cls-10" points="163.28 95.21 186.65 83.25 192.41 86.18 169.04 98.15 163.28 95.21"/><polygon class="cls-12" points="169.04 98.15 192.41 86.18 192.24 138.88 168.88 150.84 169.04 98.15"/><polygon class="cls-6" points="152.83 76.38 176.2 64.42 179.89 66.3 156.52 78.26 152.83 76.38"/><polygon class="cls-7" points="152.84 72.65 176.21 60.69 176.2 64.42 152.83 76.38 152.84 72.65"/><polygon class="cls-6" points="147.97 68.91 171.34 56.94 175.03 58.82 151.66 70.78 147.97 68.91"/><polygon class="cls-7" points="147.99 65.17 171.35 53.21 171.34 56.94 147.97 68.91 147.99 65.17"/><polygon class="cls-8" points="152.84 72.65 176.21 60.69 179.9 62.56 156.53 74.53 152.84 72.65"/><polygon class="cls-4" points="156.53 74.53 156.52 78.26 152.83 76.38 152.84 72.65 156.53 74.53"/><polygon class="cls-9" points="156.53 74.53 179.9 62.56 179.89 66.3 156.52 78.26 156.53 74.53"/><polygon class="cls-9" points="151.67 67.05 175.04 55.09 175.03 58.82 151.66 70.78 151.67 67.05"/><polygon class="cls-8" points="147.99 65.17 171.35 53.21 175.04 55.09 151.67 67.05 147.99 65.17"/><polygon class="cls-6" points="157.7 78.86 181.07 66.9 184.76 68.77 161.39 80.74 157.7 78.86"/><polygon class="cls-7" points="157.72 75.13 181.08 63.16 181.07 66.9 157.7 78.86 157.72 75.13"/><polygon class="cls-6" points="152.85 71.39 176.22 59.42 179.9 61.3 156.53 73.26 152.85 71.39"/><polygon class="cls-7" points="152.86 67.65 176.23 55.69 176.22 59.42 152.85 71.39 152.86 67.65"/><polygon class="cls-8" points="157.72 75.13 181.08 63.16 184.77 65.04 161.4 77 157.72 75.13"/><polygon class="cls-4" points="161.4 77 161.39 80.74 157.7 78.86 157.72 75.13 161.4 77"/><polygon class="cls-9" points="161.4 77 184.77 65.04 184.76 68.77 161.39 80.74 161.4 77"/><polygon class="cls-8" points="152.86 67.65 176.23 55.69 179.91 57.56 156.54 69.53 152.86 67.65"/><polygon class="cls-4" points="156.54 69.53 156.53 73.26 152.85 71.39 152.86 67.65 156.54 69.53"/><polygon class="cls-9" points="156.54 69.53 179.91 57.56 179.9 61.3 156.53 73.26 156.54 69.53"/><polygon class="cls-6" points="157.72 73.86 181.09 61.9 184.78 63.78 161.41 75.74 157.72 73.86"/><polygon class="cls-7" points="157.73 70.13 181.1 58.17 181.09 61.9 157.72 73.86 157.73 70.13"/><polygon class="cls-9" points="161.42 72.01 184.79 60.04 184.78 63.78 161.41 75.74 161.42 72.01"/><polygon class="cls-4" points="161.42 72.01 161.41 75.74 157.72 73.86 157.73 70.13 161.42 72.01"/><polygon class="cls-8" points="157.73 70.13 181.1 58.17 184.79 60.04 161.42 72.01 157.73 70.13"/><path class="cls-11" d="M146.06,62.1l17.3,8.8-.08,24.31v2.88L146,89.3V86.42Zm5.6,8.68V67.05L148,65.17v3.74l3.69,1.87m4.87,2.48,0-3.73-3.69-1.88v3.74l3.68,1.87m0,5V74.53l-3.69-1.88v3.73l3.69,1.88m-4.88-2.48,0-3.73L148,70.17V73.9l3.68,1.88m9.77,0V72l-3.69-1.88v3.73l3.69,1.88m0,5V77l-3.69-1.87v3.73l3.69,1.88"/><polygon class="cls-4" points="151.67 67.05 151.66 70.78 147.97 68.91 147.99 65.17 151.67 67.05"/><polygon class="cls-10" points="146.06 62.1 169.43 50.14 186.72 58.93 163.36 70.9 146.06 62.1"/><polygon class="cls-12" points="160.51 67.09 183.88 55.13 183.87 57.48 160.5 69.45 160.51 67.09"/><polygon class="cls-11" points="160.51 67.09 160.5 69.45 149.13 63.66 149.14 61.31 160.51 67.09"/><polygon class="cls-13" points="149.14 61.31 172.51 49.35 183.88 55.13 160.51 67.09 149.14 61.31"/><polygon class="cls-12" points="163.36 70.9 186.72 58.93 186.65 83.25 163.28 95.21 163.36 70.9"/></g><polygon class="cls-14" points="33.16 146.29 50.64 137.34 50.57 159.06 33.09 168.01 33.16 146.29"/><path class="cls-4" d="M71.11,168.48a19.61,19.61,0,0,1-6.47-2.27l-14.07-7.15L33.09,168l14.07,7.15a19.61,19.61,0,0,0,6.47,2.27,6.51,6.51,0,0,0,3.65-.48L74.76,168A6.51,6.51,0,0,1,71.11,168.48Z"/><polygon class="cls-14" points="33.28 111.24 50.76 102.29 50.69 123.83 33.21 132.77 33.28 111.24"/><path class="cls-4" d="M71.58,132.29a10.42,10.42,0,0,1-4.53-.62,41.64,41.64,0,0,1-6-2.56l-10.4-5.28-17.48,8.94,10.4,5.29a42.81,42.81,0,0,0,6,2.56,10.42,10.42,0,0,0,4.53.62,4.3,4.3,0,0,0,1.33-.4l17.48-9A4,4,0,0,1,71.58,132.29Z"/><path class="cls-15" d="M93.24,157.63q-4-6.74-12.56-13.16L63.2,153.41q8.52,6.43,12.56,13.17a26.72,26.72,0,0,1,4,14.16A18.23,18.23,0,0,1,77.64,190a11.21,11.21,0,0,1-4.71,4.52l17.48-9a11.19,11.19,0,0,0,4.71-4.51,18.28,18.28,0,0,0,2.17-9.26A26.76,26.76,0,0,0,93.24,157.63Z"/><path class="cls-5" d="M75.76,166.58a26.75,26.75,0,0,1,4,14.16A18.23,18.23,0,0,1,77.64,190a11.37,11.37,0,0,1-6.25,5.18,20,20,0,0,1-10.15.4,50.45,50.45,0,0,1-13.77-5L13.07,173.1l.28-87.16L45,102.05a95.25,95.25,0,0,1,15.19,9.4,58.59,58.59,0,0,1,10.2,9.92,35.43,35.43,0,0,1,5.74,10.36,32.77,32.77,0,0,1,1.76,10.66,15.24,15.24,0,0,1-.84,5.24,8.48,8.48,0,0,1-2.61,3.76,10.28,10.28,0,0,1-4.56,2,19.93,19.93,0,0,1-6.7,0Q71.72,159.84,75.76,166.58Zm-16.23,7.56a13.48,13.48,0,0,0,.54-3.86,16.63,16.63,0,0,0-.61-4.63,13.43,13.43,0,0,0-2.11-4.3,21,21,0,0,0-4-4.06,36.38,36.38,0,0,0-6.26-3.9l-14-7.1L33.09,168l14.07,7.15a19.61,19.61,0,0,0,6.47,2.27,6.17,6.17,0,0,0,3.94-.64,4.54,4.54,0,0,0,2-2.65m-26.25-62.9-.07,21.53,10.4,5.29a42.81,42.81,0,0,0,6,2.56,10.42,10.42,0,0,0,4.53.62A3.75,3.75,0,0,0,57,139.39a9.27,9.27,0,0,0,1-4.76,18.58,18.58,0,0,0-.74-5.56,14.39,14.39,0,0,0-2.35-4.53,20.26,20.26,0,0,0-4.05-3.86A42.37,42.37,0,0,0,45,117.19l-11.69-6"/><path class="cls-3" d="M93.63,122.78a35.43,35.43,0,0,0-5.74-10.36,58.59,58.59,0,0,0-10.2-9.92A96,96,0,0,0,62.5,93.1L30.83,77l-17.48,9L45,102.05a95.25,95.25,0,0,1,15.19,9.4,58.59,58.59,0,0,1,10.2,9.92,35.43,35.43,0,0,1,5.74,10.36,32.77,32.77,0,0,1,1.76,10.66,15.24,15.24,0,0,1-.84,5.24,8.48,8.48,0,0,1-2.61,3.76,9,9,0,0,1-1.52,1l17.48-8.95a9,9,0,0,0,1.52-1,8.48,8.48,0,0,0,2.61-3.76,15.24,15.24,0,0,0,.84-5.24A32.77,32.77,0,0,0,93.63,122.78Z"/><polygon class="cls-16" points="92.71 289.14 73.44 279.27 73.13 183.16 92.4 193.02 92.71 289.14"/><path class="cls-17" d="M128.32,214.74l19.28,9.87a8.71,8.71,0,0,0-.94-.42,11.7,11.7,0,0,0-4-.75l-19.27-9.86a11.7,11.7,0,0,1,4,.75A7.72,7.72,0,0,1,128.32,214.74Z"/><path class="cls-15" d="M142.47,259.6l-19.27-9.87a4.14,4.14,0,0,0,1.32,1.09l19.27,9.86A4.08,4.08,0,0,1,142.47,259.6Z"/><path class="cls-15" d="M126.61,239.72a4.36,4.36,0,0,0-1.25-1l-19.27-9.87a4.54,4.54,0,0,1,1.25,1l15.86,19.88,19.27,9.87Z"/><path class="cls-4" d="M136.64,191.46l-19.28-9.87c2.27,1.16,3.42,3.67,3.43,7.53a22.62,22.62,0,0,1-.9,6.36,22.33,22.33,0,0,1-2.92,6.27,28.43,28.43,0,0,1-5.17,5.84,37,37,0,0,1-7.64,5l-8.86,4.51L114.57,227l8.86-4.5a37.32,37.32,0,0,0,7.65-5,29,29,0,0,0,5.17-5.84A22.77,22.77,0,0,0,140.06,199Q140,193.2,136.64,191.46Z"/><path class="cls-17" d="M135.36,161.39a12.13,12.13,0,0,0-1.91-.79q-4.6-1.47-11.88.06T104,167.45L73.13,183.16,92.4,193l30.89-15.7q10.27-5.23,17.56-6.79c4.84-1,8.81-1.05,11.88-.06a13,13,0,0,1,1.91.79Z"/><path class="cls-5" d="M150.07,226.46l20.31,23.17-19.94,10.14q-5.53,2.82-8-.17l-15.86-19.88a3.81,3.81,0,0,0-2.47-1.35,7.88,7.88,0,0,0-3.92,1.16l-5.6,2.85.12,35.55-22,11.21L92.4,193l30.89-15.7q10.27-5.23,17.56-6.79c4.84-1,8.81-1.05,11.88-.06a11,11,0,0,1,6.71,5.64,22.79,22.79,0,0,1,2.12,10.29,37.91,37.91,0,0,1-1.21,9.47,46.71,46.71,0,0,1-3.63,9.54,58.27,58.27,0,0,1-5.94,9.32,64,64,0,0,1-8.17,8.71,11.7,11.7,0,0,1,4,.75A9.24,9.24,0,0,1,150.07,226.46Zm-10.91-21.11a22.62,22.62,0,0,0,.9-6.36q0-6.35-4.1-7.83T123.34,194l-8.86,4.51.09,28.49,8.86-4.5a37.32,37.32,0,0,0,7.65-5,29,29,0,0,0,5.17-5.84,22.58,22.58,0,0,0,2.91-6.27"/><path class="cls-18" d="M281.27,114.41l-16.71-8.55a6.36,6.36,0,0,1-.74-.45l16.7,8.55A7.44,7.44,0,0,0,281.27,114.41Z"/><path class="cls-16" d="M280.3,82.27c-.08-1.47-.12-2.87-.12-4.21L280,34l-16.7-8.55.14,44.08c0,1.34,0,2.74.12,4.2s.23,3,.42,4.46l16.71,8.55C280.52,85.21,280.39,83.74,280.3,82.27Z"/><polygon class="cls-4" points="280.03 33.98 263.33 25.43 280.16 16.87 296.86 25.42 280.03 33.98"/><polygon class="cls-15" points="280.52 113.96 263.82 105.41 224.85 75.46 241.56 84.02 280.52 113.96"/><polygon class="cls-16" points="225.29 145.27 208.59 136.71 208.32 53.41 225.02 61.96 225.29 145.27"/><path class="cls-5" d="M296.86,25.42l.27,83.31-9.94,5a9.12,9.12,0,0,1-3.7,1.17,5,5,0,0,1-3-1L241.56,84c.15,1.41.26,2.8.32,4.16s.09,2.65.1,3.87l.14,44.66-16.83,8.56L225,62l10.06-5.12a21.43,21.43,0,0,1,2.09-.94,4.79,4.79,0,0,1,1.53-.34,3,3,0,0,1,1.3.21,8.12,8.12,0,0,1,1.42.84l39.3,30.11c-.2-1.51-.33-3-.42-4.45s-.12-2.87-.12-4.21L280,34Z"/><path class="cls-4" d="M223.61,47.37l-.31-.15A3.07,3.07,0,0,0,222,47a4.77,4.77,0,0,0-1.52.35,19.48,19.48,0,0,0-2.09.94l-10.06,5.12L225,62l10.06-5.12a21.43,21.43,0,0,1,2.09-.94,4.79,4.79,0,0,1,1.53-.34,3,3,0,0,1,1.3.21l.32.15Z"/><path class="cls-16" d="M397.9,112a23.16,23.16,0,0,0-7.71-5.72l-12.38-6.3-.06,16.52,12.39,6.3a23.1,23.1,0,0,1,7.7,5.72,8.39,8.39,0,0,1,2.05,5.28l.05-16.52A8.44,8.44,0,0,0,397.9,112Z"/><polygon class="cls-4" points="377.81 99.93 377.75 116.45 326.73 142.57 326.79 126.05 377.81 99.93"/><path class="cls-17" d="M419,130.72q-4.29,5.25-12.83,9.62A76.32,76.32,0,0,1,387.28,147a97.55,97.55,0,0,1-21,2.16,99.13,99.13,0,0,1-21.35-2.41A84.39,84.39,0,0,1,325,139.59l-31-15.77L294,140.34l31,15.77a84.08,84.08,0,0,0,19.92,7.11,99.76,99.76,0,0,0,21.35,2.41,98.32,98.32,0,0,0,21-2.16,76.32,76.32,0,0,0,18.86-6.61q8.54-4.37,12.83-9.62,4.13-5.06,4.14-10.31l.05-16.52A16.23,16.23,0,0,1,419,130.72Z"/><path class="cls-5" d="M419,130.72q-4.29,5.25-12.83,9.62A76.32,76.32,0,0,1,387.28,147a97.55,97.55,0,0,1-21,2.16,99.13,99.13,0,0,1-21.35-2.41A84.39,84.39,0,0,1,325,139.59l-31-15.77L373.34,83.2l31,15.78q9.31,4.72,14,10.16c3.09,3.62,4.7,7.24,4.79,10.88S421.83,127.23,419,130.72Zm-44,4.66a60.58,60.58,0,0,0,12.21-4.68,36.08,36.08,0,0,0,9.07-6.22,11.41,11.41,0,0,0,3.62-6.36,8.08,8.08,0,0,0-2-6.17,23.16,23.16,0,0,0-7.71-5.72l-12.38-6.3-51,26.12,12.38,6.3a44.4,44.4,0,0,0,11.25,3.91,51,51,0,0,0,12.11,1A57.12,57.12,0,0,0,375,135.38"/><path class="cls-18" d="M405,183.4,405,203.67a6.63,6.63,0,0,1-.15,1.37l.07-20.27A7.4,7.4,0,0,0,405,183.4Z"/><path class="cls-3" d="M368.21,204q-2.35,1.31-4.48,2.39L311.55,233.1l-.07,20.27,52.19-26.72c1.42-.72,2.91-1.53,4.47-2.39s3.11-1.79,4.68-2.77l.06-20.27C371.32,202.2,369.76,203.13,368.21,204Z"/><polygon class="cls-15" points="311.55 233.1 311.49 253.37 291.45 243.18 291.51 222.91 311.55 233.1"/><polygon class="cls-4" points="404.87 184.77 404.8 205.04 392.96 258.67 393.02 238.4 404.87 184.77"/><polygon class="cls-3" points="474.39 216.57 474.33 236.84 376.98 286.68 377.05 266.41 474.39 216.57"/><path class="cls-5" d="M474.39,216.58l-97.34,49.83-11.84-6a9.67,9.67,0,0,1-3.57-2.67,4.24,4.24,0,0,1-.62-3.28l11.86-53.22c-1.56,1-3.12,1.91-4.67,2.77s-3.06,1.67-4.48,2.39L311.55,233.1l-20-10.19,97.35-49.84,12,6.08a24.37,24.37,0,0,1,2.35,1.34,5,5,0,0,1,1.32,1.19A2.62,2.62,0,0,1,405,183a6.49,6.49,0,0,1-.13,1.78L393,238.4c1.65-1.08,3.29-2.08,5-3s3.28-1.81,4.84-2.61l51.51-26.38Z"/><path class="cls-15" d="M365.21,260.39a9.67,9.67,0,0,1-3.57-2.67,3.86,3.86,0,0,1-.7-2.34l-.07,20.27a3.89,3.89,0,0,0,.71,2.34,9.5,9.5,0,0,0,3.57,2.67l11.83,6,.07-20.27Z"/><path class="cls-19" d="M427.93,231.07l-.53-.18c.9-2.08,1-4.56.33-7.81-.19-.92-.42-1.84-.65-2.74a34.94,34.94,0,0,1-1-5.2,34.19,34.19,0,0,1,.82-9.25l.57.08a33.82,33.82,0,0,0-.82,9.13,33.05,33.05,0,0,0,1,5.13c.23.9.47,1.83.66,2.76C429,226.33,428.88,228.9,427.93,231.07Z"/><path class="cls-4" d="M438.22,196.3c0-5.49-5.05-9.93-11.27-9.93s-11.27,4.44-11.27,9.93c0,5.15,4.45,9.39,10.15,9.88v0a1.13,1.13,0,0,0,2.24,0v0C433.77,205.69,438.22,201.45,438.22,196.3Z"/><path class="cls-20" d="M438.22,196.3c0-5.49-5.05-9.93-11.27-9.93a11.94,11.94,0,0,0-1.35.08c5.58.59,9.91,4.77,9.91,9.85s-4.33,9.26-9.91,9.85l.23,0v0a1.13,1.13,0,0,0,2.24,0v0C433.77,205.69,438.22,201.45,438.22,196.3Z"/><path class="cls-21" d="M424.93,195a4.59,4.59,0,0,1-5.34,2.93c-2-.64-2.95-3-2-5.25a4.58,4.58,0,0,1,5.34-2.93C424.93,190.4,425.84,192.75,424.93,195Z"/><path class="cls-19" d="M431,218.79l-.48-.32c1.57-1.84,2.47-4.28,2.83-7.69.1-1,.16-1.94.22-2.89a35.84,35.84,0,0,1,.62-5.43,37.27,37.27,0,0,1,3.78-9l.53.22a36.35,36.35,0,0,0-3.72,8.89,34.8,34.8,0,0,0-.62,5.36c-.05,1-.12,1.94-.22,2.91C433.6,214.34,432.66,216.86,431,218.79Z"/><path class="cls-16" d="M452.72,186.41c1.75-5.46-1.86-11.14-8.06-12.68s-12.64,1.64-14.39,7.1c-1.65,5.13,1.44,10.45,7,12.36a.08.08,0,0,0,0,.05,1,1,0,0,0,.8,1.26,1.18,1.18,0,0,0,1.43-.71.09.09,0,0,0,0,0C445.29,194.66,451.08,191.55,452.72,186.41Z"/><path class="cls-22" d="M452.72,186.41c1.75-5.46-1.86-11.14-8.06-12.68-.46-.11-.91-.19-1.37-.26,5.37,2,8.35,7.21,6.73,12.27s-7.27,8.15-13,7.36l.23.09a.08.08,0,0,0,0,.05,1,1,0,0,0,.8,1.26,1.18,1.18,0,0,0,1.43-.71.09.09,0,0,0,0,0C445.29,194.66,451.08,191.55,452.72,186.41Z"/><path class="cls-21" d="M439.89,181.83c-1.63,2-4.43,2.74-6.25,1.6s-2-3.71-.36-5.73,4.44-2.74,6.26-1.6S441.52,179.81,439.89,181.83Z"/><path class="cls-19" d="M417.67,220.6l-.62-.12c.6-2.41.25-5.14-1.11-8.6-.38-1-.81-2-1.23-2.91a38.47,38.47,0,0,1-2.12-5.53,37.78,37.78,0,0,1-.85-10.25h.64a37.09,37.09,0,0,0,.83,10.12,38.85,38.85,0,0,0,2.09,5.46c.42,1,.86,1.94,1.24,2.92C417.94,215.26,418.29,218.09,417.67,220.6Z"/><path class="cls-3" d="M422.45,181c-1-6-7.4-10.13-14.22-9.22s-11.5,6.52-10.47,12.53c1,5.64,6.65,9.62,13,9.33v.05a1.24,1.24,0,0,0,1.42.92,1.12,1.12,0,0,0,1-1.24.14.14,0,0,0,0-.06C419.34,191.93,423.42,186.64,422.45,181Z"/><path class="cls-23" d="M422.45,181c-1-6-7.4-10.13-14.22-9.22a14.15,14.15,0,0,0-1.47.29c6.23-.18,11.76,3.77,12.72,9.33s-3,10.78-9,12.24h.27v.05a1.24,1.24,0,0,0,1.42.92,1.12,1.12,0,0,0,1-1.24.14.14,0,0,0,0-.06C419.34,191.93,423.42,186.64,422.45,181Z"/><path class="cls-21" d="M407.65,181.53a4.88,4.88,0,0,1-5.3,4,4.35,4.35,0,0,1-3.22-5.45,4.87,4.87,0,0,1,5.3-4A4.35,4.35,0,0,1,407.65,181.53Z"/><path class="cls-17" d="M503.52,166.47,524,156a11.43,11.43,0,0,0-1.07.62,15.18,15.18,0,0,0-5.76,7.37,33.34,33.34,0,0,0-2.05,12.35,54.25,54.25,0,0,0,2.17,15.6A56.2,56.2,0,0,0,545.78,226a38.84,38.84,0,0,0,7.67,3.06,36.5,36.5,0,0,0,6.7,1.16l-20.52,10.51a37.37,37.37,0,0,1-6.7-1.16,38.9,38.9,0,0,1-7.68-3.06,56.67,56.67,0,0,1-22.2-20.23,55,55,0,0,1-6.24-13.87,53.89,53.89,0,0,1-2.17-15.59,33.31,33.31,0,0,1,2.05-12.35,15.26,15.26,0,0,1,5.76-7.38C502.8,166.86,503.15,166.66,503.52,166.47Z"/><polygon class="cls-3" points="525.02 200.44 545.54 189.94 581.48 208.22 560.96 218.72 525.02 200.44"/><polygon class="cls-4" points="560.96 218.72 581.48 208.22 581.35 251.4 560.82 261.9 560.96 218.72"/><path class="cls-16" d="M561.78,182.42l-6.84,7a4,4,0,0,1-1,.76l20.52-10.51a4,4,0,0,0,1-.76l6.84-7Z"/><path class="cls-17" d="M575.37,162.9a95.85,95.85,0,0,0-8.55-8.71,103.63,103.63,0,0,0-10.22-8.08A98.86,98.86,0,0,0,544.74,139q-12.21-6.21-22.11-7.37t-16.89,2.24l-.42.21L484.8,144.6l.42-.21q7-3.4,16.89-2.24t22.11,7.38a99.6,99.6,0,0,1,11.86,7.08,107.94,107.94,0,0,1,10.22,8.08,97.16,97.16,0,0,1,8.55,8.71,98.92,98.92,0,0,1,6.93,9l20.52-10.51A98.82,98.82,0,0,0,575.37,162.9Z"/><path class="cls-5" d="M524.22,149.53a99.6,99.6,0,0,1,11.86,7.08,107.94,107.94,0,0,1,10.22,8.08,97.16,97.16,0,0,1,8.55,8.71,98.92,98.92,0,0,1,6.93,9l-6.84,7a3.88,3.88,0,0,1-4.14.92,6.61,6.61,0,0,1-1.21-.48,15,15,0,0,1-4.23-3.55q-2.76-3.1-5.23-5.58a60.63,60.63,0,0,0-5-4.57,56.7,56.7,0,0,0-5.4-3.86q-2.85-1.8-6.38-3.6A31,31,0,0,0,511.46,165a14.59,14.59,0,0,0-9,2.07,15.26,15.26,0,0,0-5.76,7.38,33.31,33.31,0,0,0-2.05,12.35,53.89,53.89,0,0,0,2.17,15.59,55,55,0,0,0,6.24,13.87,56.67,56.67,0,0,0,22.2,20.23,38.9,38.9,0,0,0,7.68,3.06,37.37,37.37,0,0,0,6.7,1.16l0-15.52-10-5.08a9.12,9.12,0,0,1-3.47-3A6.54,6.54,0,0,1,525,213.5l0-13.06L561,218.72l-.14,43.18a37.67,37.67,0,0,1-16.57-.06,75.34,75.34,0,0,1-18.36-6.73,105.17,105.17,0,0,1-22.7-15.52,109.43,109.43,0,0,1-17.48-19.86,92.43,92.43,0,0,1-11.19-22.29,70,70,0,0,1-3.88-22.84q0-11.44,3.81-19.12a23.27,23.27,0,0,1,10.77-11.09q7-3.4,16.89-2.24T524.22,149.53Z"/><path class="cls-3" d="M386.86,100.31c0-10.37-9.91-18.7-21.84-18-10.5.57-18.92,8.29-19.2,17.55-.21,6.94,4,13,10.35,16.2a1.68,1.68,0,0,1,1,1.46v2.14c0,4.46,4.11,8.08,9.17,8.08h0c5.07,0,9.18-3.62,9.18-8.08v-2.14a1.68,1.68,0,0,1,1-1.46C382.69,112.9,386.86,107,386.86,100.31Z"/><path class="cls-24" d="M365,82.26a22.53,22.53,0,0,0-4.69.78c8.35,2.29,14.42,9.15,14.42,17.27,0,6.72-4.17,12.59-10.36,15.7a1.68,1.68,0,0,0-1,1.46v2.14a7.69,7.69,0,0,1-3.12,6.06,9.89,9.89,0,0,0,6.05,2c5.07,0,9.18-3.62,9.18-8.08v-2.14a1.68,1.68,0,0,1,1-1.46c6.19-3.11,10.36-9,10.36-15.7C386.86,89.94,377,81.61,365,82.26Z"/><path class="cls-25" d="M350.82,104.9a1.81,1.81,0,0,1-1.82-1.35c-2.72-13.69,11.88-18.2,12-18.24a1.9,1.9,0,0,1,2.34,1,1.59,1.59,0,0,1-1.16,2.06c-.49.15-11.73,3.7-9.57,14.6a1.65,1.65,0,0,1-1.5,1.88A1.73,1.73,0,0,1,350.82,104.9Z"/><path class="cls-26" d="M366.34,78.3a2.18,2.18,0,0,1-2.31-2V62.69a2.33,2.33,0,0,1,4.62,0V76.26A2.19,2.19,0,0,1,366.34,78.3Z"/><path class="cls-26" d="M382.88,84.22a1.86,1.86,0,0,1,0-2.88l10.89-9.6a2.55,2.55,0,0,1,3.27,0,1.87,1.87,0,0,1,0,2.88l-10.9,9.6A2.51,2.51,0,0,1,382.88,84.22Z"/><path class="cls-26" d="M389.82,98.71a2.18,2.18,0,0,1,2.31-2h15.41a2.05,2.05,0,1,1,0,4.07H392.13A2.18,2.18,0,0,1,389.82,98.71Z"/><path class="cls-26" d="M343.17,99a2.19,2.19,0,0,1-2.31,2H325.44a2.05,2.05,0,1,1,0-4.07h15.42A2.19,2.19,0,0,1,343.17,99Z"/><path class="cls-26" d="M349.89,84.42a2.55,2.55,0,0,1-3.27,0l-10.9-9.61a1.86,1.86,0,0,1,0-2.87,2.53,2.53,0,0,1,3.27,0l10.9,9.6A1.87,1.87,0,0,1,349.89,84.42Z"/><path class="cls-16" d="M374.79,122.73a22.35,22.35,0,0,1-8.46,1.52,19,19,0,0,1-8.55-1.74,8.78,8.78,0,0,0,5.44,4.68,3.17,3.17,0,0,0,6.23,0A8.78,8.78,0,0,0,374.79,122.73Z"/><path class="cls-3" d="M191.88,213.82l-5.12,12.6a3.32,3.32,0,0,1-1.5,1.51l17.46-9a3.25,3.25,0,0,0,1.51-1.51l5.12-12.59Z"/><polygon class="cls-4" points="196.54 202.41 214.01 193.47 237.56 205.45 220.1 214.39 196.54 202.41"/><path class="cls-3" d="M208.34,172.49q-.9,3.19-1.91,5.79t-1.9,4.43l-8,19.7L214,193.47l8-19.71c.59-1.21,1.22-2.69,1.9-4.42s1.31-3.66,1.91-5.79Z"/><polygon class="cls-4" points="198.24 149.38 215.71 140.44 236.14 150.84 218.68 159.78 198.24 149.38"/><polygon class="cls-14" points="218.68 159.78 236.14 150.84 269.17 254.88 251.7 263.82 218.68 159.78"/><path class="cls-5" d="M218.68,159.78l33,104L236.22,256a12.1,12.1,0,0,1-4.18-3.36,15.53,15.53,0,0,1-2.42-4.37l-5-17.76-32.72-16.64-5.12,12.6a3.52,3.52,0,0,1-2.34,1.83,5.79,5.79,0,0,1-4.17-.77l-15.59-7.93,33.58-70.16Zm-22.14,42.63,23.56,12-7.9-27.9q-.88-2.73-1.87-6.31c-.66-2.39-1.33-5-2-7.69q-.9,3.19-1.91,5.79t-1.9,4.43l-8,19.7"/><g class="cls-1"><polygon class="cls-6" points="183.11 279.98 208.04 267.22 212.35 269.41 187.43 282.18 183.11 279.98"/><polygon class="cls-7" points="183.13 275.62 208.06 262.86 208.04 267.22 183.11 279.98 183.13 275.62"/><polygon class="cls-27" points="187.44 277.81 212.37 265.05 212.35 269.41 187.43 282.18 187.44 277.81"/><polygon class="cls-28" points="187.44 277.81 187.43 282.18 183.11 279.98 183.13 275.62 187.44 277.81"/><polygon class="cls-29" points="183.13 275.62 208.06 262.86 212.37 265.05 187.44 277.81 183.13 275.62"/><polygon class="cls-6" points="183.13 272.78 208.06 260.02 212.38 262.21 187.45 274.98 183.13 272.78"/><polygon class="cls-7" points="183.15 268.42 208.08 255.65 208.06 260.02 183.13 272.78 183.15 268.42"/><polygon class="cls-6" points="190.8 283.89 215.73 271.13 220.04 273.32 195.11 286.08 190.8 283.89"/><polygon class="cls-7" points="190.81 279.53 215.74 266.76 215.73 271.13 190.8 283.89 190.81 279.53"/><polygon class="cls-29" points="183.15 268.42 208.08 255.65 212.39 257.85 187.46 270.61 183.15 268.42"/><polygon class="cls-27" points="187.46 270.61 212.39 257.85 212.38 262.21 187.45 274.98 187.46 270.61"/><polygon class="cls-28" points="187.46 270.61 187.45 274.98 183.13 272.78 183.15 268.42 187.46 270.61"/><polygon class="cls-27" points="195.13 281.72 220.06 268.96 220.04 273.32 195.11 286.08 195.13 281.72"/><polygon class="cls-28" points="195.13 281.72 195.11 286.08 190.8 283.89 190.81 279.53 195.13 281.72"/><polygon class="cls-29" points="190.81 279.53 215.74 266.76 220.06 268.96 195.13 281.72 190.81 279.53"/><polygon class="cls-6" points="183.16 265.59 208.09 252.82 212.4 255.02 187.47 267.78 183.16 265.59"/><polygon class="cls-7" points="183.17 261.22 208.1 248.46 208.09 252.82 183.16 265.59 183.17 261.22"/><polygon class="cls-6" points="190.82 276.69 215.75 263.93 220.07 266.12 195.14 278.89 190.82 276.69"/><polygon class="cls-7" points="190.84 272.33 215.77 259.56 215.75 263.93 190.82 276.69 190.84 272.33"/><polygon class="cls-6" points="198.49 287.8 223.42 275.04 227.73 277.23 202.8 290 198.49 287.8"/><polygon class="cls-7" points="198.5 283.44 223.43 270.68 223.42 275.04 198.49 287.8 198.5 283.44"/><polygon class="cls-28" points="187.49 263.41 187.47 267.78 183.16 265.59 183.17 261.22 187.49 263.41"/><polygon class="cls-27" points="187.49 263.41 212.41 250.65 212.4 255.02 187.47 267.78 187.49 263.41"/><polygon class="cls-29" points="183.17 261.22 208.1 248.46 212.41 250.65 187.49 263.41 183.17 261.22"/><polygon class="cls-27" points="195.15 274.52 220.08 261.76 220.07 266.12 195.14 278.89 195.15 274.52"/><polygon class="cls-29" points="190.84 272.33 215.77 259.56 220.08 261.76 195.15 274.52 190.84 272.33"/><polygon class="cls-29" points="198.5 283.44 223.43 270.68 227.74 272.87 202.81 285.63 198.5 283.44"/><polygon class="cls-27" points="202.81 285.63 227.74 272.87 227.73 277.23 202.8 290 202.81 285.63"/><polygon class="cls-6" points="183.18 258.38 208.11 245.62 212.43 247.82 187.5 260.58 183.18 258.38"/><polygon class="cls-7" points="183.2 254.02 208.13 241.25 208.11 245.62 183.18 258.38 183.2 254.02"/><polygon class="cls-6" points="190.85 269.5 215.78 256.73 220.09 258.93 195.16 271.69 190.85 269.5"/><polygon class="cls-7" points="190.86 265.13 215.79 252.37 215.78 256.73 190.85 269.5 190.86 265.13"/><polygon class="cls-6" points="198.51 280.6 223.44 267.84 227.75 270.03 202.82 282.8 198.51 280.6"/><polygon class="cls-7" points="198.52 276.24 223.45 263.47 223.44 267.84 198.51 280.6 198.52 276.24"/><polygon class="cls-6" points="206.17 291.71 231.1 278.95 235.42 281.14 210.49 293.9 206.17 291.71"/><polygon class="cls-7" points="206.19 287.35 231.12 274.58 231.1 278.95 206.17 291.71 206.19 287.35"/><polygon class="cls-29" points="183.2 254.02 208.13 241.25 212.44 243.45 187.51 256.21 183.2 254.02"/><polygon class="cls-27" points="187.51 256.21 212.44 243.45 212.43 247.82 187.5 260.58 187.51 256.21"/><polygon class="cls-27" points="195.17 267.32 220.1 254.56 220.09 258.93 195.16 271.69 195.17 267.32"/><polygon class="cls-29" points="190.86 265.13 215.79 252.37 220.1 254.56 195.17 267.32 190.86 265.13"/><polygon class="cls-27" points="202.84 278.43 227.77 265.67 227.75 270.04 202.82 282.8 202.84 278.43"/><polygon class="cls-29" points="198.52 276.24 223.45 263.47 227.77 265.67 202.84 278.43 198.52 276.24"/><polygon class="cls-27" points="210.5 289.54 235.43 276.78 235.42 281.14 210.49 293.9 210.5 289.54"/><polygon class="cls-28" points="210.5 289.54 210.49 293.9 206.17 291.71 206.19 287.35 210.5 289.54"/><polygon class="cls-29" points="206.19 287.35 231.12 274.59 235.43 276.78 210.5 289.54 206.19 287.35"/><polygon class="cls-6" points="190.87 262.3 215.8 249.53 220.11 251.73 195.18 264.49 190.87 262.3"/><polygon class="cls-7" points="190.88 257.93 215.81 245.16 215.8 249.53 190.87 262.3 190.88 257.93"/><polygon class="cls-6" points="198.53 273.41 223.46 260.64 227.78 262.84 202.85 275.6 198.53 273.41"/><polygon class="cls-7" points="198.55 269.04 223.48 256.28 223.46 260.64 198.53 273.41 198.55 269.04"/><polygon class="cls-6" points="206.2 284.51 231.13 271.75 235.44 273.94 210.51 286.71 206.2 284.51"/><polygon class="cls-7" points="206.21 280.15 231.14 267.38 231.13 271.75 206.2 284.51 206.21 280.15"/><polygon class="cls-27" points="195.2 260.12 220.13 247.36 220.11 251.73 195.18 264.49 195.2 260.12"/><polygon class="cls-29" points="190.88 257.93 215.81 245.16 220.13 247.36 195.2 260.12 190.88 257.93"/><polygon class="cls-29" points="198.55 269.04 223.48 256.28 227.79 258.47 202.86 271.23 198.55 269.04"/><polygon class="cls-28" points="202.86 271.23 202.85 275.6 198.53 273.41 198.55 269.04 202.86 271.23"/><polygon class="cls-27" points="202.86 271.23 227.79 258.47 227.78 262.84 202.85 275.6 202.86 271.23"/><polygon class="cls-27" points="210.53 282.34 235.46 269.58 235.44 273.94 210.51 286.71 210.53 282.34"/><polygon class="cls-29" points="206.21 280.15 231.14 267.38 235.46 269.58 210.53 282.34 206.21 280.15"/><polygon class="cls-28" points="210.53 282.34 210.51 286.71 206.2 284.51 206.21 280.15 210.53 282.34"/><polygon class="cls-6" points="198.56 266.2 223.49 253.44 227.8 255.64 202.87 268.4 198.56 266.2"/><polygon class="cls-7" points="198.57 261.84 223.5 249.07 223.49 253.44 198.56 266.2 198.57 261.84"/><polygon class="cls-6" points="206.22 277.32 231.15 264.55 235.46 266.75 210.53 279.51 206.22 277.32"/><polygon class="cls-7" points="206.24 272.95 231.16 260.19 231.15 264.55 206.22 277.32 206.24 272.95"/><polygon class="cls-27" points="202.88 264.03 227.81 251.27 227.8 255.64 202.87 268.4 202.88 264.03"/><polygon class="cls-28" points="202.88 264.03 202.87 268.4 198.56 266.2 198.57 261.84 202.88 264.03"/><polygon class="cls-29" points="198.57 261.84 223.5 249.07 227.81 251.27 202.88 264.03 198.57 261.84"/><polygon class="cls-27" points="210.55 275.14 235.48 262.38 235.46 266.75 210.53 279.51 210.55 275.14"/><polygon class="cls-28" points="210.55 275.14 210.53 279.51 206.22 277.32 206.24 272.95 210.55 275.14"/><polygon class="cls-29" points="206.24 272.95 231.16 260.19 235.48 262.38 210.55 275.14 206.24 272.95"/><polygon class="cls-6" points="206.24 270.12 231.17 257.35 235.49 259.55 210.56 272.31 206.24 270.12"/><polygon class="cls-7" points="206.26 265.75 231.19 252.99 231.17 257.35 206.24 270.12 206.26 265.75"/><polygon class="cls-29" points="206.26 265.75 231.19 252.99 235.5 255.18 210.57 267.94 206.26 265.75"/><polygon class="cls-28" points="210.57 267.94 210.56 272.31 206.24 270.12 206.26 265.75 210.57 267.94"/><polygon class="cls-27" points="210.57 267.94 235.5 255.18 235.49 259.55 210.56 272.31 210.57 267.94"/><path class="cls-3" d="M178.61,248l36.57,18.59-.19,59L178.42,307Zm24.21,34.79,0-4.37-4.32-2.19v4.36l4.31,2.2m.05-14.4V264l-4.31-2.19v4.37l4.31,2.19m-7.73,10.49v-4.37l-4.31-2.19,0,4.36,4.32,2.2M187.45,275v-4.37l-4.31-2.19v4.36l4.31,2.2m7.73-10.49,0-4.37-4.32-2.19v4.37l4.31,2.19m-7.69-3.91,0-4.37L183.2,254l0,4.37,4.31,2.19m15.36,15v-4.37L198.55,269l0,4.37,4.32,2.19m7.66,11.11v-4.37l-4.31-2.19v4.36l4.31,2.2m-23-18.93,0-4.37-4.32-2.19v4.37l4.31,2.19m23.09,4.53v-4.37l-4.31-2.19,0,4.37,4.32,2.19m-15.4-.62v-4.37l-4.31-2.19v4.37l4.31,2.19m15.37,7.82,0-4.37L206.23,273v4.37l4.31,2.19M202.8,290v-4.36l-4.31-2.19v4.36L202.8,290m-7.69-3.91,0-4.36-4.32-2.19v4.36l4.31,2.19m-7.68-3.91v-4.36l-4.31-2.19,0,4.36,4.32,2.19m23.06,11.74v-4.37l-4.31-2.19,0,4.36,4.32,2.2"/><polygon class="cls-28" points="195.15 274.52 195.14 278.89 190.82 276.69 190.84 272.33 195.15 274.52"/><polygon class="cls-28" points="202.81 285.63 202.8 290 198.49 287.8 198.5 283.44 202.81 285.63"/><polygon class="cls-28" points="187.51 256.21 187.5 260.58 183.18 258.38 183.2 254.02 187.51 256.21"/><polygon class="cls-28" points="195.17 267.32 195.16 271.69 190.85 269.5 190.86 265.13 195.17 267.32"/><polygon class="cls-28" points="202.84 278.43 202.82 282.8 198.51 280.6 198.52 276.24 202.84 278.43"/><polygon class="cls-28" points="195.2 260.12 195.18 264.49 190.87 262.3 190.88 257.93 195.2 260.12"/><polygon class="cls-6" points="178.61 248.01 203.54 235.24 240.11 253.84 215.18 266.6 178.61 248.01"/><polygon class="cls-30" points="215.18 266.6 240.11 253.84 239.92 312.86 214.99 325.62 215.18 266.6"/><polygon class="cls-31" points="215.75 262.78 240.68 250.02 240.66 254.12 215.73 266.89 215.75 262.78"/><polygon class="cls-3" points="178.07 243.62 203 230.85 240.68 250.02 215.75 262.78 178.07 243.62"/><polygon class="cls-32" points="215.75 262.78 215.73 266.89 215.18 266.6 178.61 248.01 178.06 247.72 178.07 243.62 215.75 262.78"/></g><path class="cls-15" d="M490.91,246c-6.43,0-11.74,15.59-12.6,25.52-.13,1.5.59,2.84,1.53,2.84H502c.94,0,1.66-1.34,1.53-2.84C502.65,261.54,497.34,246,490.91,246Z"/><path class="cls-33" d="M503.51,271.47c-.86-9.93-6.17-25.52-12.6-25.52a3.25,3.25,0,0,0-.44,0c3.9,5.15,6.76,15,7.37,22.09.13,1.5-.59,2.84-1.53,2.84H478.36c0,.19,0,.38-.05.56-.13,1.5.59,2.84,1.53,2.84H502C502.92,274.31,503.64,273,503.51,271.47Z"/><path class="cls-34" d="M490.91,286.6a1.15,1.15,0,0,1-1.21-1.06V263.08a1.22,1.22,0,0,1,2.42,0v22.46A1.15,1.15,0,0,1,490.91,286.6Z"/><path class="cls-15" d="M310.41,151.32c-6.43,0-11.74,15.59-12.6,25.52-.13,1.5.59,2.84,1.53,2.84h22.14c.94,0,1.66-1.34,1.53-2.84C322.15,166.91,316.84,151.32,310.41,151.32Z"/><path class="cls-33" d="M323,176.84c-.86-9.93-6.17-25.52-12.6-25.52-.15,0-.29,0-.44,0,3.9,5.16,6.76,15.05,7.37,22.1.13,1.49-.6,2.84-1.54,2.84H297.86c0,.18,0,.37-.05.55-.13,1.5.59,2.84,1.53,2.84h22.14C322.42,179.68,323.14,178.34,323,176.84Z"/><path class="cls-34" d="M310.41,192a1.14,1.14,0,0,1-1.21-1.06V168.46a1.21,1.21,0,0,1,2.41,0v22.45A1.14,1.14,0,0,1,310.41,192Z"/><path class="cls-15" d="M112,113.42c-6.43,0-11.74,15.59-12.6,25.53-.13,1.49.59,2.83,1.53,2.83h22.14c.94,0,1.66-1.34,1.53-2.83C123.72,129,118.41,113.42,112,113.42Z"/><path class="cls-33" d="M124.58,139c-.86-9.94-6.17-25.53-12.6-25.53-.15,0-.29,0-.44,0,3.9,5.16,6.76,15,7.37,22.1.13,1.5-.59,2.84-1.54,2.84H99.43c0,.18,0,.37-.05.56-.13,1.49.59,2.83,1.53,2.83h22.14C124,141.78,124.71,140.44,124.58,139Z"/><path class="cls-34" d="M112,154.07a1.14,1.14,0,0,1-1.21-1.06V130.56a1.22,1.22,0,0,1,2.42,0V153A1.14,1.14,0,0,1,112,154.07Z"/><path class="cls-15" d="M475.89,110a11.26,11.26,0,0,0-2.62.32,4.21,4.21,0,0,0-3.69-2,3.9,3.9,0,0,0-4.12,3.63,3.49,3.49,0,0,0,1.51,2.81,8,8,0,0,0-1.17,4.15c0,4.91,4.52,8.89,10.09,8.89s10.1-4,10.1-8.89S481.47,110,475.89,110Z"/><path class="cls-33" d="M482.11,111.92a8.06,8.06,0,0,1,1.44,4.56c0,4.91-4.52,8.89-10.09,8.89a11,11,0,0,1-6.23-1.89,10.43,10.43,0,0,0,8.66,4.33c5.58,0,10.1-4,10.1-8.89A8.55,8.55,0,0,0,482.11,111.92Z"/><path class="cls-34" d="M475.89,138.66a.91.91,0,0,1-.95-.85V120a1,1,0,0,1,1.91,0v17.81A.91.91,0,0,1,475.89,138.66Z"/><path class="cls-15" d="M332,163.34a11.34,11.34,0,0,0-2.63.31,4.21,4.21,0,0,0-3.68-2,3.91,3.91,0,0,0-4.13,3.64,3.46,3.46,0,0,0,1.51,2.8,8.06,8.06,0,0,0-1.17,4.15c0,4.92,4.52,8.9,10.1,8.9s10.09-4,10.09-8.9S337.54,163.34,332,163.34Z"/><path class="cls-33" d="M338.19,165.24a8.11,8.11,0,0,1,1.43,4.56c0,4.91-4.52,8.89-10.09,8.89a10.88,10.88,0,0,1-6.22-1.9,10.39,10.39,0,0,0,8.66,4.34c5.57,0,10.09-4,10.09-8.9A8.55,8.55,0,0,0,338.19,165.24Z"/><path class="cls-34" d="M332,192a.9.9,0,0,1-1-.84V173.31a1,1,0,0,1,1.91,0v17.82A.9.9,0,0,1,332,192Z"/><path class="cls-15" d="M131.56,262.37a11.34,11.34,0,0,0-2.63.31,4.19,4.19,0,0,0-3.68-2,3.9,3.9,0,0,0-4.12,3.63,3.48,3.48,0,0,0,1.5,2.81,8.06,8.06,0,0,0-1.17,4.15c0,4.91,4.52,8.9,10.1,8.9s10.1-4,10.1-8.9S137.14,262.37,131.56,262.37Z"/><path class="cls-33" d="M137.78,264.26a8.06,8.06,0,0,1,1.44,4.56c0,4.91-4.52,8.9-10.1,8.9a11,11,0,0,1-6.22-1.9,10.43,10.43,0,0,0,8.66,4.34c5.57,0,10.1-4,10.1-8.9A8.55,8.55,0,0,0,137.78,264.26Z"/><path class="cls-34" d="M131.56,291a.91.91,0,0,1-1-.84V272.34a1,1,0,0,1,1.92,0v17.82A.91.91,0,0,1,131.56,291Z"/><path class="cls-15" d="M157.11,259.78a16.56,16.56,0,0,0-3.77.45,6,6,0,0,0-5.29-2.88c-3.27,0-5.92,2.33-5.92,5.21a5,5,0,0,0,2.16,4,11.52,11.52,0,0,0-1.68,6c0,7.06,6.49,12.78,14.5,12.78s14.49-5.72,14.49-12.78S165.11,259.78,157.11,259.78Z"/><path class="cls-33" d="M166,262.51a11.58,11.58,0,0,1,2.06,6.54c0,7.06-6.49,12.77-14.49,12.77a15.73,15.73,0,0,1-8.94-2.72,15,15,0,0,0,12.44,6.23c8,0,14.49-5.72,14.49-12.78A12.27,12.27,0,0,0,166,262.51Z"/><path class="cls-34" d="M157.11,300.9a1.31,1.31,0,0,1-1.38-1.21V274.1a1.39,1.39,0,0,1,2.75,0v25.59A1.31,1.31,0,0,1,157.11,300.9Z"/><g class="cls-1"><path class="cls-4" d="M64.76,179c.76-.39,1.39-.08,1.39.69l.17,54.11a2.62,2.62,0,0,1-1.37,2.1L19,259.23c-.77.39-1.39.08-1.39-.69l-.18-54.11,0,10,19.24,35.79,20.7-10.53L33.33,194.94Z"/><path class="cls-35" d="M33.33,194.94l24.06,44.75-20.7,10.53L17.45,214.43l0-10a2.65,2.65,0,0,1,1.38-2.1Z"/><path d="M65.79,174.48c.83-.42,1.51-.08,1.51.76L67.5,237a2.88,2.88,0,0,1-1.5,2.3L18,263.7c-.83.42-1.51.08-1.51-.76l-.2-61.72a2.87,2.87,0,0,1,1.5-2.3Zm.53,59.27-.17-54.11c0-.77-.63-1.08-1.39-.69l-31.43,16-14.54,7.39a2.65,2.65,0,0,0-1.38,2.1l.18,54.11c0,.77.62,1.08,1.39.69l46-23.38a2.62,2.62,0,0,0,1.37-2.1"/></g><g class="cls-1"><polygon class="cls-6" points="251.19 160.32 269.09 151.16 272.19 152.73 254.29 161.9 251.19 160.32"/><polygon class="cls-7" points="251.2 157.19 269.1 148.03 269.09 151.16 251.19 160.32 251.2 157.19"/><polygon class="cls-27" points="254.3 158.77 272.2 149.6 272.19 152.73 254.29 161.9 254.3 158.77"/><polygon class="cls-28" points="254.3 158.77 254.29 161.9 251.19 160.32 251.2 157.19 254.3 158.77"/><polygon class="cls-29" points="251.2 157.19 269.1 148.03 272.2 149.6 254.3 158.77 251.2 157.19"/><polygon class="cls-6" points="251.21 155.16 269.11 145.99 272.21 147.57 254.31 156.73 251.21 155.16"/><polygon class="cls-7" points="251.22 152.02 269.12 142.85 269.11 145.99 251.21 155.16 251.22 152.02"/><polygon class="cls-6" points="256.71 163.13 274.61 153.97 277.71 155.54 259.81 164.71 256.71 163.13"/><polygon class="cls-7" points="256.72 160 274.62 150.83 274.61 153.97 256.71 163.13 256.72 160"/><polygon class="cls-29" points="251.22 152.02 269.12 142.85 272.22 144.43 254.31 153.59 251.22 152.02"/><polygon class="cls-27" points="254.31 153.59 272.22 144.43 272.21 147.57 254.31 156.73 254.31 153.59"/><polygon class="cls-28" points="254.31 153.59 254.31 156.73 251.21 155.16 251.22 152.02 254.31 153.59"/><polygon class="cls-27" points="259.82 161.57 277.72 152.41 277.71 155.54 259.81 164.71 259.82 161.57"/><polygon class="cls-28" points="259.82 161.57 259.81 164.71 256.71 163.13 256.72 160 259.82 161.57"/><polygon class="cls-29" points="256.72 160 274.62 150.83 277.72 152.41 259.82 161.57 256.72 160"/><polygon class="cls-6" points="251.22 149.99 269.13 140.82 272.22 142.4 254.32 151.56 251.22 149.99"/><polygon class="cls-7" points="251.24 146.85 269.13 137.69 269.13 140.82 251.22 149.99 251.24 146.85"/><polygon class="cls-6" points="256.73 157.96 274.63 148.8 277.73 150.37 259.82 159.54 256.73 157.96"/><polygon class="cls-7" points="256.74 154.83 274.64 145.66 274.63 148.8 256.73 157.96 256.74 154.83"/><polygon class="cls-6" points="262.23 165.94 280.13 156.77 283.23 158.35 265.33 167.51 262.23 165.94"/><polygon class="cls-7" points="262.24 162.81 280.14 153.64 280.13 156.77 262.23 165.94 262.24 162.81"/><polygon class="cls-28" points="254.33 148.43 254.32 151.56 251.22 149.99 251.24 146.85 254.33 148.43"/><polygon class="cls-27" points="254.33 148.43 272.23 139.26 272.22 142.4 254.32 151.56 254.33 148.43"/><polygon class="cls-29" points="251.24 146.85 269.13 137.69 272.23 139.26 254.33 148.43 251.24 146.85"/><polygon class="cls-27" points="259.83 156.4 277.74 147.24 277.73 150.37 259.82 159.54 259.83 156.4"/><polygon class="cls-29" points="256.74 154.83 274.64 145.66 277.74 147.24 259.83 156.4 256.74 154.83"/><polygon class="cls-29" points="262.24 162.81 280.14 153.64 283.24 155.22 265.34 164.38 262.24 162.81"/><polygon class="cls-27" points="265.34 164.38 283.24 155.22 283.23 158.35 265.33 167.51 265.34 164.38"/><polygon class="cls-6" points="251.24 144.82 269.14 135.65 272.24 137.23 254.34 146.39 251.24 144.82"/><polygon class="cls-7" points="251.25 141.68 269.15 132.52 269.14 135.65 251.24 144.82 251.25 141.68"/><polygon class="cls-6" points="256.75 152.79 274.64 143.63 277.74 145.21 259.84 154.37 256.75 152.79"/><polygon class="cls-7" points="256.75 149.66 274.65 140.5 274.64 143.63 256.75 152.79 256.75 149.66"/><polygon class="cls-6" points="262.25 160.77 280.15 151.61 283.25 153.18 265.35 162.35 262.25 160.77"/><polygon class="cls-7" points="262.26 157.63 280.16 148.47 280.15 151.61 262.25 160.77 262.26 157.63"/><polygon class="cls-6" points="267.75 168.75 285.65 159.58 288.75 161.16 270.85 170.32 267.75 168.75"/><polygon class="cls-7" points="267.76 165.61 285.66 156.45 285.65 159.58 267.75 168.75 267.76 165.61"/><polygon class="cls-29" points="251.25 141.68 269.15 132.52 272.25 134.09 254.35 143.26 251.25 141.68"/><polygon class="cls-27" points="254.35 143.26 272.25 134.09 272.24 137.23 254.34 146.39 254.35 143.26"/><polygon class="cls-27" points="259.85 151.24 277.75 142.07 277.74 145.21 259.84 154.37 259.85 151.24"/><polygon class="cls-29" points="256.75 149.66 274.66 140.5 277.75 142.07 259.85 151.24 256.75 149.66"/><polygon class="cls-27" points="265.36 159.21 283.26 150.05 283.25 153.18 265.35 162.35 265.36 159.21"/><polygon class="cls-29" points="262.26 157.63 280.16 148.47 283.26 150.05 265.36 159.21 262.26 157.63"/><polygon class="cls-27" points="270.86 167.19 288.76 158.03 288.75 161.16 270.85 170.32 270.86 167.19"/><polygon class="cls-28" points="270.86 167.19 270.85 170.32 267.75 168.75 267.76 165.61 270.86 167.19"/><polygon class="cls-29" points="267.76 165.61 285.66 156.45 288.76 158.03 270.86 167.19 267.76 165.61"/><polygon class="cls-6" points="256.76 147.62 274.66 138.46 277.76 140.03 259.86 149.2 256.76 147.62"/><polygon class="cls-7" points="256.77 144.49 274.67 135.32 274.66 138.46 256.76 147.62 256.77 144.49"/><polygon class="cls-6" points="262.26 155.6 280.17 146.44 283.26 148.01 265.36 157.18 262.26 155.6"/><polygon class="cls-7" points="262.27 152.47 280.18 143.3 280.17 146.44 262.26 155.6 262.27 152.47"/><polygon class="cls-6" points="267.77 163.58 285.67 154.41 288.77 155.99 270.87 165.15 267.77 163.58"/><polygon class="cls-7" points="267.78 160.44 285.68 151.28 285.67 154.41 267.77 163.58 267.78 160.44"/><polygon class="cls-27" points="259.87 146.06 277.77 136.9 277.76 140.03 259.86 149.2 259.87 146.06"/><polygon class="cls-29" points="256.77 144.49 274.67 135.32 277.77 136.9 259.87 146.06 256.77 144.49"/><polygon class="cls-29" points="262.27 152.47 280.18 143.3 283.27 144.88 265.37 154.04 262.27 152.47"/><polygon class="cls-28" points="265.37 154.04 265.36 157.18 262.26 155.6 262.27 152.47 265.37 154.04"/><polygon class="cls-27" points="265.37 154.04 283.27 144.88 283.26 148.01 265.36 157.18 265.37 154.04"/><polygon class="cls-27" points="270.88 162.02 288.78 152.85 288.77 155.99 270.87 165.15 270.88 162.02"/><polygon class="cls-29" points="267.78 160.44 285.68 151.28 288.78 152.85 270.88 162.02 267.78 160.44"/><polygon class="cls-28" points="270.88 162.02 270.87 165.15 267.77 163.58 267.78 160.44 270.88 162.02"/><polygon class="cls-6" points="262.28 150.43 280.18 141.27 283.28 142.84 265.38 152.01 262.28 150.43"/><polygon class="cls-7" points="262.29 147.3 280.19 138.13 280.18 141.27 262.28 150.43 262.29 147.3"/><polygon class="cls-6" points="267.79 158.41 285.69 149.25 288.78 150.82 270.88 159.99 267.79 158.41"/><polygon class="cls-7" points="267.8 155.28 285.69 146.11 285.69 149.25 267.79 158.41 267.8 155.28"/><polygon class="cls-27" points="265.39 148.87 283.29 139.71 283.28 142.84 265.38 152.01 265.39 148.87"/><polygon class="cls-28" points="265.39 148.87 265.38 152.01 262.28 150.43 262.29 147.3 265.39 148.87"/><polygon class="cls-29" points="262.29 147.3 280.19 138.13 283.29 139.71 265.39 148.87 262.29 147.3"/><polygon class="cls-27" points="270.89 156.85 288.79 147.69 288.78 150.82 270.88 159.99 270.89 156.85"/><polygon class="cls-28" points="270.89 156.85 270.88 159.99 267.79 158.41 267.8 155.28 270.89 156.85"/><polygon class="cls-29" points="267.8 155.28 285.69 146.11 288.79 147.69 270.89 156.85 267.8 155.28"/><polygon class="cls-6" points="267.8 153.24 285.7 144.07 288.8 145.65 270.9 154.81 267.8 153.24"/><polygon class="cls-7" points="267.81 150.1 285.71 140.94 285.7 144.07 267.8 153.24 267.81 150.1"/><polygon class="cls-29" points="267.81 150.1 285.71 140.94 288.81 142.51 270.91 151.68 267.81 150.1"/><polygon class="cls-28" points="270.91 151.68 270.9 154.81 267.8 153.24 267.81 150.1 270.91 151.68"/><polygon class="cls-27" points="270.91 151.68 288.81 142.51 288.8 145.65 270.9 154.81 270.91 151.68"/><path class="cls-5" d="M248,137.36l26.26,13.36-.14,42.38-26.25-13.36Zm17.39,25v-3.14l-3.1-1.57v3.13l3.1,1.58m0-10.34v-3.14l-3.1-1.57v3.13l3.1,1.58m-5.55,7.53V156.4l-3.1-1.57V158l3.1,1.58m-5.52-2.81V153.6l-3.1-1.58v3.14l3.1,1.57m5.55-7.53v-3.14l-3.1-1.57v3.13l3.1,1.58m-5.52-2.81v-3.13l-3.1-1.58v3.14l3.1,1.57m11,10.79V154l-3.1-1.57v3.13l3.1,1.58m5.51,8V162l-3.1-1.58v3.14l3.1,1.57m-16.55-13.59v-3.13l-3.1-1.58V150l3.1,1.57m16.58,3.26v-3.14l-3.1-1.58v3.14l3.1,1.58m-11.06-.45v-3.13l-3.1-1.58v3.14l3.1,1.57m11,5.62v-3.14l-3.1-1.57v3.13l3.1,1.58m-5.55,7.52v-3.13l-3.1-1.57v3.13l3.1,1.57m-5.52-2.8v-3.14l-3.1-1.57v3.13l3.1,1.58m-5.52-2.81v-3.13l-3.1-1.58v3.13l3.1,1.58m16.56,8.42v-3.13l-3.1-1.58v3.14l3.1,1.57"/><polygon class="cls-28" points="259.83 156.4 259.82 159.54 256.73 157.96 256.74 154.83 259.83 156.4"/><polygon class="cls-28" points="265.34 164.38 265.33 167.51 262.23 165.94 262.24 162.81 265.34 164.38"/><polygon class="cls-28" points="254.35 143.26 254.34 146.39 251.24 144.82 251.25 141.68 254.35 143.26"/><polygon class="cls-28" points="259.85 151.24 259.84 154.37 256.75 152.79 256.75 149.66 259.85 151.24"/><polygon class="cls-28" points="265.36 159.21 265.35 162.35 262.25 160.77 262.26 157.63 265.36 159.21"/><polygon class="cls-28" points="259.87 146.06 259.86 149.2 256.76 147.62 256.77 144.49 259.87 146.06"/><polygon class="cls-6" points="247.96 137.36 265.86 128.2 292.12 141.55 274.21 150.72 247.96 137.36"/><polygon class="cls-36" points="274.21 150.72 292.12 141.55 291.98 183.93 274.08 193.1 274.21 150.72"/><polygon class="cls-37" points="274.62 147.97 292.52 138.81 292.51 141.76 274.61 150.92 274.62 147.97"/><polygon class="cls-5" points="247.57 134.21 265.47 125.05 292.52 138.81 274.62 147.97 247.57 134.21"/><polygon class="cls-19" points="274.62 147.97 274.61 150.92 274.21 150.72 247.96 137.36 247.56 137.16 247.57 134.21 274.62 147.97"/></g><path class="cls-4" d="M478,66.28A23.8,23.8,0,0,1,488.53,78a6.09,6.09,0,0,1,4.47.68l.44.24c3.83,2.17,6.75,7,6.73,10.92v5c0,1.61-1.3,2.25-2.88,1.44L461.46,78.07a5.42,5.42,0,0,1-2.86-4.36l0-5c0-2.61,2.09-3.84,4.66-2.53a9,9,0,0,1,3.24,3C468,64.87,472.56,63.5,478,66.28Z"/><path class="cls-19" d="M353.72,2.45c7.78,4,14.51,11.81,17.92,20,2.09-.63,4.73-.3,7.62,1.17l.74.4c6.54,3.7,11.5,12,11.48,18.6l0,8.47c0,2.74-2.21,3.83-4.9,2.46l-61-31c-2.7-1.37-4.88-4.69-4.87-7.43l0-8.51c0-4.44,3.57-6.53,7.94-4.31a15.41,15.41,0,0,1,5.52,5.12C336.61.06,344.44-2.27,353.72,2.45Z"/><path class="cls-3" d="M365.4,283.19c11.83,6,22.06,17.95,27.23,30.46,3.18-1,7.2-.46,11.58,1.77.38.19.75.39,1.13.61,9.94,5.63,17.48,18.21,17.45,28.28l0,12.87c0,4.17-3.36,5.83-7.46,3.75l-92.76-47.19c-4.11-2.09-7.41-7.13-7.4-11.29l0-12.94c0-6.75,5.44-9.92,12.07-6.55a23.38,23.38,0,0,1,8.39,7.78C339.39,279.55,351.29,276,365.4,283.19Z"/><path class="cls-4" d="M97.87,31.26a25.88,25.88,0,0,1,11.44,12.8,6.69,6.69,0,0,1,4.87.74l.47.26C118.83,47.43,122,52.71,122,57v5.41c0,1.74-1.41,2.44-3.13,1.57l-39-19.83a5.94,5.94,0,0,1-3.11-4.75l0-5.43c0-2.84,2.28-4.17,5.07-2.76a9.89,9.89,0,0,1,3.53,3.27C86.93,29.73,91.94,28.24,97.87,31.26Z"/><path class="cls-19" d="M472.85,188.64A13.79,13.79,0,0,1,479,195.5a3.54,3.54,0,0,1,2.61.39l.26.14a8.12,8.12,0,0,1,3.92,6.37v2.9c0,.93-.75,1.31-1.67.84L463.2,195.52a3.17,3.17,0,0,1-1.66-2.55v-2.91c0-1.52,1.22-2.23,2.71-1.47a5.12,5.12,0,0,1,1.89,1.75C467,187.82,469.68,187,472.85,188.64Z"/><path class="cls-38" d="M278.27,276.11a23.8,23.8,0,0,1,10.52,11.76,6.11,6.11,0,0,1,4.47.68l.43.24c3.84,2.17,6.75,7,6.74,10.92v5c0,1.61-1.3,2.25-2.88,1.45l-35.82-18.22a5.45,5.45,0,0,1-2.86-4.37v-5c0-2.61,2.1-3.83,4.66-2.53a9.06,9.06,0,0,1,3.24,3C268.22,274.7,272.82,273.34,278.27,276.11Z"/><path class="cls-38" d="M472.28,299.41a23.8,23.8,0,0,1,10.52,11.76,6.11,6.11,0,0,1,4.47.68l.43.24c3.84,2.17,6.75,7,6.74,10.92v5c0,1.61-1.3,2.25-2.88,1.45l-35.82-18.22a5.45,5.45,0,0,1-2.86-4.37v-5c0-2.61,2.1-3.83,4.66-2.53a9.06,9.06,0,0,1,3.24,3C462.23,298,466.83,296.64,472.28,299.41Z"/></g></g></g></svg>