<svg xmlns="http://www.w3.org/2000/svg" xmlns:xlink="http://www.w3.org/1999/xlink" viewBox="0 0 221.38 221.38"><defs><style>.cls-1{fill:url(#linear-gradient);}.cls-2{fill:#fff;}</style><linearGradient id="linear-gradient" y1="110.69" x2="221.38" y2="110.69" gradientUnits="userSpaceOnUse"><stop offset="0" stop-color="#226d37"/><stop offset="0.59" stop-color="#215529"/><stop offset="1" stop-color="#21421d"/></linearGradient></defs><title>img-5</title><g id="Layer_2" data-name="Layer 2"><g id="Layer_1-2" data-name="Layer 1"><rect class="cls-1" width="221.38" height="221.38" rx="110.69"/><path class="cls-2" d="M97.87,136.46l.87,1.31q7.68,11.32,15.37,22.64a10.88,10.88,0,0,1,2.14,7.51,10.28,10.28,0,0,1-8.09,9.33,10.94,10.94,0,0,1-11.49-4.76q-8.82-12.93-17.59-25.89c-.34-.5-.7-1-.89-1.27a47.14,47.14,0,0,1-6.79,2.17c-11.67,1.92-19.26-7.69-19.79-15.71-.44-6.58,2.18-11.7,7.59-15.42,3.42-2.34,6.89-4.62,10.28-7a5.56,5.56,0,0,0,1.74-2q10-20.2,20-40.46a9.51,9.51,0,0,1,8-5.42,18.85,18.85,0,0,1,10.14,2A50.14,50.14,0,0,1,124.48,74.7a83,83,0,0,1,19.28,31.13c1.78,5.24,2.88,10.62,2.24,16.21a13.88,13.88,0,0,1-3.28,8,9.63,9.63,0,0,1-6.63,3.27q-18.54,1.44-37.08,3C98.68,136.27,98.36,136.37,97.87,136.46Zm-3.74-60.3c.17,1.49.29,2.93.5,4.35a25.31,25.31,0,0,0,.68,3.2,75.48,75.48,0,0,0,25.32,38.37,27.79,27.79,0,0,0,11.63,6,6.14,6.14,0,0,0,5.86-1.77,8.43,8.43,0,0,0,2.37-4.72,24.6,24.6,0,0,0-.42-10A60.15,60.15,0,0,0,132,93c-4.8-7.79-10.47-14.84-17.78-20.44a29.13,29.13,0,0,0-11-5.67c-4.7-1.12-8,1.06-8.82,5.81C94.25,73.85,94.23,75,94.13,76.16Zm-4.66,5.91c-.11.18-.22.32-.29.47C84.8,91.46,80.44,100.4,76,109.3a1.62,1.62,0,0,0,.28,1.88q6.6,9.69,13.15,19.4a2.17,2.17,0,0,0,2.33,1.11c8.61-.73,17.22-1.39,25.84-2.07l3.87-.35A81.67,81.67,0,0,1,89.47,82.07Zm-4,51.76L72,114c-3.61,2.47-7.15,4.78-10.58,7.27a11.37,11.37,0,0,0-2.89,15.3c3.5,5.69,9.85,7.91,15.29,4.91C77.8,139.22,81.51,136.42,85.44,133.83Zm-3.13,8.32,1.27,1.9q8.67,12.78,17.33,25.55a5.58,5.58,0,0,0,4.37,2.75,5.15,5.15,0,0,0,5.13-2.73,5.33,5.33,0,0,0-.39-6l-17.4-25.66a2.05,2.05,0,0,0-3-.74C87.19,138.77,84.81,140.45,82.31,142.15Z"/><path class="cls-2" d="M150.84,80.18c-1.63,0-2.48-.6-2.91-1.73a2.52,2.52,0,0,1,1.14-3.06q4.68-3.11,9.4-6.17l8-5.23c1.62-1.06,3.13-.9,4,.41s.49,2.87-1.17,4q-8.46,5.56-16.95,11.1A8.89,8.89,0,0,1,150.84,80.18Z"/><path class="cls-2" d="M155.1,92.15,166,94.1c3.22.58,6.44,1.16,9.66,1.72,1.71.3,2.75,1.43,2.57,2.88a2.71,2.71,0,0,1-3.39,2.25c-6.32-1.12-12.63-2.27-18.94-3.41-.6-.11-1.21-.19-1.79-.35a2.57,2.57,0,0,1-2-2.83A2.68,2.68,0,0,1,155.1,92.15Z"/><path class="cls-2" d="M142,46.48c-.54,5.31-1.06,10.51-1.6,15.71-.12,1.26-.25,2.52-.41,3.77a2.53,2.53,0,0,1-2.87,2.38,2.48,2.48,0,0,1-2.23-2.86q1-9.69,2-19.37a2.49,2.49,0,0,1,2.85-2.25A2.52,2.52,0,0,1,142,46.48Z"/><path class="cls-2" d="M112.9,86.64a14,14,0,0,1,8.82,24.94,6,6,0,0,1-1.43.91,2.57,2.57,0,0,1-2.76-4.18,13.88,13.88,0,0,1,1.11-.92,8.83,8.83,0,0,0-9.85-14.54c-.35.19-.67.41-1,.59A2.58,2.58,0,0,1,105.14,89,13.67,13.67,0,0,1,112.9,86.64Z"/></g></g></svg>