<svg xmlns="http://www.w3.org/2000/svg" viewBox="0 0 200.02 186.97"><defs><style>.cls-1{fill:#235e2f;}</style></defs><title>img-3</title><g id="Layer_2" data-name="Layer 2"><g id="Layer_1-2" data-name="Layer 1"><path class="cls-1" d="M0,111.68l1.12-.19a9.63,9.63,0,0,1,1.49-.24q12.24,0,24.49,0c1.7,0,2.2.49,2.25,2.18,0,.89,0,1.78,0,2.67,0,1.51.68,2,2.13,1.62,2.06-.57,4.1-1.21,6.17-1.75s4.34-1.09,6.52-1.59,4.59-1.07,6.91-1.43c3.16-.5,6.34-1,9.52-1.18a21.15,21.15,0,0,1,7,.4c1.8.48,3.65.81,5.47,1.26,1.05.26,2.08.59,3.1.95.72.25,1.41.59,2.12.9.24.11.47.25.71.35,1.67.72,3.37,1.38,5,2.16s3.1,1.62,4.65,2.44a2.07,2.07,0,0,0,.25.15c1.55.8,3.13,1.54,4.66,2.39,1.36.76,2.65,1.63,4,2.45.9.56,1.79,1.12,2.7,1.65,1.37.79,2.76,1.54,4.12,2.35s2.57,1.58,3.86,2.38c.1.06.18.16.28.21,1.45.8,2.91,1.56,4.35,2.38,1.27.72,2.53,1.47,3.77,2.24s2.38,1.53,3.55,2.32c2.41,1.62,4.84,3.22,7.19,4.91,1.19.85,2.21,1.92,3.34,2.85a15.05,15.05,0,0,1,2.64,3.41.37.37,0,0,1,.07.12c.58,2.48,1.65,4.9,1,7.55-.16.63-.31,1.27-.41,1.91-.39,2.79-2.21,4.52-4.53,5.68a8,8,0,0,1-3.66.62,28.79,28.79,0,0,1-5.8-.54,42.07,42.07,0,0,1-5.5-1.9c-1.19-.45-2.36-1-3.5-1.49-1.59-.75-3.14-1.55-4.71-2.33-.34-.17-.69-.31-1-.45s-1-.33-1.5-.52a36.64,36.64,0,0,1-4-1.6,44.19,44.19,0,0,0-5.21-1.83,71.72,71.72,0,0,0-10.14-2.76c-2.65-.59-5.33-1.09-8-1.51-1.87-.3-3.78-.39-5.67-.61-1.35-.15-2.71-.31-4.06-.56A1.83,1.83,0,0,1,65,147.88a1.89,1.89,0,0,1,1.66-1.83,4.75,4.75,0,0,1,1.64,0,107.07,107.07,0,0,0,10.85,1.46,5.42,5.42,0,0,1,.58.06c2.89.61,5.81,1.11,8.67,1.85q5.34,1.4,10.58,3.13c2.06.68,4,1.68,6,2.54.35.15.72.27,1.07.42l2.54,1.15c.33.15.67.28,1,.43l2.59,1.21c.11,0,.2.13.31.18l6.26,2.34a5.2,5.2,0,0,1,.81.3,11.25,11.25,0,0,0,7,1.13,4.08,4.08,0,0,0,2.22-1.06c2.14-1.69,2.14-4,2-6.37a11.8,11.8,0,0,0-.39-2.2,7.48,7.48,0,0,0-2.17-3.27,25.76,25.76,0,0,0-3.17-2.82c-1.23-.94-2.57-1.77-3.86-2.64s-2.58-1.74-3.88-2.6c-1-.63-1.93-1.27-2.93-1.85-2.3-1.33-4.63-2.63-6.94-3.95-2-1.14-4-2.29-6-3.47-1.78-1.05-3.52-2.14-5.28-3.22-1.35-.82-2.68-1.69-4.05-2.47s-3-1.64-4.55-2.46-3.06-1.69-4.63-2.46-3.23-1.45-4.86-2.16c-.79-.35-1.59-.67-2.39-1a2.48,2.48,0,0,0-.32-.17c-2.89-.69-5.55-2.2-8.59-2.36a74.14,74.14,0,0,0-9.66.07c-3.41.27-6.68,1.16-10,1.74-1.56.27-3.09.73-4.63,1.09-1.06.24-2.12.43-3.18.69-.86.21-1.7.48-2.56.72-1.11.31-2.23.59-3.33.93a29.28,29.28,0,0,0-3,1.05,2,2,0,0,0-1.17,1.93c0,.7,0,1.4,0,2.1q0,16.32,0,32.66a11.86,11.86,0,0,0,.09,1.58,1.63,1.63,0,0,0,1.87,1.66c.86,0,1.73-.15,2.59-.08,4,.32,8,.21,11.85,1.53a7.47,7.47,0,0,0,1.4.32A9.11,9.11,0,0,1,51.23,165a6,6,0,0,0,1.08.39c.83.35,1.66.73,2.48,1.1.09,0,.16.12.24.16,2.63,1,4.6,3,6.88,4.57,1.32.88,2.64,1.75,4,2.56,1.54.93,3.11,1.8,4.68,2.68a11.48,11.48,0,0,0,1.24.56,4.74,4.74,0,0,1,1,.4c1.62,1.28,3.62,1.74,5.47,2.37,2.93,1,5.83,2.12,9,2.37,1.72.13,3.41.62,5.13.81s3.69.25,5.53.36a33.27,33.27,0,0,0,8.38-.84c1-.2,2-.25,3-.45,1.36-.28,2.71-.62,4.06-1,.83-.22,1.66-.47,2.48-.75,1-.34,2-.72,3-1.08a7.13,7.13,0,0,1,.88-.32,10.55,10.55,0,0,0,3.76-1.39,4.77,4.77,0,0,1,1-.33c.87-.34,1.73-.68,2.6-1,.46-.19.92-.4,1.38-.61l2.87-1.28a1.74,1.74,0,0,1,.19-.1,19.5,19.5,0,0,0,4.12-1.84c1.6-.82,3.33-1.37,4.94-2.16s3-1.65,4.44-2.49c.08,0,.16-.12.24-.16l4.61-2.19a4.89,4.89,0,0,0,.46-.2c2.39-1.38,4.76-2.78,7.16-4.15,1.31-.74,2.66-1.42,4-2.18,1.53-.88,3-1.81,4.56-2.71.87-.51,1.75-1,2.63-1.5l4.36-2.51,3.59-2.12c1.65-1,3.29-2,4.93-3,1.19-.72,2.38-1.43,3.55-2.18a37.13,37.13,0,0,0,3.29-2.22,27.45,27.45,0,0,0,3.23-3A22.62,22.62,0,0,0,194.5,136a9.73,9.73,0,0,0,1.42-5.88,3.24,3.24,0,0,0-2.21-3,4,4,0,0,1-.77-.4,3.63,3.63,0,0,0-2.77-.46c-2.13.49-4.28.95-6.41,1.45a9.35,9.35,0,0,0-1.39.59l-1.4.58-3.32,1.34c-.49.19-1,.35-1.5.52a6.08,6.08,0,0,0-.76.22l-4.82,2.27c-.39.18-.79.35-1.18.54l-2.83,1.39-.31.18c-1.68.77-3.37,1.51-5,2.33s-3,1.6-4.49,2.41l-.19.1c-2.09,1.12-4.18,2.25-6.28,3.36-.33.18-.73.26-1.07.43-.59.3-1.17.64-1.75,1a6.3,6.3,0,0,1-.53.37c-1.37.69-2.76,1.35-4.11,2.07a10.77,10.77,0,0,0-1.53,1.07,2.26,2.26,0,0,1-3.66-1.45,1.07,1.07,0,0,1,.58-1.21,28.39,28.39,0,0,1,3.71-2.06,30.4,30.4,0,0,0,4-2.23c.14-.08.27-.21.42-.28,1.57-.81,3.16-1.6,4.73-2.42s3.09-1.65,4.63-2.47l.31-.18c1.63-.76,3.28-1.5,4.88-2.3s3.14-1.65,4.71-2.48c.08,0,.16-.1.25-.14l5.29-2.29a11,11,0,0,0,1.08-.56,4.38,4.38,0,0,1,.6-.39q3.06-1.17,6.12-2.29a5,5,0,0,0,1-.3,13.1,13.1,0,0,1,4.64-1.5,2,2,0,0,0,.42-.11c2.32-1.13,4.81-1.06,7.29-1a7.29,7.29,0,0,1,6.4,3.9c.32.56.56,1.15,1.37,1v6.65c-.71-.14-1.06.22-1.27.85a9.12,9.12,0,0,1-.88,2.36,45,45,0,0,1-3.77,5,30.71,30.71,0,0,1-4.06,3.56,45.4,45.4,0,0,1-3.95,2.58c-1.36.82-2.76,1.56-4.13,2.36-1.69,1-3.36,2-5,3-1.15.7-2.29,1.4-3.45,2.09l-4.56,2.72-1.3.76c-1.32.78-2.62,1.6-4,2.35s-2.8,1.45-4.21,2.17l-.3.21c-1.43.86-2.83,1.77-4.3,2.57s-2.88,1.41-4.33,2.11l-.37.22c-1.48.84-2.93,1.72-4.43,2.51-2.05,1.08-4.1,2.19-6.23,3.09-1.53.64-3,1.32-4.51,2-1.79.86-3.67,1.54-5.51,2.3l-.32.17-5.5,2.33-.27.07-3.45,1.26c-.49.18-1,.33-1.5.48l-3,.84c-1,.28-1.93.61-2.91.82-1.41.31-2.83.57-4.25.8-.6.1-.86.37-.75,1H88.3c.1-.65-.24-.9-.84-1a76.74,76.74,0,0,1-10.57-2.55,7.86,7.86,0,0,1-1.11-.5c-.7-.31-1.41-.6-2.12-.9l-5-2.17c-.09,0-.15-.13-.23-.17l-2-1.16c-.33-.19-.69-.34-1-.54-1.25-.8-2.49-1.6-3.73-2.42s-2.41-1.57-3.58-2.42A20.45,20.45,0,0,0,53,170c-.14,0-.25-.16-.38-.21a50.06,50.06,0,0,0-6.12-2.45A58.5,58.5,0,0,0,38,165.71a65.42,65.42,0,0,0-7.28-.21,1.36,1.36,0,0,0-1.42,1.44c0,1.37,0,2.74.08,4.11.17,2.18-.18,2.63-2.34,2.72h-.14L0,173.68Zm25.59,31h0V119.06c0-.7,0-1.4,0-2.09a1.86,1.86,0,0,0-1.69-1.86,5.56,5.56,0,0,0-1.08-.09h-16a8.46,8.46,0,0,0-.87,0,1.86,1.86,0,0,0-1.83,1.65,33.71,33.71,0,0,0-.51,4.79q-.08,22,0,44c0,1,0,2,0,3a1.55,1.55,0,0,0,1.59,1.63,16.56,16.56,0,0,0,1.73.09H22.81a6.2,6.2,0,0,0,1.29-.12,1.65,1.65,0,0,0,1.4-1.46,11.33,11.33,0,0,0,.08-1.65Q25.6,154.82,25.59,142.68Z"/><path class="cls-1" d="M134.15,71.37V43.7c0-.73,0-1.45,0-2.17a1.43,1.43,0,0,1,1.4-1.62,8.24,8.24,0,0,1,1.22-.06c4.6,0,9.2,0,13.8,0,1,0,1.93-.07,2.88-.16a2,2,0,0,0,1.9-1.23,2.18,2.18,0,0,0-.48-2.41Q150.46,31.49,146,27c-2.41-2.45-5-4.74-7.27-7.33-3.63-4.2-7.74-7.92-11.55-11.93a22.26,22.26,0,0,0-4.44-3.65,4.2,4.2,0,0,0-4.23.17c-2.89,1.83-5,4.47-7.42,6.83Q100.68,21.39,90.35,31.87a16.82,16.82,0,0,0-2.5,3.59c-.72,1.27-.14,2.26,1,3.1,1.71,1.26,3.59,1.32,5.56,1.3,3.32,0,6.64,0,10,0,.34,0,.67,0,1,0,1.36.08,1.87.7,1.75,2.08q-.06.72-.06,1.44v70.52c0,.58,0,1.16.07,1.73a1.6,1.6,0,0,1-1.74,1.9c-1.49,0-2.23-.54-2.23-1.81l.12-68.63a15.82,15.82,0,0,0-.1-2,1.67,1.67,0,0,0-1.86-1.69c-1.28,0-2.56,0-3.83,0a39.59,39.59,0,0,1-7.85-.39A5.57,5.57,0,0,1,88,42.38a16.85,16.85,0,0,1-2.44-1.65A4.51,4.51,0,0,1,84,36.83a9.78,9.78,0,0,1,1.37-4.56,26.92,26.92,0,0,1,4.35-5.15q11.49-11.55,23-23A31.17,31.17,0,0,1,116.91.73c1.27-.88,2.82-.66,4.28-.72A8.19,8.19,0,0,1,127,2.51c2.49,2.18,4.79,4.59,7.16,6.91,1.29,1.26,2.57,2.52,3.83,3.81.64.65,1.18,1.4,1.82,2q4.83,4.92,9.7,9.82c2.34,2.35,4.76,4.64,7,7.06a12.2,12.2,0,0,1,2.92,5.09A3.94,3.94,0,0,1,158.41,41a5.83,5.83,0,0,1-4.47,2.16c-4.45,0-8.91,0-13.37,0a8.58,8.58,0,0,0-1,0,1.64,1.64,0,0,0-1.64,2c.05.6.09,1.2.09,1.81q0,26,0,52c0,.84,0,1.69,0,2.53a1.83,1.83,0,0,1-1.64,1.89,1.72,1.72,0,0,1-2.16-1.57,6.53,6.53,0,0,1-.07-1.08V71.37Z"/><path class="cls-1" d="M56.51,86.25q0,7.34,0,14.66a9.83,9.83,0,0,1-.1,1.8A1.46,1.46,0,0,1,54.76,104a1.51,1.51,0,0,1-1.52-1.37,8.92,8.92,0,0,1-.06-1.37q0-13,0-26c0-.63,0-1.26,0-1.88a1.76,1.76,0,0,0-2-1.86,9,9,0,0,0-1.92.32,6.83,6.83,0,0,1-3.21,0c-1.17-.25-2.38-.35-3.57-.51a5.48,5.48,0,0,1-4.32-3.12,4.73,4.73,0,0,1,.77-5.52q3.57-3.89,7.25-7.64c3.67-3.73,7.42-7.37,11.08-11.1a10.08,10.08,0,0,1,6.62-3.13A7,7,0,0,1,69,42.43c1.54,1.33,3,2.77,4.49,4.17,2.07,1.94,4.19,3.83,6.19,5.84s4.12,4.31,6.14,6.5a20,20,0,0,1,2.74,3.32,15.66,15.66,0,0,1,1.49,4A3.31,3.31,0,0,1,89.13,69a4.67,4.67,0,0,1-3.78,2.2c-2.55,0-5.1,0-7.66,0-1.32,0-1.78.49-1.78,1.78Q76,85.48,76,97.94c0,1.56,0,3.13,0,4.69,0,1.31-.46,1.69-1.93,1.67-1.22,0-1.8-.58-1.8-1.75q0-15.27.1-30.55c0-.73,0-1.45-.07-2.17,0-1.55.59-2.22,2.14-2.22l9,0h.36c.81,0,1.68,0,2-.91a2.48,2.48,0,0,0-.45-2.65c-2.22-2.46-4.45-4.93-6.75-7.32-1.94-2-4-3.94-6-5.86s-3.94-3.69-5.93-5.49a4.43,4.43,0,0,0-5.49.19c-2.16,1.94-4.26,4-6.33,6C50.71,55.79,46.5,60,42.29,64.27c-1.41,1.42-1,3,.94,3.49a17.25,17.25,0,0,0,3.64.5c2.38.06,4.77,0,7.15-.07,1.76,0,2.44.51,2.46,2.38,0,3.93,0,7.85,0,11.78v3.9Z"/><path class="cls-1" d="M167.06,116.22a14.8,14.8,0,0,1,5.88.81,16.82,16.82,0,0,1,4.22,1.78c1.05.69,1.38,1.3.88,2.15-.69,1.18-2.14,1.75-3,1-1.15-1-2.6-1.2-4-1.6-.83-.25-1.69-.39-2.54-.58a2.35,2.35,0,0,0-.64-.09c-1.52.21-3,.42-4.55.67a14.78,14.78,0,0,0-2,.45c-.8.24-1.58.53-2.37.82-.56.2-1.09.5-1.66.67a6.6,6.6,0,0,0-2.86,1.3.62.62,0,0,1-.25.14,20.22,20.22,0,0,0-4.53,2.33c-2.36,1.32-4.66,2.77-7,4.16-1.21.73-2.43,1.45-3.61,2.22s-2.6,1.8-3.9,2.71l-3,2.07c-.41.29-.84.56-1.24.87-.8.61-1.4.65-2,.09-1-1-1.25-1.77-.6-2.57a8.27,8.27,0,0,1,1.57-1.44c1.09-.8,2.21-1.54,3.32-2.3,1.35-.92,2.69-1.85,4.05-2.75s2.83-1.89,4.28-2.77,2.78-1.57,4.18-2.35c0,0,0,0,.07,0,1.35-.77,2.69-1.55,4-2.3.48-.27,1-.51,1.47-.74a6.5,6.5,0,0,0,1.31-.58,8.64,8.64,0,0,1,3-1.41c.48-.16.93-.42,1.4-.6.78-.3,1.56-.62,2.36-.85s1.89-.38,2.8-.69A10.89,10.89,0,0,1,167.06,116.22Z"/><path class="cls-1" d="M155.21,115.72c-1.77-.5-3.65.17-5.56.31a9.91,9.91,0,0,0-2.22.61c-1.05.34-2.09.72-3.12,1.11a10.72,10.72,0,0,0-1.24.57c-.28.14-.53.34-.81.48-1.5.75-3,1.43-4.49,2.27a42.34,42.34,0,0,0-3.83,2.54c-1.77,1.28-3.52,2.6-5.23,4a26.2,26.2,0,0,0-4.61,4.13,1.47,1.47,0,0,1-2.42.13c-1.15-1.06-1.28-1.89-.4-2.76a60.82,60.82,0,0,1,8.18-6.83c1-.69,1.95-1.47,2.93-2.2.37-.28.75-.52,1.14-.76,1.62-1,3.25-1.94,4.88-2.89.41-.24.86-.42,1.29-.62l1.57-.71c.62-.27,1.23-.54,1.85-.79.33-.14.71-.19,1-.36a16.47,16.47,0,0,1,6.61-1.63,12.57,12.57,0,0,0,1.91-.35,5.19,5.19,0,0,1,3.26.16,2.17,2.17,0,0,1,1.11,2.43C156.86,115.31,156.28,115.73,155.21,115.72Z"/><path class="cls-1" d="M110.54,125.18a5.14,5.14,0,0,1,.71-1.26c1.79-1.71,3.62-3.37,5.44-5.06.49-.45.94-1,1.48-1.37a25.65,25.65,0,0,1,3.84-2.78c1.63-.82,3.07-2.1,5-2.38a2,2,0,0,0,.74-.28,9.5,9.5,0,0,1,4.62-1.23,2,2,0,0,1,2.31,2,1.4,1.4,0,0,1-.31.84,1.21,1.21,0,0,1-.71.45,22.78,22.78,0,0,0-5.37,1.61,13.26,13.26,0,0,0-2.32,1.09,42.13,42.13,0,0,0-3.78,2.38,47.69,47.69,0,0,0-8.13,7.42c-.63.74-1.11,1-1.79.71A2.84,2.84,0,0,1,110.54,125.18Z"/><path class="cls-1" d="M116.35,43.46a4.33,4.33,0,0,1,3.16,2.9,3.1,3.1,0,0,1-1,3.4,5.27,5.27,0,0,1-2,1.14,2.31,2.31,0,0,1-1.47,0,4,4,0,0,1-2.71-4C112.48,45.33,114.54,43.41,116.35,43.46Z"/><path class="cls-1" d="M116.06,72.92a3.77,3.77,0,0,1,3.58,3.69c-.16,2.32-1.29,3.44-3.64,3.54a3.79,3.79,0,0,1-3.67-3.7A4,4,0,0,1,116.06,72.92Z"/><path class="cls-1" d="M129.21,85.49c.25,2.18-1.87,3.38-3.44,3.6-1.29.19-2.15-.75-2.94-1.57-1-1.06-.65-3.93.53-4.82,2.4-1.8,2.75-1.45,5,.19A3,3,0,0,1,129.21,85.49Z"/><path class="cls-1" d="M122.27,70.58A2.62,2.62,0,0,1,124,67.79a3.89,3.89,0,0,1,4.3.58A4.15,4.15,0,0,1,129,72.5a2.93,2.93,0,0,1-3,2C123.62,74.56,122.24,73.2,122.27,70.58Z"/><path class="cls-1" d="M125.62,104.45a3.15,3.15,0,0,1-3.37-3.46,3.3,3.3,0,0,1,3.59-3.59c2.6.08,3.32,1.08,3.42,3.59A3.2,3.2,0,0,1,125.62,104.45Z"/><path class="cls-1" d="M112.34,61.51c-.14-1.45,2.23-3.41,4-3.2A4,4,0,0,1,119.75,62a4.45,4.45,0,0,1-3.93,3.51A4.15,4.15,0,0,1,112.34,61.51Z"/><path class="cls-1" d="M116.17,87.81a3.44,3.44,0,0,1,3.57,3.4,3.69,3.69,0,0,1-3.83,3.52,3.61,3.61,0,0,1-3.55-3.62A3.39,3.39,0,0,1,116.17,87.81Z"/><path class="cls-1" d="M129.2,55.77a3.5,3.5,0,0,1-3.58,3.69,3.81,3.81,0,0,1-3.35-3.34c0-2.36,1.38-3.95,3.47-4A3.38,3.38,0,0,1,129.2,55.77Z"/><circle class="cls-1" cx="183.24" cy="32.2" r="4.57"/><circle class="cls-1" cx="173.15" cy="32.2" r="4.57"/><circle class="cls-1" cx="183.44" cy="42.44" r="4.57"/><circle class="cls-1" cx="173.35" cy="42.44" r="4.57"/><circle class="cls-1" cx="170.08" cy="76.46" r="4.57"/><circle class="cls-1" cx="160" cy="76.46" r="4.57"/><circle class="cls-1" cx="170.29" cy="86.7" r="4.57"/><circle class="cls-1" cx="160.2" cy="86.7" r="4.57"/><circle class="cls-1" cx="46.77" cy="10.25" r="4.57"/><circle class="cls-1" cx="36.69" cy="10.25" r="4.57"/><circle class="cls-1" cx="46.97" cy="20.48" r="4.57"/><circle class="cls-1" cx="36.89" cy="20.48" r="4.57"/><circle class="cls-1" cx="29.24" cy="81.58" r="4.57"/><circle class="cls-1" cx="19.15" cy="81.58" r="4.57"/><circle class="cls-1" cx="29.44" cy="91.82" r="4.57"/><circle class="cls-1" cx="19.35" cy="91.82" r="4.57"/></g></g></svg>