<svg xmlns="http://www.w3.org/2000/svg" viewBox="0 0 381.44 347.77"><defs><style>.cls-1{fill:#e7e7e7;}.cls-2{fill:#251a04;}.cls-3{fill:#878178;}.cls-4{fill:#595242;}.cls-5{fill:#b1aea5;}.cls-6{fill:#b6b4ac;}.cls-7{fill:#8f8a80;}.cls-8{fill:#71695c;}.cls-9{fill:#bab7af;}.cls-10{fill:#c0112f;}.cls-11{fill:#bf112f;}.cls-12{fill:#bf112e;}.cls-13{fill:#fafafa;}.cls-14{fill:#edcba0;}.cls-15{fill:#73151a;}.cls-16{fill:#c11230;}.cls-17{fill:#eccba1;}.cls-18{fill:#e5c6a1;}.cls-19{fill:#c01130;}.cls-20{fill:#eccba0;}.cls-21{fill:#625a4b;}.cls-22{fill:#6e685e;}.cls-23{fill:#7d776b;}.cls-24{fill:#5c513e;}.cls-25{fill:#806e52;}.cls-26{fill:#6d1618;}.cls-27{fill:#a6a298;}.cls-28{fill:#f2f1f0;}.cls-29{fill:#edcda2;}.cls-30{fill:#f3f2f1;}.cls-31{fill:#e7c69c;}.cls-32{fill:#9c988f;}.cls-33{fill:#e9c79c;}.cls-34{fill:#eeedeb;}.cls-35{fill:#686254;}.cls-36{fill:#8a7756;}.cls-37{fill:#877555;}.cls-38{fill:#756143;}.cls-39{fill:#edcca1;}.cls-40{fill:#716c5e;}.cls-41{fill:#6f6a5c;}.cls-42{fill:#5b5545;}.cls-43{fill:#bab8af;}.cls-44{fill:#5d5645;}.cls-45{fill:#b4b0a8;}.cls-46{fill:#747062;}.cls-47{fill:#cbc7c0;}.cls-48{fill:#511c19;}.cls-49{fill:#fbfbfb;}.cls-50{fill:#faeddd;}.cls-51{fill:#edcca0;}.cls-52{fill:#f8f8f7;}.cls-53{fill:#fafaf8;}.cls-54{fill:#ecca9f;}.cls-55{fill:#eecda1;}.cls-56{fill:#f0cfa3;}.cls-57{fill:#e6c59b;}.cls-58{fill:#f0f0ee;}.cls-59{fill:#a7a39a;}.cls-60{fill:#868279;}.cls-61{fill:#423d2c;}.cls-62{fill:#f7f7f7;}</style></defs><title>KFC</title><g id="Layer_2" data-name="Layer 2"><g id="Layer_1-2" data-name="Layer 1"><rect class="cls-1" width="381.44" height="347.77"/><path class="cls-2" d="M82.11,103.78q0-37.69,0-75.39c0-1,.22-1.29,1.22-1.19s2.16,0,3.25,0a3,3,0,0,0,1.83.43c4.63.1,9.12,1.27,13.7,1.7,3.81.35,7.59.89,11.38,1.39,3.43.45,6.88.88,10.32,1.4,4.3.66,8.63,1.22,12.95,1.73,4,.48,8,1.05,11.94,1.56,1.84.23,3.26-.7,4.74-1.32,2.22-.93,4.52-1.61,6.76-2.46,2-.51,4-1.09,6-1.58a91.33,91.33,0,0,1,10.08-2,74.91,74.91,0,0,1,10.16-.36,49.19,49.19,0,0,1,12.77,1.78,10.71,10.71,0,0,0,2.32.38,73.79,73.79,0,0,1,12,4.52A65.78,65.78,0,0,1,230,45.21a4.23,4.23,0,0,0,2.33,1.13c5.46.93,11,1.54,16.46,2.23,5.88.73,11.75,1.61,17.65,2.22,3.85.41,7.67,1.12,11.52,1.53,3.12.33,6.23.78,9.33,1.2,3.63.5,7.28,1,10.92,1.48,5.19.71,10.37,1.5,15.59,2,2.54.24,5,.89,7.59,1a2.2,2.2,0,0,1,1.66.87v2.07a2.21,2.21,0,0,0-.66,1.45,60.17,60.17,0,0,1-2.06,8.55c-.8,2.81-1.51,5.66-2.27,8.47-.71,2.64-1.38,5.3-2.1,7.94a37.25,37.25,0,0,1-1.66,6.08c-.52,1.15-.3,2.54-1,3.67-.9,3.46-1.83,6.91-2.7,10.37-.69,2.69-1.38,5.4-2.1,8.09-.47,1.77-.93,3.59-1.39,5.37-.66,2.55-1.4,5.09-2,7.66-.74,3.19-1.71,6.32-2.53,9.49-.73,2.8-1.39,5.62-2.2,8.4-.56,1.92-.86,3.9-1.52,5.8-.43,1.24-.67,2.56-1,3.83-.92,3.39-1.85,6.78-2.63,10.2-.63,2.77-1.4,5.5-2.12,8.23-1.09,4.16-2.12,8.35-3.34,12.48a47.62,47.62,0,0,0-1.31,5.1c-.29,1.62-.82,3.22-1.2,4.84a45,45,0,0,0-1.42,5.51,19.35,19.35,0,0,1-1,3.65c-.85,2.71-1.46,5.49-2.24,8.21s-1.38,5.29-2,8c-.69,2.91-1.54,5.78-2.31,8.67-.55,2-.94,4.1-1.6,6.08-.52,1.59-.77,3.23-1.29,4.81s-.8,3.23-1.26,4.83c-.55,2-1,4-1.57,5.92-.4,1.36-.75,2.74-1.07,4.12-.77,3.23-1.63,6.44-2.53,9.64-.82,2.87-1.6,5.77-2.23,8.7-.32,1.54-.85,3-1.2,4.55-.46,2-1.14,3.94-1.54,6-.21,1-.83,1.92-1.88,1.69-2.61-.56-5.28-.52-7.88-1-1.7-.31-2.22-.9-2.08-2s.89-1.72,2.48-1.77c.44,0,.88,0,1.33,0a15.51,15.51,0,0,1,2.79.22c1.28.26,1.94-.19,2.28-1.48,1-3.79,1.93-7.59,2.92-11.37.68-2.61,1.35-5.22,2.14-7.8A8.15,8.15,0,0,0,266,257c-.56-1.76-1-3.58-1.38-5.41-.32-1.46-.73-2.93-1.14-4.38-1.53-5.54-2.82-11.13-4.21-16.7-1-4.13-2-8.28-3-12.42-.72-3-1.39-6-2.28-9-.78-2.62-1.17-5.36-2-8a6.15,6.15,0,0,0-4.91-3.76.89.89,0,0,0-1.05.8,2.78,2.78,0,0,0,0,1.46c.88,2.38.88,4.93,1.34,7.38.64,3.37,1.1,6.78,1.57,10.18.88,6.42,1.33,12.88,2,19.32a71.92,71.92,0,0,1,.37,8.69c-.08,3.73,1.1,3.91,4,4.41a11.75,11.75,0,0,1,4,1.22c.17,1.16-.16,1.63-1.44,1.7a27.59,27.59,0,0,1-6.29-.2c-2.21-.09-4.42,0-6.64-.06-5.22-.33-10.44-.32-15.67-.31-2.55,0-5.1.11-7.66.24a26.09,26.09,0,0,0-7.89,0c-5.5.32-11,.37-16.51.68-5.75.31-11.49.63-17.23,1.06-7.31.56-14.6,1.26-21.87,2.2-7,.9-13.94,2.5-20.89,3.86-4.25.84-8.43,2-12.68,2.78-2.71.53-3.82-.46-3.92-3.22-.23-6.81,1.14-13.42,2.28-20.06,1.11-6.41,2.71-12.71,4.33-19,.72-2.8,1.35-5.64,2.35-8.37.18-.48.59-1.14,0-1.48s-1.12.21-1.47.67a16.82,16.82,0,0,0-2.1,4.06c-2.09,5.41-4.14,10.84-6,16.33-2.12,6.14-4.39,12.23-6.13,18.49-1,3.79-2,7.63-3.11,11.39-.37,1.22,0,1.72,1.31,1.93,3.69.57,7.41,1,11.11,1.47q5.93.78,11.85,1.53L146.52,268c4.93.62,9.85,1.24,14.79,1.78.58.07,1.79-.05.81,1.19a4.34,4.34,0,0,1-1.89.2c-6.84,0-13.69,0-20.53,0a51.42,51.42,0,0,1-5.4-.69c-5.41-.56-10.79-1.37-16.18-2.07-3.16-.42-6.33-.77-9.48-1.23-4-.57-7.94-1.18-11.94-1.63-3.12-.36-6.22-.85-9.32-1.34a26.17,26.17,0,0,1-3.06-.42c-.53-.15-1.07-.2-1.31-.8a9.55,9.55,0,0,1-.13-2.5c0-26.15.27-52.31-.08-78.45-.35-25.5,0-51-.24-76.5C82.55,105,82.65,104.28,82.11,103.78Z"/><path class="cls-3" d="M209.46,273.07a4.14,4.14,0,0,0-3.62-1.78q-32.57.1-65.14.08a51.41,51.41,0,0,1-7.59-.85c-4-.63-8-.88-12-1.52-5.47-.89-11-1.4-16.46-2.27s-11.2-1.39-16.8-2.09c-1.36-.17-2.71-.46-4.07-.68-1-.17-1.18-.9-1.18-1.75,0-2.07,0-4.13,0-6.2,0-.44.24-1-.51-1.19V179.15c1.06-.31,1,.45,1,1.09-.31,24.09-.09,48.19-.08,72.28,0,3.53-.11,7.07.2,10.6,1.64.72,3.43.63,5.14.88,6.45,1,12.92,1.73,19.38,2.58,4.42.58,8.85,1.12,13.26,1.78,5.66.85,11.38,1.28,17,2.36a8.69,8.69,0,0,0,1.77.07l22.43-.05a4,4,0,0,1,2.14-.43h41.06a4.92,4.92,0,0,1,3.56,1.14C209.47,271.88,210,272.33,209.46,273.07Z"/><path class="cls-4" d="M83.25,263.12c-.34-.37-.22-.84-.23-1.27-.4-14.6-.27-29.21-.28-43.82q0-17.79,0-35.57a9.57,9.57,0,0,1,.18-2.2c.12-.59,0-1.09-.81-1.11V103.78c.82,0,.9.61.89,1.25v3.84c0,22.86-.24,45.72.07,68.57.38,27.68,0,55.35.23,83C83.31,261.35,83.27,262.23,83.25,263.12Z"/><path class="cls-5" d="M201.55,29.85a24.76,24.76,0,0,1,6.11,1.89c2.44,1.06,5,1.95,7.33,3.22a84.83,84.83,0,0,1,11.14,6.87,47.53,47.53,0,0,1,3.93,3.29,5.15,5.15,0,0,0,2.62,1.08c3.17.72,6.41.77,9.59,1.31,4.19.72,8.46,1,12.67,1.58,4.6.67,9.24,1.11,13.83,1.81,5.46.84,11,1.55,16.42,2.23,5.93.74,11.85,1.56,17.78,2.31,3.36.42,6.77.81,10.14,1.31S319.66,58,323,58v.89c-4.09-.92-8.26-1.23-12.4-1.77Q300,55.7,289.43,54.32c-7.1-.92-14.2-1.91-21.31-2.81-6.86-.87-13.72-1.78-20.58-2.69-5.11-.68-10.21-1.4-15.32-2.08a3.55,3.55,0,0,1-2.11-.92,62.74,62.74,0,0,0-14.74-10.08,57,57,0,0,0-12.65-5,6.56,6.56,0,0,1-1.2-.57C201.37,30.07,201.38,30,201.55,29.85Z"/><path class="cls-6" d="M90.39,27.22c.09.75.69.56,1.14.59,3.92.27,7.78,1,11.66,1.47,3.5.45,7,.86,10.5,1.33,4.21.56,8.41,1.34,12.65,1.7,3.36.28,6.68.9,10,1.28a74.09,74.09,0,0,1,9.45,1.33,11.56,11.56,0,0,0,8.3-1.28,19.84,19.84,0,0,1,6-2c.1.06.14.13.11.2s-.06.11-.09.11c-1.35.86-2.95,1-4.42,1.6a17.2,17.2,0,0,0-2.39,1.07c-3.33,1.9-6.74.89-10.14.46-3.65-.45-7.29-.94-10.94-1.41-3.11-.4-6.23-.77-9.34-1.18-4.85-.65-9.7-1.36-14.56-2-6.62-.81-13.2-1.9-19.85-2.51-.68-.06-1.66.23-2-.83Z"/><path class="cls-7" d="M160.17,32l0-.31c1.56-.37,3-1,4.6-1.35,2.14-.5,4.24-1.12,6.41-1.52a31.07,31.07,0,0,1,6.07-.95.58.58,0,0,0,.65-.63h10.64c.78.68,1.88-.08,2.66.6h0c1.36.28,2.79.05,4.11.61.25.29.6.21.92.28,1.28.23,2.63.14,3.78.92.47.38,1,.17,1.56.22l0,.34c-2.51-.07-4.9-.92-7.33-1.42a29.41,29.41,0,0,0-5.09-.53c-5.49-.19-11-.37-16.42.84-3.66.81-7.34,1.54-10.92,2.69A9.22,9.22,0,0,1,160.17,32Z"/><path class="cls-8" d="M323,62.69c-.46,0-.57.3-.66.65q-1.42,5.55-2.86,11.08c-1.4,5.36-2.83,10.7-4.22,16.06-.73,2.78-1.29,5.61-2.29,8.33A2.52,2.52,0,0,1,313,97c.81-3.49,1.84-6.92,2.76-10.38.75-2.82,1.54-5.64,2.29-8.46s1.38-5.36,2.11-8c.5-1.83.63-3.77,1.5-5.5a7,7,0,0,0,.27-1.88c.15-.71,0-1.68,1.14-1.79Z"/><path class="cls-9" d="M191.18,27.82c-.88-.24-2,.57-2.66-.6h2.66Z"/><path class="cls-10" d="M85.94,144.89c0-21.62.19-43.25-.06-64.87-.19-15.51-.07-31-.19-46.52,0-1.89.56-2.37,2.4-2.14,3.94.51,7.88,1,11.82,1.49s7.67,1.12,11.51,1.61c5.35.68,10.71,1.27,16,1.95,4.09.52,8.17,1.11,12.25,1.68.36,0,1,0,1,.48s-.65.46-1.05.46c-2.08,0-4,.88-6,1.28a2.77,2.77,0,0,0-2,3.94c1.48,4-.45,6.78-2.81,9.41A54.44,54.44,0,0,1,118.35,63a27.35,27.35,0,0,1-2.78,1.23c-2.69,1.41-3.11,4.44-2,7.33.9,2.31,2.1,4.51,3.23,6.73s1.06,4.67,1,7.06c-.16,4.16-1.67,8-3,11.89-.44,1.27-1.54,2.2-1.7,3.68-.32,3,1.46,5.07,3.12,7.19.24.31.55.56.82.85,2,2.07,1.74,2,.86,4.78a15.12,15.12,0,0,0-.62,7.4,46.35,46.35,0,0,0,3.19,10.8c1.52,3.35,3,6.82,5.46,9.65,1.94,2.25,2,4.76,1.63,7.34-.74,4.81,1.24,8.4,5.21,10.71a5.25,5.25,0,0,1,2.78,3.75,45.19,45.19,0,0,0,3.75,11.41,34.64,34.64,0,0,0,2.32,4.22,3.22,3.22,0,0,1,.12,3.42c-1.4,3.17-3,6.27-4.11,9.55a12.13,12.13,0,0,0-.79,1.88c-.61,3.77-3.4,5.07-6.59,6-3,.88-5.79,2.09-7.88,4.54a5.94,5.94,0,0,1-3.19,1.72c-2.77.76-5.59,1.34-8.35,2.13-4.18,1.19-8.35,2.42-12.42,3.95-3,1.13-6,2.22-9.06,3.33-.88.33-1.69,1.36-2.69.67s-.28-1.75-.52-2.64a11.42,11.42,0,0,1-.16-2.93Q85.94,177.77,85.94,144.89Z"/><path class="cls-11" d="M209.46,273.07c-.17-1.61-1.45-1.89-2.67-2.23a4.56,4.56,0,0,0-1.17,0l-41.91,0c-.49,0-1,0-1.47-.05.2-.9-.53-.49-.84-.53-4.28-.51-8.57-1-12.86-1.48-4.13-.48-8.27-1-12.39-1.58-3.54-.49-7.1-.85-10.63-1.4-4.56-.7-9.14-1.2-13.71-1.79-1.55-.21-1.92-.66-1.5-2.16,1.4-5.05,2.78-10.11,4.28-15.13,1.25-4.16,2.46-8.34,4-12.37,1.14-2.86,2-5.79,3.19-8.65,1.37-3.43,2.56-7,3.9-10.4a16,16,0,0,1,2.19-4.27,2.43,2.43,0,0,1,1.56-1c.73-.09,1.26.19,1,1-.94,2.84-1.56,5.76-2.45,8.61-.45,1.44-.83,2.92-1.17,4.37-1.31,5.73-2.83,11.42-3.75,17.23-1,6.15-2.23,12.28-2,18.57.08,2.59,1.13,3.38,3.67,2.75q5.34-1.32,10.72-2.48c4.26-.92,8.52-1.84,12.81-2.6q10.78-1.94,21.71-2.93c7.92-.72,15.83-1.41,23.77-1.8,4.17-.21,8.33-.46,12.5-.48,2.45,0,4.89-.54,7.36-.22a29.48,29.48,0,0,1,.18,5c-.05,5.85-.07,11.71,0,17.55a2.46,2.46,0,0,1-1.18,2.45c-1.1.26-2.19-.21-3.28-.07C209.18,275.58,210.29,274.35,209.46,273.07Z"/><path class="cls-12" d="M255.53,281.87c-.87-4.73-1.23-9.52-1.75-14.3-.57-5.21-1.21-10.42-1.82-15.63a35.55,35.55,0,0,0,6.44.14c.55,0,1.26-.22.77-1.11-1.51-1.22-3.44-1-5.17-1.46-2.36-.64-2.85-1.11-2.8-3.56.16-6.35-.7-12.63-1.25-18.92-.4-4.58-.8-9.18-1.63-13.71S247,204.13,246,199.6c-.09-.39-.07-.78-.14-1.17-.17-1,.42-1.31,1.2-1.19,2,.32,4.62,1.65,5.23,4.16.93,3.85,1.87,7.7,2.87,11.53.76,2.93,1.46,5.87,2.18,8.8,1.07,4.33,2.08,8.67,3.15,13,.77,3.13,1.53,6.28,2.33,9.41.44,1.69.89,3.4,1.31,5.1.67,2.7,1.27,5.42,2.12,8.06a7.07,7.07,0,0,1,.16,4.17q-1.29,4.83-2.57,9.66c-.9,3.39-1.7,6.82-2.68,10.19-.48,1.66-1,2-2.71,1.55-.73-.2-1.48,0-2.19-.19C255.81,282.55,255.44,282.41,255.53,281.87Z"/><path class="cls-13" d="M127.41,100.76a107.8,107.8,0,0,1,1.31-16.2,10.6,10.6,0,0,0-1.57-7.16,15.19,15.19,0,0,1-1.57-3.15C125.18,73,125.74,72,127,72c5.9.08,10.52-3,15.15-6,4.9-3.24,10-6,16-6.44a5.15,5.15,0,0,1,1.17.07c.39.06.8.2.89.65s-.26.68-.63.87A37.39,37.39,0,0,0,155.8,63a31.36,31.36,0,0,0-10.92,12.08,11.1,11.1,0,0,1-3.38,4,13.16,13.16,0,0,0-4.91,7.28,74.81,74.81,0,0,0-2.15,8.71,63.19,63.19,0,0,0-1,10.55c0,1.08,0,2.12-1.25,2.76-2.6,1.38-3.48,1.1-4.24-1.7A26.39,26.39,0,0,1,127.41,100.76Z"/><path class="cls-14" d="M86,241.46c0-5.71,0-11.42,0-17.13a1.84,1.84,0,0,1,1.32-2c2.07-.77,4.14-1.53,6.22-2.25s4.24-1.25,6.26-2.11c3.28-1.4,6.31-.78,9.33.7a5.12,5.12,0,0,0,.52.27c3.43,1.42,3.77,1.92,2.48,5.35s-2.86,6.63-4.27,10c-1,2.43-2,4.88-3,7.32-1.7,4.22-3.41,8.43-5.08,12.67-.82,2.09-1.58,4.22-2.3,6.35a1.76,1.76,0,0,1-2.14,1.31c-2.58-.27-5.1-.93-7.73-.92-1.38,0-1.6-1.19-1.6-2.38,0-5.71,0-11.42,0-17.13Z"/><path class="cls-13" d="M188.74,157.12a75.42,75.42,0,0,0-13,.57,40.16,40.16,0,0,1-7,1,4.15,4.15,0,0,1-3.42-1.4c-.55-.66-.4-1.38.26-1.59,3.31-1,5.42-3.59,7.83-5.79,1.26-1.15,4.4-1.33,5.84-.43a18,18,0,0,0,9,2.54,4.3,4.3,0,0,0,3.83-1.5,6.64,6.64,0,0,1,4-2.7,10.91,10.91,0,0,0,4.41-2.57c1.17-1,2.13-.7,3.14.15a17.77,17.77,0,0,1,3.77,4.69c1.34,2.26,2.92,4.13,5.6,4.9,1.5.43,1.64,1.6.42,2.64-1.41,1.19-3.1.83-4.68.69C201.86,157.67,195,156.85,188.74,157.12Z"/><path class="cls-14" d="M149.36,161.45c.33-3,.89-5.91,4.06-7.38,2.33-1.08,4.14-.2,4.17,2.5a53,53,0,0,0,2.4,14.17,23.13,23.13,0,0,0,2.23,5.39c.35.58.67,1.31,1.51,1.19s.87-.77,1.16-1.37c.48-1,.62-2.65,2-2.54,1.16.09,1.07,1.64,1.29,2.56.65,2.77,1.47,5.49,2.39,8.18.51,1.52-.14,2.34-1.76,2.39-3.22.11-5.74-1.51-8.1-3.38-4.09-3.25-6.68-7.58-8.69-12.34-1-2.31-1.58-4.74-2.37-7.11A12.79,12.79,0,0,1,149.36,161.45Z"/><path class="cls-14" d="M237,200.12c.31-1.53.56-3.08.95-4.59.3-1.18,1.17-1.39,2.11-.62,1.88,1.53,2,3.72,2.17,5.89.41,4.83.87,9.65,1.21,14.49.23,3.23.33,6.48.41,9.72.11,4.17.22,8.36.19,12.53,0,2.51.55,5,.32,7.5,0,.48,0,1-.09,1.47-.18,1.41-1,1.94-2.41,1.9-4.72-.13-9.44-.14-14.15-.2-9.15-.12-18.29-.77-27.44-.59-1.82,0-2-.35-2.11-2.21a56.4,56.4,0,0,0-3-15.25,38,38,0,0,0-1.55-3.95c-.24-.46-.47-.93,0-1.33a1.2,1.2,0,0,1,1.5,0,69.77,69.77,0,0,1,7.44,5.2,88.17,88.17,0,0,1,9,8.09c.32.34.57,1.18,1.23.68s.21-1.13-.12-1.6c-1.29-1.84-2.6-3.68-4-5.47s-2.82-3.53-4.23-5.29a.25.25,0,0,1,0-.41,1.65,1.65,0,0,1,1.45.87c2.36,3.08,5,5.94,7.07,9.26.64,1,1.32,2.06.44,3.24a4.36,4.36,0,0,1-4.62,1.52,23.57,23.57,0,0,1-8.46-6c-1.19-1.31-2.49-2.51-3.89-4.07a24.35,24.35,0,0,0,.83,2.86c.83,3.94,1.79,7.86,1.8,11.92a.87.87,0,0,0,.86,1,10.41,10.41,0,0,0,1.48,0c6,0,12-.14,18,.05,3.67.12,7.33.53,11,.74,2.26.13,4.52.08,6.78,0a26.16,26.16,0,0,1,4.42-.25c1,0,1.43-.32,1.42-1.36,0-6.65,0-13.29,0-19.94,0-.42,0-.9-.51-1.25a5.24,5.24,0,0,0-.64,3.2,7.79,7.79,0,0,0,.51,3.17c.46,1,0,1.9-.85,1.89-.48,0-.91-.19-.89.51s-.13,1.19.67,1.44c1.48.48,1.94,1.31,1.31,2.72a4.49,4.49,0,0,0,0,3.84,2.13,2.13,0,0,1-.46,2.57c-.84.83-1.31,2-2.27,2.7-.6.45-1.33,1-2,.33s-.33-1.46.27-2.07c1.18-1.17.72-2.68.51-3.92a30.25,30.25,0,0,1-.33-4.83c0-1.63,0-3.25,0-4.88a9.8,9.8,0,0,1,.83-4.86c.65-1.22.46-2.79,1.11-4.1.44-.91.49-2,1.52-2.61.44-.26.36-.88.36-1.37q0-4.37,0-8.71a1.28,1.28,0,0,0,0-.59c-1.71-2.95-.41-6.17-.91-9.11-.85,2.51-.8,2.5-.22,5a22.44,22.44,0,0,0,.63,3.6,1.11,1.11,0,0,1-.53,1.28,1.13,1.13,0,0,1-1.36-.2,3,3,0,0,1-1.38-2.47c0-1.62,0-3.25,0-4.87s1.1-2.93,1.51-4.44c.09-.32.38-.58.35-1a.88.88,0,0,0-.71-.84c-.38-.11-.46.26-.59.52a6.59,6.59,0,0,0-.69,2.09C238.14,199.46,238,200.17,237,200.12Z"/><path class="cls-15" d="M318.88,62.66a56.61,56.61,0,0,1-1.6,6.69c-.7,2.93-1.49,5.84-2.26,8.75-.71,2.64-1.46,5.27-2.17,7.92-.85,3.21-1.67,6.44-2.52,9.66q-1.05,4-2.12,8c-.78,3-1.54,6-2.35,9-.76,2.82-1.61,5.61-2.35,8.43s-1.44,5.67-2.07,8.53c-.27,1.25-.78,2.41-1.08,3.66-.88,3.69-1.83,7.38-2.85,11-1.1,3.93-2.12,7.89-3.23,11.82-.78,2.75-1.43,5.58-2.12,8.37-.42,1.71-.85,3.47-1.44,5.18-1,2.9-1.47,6-2.3,8.93-1.05,3.75-2,7.52-3.05,11.29-.77,2.91-1.61,5.82-2.26,8.76-.25,1.15-.58,2.28-.91,3.41-.25.86-1,.8-1.59.63-2.82-.81-5.69-1.39-8.56-2-3.62-.79-7.26-1.51-10.86-2.43-2.17-.55-4.54-.75-6-2.9-.82-1.19-2.28-1.68-3.55-2.29-4-2-8.1-3.83-12.18-5.7-1.9-.88-2.95-2.53-3.92-4.23a17.64,17.64,0,0,0-3.26-4.15,3.69,3.69,0,0,1-1-4.15,60.86,60.86,0,0,0,2.51-12.18,3.59,3.59,0,0,1,2.32-3.18c2.55-1,3.35-2.74,3.29-5.41a20.56,20.56,0,0,1,2.91-10.31,86.81,86.81,0,0,0,5.15-11.22,51.24,51.24,0,0,0,2.28-7.39,31.9,31.9,0,0,0,.46-8.35c-.16-2.92-1.73-5.11-3.28-7.35a2.48,2.48,0,0,1-.11-2.75,38.88,38.88,0,0,0,4-15.35,4.76,4.76,0,0,0-1.41-4C247.93,86,248,84,247.66,82.23c-.28-1.59-.28-3.22-.58-4.8A57,57,0,0,0,244.87,69c-.85-2.38-1.68-4.74-2.76-7A53.86,53.86,0,0,0,235.93,52c-.36-.46-.87-.94-.58-1.56.38-.81,1.06-.18,1.57-.14,4.1.38,8.17,1,12.24,1.56,3.62.49,7.26,1,10.89,1.42,3.16.38,6.31.85,9.46,1.24s6,.65,9,1.2c3.46.64,7,.9,10.48,1.34q5.52.7,11.06,1.45c3.1.4,6.2,1,9.32,1.15,2.76.1,5.37,1.14,8.16,1C318.52,60.68,319,61.63,318.88,62.66Z"/><path class="cls-16" d="M212.22,277c1.09-.64,1.19-1.54,1.19-2.8,0-6.12-.25-12.24.1-18.36.07-1.28-.4-2.6.12-3.89a17.44,17.44,0,0,1,8-.05c.09.11.24.23.24.36-.09,2.42,1.17,4.62,1.11,7.05-.08,3.59,0,7.17,0,10.76,0,1,.21,1.31,1.36,1.07a25.14,25.14,0,0,0,4.1-1c.55-.22,1-.43,1-1.08,0-2.6.54-5.32-.17-7.77-.76-2.6-.56-5.14-.66-7.71,0-.66-.11-1.42.67-1.81a25.08,25.08,0,0,1,5.87-.16c3.27.15,6.55-.2,9.8.39a30.88,30.88,0,0,0,.43,6.72c.23,2.25.29,4.5.52,6.75.16,1.56.29,3.12.48,4.67.12.9-.15,1.3-1.11,1.2-1.81-.19-3.62-.39-5.44-.45-1,0-1.43-.42-1.51-1.37-.3-3.63-.6-7.26-.93-10.88-.17-1.95-.39-3.9-.6-5.85a1,1,0,0,0-1.08-1c-1.68,0-3.35,0-5,0-.95,0-1.15.43-1,1.31.6,4.1.55,8.23.83,12.35.09,1.41.15,2.84.35,4.24a1.25,1.25,0,0,1-1.09,1.59c-2.19.55-4.48.64-6.61,1.47-.77.29-1.18-.14-1.21-1-.22-6.13-.49-12.27-.66-18.41,0-1.24-.39-1.67-1.61-1.59s-2.56,0-3.84,0c-1.05,0-1.47.4-1.5,1.5-.22,7.08-.21,14.16-.13,21.24a2.65,2.65,0,0,1-2.23,2.91.31.31,0,0,1-.05-.46C212,276.84,212.11,276.93,212.22,277Z"/><path class="cls-17" d="M237,200.12c.5-.27,1-.66.83-1.26-.26-1.3,1-2.13,1-3.33a.37.37,0,0,1,.4-.35c.57,0,1.92,1.8,1.55,2.15-.86.84-.62,2.1-1.37,3a3.25,3.25,0,0,0-.63,2.22c0,1.48.07,3,0,4.43a2.63,2.63,0,0,0,1.11,2.41c.33.27.64.76,1.11.37a1,1,0,0,0,.3-1.32c-.83-1.57-.68-3.39-1.13-5.06-.36-1.35.49-3,.83-4.54a.42.42,0,0,1,.34-.23.54.54,0,0,1,.4.55c0,.89,0,1.78,0,2.66a20.39,20.39,0,0,1-.2,4.55,1.28,1.28,0,0,0,.27,1.1c1.05.86.82,2,.82,3.11q0,4.13,0,8.27c0,.78.16,1.63-1,1.77-.55.06-.37.59-.49.94-.49,1.53-.73,3.23-1.33,4.6-1.89,4.36-.67,8.81-.93,13.19-.07,1.2.39,2.5.44,3.79,0,.94.16,1.76-.82,2.28a1,1,0,0,0-.44,1.49c.42.6.94.11,1.4-.18,1.37-.86,1.79-2.54,3-3.52.35-.28.1-.83-.1-1.25-.69-1.47-1.08-2.95,0-4.43.49-.67,0-1.33-.16-2-.07-.25-.3-.46-.56-.23-1.47,1.33-1.2-.36-1.38-.88a4.33,4.33,0,0,1,0-1.76c0-.62.26-1,.9-.4.22.2.29.81.74.46a1,1,0,0,0,.3-1.34c-1.42-2.07-.44-4.29-.46-6.45a.76.76,0,0,1,.85-.81.79.79,0,0,1,.88.8,8.62,8.62,0,0,1,0,.88c0,6.8,0,13.59,0,20.39,0,1.22-.32,1.63-1.57,1.58a14.8,14.8,0,0,0-4.69.23,19.84,19.84,0,0,1,0-5,70.88,70.88,0,0,0,.75-10.59c-.17-6.8.55-13.59.27-20.38a62.49,62.49,0,0,0-.89-9.84,132.48,132.48,0,0,1-7.18,20.41,74.62,74.62,0,0,1-5,9.67c-.36.57-.64,1.26-1.46,1.33-.18-.12-.2-.25-.06-.41a81.09,81.09,0,0,0,6.22-12c1.5-3.44,2.83-7,4-10.54S235.87,203.59,237,200.12Z"/><path class="cls-18" d="M177.27,191.27c0-2,1-3.78,1.39-5.69a14.1,14.1,0,0,0,0-6.71c-.15-.61-.49-1.33.29-1.7s1.19.14,1.67.63a10.66,10.66,0,0,1,1.57,2.47c.14.26.26.58.63.5a.92.92,0,0,0,.6-.6,4.79,4.79,0,0,0-2.9-6.47,5.37,5.37,0,0,1-1.42-.76c-.93-.62-.8-1.37,0-1.89a10.15,10.15,0,0,1,7.25-1.8,33.35,33.35,0,0,0,17.4-1.54c3.5-1.27,6.32.78,6.27,4.51a38.82,38.82,0,0,0,.34,4.71c0,.4.06.83.52,1s.73-.15,1-.43c1.44-1.41,1.63-3.3,2-5.12.41-2,.85-3.92,2.44-5.5a10.32,10.32,0,0,0,3-7,39.24,39.24,0,0,0,.11-6,4.17,4.17,0,0,0-2.64-3.59,14.18,14.18,0,0,1-5.62-4.81,41.6,41.6,0,0,0-4.62-5.89,13.9,13.9,0,0,0-5-2.95c-1.15-.41-1.79.1-1.65,1.23.55,4.32.43,4.64-3.5,6.59a15.58,15.58,0,0,1-5,1.67c-4.46.56-8-1.24-11-4.43-2.22-2.4-2.55-5.12-1.4-8.19a24.41,24.41,0,0,0,1.78-9.64,12.56,12.56,0,0,1,1.29-6.56,5.06,5.06,0,0,1,4.88-2.33,3.66,3.66,0,0,1,3.64,2.81c.63,1.84,1,3.8,2.44,5.28a1.72,1.72,0,0,0,2.48.23c.95-.63,1.61-1.35,1-2.57l-.34-.65c-.26-.51-.42-1,.08-1.49s1-.26,1.48,0a18.35,18.35,0,0,0,7.29,2.54,24.67,24.67,0,0,0,8.45-.8c1.6-.41,2.9-.15,3.59,1.14.87,1.63,2.19,1.93,3.75,2.1,2.05.23,2.29.82,1.7,2.82a10.14,10.14,0,0,1-4.2,5.49c-.87.6-.64,1.21-.26,1.89s1,.83,1.84.35a14.2,14.2,0,0,0,4.73-4.55,24.17,24.17,0,0,0,2-5c0-.13.25-.08.38,0a2.21,2.21,0,0,1,.09,2.26,19.29,19.29,0,0,1-5.08,6.94,10.77,10.77,0,0,1-5.44,2,2.44,2.44,0,0,1-2.27-.78,1.55,1.55,0,0,1-.5-1.73,1.48,1.48,0,0,1,1.42-.87c.61-.06,1.32.13,1.67-.63.79-.81,1.89-1.22,2.63-2.1a9.6,9.6,0,0,0,1.48-2.35c1-2.34.67-2.88-1.84-3a2.44,2.44,0,0,1-2-.81,10.12,10.12,0,0,0-.93-1.5,1.9,1.9,0,0,0-2-.7c-2.12.62-4.42.22-6.49,1.17a2.46,2.46,0,0,1-1.61,0c-2.52-.73-5.25-.77-7.51-2.35-.34-.24-.78-.62-1.2-.31s0,.72,0,1.09a3,3,0,0,1-1.74,3.25,2.63,2.63,0,0,1-3.44-.66,11.41,11.41,0,0,1-2.67-5.17c-.55-1.92-1.07-2.39-3.08-2.28-.64,0-1.25.23-1.89.3-1.85.68-2.29,2.3-2.56,4a13.3,13.3,0,0,0,0,3.09c.24,3.07-.73,5.87-1.74,8.69a19.2,19.2,0,0,0-1.15,4.39c-.21,2.07,1.17,3.55,2.28,5.09a8.19,8.19,0,0,0,1.29,1.2,11,11,0,0,0,6.54,2.31,14.47,14.47,0,0,0,9.35-3.29,2,2,0,0,0,.48-2.64c-.49-1.09-.81-2.24.14-3.3,2.93-.78,5.1.68,7.18,2.42a33.48,33.48,0,0,1,5.77,7,12.82,12.82,0,0,0,4.77,4c1.76,1,3.36,2.13,3.19,4.48-.07.93,1,1.5.7,2.48a12.82,12.82,0,0,0-.86,4.48,10.65,10.65,0,0,1-3,6.61,10.65,10.65,0,0,0-2.44,6.17,7.93,7.93,0,0,1-2.26,4.69c-1.13,1.18-2.46.84-2.88-.74a19.1,19.1,0,0,1-.76-5.54c.07-2.86-1.86-4.19-4.53-3.21a36.74,36.74,0,0,1-16.68,1.88,20.28,20.28,0,0,0-5.51.15,3,3,0,0,0-1,.25c-.46.26-1.15.43-1.15,1s.74.67,1.22.84a4.4,4.4,0,0,1,3.34,4.63,16.38,16.38,0,0,1-.08,2.8c-1.08,1.83-2.25,1.87-3.37.13a9.18,9.18,0,0,0-1.55-2.14c1.43,4.94-.24,9.12-1.81,13.31C177.4,191.66,177.23,191.61,177.27,191.27Z"/><path class="cls-19" d="M229.26,251.72c-.53,2.58-.82,5.41,0,7.72,1.16,3.49.28,6.88.67,10.28a1,1,0,0,1-.24.63c-1.35-.24-2.25,1-3.52,1a3.84,3.84,0,0,0-2.77.65c-.73.61-.83-.2-.83-.76,0-2,0-4,0-6.06s0-3.93,0-5.9a7.2,7.2,0,0,0-.66-3.51c-.55-1.06-.18-2.59-.22-3.91A36.73,36.73,0,0,1,229.26,251.72Z"/><path class="cls-20" d="M165.8,140.45a1.24,1.24,0,0,1-.9,1.22,32.31,32.31,0,0,0-7.49,4,4.28,4.28,0,0,1-5.68-.31,21.35,21.35,0,0,1-6.17-9.84c-.15-.53-.28-1.08.22-1.49s.85.17,1.27.35c.76.34,1.38.91,2.17,1.22a1.58,1.58,0,0,0,2.18-.44c.88-1.11.89-1.63-.32-2.33a15.08,15.08,0,0,1-5.89-6,5.52,5.52,0,0,1-.91-2.75c.08-1.55,2.84-2.67,4.19-1.82.74.48,1.33,1.13,2.12,1.57a1.66,1.66,0,0,0,2.43-.42,9.9,9.9,0,0,1,7-3.89,24.83,24.83,0,0,1,5.24.59,13.19,13.19,0,0,0,6.66-.51c.46-.17.86-.23,1.16.24a.77.77,0,0,1-.12,1.07c-1.52,1.26-1.05,2.53-.07,3.82a.53.53,0,0,1-.39.18,1.89,1.89,0,0,1-1.39-1.33,3.16,3.16,0,0,1,.9-2.93c-1.12-.07-1.86.51-2.71.63a28,28,0,0,1-3.43,0,29.43,29.43,0,0,0-3.34-.66,10.82,10.82,0,0,0-3.93-.06,9.65,9.65,0,0,0-4.87,3.41c-1.1,1.38-2.25,1.52-3.71.52-.49-.33-1-.68-1.42-1a1.92,1.92,0,0,0-2.69,0c-.78.69-.52,1.6-.13,2.45a12.82,12.82,0,0,0,4.77,5.46c1.16.77,2.16,1.8,3.64,2.12a2.41,2.41,0,0,1,1.62,2,23,23,0,0,0,3.12,6.15c.55.91,1.21,1.24,2.19.64,1.34-.82,3-1,4.27-1.92A.47.47,0,0,1,165.8,140.45Z"/><path class="cls-21" d="M255.53,281.87l.44.53c.1.19.14.36-.09.49-.69,0-1.38,0-2.06,0-1,0-1.28.79-1.42,1.6s.55,1,1.17,1.19a9.62,9.62,0,0,0,3.19.45,15.6,15.6,0,0,1,4.94.72c1.31.3,1.71-.41,1.9-1.4.62-3.16,1.55-6.23,2.46-9.31.4-1.35.75-2.75,1-4.11.58-3,1.49-5.86,2.26-8.77s1.48-5.74,2.26-8.59a24,24,0,0,0,1.25-5.09,13.36,13.36,0,0,1,1-3.32c.58-1.71.85-3.5,1.38-5.21a43.8,43.8,0,0,0,1.2-4.64,40.31,40.31,0,0,1,1.51-5.47,37.68,37.68,0,0,0,.92-3.66c.68-3,1.62-5.94,2.3-9,.57-2.53,1.28-5.06,2-7.58.55-2,1-4.09,1.61-6.05.55-1.65.5-3.45,1.38-5a11.65,11.65,0,0,0,.74-3.12,40.9,40.9,0,0,0,1.39-5.52,25.46,25.46,0,0,1,1.2-4.49c.9-3,1.56-6,2.43-9s1.77-6.06,2.43-9.13c.38-1.77.92-3.49,1.33-5.23a44.82,44.82,0,0,1,1.27-4.91c.54-1.51.89-3.09,1.29-4.65.51-2,.92-4.06,1.58-6.05a32.11,32.11,0,0,0,1-4c.57-3,1.53-5.94,2.24-8.93.8-3.4,1.69-6.8,2.68-10.15,1.2-4,2-8.09,3.28-12.07s2-7.83,2.92-11.75c.32-1.26.71-2.51,1.07-3.77,0,.62,0,1.23,0,1.85a22.28,22.28,0,0,1-1.09,4.56c-1.35,5.52-2.84,11-4.3,16.51-1.08,4.08-2.21,8.14-3.29,12.22-1,3.8-2,7.6-3,11.4-1.1,4.22-2.22,8.44-3.32,12.66s-2.08,8.19-3.15,12.27-2.26,8.24-3.34,12.37-2,8-3,12c-.71,2.75-1.47,5.49-2.19,8.24-1.09,4.13-2.15,8.26-3.25,12.38-.78,2.94-1.61,5.87-2.39,8.81-1,3.79-2,7.6-3,11.4q-1.59,6.13-3.19,12.25t-3.23,12.39c-.8,3-1.65,6-2.45,9.08-.71,2.7-1.36,5.42-2.07,8.12-.93,3.61-1.87,7.21-2.85,10.8a1.56,1.56,0,0,1-1.82,1.16c-3-.24-6-1-9.06-1.12-.78,0-1.39-.39-1.23-1.43.32-2.19.79-2.88,2.1-2.81C254.46,282.09,255.06,282.54,255.53,281.87Z"/><path class="cls-22" d="M185,66.26c1.66.17,2.54-1.1,3.59-2,1.9-1.62,1.81-1.59-.19-3.21A38.61,38.61,0,0,0,180.7,56a42.43,42.43,0,0,0-9.33-3.18,52.81,52.81,0,0,0-12-.69,38,38,0,0,0-9.09,1.46,13.7,13.7,0,0,1-3.37.31c-.57,0-1.1-.07-1.35-.67a1.39,1.39,0,0,1,.38-1.49A17.77,17.77,0,0,1,149.35,49a46.89,46.89,0,0,1,12.77-6.39c.44-.14,1.08-.2.93-.89s-.73-.54-1.22-.54c-.83,0-1.67,0-2.51,0-.5,0-1,0-1.18-.64a1.28,1.28,0,0,1,.29-1.37A6.89,6.89,0,0,1,160,37.85a54.91,54.91,0,0,1,12.59-3.65c3.14-.6,6.36-.61,9.44-1.25,3.26-.68,6.29.12,9.43.27,2.52.12,4.92.82,7.38,1.17a34.67,34.67,0,0,1,6.57,1.89,75.88,75.88,0,0,1,11,5A53.28,53.28,0,0,1,231.37,54a47.24,47.24,0,0,1,7,11.3,27.64,27.64,0,0,1,2.26,6.3,30.32,30.32,0,0,0,1,3.78c.69,2.15.54,4.38,1,6.52.92,4,.45,8,.54,12,0,2-.71,3.79-1.17,5.66a1.27,1.27,0,0,1-.38-.88c0-3.15.71-6.25.59-9.41-.35-8.66-1.39-17.19-5.34-25a50.28,50.28,0,0,0-17.47-20,60.26,60.26,0,0,0-16.94-7.83,62.7,62.7,0,0,0-12.86-2.37,66.58,66.58,0,0,0-15.26.84,67.9,67.9,0,0,0-11.44,2.77,16.51,16.51,0,0,0-3,1.5c-.28.18-.61.42-.46.83s.49.28.77.25a10.77,10.77,0,0,1,2.2.18c.79.08,1.48.31,1.6,1.23s-.47,1.45-1.27,1.75c-1.61.59-3.28,1-4.85,1.73A8.43,8.43,0,0,0,156,46l-.35.2c-.93.53-1.91,1-2.82,1.56a3.92,3.92,0,0,1-.32.25,20.29,20.29,0,0,0-2.54,1.68c-.75.68-1.64,1.19-2.36,1.9-.39.39-1.15.65-.83,1.46a3.85,3.85,0,0,0,2.57-.25,27.91,27.91,0,0,1,3-.64l.45-.12a38,38,0,0,1,6.89-.78,3.88,3.88,0,0,1,.49-.11c1.84-.08,3.69-.09,5.53,0a2.56,2.56,0,0,1,.48.1c2,.3,4.07,0,6,.78l.42.11a14.25,14.25,0,0,1,3,.78l.36.16a13.9,13.9,0,0,1,2.18.81c.13,0,.25.1.37.15,2.07.92,4,2,6,3.11a32.46,32.46,0,0,1,5.36,4,2.06,2.06,0,0,1,.76,1.36,2.31,2.31,0,0,1-1.27,2.4c-.44.31-.85.65-1.27,1-.93.56-1.69,1.51-3,1.31a1.1,1.1,0,0,1-.4-.17C184.46,66.59,184.72,66.43,185,66.26Z"/><path class="cls-23" d="M185,66.26l-.28.46c-1.06.55-1.64-.43-2.42-.76a11,11,0,0,0-2.21-.92l-.39-.11a14,14,0,0,0-2.49-.4,3.26,3.26,0,0,1-1.1-.33,18.87,18.87,0,0,0-5-.28c-1.35.13-2.71-.06-4.06.16a3.84,3.84,0,0,1-.46.11A13.36,13.36,0,0,0,158,68.92a38.87,38.87,0,0,0-6.81,11.32,48.68,48.68,0,0,0-3,12.25,5.71,5.71,0,0,1-2.51,4.59c-1.86,1.17-2.19,2.92-2.07,4.86.08,1.39.52,1.65,1.89,1.57a84.6,84.6,0,0,1,11.48-.35,2.63,2.63,0,0,1,.47.1c2,.13,4,.31,6,.47a3.56,3.56,0,0,1,.47.1,29.41,29.41,0,0,1,5.61.8c4.17.73,7.52,3,10.69,5.65,1.42.91,2.84.32,4.26,0a2,2,0,0,1,.47-.09c1.14,0,2.28-.06,3.41,0a2.33,2.33,0,0,1,.46.08,4.45,4.45,0,0,0,3,0,17,17,0,0,1,6.56-3.57,29.75,29.75,0,0,1,3.35-.82,4.92,4.92,0,0,1,1.27-.11c3.71-.17,7.42-.27,11.13-.46,1.33-.06,2.6.45,3.93.45,2,0,4.11,0,6.17,0a12.75,12.75,0,0,1,2.62.1c1,.27,2.12.29,3.17.53,1.3.25,2.62.4,3.93.59,1,.16,1.5-.24,1.45-1.27A16.21,16.21,0,0,0,232.89,97a17.72,17.72,0,0,1-2.54-5.63,4.62,4.62,0,0,1-.24-1.59c.38-3-.06-5.88-.27-8.81-.07-.94-.43-2.28.7-2.63s1.52,1.06,2.1,1.85c.05.13.11.27.17.4l1.68,3.7c.06.12.11.24.16.37.32.66.55,1.36.89,2a118.31,118.31,0,0,1,4.34,11.08c.54,1.57.63,1.62,2.11.93l0,.91c-1.28,1.29-2.2,1.08-2.74-.63A128.69,128.69,0,0,0,233,83.26a25.65,25.65,0,0,1-1.17-2.67c-.12-.39-.3-1-.81-.86s-.32.8-.24,1.17a29,29,0,0,1,.34,3.35,39.14,39.14,0,0,1,0,5.73c-.12,2.34,1.07,4.36,2.34,6.22a17.11,17.11,0,0,1,2.66,10.61c0,1.16-.53,1.63-1.69,1.33-9.08-2.35-18.35-1.62-27.56-1.71a27.46,27.46,0,0,0-8.31,1,18.32,18.32,0,0,0-5.74,3.17,3.94,3.94,0,0,1-3,.73c-2.38-.21-4.77-.59-7.13.35-1.34.54-2.46-.23-3.52-1a39.4,39.4,0,0,0-4.81-3.36,26.34,26.34,0,0,0-10.29-2.57q-5.31-.36-10.64-.62a57.84,57.84,0,0,0-8.21.52,2.1,2.1,0,0,1-2.54-1.85c-.63-3.15.15-5,2.93-6.69a3.45,3.45,0,0,0,1.39-2.81c.3-2.44.81-4.84,1.33-7.23a43.17,43.17,0,0,1,2.08-6.41,39.7,39.7,0,0,1,6.92-11.31A15.21,15.21,0,0,1,168,63a35.79,35.79,0,0,1,9.92.59,21.63,21.63,0,0,1,5.78,2C184.08,65.85,184.53,66.05,185,66.26Z"/><path class="cls-24" d="M226.94,124.47c-.72,1.71-1,3.64-2.34,5-.23-1,.63-1.6.93-2.4,1.12-2.92,1.38-6.07,2.5-9,.28-.72,0-1.5.51-2.25.88-1.41,2.37-1.81,3.64-2.57.31-.19.69-.29,1-.51a2.27,2.27,0,0,1,3.73,1.9c-.05,2.81.43,5.58.36,8.38,0,.43-.15,1,.35,1.2s.87-.29,1.2-.61c1.42-1.4,1.48-1.91.46-3.7-1.41-2.51-1-3.92,1.55-5.19a2.92,2.92,0,0,1,4.13,1.94,18.7,18.7,0,0,1,.29,7.42,35.63,35.63,0,0,1-2.09,8q-1.41,3.58-3.18,7c-1.21,2.37-2.66,4.66-3.13,7.4a23.4,23.4,0,0,1-1,2.7,1.43,1.43,0,0,1-1.35,1c-1,.09-1.46-.61-1.91-1.69a9.23,9.23,0,0,1-2.45,4.27,1.71,1.71,0,0,0-.49,1.34,26.22,26.22,0,0,0,0,2.66c.44,3.9-.72,7.68-1.1,11.5a22.67,22.67,0,0,1-1.35,5.13,57.24,57.24,0,0,1-2.87,7,24.28,24.28,0,0,1-3.58,5.33,54.35,54.35,0,0,1-12.6,10.51,21.06,21.06,0,0,1-3.93,1.93,3,3,0,0,1-3.29-.61c-.34-.36-.62-.9-1.26-.94-.42.6,0,1.17.1,1.69.44,3.12-1.38,5.31-3,7.53a24.66,24.66,0,0,0-3.15,4.71,20,20,0,0,0-.63,2.7c-.45,1.66-1.61,2.06-3,1.09a22.69,22.69,0,0,1-5.23-4.88.58.58,0,0,1,.58-.09,1.78,1.78,0,0,1,.51.35c1.07.91,1.84,2.15,3.16,2.79.59.33,1.13.74,1.75,1s1.08.54,1.22-.29c.17-1,.76-2,.69-3.1a6.68,6.68,0,0,1,1.63-2.71c1.22-1,1.88-2.43,2.89-3.59.06-.13.14-.25.21-.38a7,7,0,0,0,1.26-5.85,1.46,1.46,0,0,1,.59-1.82c.69-.37,1.22,0,1.71.49a3.32,3.32,0,0,0,4,.56,43,43,0,0,0,10.87-7.29,32,32,0,0,0,9.14-12.34,45.57,45.57,0,0,0,3.19-13c.28-3.18.65-6.36.62-9.56a4.51,4.51,0,0,1,1.07-2.86,14.9,14.9,0,0,0,1.86-3c.54-1.17,1-1.26,2-.31.75.74,1.22.78,1.54-.29,1.4-4.75,3.92-9,5.93-13.49,2.11-4.7,3.65-9.56,3.53-14.8a8.14,8.14,0,0,0-.48-2.9,2.33,2.33,0,1,0-4.27,1.86,15.44,15.44,0,0,1,.78,1.58,3.9,3.9,0,0,1-2.15,4.67c-1.18.49-2.11-.12-2.12-1.55,0-2.41-.19-4.81-.26-7.22-.1-3.17-1-3.7-3.77-2.17a12.56,12.56,0,0,1-1.3.71,3.51,3.51,0,0,0-2.25,3.11,25.19,25.19,0,0,1-.61,2.84c0,.14-.07.28-.11.41a10.11,10.11,0,0,1-.94,3Z"/><path class="cls-25" d="M169.6,232.06c-.12,1.16-1,2-1.43,3a4.53,4.53,0,0,0-.54,1.87c.72-.24,1-.85,1.35-1.32a39.72,39.72,0,0,1,10.86-9.81c.55-.32,1.17-.51,1.72-.82s.89-.44,1.36-.09a1.46,1.46,0,0,1,.51,1.58,18.29,18.29,0,0,1-2.13,5.42,121.94,121.94,0,0,1-7.16,12.45c-1.43,2.09-3.09,3.46-5.94,3.23a40.61,40.61,0,0,0-8.68.34c-5.19.68-10.39.17-15.55.68a47,47,0,0,0-5.53.53,3.8,3.8,0,0,1-4.81-3.61c0-1.64-.61-3.21-.62-4.81a58,58,0,0,1,.4-7.34,37.6,37.6,0,0,0,.24-4.85c0-3.41.88-6.7,1.15-10.07a34.88,34.88,0,0,1,1.82-7.68,3,3,0,0,1,2.81-1.82,1.88,1.88,0,0,1,2.29,1.47c.69,2.14,1.53,4.22,2.35,6.31,1,2.54,2,5.08,3,7.59,2.23,5.25,5.58,9.82,9,14.34a32.91,32.91,0,0,0,2.64,2.78c.28.29.62.6,1,.31s.2-.71,0-1a91.55,91.55,0,0,1-5.65-8.9,2.45,2.45,0,0,1-.42-1.51.34.34,0,0,1,.41,0c1,.82,1.29,2.05,1.91,3.09a56.79,56.79,0,0,0,3.81,5.88,3,3,0,0,1,.84,2.82c-.9,1.13-1.69.4-2.49-.15l-.32-.29c-1.28-1.16-2.25-2.61-3.54-3.75a25.89,25.89,0,0,1-3.93-5.69,30.13,30.13,0,0,0-2.63-4.35,3.66,3.66,0,0,1-.93-1.81c-.13-.71-.56-1.33-.72-2l-.18-.36c-.64-1.28-.87-2.74-1.73-3.93a17.34,17.34,0,0,1-1.83-4.59,9.57,9.57,0,0,0-.67-2.35l-.15-.38c-.18-.6-.58-1.1-.72-1.71-.22-1-.81-1.21-1.69-.83-.65.52-1.44.89-1.78,1.72a11,11,0,0,1-.8,3,4.22,4.22,0,0,0-.2.6c-.06.28-.11.57-.18.85a27.84,27.84,0,0,0-.49,3.4c-.2.78-.19,1.6-.34,2.39a28.08,28.08,0,0,0-.53,4.74c-.39,1.73,0,3.49-.32,5.22a6.07,6.07,0,0,0-.2,1.75,43.64,43.64,0,0,1-.24,5.59c-.26,1.7.28,3.4.36,5.11.21,1.27.14,2.64,1.33,3.54a4.49,4.49,0,0,0,3.12.32c1.52-.36,3.11.1,4.63-.37a28.42,28.42,0,0,1,4-.11c5.65.08,11.26-.56,16.9-.71a7.73,7.73,0,0,1,1.73-.14c.69,0,1.39,0,2.06.05,2.4.33,4-.91,5.15-2.74,3.24-5.27,6.64-10.46,8.83-16.31.2-.54.61-1.17.1-1.64s-1.13-.07-1.64.21a15.64,15.64,0,0,0-3.68,2.68,37.55,37.55,0,0,0-8.21,8.34,5.52,5.52,0,0,1-.67.78c-.41.36-.82.77-1.41.35a1.12,1.12,0,0,1-.48-1.42c.91-1.71,1.31-3.71,2.83-5.09A.57.57,0,0,1,169.6,232.06Z"/><path class="cls-26" d="M255.88,282.89l.09-.49c1.06.16,2.12.33,3.19.46.9.11,1.34-.41,1.56-1.22.66-2.45,1.36-4.9,2-7.36.85-3.25,1.48-6.56,2.62-9.73a15,15,0,0,0-.33-10.66,84,84,0,0,1-2.27-8.62c-.74-3-1.43-6.07-2.15-9.11-.77-3.24-1.7-6.43-2.36-9.69a31.89,31.89,0,0,0-1.09-4.25,47.35,47.35,0,0,1-1.35-5.4c-1.16-5.15-2.58-10.23-3.75-15.36a6,6,0,0,0-5-4c-.76,0-1.21.15-1,1.12.86,3.76,1.11,7.64,1.88,11.42,1.06,5.19,1.43,10.46,2.09,15.7.32,2.54.24,5.13.64,7.61a99,99,0,0,1,.8,13.65,1.87,1.87,0,0,0,1.7,2,31.06,31.06,0,0,0,4,.81,2.55,2.55,0,0,1,1.94,1.14c-1.78-.88-3.81-.71-5.66-1.33s-2.52-1.27-2.59-3.36c-.09-2.65,0-5.29-.28-7.95-.56-4.94-.89-9.92-1.36-14.87-.3-3.12-.78-6.22-1.15-9.33a78.17,78.17,0,0,0-1.36-8.24,65,65,0,0,1-1.16-7.22c-.17-1.56.38-1.88,1.94-1.57,3.51.71,5.09,3.19,5.53,6.41.25,1.75.91,3.38,1.21,5.12.26,1.5.71,3,1.1,4.54.52,2,1.08,4,1.49,6.1.38,1.89,1,3.73,1.51,5.62.77,3.13,1.47,6.28,2.23,9.42s1.69,6.31,2.38,9.5c.38,1.77.81,3.54,1.28,5.26.76,2.71,1.2,5.51,2.18,8.15a6.7,6.7,0,0,1,.19,4.19c-.88,3.29-1.67,6.62-2.65,9.87-.87,2.88-1.14,5.92-2.4,8.69a4.85,4.85,0,0,0-.13,1.16c-.33,1.7-1.29,2.39-3,2A19.72,19.72,0,0,0,255.88,282.89Z"/><path class="cls-27" d="M223.69,233.19l.09.35a1.39,1.39,0,0,1-1.13,1.37,1,1,0,0,1-1.43-1.23,4.66,4.66,0,0,1,.44-1.4A95.29,95.29,0,0,0,227.49,217,100.53,100.53,0,0,0,230,206.84a54.36,54.36,0,0,0,1.19-11.68c-.08-2.71,0-5.62-1.44-8.18-.72-1.3-1-1.36-1.7-.09A56.36,56.36,0,0,1,212,204.18a68.09,68.09,0,0,1-8.36,5.28c2.6,0,5.17,0,7.74,0,2.75,0,4.16,1.45,4.18,4.22s0,5.52,0,8.27a4.1,4.1,0,0,1-3.55,4.24,10.72,10.72,0,0,1-1.88,0,3.41,3.41,0,0,1-.46-.1,11.62,11.62,0,0,0-2.7-.12,7,7,0,0,0-2.36.19c0,.12-.05.24-.08.36-.67-.26-.69-.8-.49-1.34s.69-.52,1.14-.46c1.89.22,3.76.65,5.69.7,2.38.07,3.84-1.11,3.88-3.52.05-2.9,0-5.81,0-8.71a2.77,2.77,0,0,0-2.48-2.68,19.75,19.75,0,0,0-8.62.24c-.75.18-1.75.68-2.13-.18s.55-1.32,1.27-1.71c7.89-4.26,15-9.53,20.6-16.59A39.13,39.13,0,0,0,227.4,186c.94-1.78,1.71-1.87,2.81-.21a11.47,11.47,0,0,1,1.72,5.1,54.21,54.21,0,0,1-1.27,17.53,137.72,137.72,0,0,1-4.93,17c-.81,2.35-1.93,4.6-2.94,6.88-.25.57-1,1.21-.43,1.68S223.07,233.23,223.69,233.19Z"/><path class="cls-20" d="M169.6,232.06h-.53c-.47-.53,0-.9.27-1.26.45-.57.87-1.17,1.3-1.76a8.73,8.73,0,0,0,1-1.89h-6.46a10.54,10.54,0,0,1-2.51-.11,6,6,0,0,1-4.16-5.5.91.91,0,0,1,0-.44c1.61-2.37.7-5.06.94-7.6a7.16,7.16,0,0,1,.09-1c.2-.83,1-1.05,1.53-1.59a1.84,1.84,0,0,1,.83-.61c2.05-.47,4-1.49,6.23-1a1.12,1.12,0,0,0,.79-.07c-3.7-1.36-6.42-4.11-9.49-6.32-2-1.4-3.71-3.06-5.56-4.59-.75-.62-.81-1.88-2-2a1.15,1.15,0,0,1-.35-.22,4.77,4.77,0,0,0-1.27-1.77c-.74-.81-1.31-.67-1.69.35a2.16,2.16,0,0,0-.14,1,3.68,3.68,0,0,1-1,3c-.14,3.72-.35,7.41.52,11.12.66,2.81,1.18,5.66,2,8.44a68.18,68.18,0,0,0,3.45,9.83c.32.73,1,1.38.6,2.31h-.14l-.13,0a49.13,49.13,0,0,1-4.36-10.87,98.07,98.07,0,0,1-2.34-9.86,31.18,31.18,0,0,1,.65-15.29c.63-2,1.86-2.23,3.26-.69a68.51,68.51,0,0,0,17,13.84,19.43,19.43,0,0,1,2,1.3c.39.3.76.69.52,1.26a1,1,0,0,1-1.1.54,24.51,24.51,0,0,0-4.84.3,6.17,6.17,0,0,0-2.41.64,3,3,0,0,0-1.78,3.05c.1,2.51,0,5-.13,7.53s.87,3.63,3.7,4.18c2.1.42,4.21,0,6.31-.14a5.86,5.86,0,0,1,.58-.1c.8,0,1.75-.46,2.3.46s-.43,1.31-.8,1.88C171.36,229.58,170.47,230.81,169.6,232.06Z"/><path class="cls-28" d="M188.47,162.73a91,91,0,0,1,10,.42c.62,0,1.32.19,1.38.84s-.75.59-1.22.73c-5,1.49-10,1.62-15.15,1.68-1.43,0-2.48-.81-3.6-1.49a.9.9,0,0,1-.52-1.1c.17-.49.57-.59,1.05-.65A47.1,47.1,0,0,1,188.47,162.73Z"/><path class="cls-29" d="M172.55,124.8l.34-.06c.81,1,1.51.4,2.27-.1.37-.24.66-1,1.2-.58s.35,1.1.18,1.64a13.07,13.07,0,0,1-5.12,7.47,13.82,13.82,0,0,0-5.62,7.28l-.32,0c-.52-.55-.21-1.08,0-1.63.43-1,1.06-1.86,1.54-3a14.49,14.49,0,0,0-3.13.44,4.19,4.19,0,0,1-2.6-.14,1.78,1.78,0,0,1-1.19-2c.18-.87,1-.88,1.65-.88a17.15,17.15,0,0,0,6.79-1.67,7.71,7.71,0,0,0,4.26-4.78C173.2,126.08,172.3,125.52,172.55,124.8Z"/><path class="cls-30" d="M133.92,116.37c-.23,2.26.7,4.35,1,6.54.05.44.12.88.13,1.32s-.07,1-.66,1.17a1.17,1.17,0,0,1-1.38-.58,22.82,22.82,0,0,1-2.71-6.17c-.15-.52-.22-1.06-.36-1.58a2.63,2.63,0,0,1,3-3.47c.65.06,1,.35,1,1S133.92,115.78,133.92,116.37Z"/><path class="cls-31" d="M151.3,109.75c.83.06,1.67-.11,1.88.77s-.43,1.1-1,1.43a62.9,62.9,0,0,0-5.35,3.34c-.87.6-1.9,1-2.81,0s-.31-2,.22-2.82a4.78,4.78,0,0,1,3.59-2.3C149,110,150.24,109.88,151.3,109.75Z"/><path class="cls-32" d="M262.72,221.13c-.87-2.76-1.75-5.51-2.61-8.27-.73-2.37-1.42-4.77-2.18-7.14-.23-.73-.46-1.38.12-2.07a2.06,2.06,0,0,1,2.22-.73c4.83,1.07,9.66,2.13,14.51,3.13a40.68,40.68,0,0,1,4.74,1c.87.28,1.24.57,1,1.54-.93,3.29-1.57,6.66-2.72,9.88a.27.27,0,0,1-.41-.07c-.45-1.79.56-3.34.9-5a22.1,22.1,0,0,1,1.15-4.27c.3-.7,0-1.05-.73-1.24-4.25-1-8.52-1.89-12.82-2.67-1.6-.28-3.14-.82-4.76-1-2-.22-2.55.23-2,2.13.69,2.26,1.33,4.53,2.08,6.76.82,2.42,1.39,4.92,2.29,7.31a2,2,0,0,1-.09,1.85C262.35,222.39,263.21,221.35,262.72,221.13Z"/><path class="cls-33" d="M217.36,110a10.47,10.47,0,0,1,4.17.85,3.2,3.2,0,0,1,1.79,2c.3.94.37,2-.53,2.54a2,2,0,0,1-2.44-.38c-1.23-1-2.46-1.93-3.69-2.91-.56-.44-1.5-.77-1.15-1.66S216.74,110.08,217.36,110Z"/><path class="cls-34" d="M187.58,243.93c0,3.19-.16,3.39-2.84,3.42a1.4,1.4,0,0,1-.29,0c-.73-.14-1.73.43-2.14-.47s.61-1.33,1-1.94a21.49,21.49,0,0,0,2.34-4.22c.16-.41.25-.92.81-.92s.77.59.83,1C187.48,242.06,187.53,243.29,187.58,243.93Z"/><path class="cls-35" d="M262.72,221.13l.58,1.18c1.25,1.42,1.54,3.26,2.05,5,1.54,5.17,3.12,10.33,4.64,15.5a.53.53,0,0,0,.46.43,34,34,0,0,0,1.08-3.9,9.85,9.85,0,0,1,1.35-3.69.4.4,0,0,1,.43,0c0,2.15-1,4.05-1.41,6.1a24,24,0,0,0-.57,2.57c0,.52.08,1.22-.63,1.32a1.27,1.27,0,0,1-1.37-1.1c-.27-2.55-1.39-4.85-2-7.29-.68-2.68-1.77-5.26-2.43-7.95S263,224,262.72,221.13Z"/><path class="cls-36" d="M164,114.73c-3.09-.49-5.73,1.1-8.46,2.26a8,8,0,0,1-3.41.7c-.74,0-1.68,0-1.81-.88-.11-.68.66-1.21,1.28-1.45a20.65,20.65,0,0,0,3.76-2A38.24,38.24,0,0,1,160,111c2.43-1.2,5.95-.28,7.23,1.82.73,1.19.39,1.87-1,1.9C165.52,114.74,164.78,114.73,164,114.73Z"/><path class="cls-37" d="M209.52,111.56A7.56,7.56,0,0,1,215,114.1a22.29,22.29,0,0,0,4.54,3.73c.32.19.82.3.74.79s-.66.73-1.12.81c-1.81.32-3.17-.71-4.6-1.57-1.24-.76-2.22-1.89-3.71-2.3-1.76-.5-3.41.12-5.1.2-.68,0-1.44.4-1.8-.44s.21-1.35.86-1.81C206.26,112.47,207.68,111.42,209.52,111.56Z"/><path class="cls-38" d="M171.62,139.89a5.45,5.45,0,0,1,1.27-4,2.17,2.17,0,0,1,3.27,0,1.05,1.05,0,0,1,.27,1.42,4.6,4.6,0,0,0-.05,4.24,2,2,0,0,1-.24,2.54c-.92.93-1.66.24-2.36-.17A4.45,4.45,0,0,1,171.62,139.89Z"/><path class="cls-39" d="M185.18,209.65l-.47-.1a34.42,34.42,0,0,1-6.77-8.66c-1.51-3.09-2-6.3-.67-9.62l.27.31a.68.68,0,0,1,.24.79c-1.35,4.8.74,8.63,3.53,12.2a34.86,34.86,0,0,0,3.23,3.64C184.92,208.57,185.54,208.92,185.18,209.65Z"/><path class="cls-40" d="M273.31,235.6H273a1.28,1.28,0,0,1-.18-1.25c1-3.74,2-7.45,2.92-11.19a3.32,3.32,0,0,1,.59-1.33.59.59,0,0,1,.43-.21l.19.15A108.15,108.15,0,0,1,273.31,235.6Z"/><path class="cls-41" d="M228.29,113c-.44,0-.89,0-1.33,0a1.46,1.46,0,0,1-1.75-1.52c-.09-1.36.56-2,1.81-2.06.94,0,1.87,0,2.8,0s1.62.37,1.59,1.5-.44,1.91-1.65,2A14.4,14.4,0,0,1,228.29,113Z"/><path class="cls-42" d="M138.57,108.81a2.37,2.37,0,0,1,2.75,0c.91.69.49,1.82.45,2.77,0,.61-.55.74-1.08.78-1.12.07-2.24,0-3.37.17-1,.11-1.71-.59-1.73-1.76s.1-2,1.51-2l1.47,0c0,.74-.66.62-1.09.67-.8.11-.87.62-.87,1.27s.42.9,1,.9c.79,0,1.57,0,2.35,0a1,1,0,0,0,1.11-1.1c0-.73-.19-1.25-1-1.33C139.56,109.17,139,109.25,138.57,108.81Z"/><path class="cls-40" d="M277.48,218.46h.29a4.54,4.54,0,0,1-.8,3.33l-.12-.11c-.49-1,.34-1.89.36-2.85A1,1,0,0,1,277.48,218.46Z"/><path class="cls-2" d="M228,319.9c-5-.21-10-.57-14.7-2.56-7.41-3.16-12.22-8.77-12.25-17.23,0-7.11,3.42-12.69,8.65-17.19a36.6,36.6,0,0,1,14.79-7.52,50.51,50.51,0,0,1,17.68-1.51,40.09,40.09,0,0,1,8.25,1.52c.87.28.92.74.72,1.45-.88,3.06-1.72,6.13-2.65,9.18-.35,1.12-1.47,1.21-2.46.2a11.78,11.78,0,0,0-3.95-2.72c-2.71-1.14-5.52-1-8.3-.86-4.93.28-9.43,1.81-12.88,5.55a12.86,12.86,0,0,0,3.1,20.16c4.58,2.55,9.38,2.89,14.41,2a42.1,42.1,0,0,0,6-1.4c1.44-.48,1.4.36,1.13,1.12a30.69,30.69,0,0,0-1.22,5.31,3.39,3.39,0,0,1-3.3,3.27c-2.63.4-5.27.66-7.91.89C231.43,319.72,229.73,320.19,228,319.9Z"/><path class="cls-43" d="M135.27,285.21c1.84-1.46,3.64-3,5.54-4.34s2.11-2.17-.14-3.11c-1.11-.47-.67-1.56-.59-2.35.1-1.09,1-1.64,2-1.9a5.89,5.89,0,0,1,1.33,0h19.79c.69,0,1.63-.25,1.71.86s.24,2.78-1.08,3.09c-3.27.78-5.55,3-8,5-4.82,3.85-9.59,7.77-14.44,11.6-1,.76-.87,1.3-.27,2.2,2.91,4.38,5.72,8.82,8.67,13.18,1.76,2.61,3.74,5.06,7.06,5.86.82.19,1.15.7.71,1.54a4.5,4.5,0,0,0-.54,1.36,1.42,1.42,0,0,1-1.62,1.35,112.17,112.17,0,0,1-13-.28,15,15,0,0,1-11.22-6.9c-1.74-2.59-3.65-5.07-5.47-7.61a1.53,1.53,0,0,1-.12-.55c.73-.09,1,.51,1.47.9,1.9,2.63,3.9,5.19,5.8,7.83a11.92,11.92,0,0,0,8.49,5,85.39,85.39,0,0,0,13.08.68c1.12,0,1.75-.44,1.91-1.57.08-.51,0-.92-.49-1.08-3.73-1.18-5.67-4.27-7.66-7.25q-4.06-6.07-8-12.24c-.91-1.43-.93-1.88.4-3,4-3.33,8.07-6.47,12.08-9.72,1.72-1.4,3.44-2.79,5.13-4.21a13.37,13.37,0,0,1,4.62-2.56,1.8,1.8,0,0,0,1-.51,1.36,1.36,0,0,0,.4-1.35c-.18-.42-.66-.38-1-.38q-10,0-19.94,0a1.65,1.65,0,0,0-1.55.69c-.37.6-.47,1.09.27,1.61,2.29,1.6,2.3,2.74.12,4.42q-2.4,1.86-4.85,3.63c-.46.33-.89.84-1.58.55A.33.33,0,0,1,135.27,285.21Z"/><path class="cls-44" d="M126.72,305.1l-1.13-.94c-.8-1.23-1.6-2.45-2.42-3.67-.15-.23-.23-.61-.6-.56s-.36.41-.44.69c-1,3.82-2,7.66-3.1,11.48-.34,1.26.36,1.94,1.29,2.5,1.74,1,2,2.5.84,4.17a1.24,1.24,0,0,1-1.18.42H98.71c-.53,0-1.25.07-1.25-.67,0-1.1-.25-2.62,1.07-3,4.09-1.06,5.12-4.39,6.09-7.76,1.53-5.32,2.95-10.68,4.42-16,1-3.5,1.93-7,2.85-10.5.38-1.47-.26-2.49-2.15-3.59-.58-.34-1.45-.5-.93-1.46s.16-2.29,2-2.26c6.49.09,13,0,19.49.05.66,0,1.66-.44,1.81.67a2.38,2.38,0,0,1-1.18,2.77,8.27,8.27,0,0,0-2.11,1.28,21.52,21.52,0,0,0-2,5.56c-.58,2.05-1,4.13-1.76,6.14-.09.23-.26.23-.46.15a1.8,1.8,0,0,1-.22-1.7c1-3,1.53-6.18,2.64-9.17a4.33,4.33,0,0,1,1.22-1.64c.56-.49,1.17-.9,1.77-1.33.44-.31,1-.68.85-1.26s-.92-.42-1.42-.42q-8.77,0-17.57,0c-.66,0-1.46-.19-1.76.69s.38,1.21.92,1.64c1.9,1.48,2.29,3.28,1.37,6-1,2.93-1.55,6-2.48,8.93-.86,2.71-1.49,5.47-2.31,8.19-.74,2.49-1.39,5-2.06,7.52a13.41,13.41,0,0,1-2.74,5.95,6.58,6.58,0,0,1-2.93,2.15,2,2,0,0,0-.8.37,1.26,1.26,0,0,0-.56,1.28c.14.54.69.45,1.11.5a5.86,5.86,0,0,0,.59,0h18.46c.72,0,1.49.13,1.8-.86a1.66,1.66,0,0,0-.78-2.11c-1.92-1.39-1.93-2.06-1.33-4.38.68-2.66,1.5-5.29,2.07-8a21.26,21.26,0,0,1,1.19-3.33.9.9,0,0,1,1.57-.35,23.48,23.48,0,0,1,3.68,5.46C126.94,304.83,126.82,305,126.72,305.1Z"/><path class="cls-45" d="M161.83,305.88c.1-2.22,1-4.25,1.54-6.35.38-1.41.8-2.8,1.18-4.21.77-2.86,1.52-5.73,2.28-8.6.47-1.79,1-3.57,1.37-5.38s-.13-2.68-1.85-3.5c-.55-.27-1.42-.4-1.07-1.28.41-1.05.05-2.65,1.8-2.85a11.61,11.61,0,0,1,1.18,0h36.93c1.84,0,1.81,0,1.72,1.89a5.45,5.45,0,0,1-1,2.87,1.53,1.53,0,0,1-.35-1.18,8.44,8.44,0,0,1,.36-1.73c.09-.72-.2-.92-.93-.91-12,.24-23.93.06-35.9.13-.84,0-1.77-.53-2.52.28l-.2.4c-.58,1.06-.17,1.66.89,2a3.28,3.28,0,0,1,.53.39,3.93,3.93,0,0,1,1.21,3.88,2.23,2.23,0,0,1-.1.43c-.26,1-.64,2-.82,3.06a2.09,2.09,0,0,1-.11.43c-.62,2.83-1.55,5.57-2.28,8.37-1,3.84-2.11,7.65-3.19,11.47a1.2,1.2,0,0,1-.29.5A.28.28,0,0,1,161.83,305.88Z"/><path class="cls-46" d="M205.93,277.26c0,.4,0,.79,0,1.19a46.77,46.77,0,0,1-1.81,7.1c-.42,1.19-1.52,1.4-2.22.36-1.18-1.78-2.76-2.25-4.79-2.18-3.64.11-7.28.06-10.92,0-1.12,0-1.88.38-2,1.48a39.3,39.3,0,0,1-1.2,4.69c-.3,1.37.14,1.62,1.36,1.6,3.94-.05,7.87,0,11.8,0,1.35,0,1.83.48,1.53,1.76-.67,2.91-1.26,5.84-2.08,8.71-.4,1.41-1.31.26-2,.08-.28-.21-.22-.42,0-.62a1.94,1.94,0,0,0,1.49-1.63c.28-1.9,1-3.71,1.38-5.58.34-1.5.26-1.68-1.37-1.69-3.5,0-7,0-10.48,0a10.41,10.41,0,0,1-1.48-.05c-1.2-.18-1.63-.78-1.33-2,.49-2,1.07-4,1.64-6a2.2,2.2,0,0,1,2.19-1.67c4.28-.09,8.57-.18,12.84,0a4.93,4.93,0,0,1,3.35,1.69c1,1,1.18.94,1.61-.36.62-1.87.78-3.86,1.46-5.71C205.13,278,205.11,277.28,205.93,277.26Z"/><path class="cls-45" d="M193.55,301.53c0,.16,0,.32.07.49a10.21,10.21,0,0,0-5.24-1c-2.26-.05-4.53,0-6.79,0-1.18,0-1.84.29-2,1.71a30.44,30.44,0,0,1-1.39,5c-.42,1.34-.64,2.74-1.13,4.08-.4,1.12.44,2,1.37,2.69a3,3,0,0,1,1,4,1.4,1.4,0,0,1-1.45.81c-6.2,0-12.4,0-18.6,0-1,0-1.23-.54-1.06-1.32.33-1.58.68-3.16,1.14-4.69a35.52,35.52,0,0,0,1.52-5.61,6.11,6.11,0,0,1,.84-1.85l.16.13c.51,1.07-.47,2-.27,3.06-.72,2.6-1.39,5.22-2.09,7.83-.38,1.43-.23,1.63,1.29,1.63,5.17,0,10.33,0,15.5,0a2,2,0,0,0,2.15-1.19c.46-1.07-.14-1.68-.86-2.25a3.9,3.9,0,0,1-1.3-4.74c.93-2.7,1.53-5.49,2.35-8.22.55-1.82,1-2.19,2.79-2.21,2.71,0,5.42-.11,8.12,0C191.08,300,192.68,300,193.55,301.53Z"/><path class="cls-47" d="M124.69,290.61c1.24-3.19,1.82-6.57,2.86-9.82a3.62,3.62,0,0,1,1.23-2.07c.18,1.1-.68,1.87-1,2.81-.89,2.72-1.24,5.59-2.34,8.26a18.92,18.92,0,0,0-.7,3.43l10.52-8,.06.4c.09.67-.44.93-.84,1.26-2.93,2.38-6.09,4.44-8.92,6.95-.44.39-1,.73-1.6.32s-.47-1-.27-1.6A4.45,4.45,0,0,1,124.69,290.61Z"/><path class="cls-48" d="M212.22,277c-.22.07-.34.2-.28.45-.43.83-1.38,1-2,1.59-.3.27-.67,1-1.17.51s-.14-.92,0-1.37.39-.88.58-1.32A2.18,2.18,0,0,1,212.22,277Z"/><path class="cls-9" d="M195.29,28.43l-4.11-.61C192.57,27.89,194,27.57,195.29,28.43Z"/><path class="cls-9" d="M200,29.63l-3.78-.92C197.53,28.77,198.93,28.48,200,29.63Z"/><path class="cls-26" d="M257.86,282c-1.59,0-2.38-1-2.14-3a1.94,1.94,0,0,1,2.08-1.7,2.64,2.64,0,0,1,2.53,2.51C260.33,281.22,259.44,282,257.86,282Z"/><path class="cls-49" d="M86.82,241.64V225.25c0-2,.7-2.83,2.67-3.21a28,28,0,0,0,4-1.36c2.18-.78,4.4-1.44,6.58-2.24a8.67,8.67,0,0,1,4.25-.84,8.32,8.32,0,0,1,1.44.23c1.75.58,1.76.77.83,2.32a59.51,59.51,0,0,0-3.5,8c-1.18,2.89-2,5.9-3.2,8.79-3,7.5-7.17,14.48-10.58,21.81-.34.74-.19,2.18-1.61,1.82-1.23-.32-.82-1.53-.83-2.41C86.81,252.67,86.82,247.16,86.82,241.64Z"/><path class="cls-49" d="M204.55,226.15c.54-1.19,1.56-.32,2.32-.54.95.29,2-.11,2.91.24l0,0a.64.64,0,0,1-.32.74c-1.34.45-1.34.45-.64,2.68.42-.18.25-.6.36-.89s.26-.81.75-.75.46.5.47.83c0,.93.47,1.18,1.33,1,.53-.1,1,.37,1.57.23a1,1,0,0,0,.4-.36c.28-1.86.16-2.09-1.18-2.12-.71-.19-1.16-.51-.66-1.3a3.78,3.78,0,0,0,3.2-4c0-2.95,0-5.91,0-8.86a3.17,3.17,0,0,0-3-3.22,38.93,38.93,0,0,0-8.83.25c-.28.06-.64.19-.77-.16s.25-.56.54-.72a72.48,72.48,0,0,0,8.57-5.32,56.73,56.73,0,0,0,14.7-15.09c.55-.86,1-1.77,1.51-2.66.22-.4.48-.83.92-.9s.84.4,1,.76c.56,1.34,1.47,2.56,1.36,4.14-.15,2.11.84,4.15.5,6.28-.56,3.47-.42,7-1.26,10.48-.49,2-.77,4.15-1.36,6.15-1,3.44-1.74,7-3.3,10.26a50.84,50.84,0,0,0-1.83,5c-.58,1.7-1.63,3.18-2.11,4.91-.13.46-.74,1,0,1.38s1.12,0,1.52-.52l.47-.57a33.64,33.64,0,0,0,4-6.74,65.79,65.79,0,0,0,3-6.62c1-2.66,2.23-5.29,3.18-8s1.8-5.69,2.65-8.55a19.44,19.44,0,0,0,.37-2.18c.05-.29.15-.6.52-.58s.31.34.34.57a77.48,77.48,0,0,1,.83,10q0,12.54-.29,25.08c-.09,3.62-1,7.19-.86,10.84,0,.22-.19.44-.3.66a128,128,0,0,1-14.4-.57c-3.74-.41-7.46-.18-11.19-.29s-7.67,0-11.51,0c-1.22,0-1.66-.34-1.51-1.63.3-2.41-.45-4.74-.81-7.1a28.31,28.31,0,0,0-1.71-6.76,3,3,0,0,1-.19-.85c0-.23-.08-.53.22-.64s.42.16.58.34c1.86,2.09,3.77,4.11,5.8,6a25.68,25.68,0,0,0,6.57,4.2c1,.48,3.52-.41,4.17-1.53s-.07-1.9-.66-2.79A87.73,87.73,0,0,0,204.55,226.15Z"/><path class="cls-10" d="M318.3,62.91c.09,1.61-.85,3-1.06,4.55a36.71,36.71,0,0,1-1.07,4.25c-.52,2-1,3.93-1.55,5.89-.71,2.68-1.48,5.37-2.2,8.06Q311.17,90.32,310,95c-.31,1.28-.65,2.58-1,3.8-.91,2.79-1.54,5.66-2.31,8.47s-1.47,5.43-2.11,8.17a41.11,41.11,0,0,1-1.44,5.32,28.05,28.05,0,0,0-1,3.81c-.93,4.1-2.17,8.11-3.1,12.21s-2.21,7.87-3.27,11.82c-.74,2.77-1.16,5.65-2.09,8.35s-1.62,5.7-2.36,8.55c-1,4-2.14,8-3.13,12s-2.19,8-3.24,12c-.74,2.82-1.45,5.66-2.09,8.5a23.34,23.34,0,0,0-1,3.53c-.06.86-.93.63-1.56.51-3.45-.68-6.81-1.72-10.28-2.34-3.31-.58-6.51-1.89-9.83-2.26-2.62-.29-3.93-2.2-5.82-3.37a77.86,77.86,0,0,0-8.61-4.33c-2.16-1-4.3-2-6.46-3a7,7,0,0,1-3.11-3.41c-1.12-2.12-2.85-3.73-4.26-5.59a1.73,1.73,0,0,1-.45-1.76,32.27,32.27,0,0,0,1.37-4.49,47.37,47.37,0,0,0,1.22-6.3c.11-.67.1-1.36.21-2a4.14,4.14,0,0,1,2.65-3.58c2.4-.91,3-2.83,3.07-5.15a25.59,25.59,0,0,1,.71-5.81,24.78,24.78,0,0,1,2.84-6,53.62,53.62,0,0,0,3.23-7c.9-2.1,1.7-4.25,2.42-6.41a29.13,29.13,0,0,0,1.21-4.67,24.71,24.71,0,0,0,.14-9.31,8.18,8.18,0,0,0-1.88-4.06,4.38,4.38,0,0,1-.86-5.59A32.16,32.16,0,0,0,251,95.8c.44-2.57.75-5.25-.33-7.81a3.53,3.53,0,0,0-1-1.25,2.8,2.8,0,0,1-1-1.91c-.07-2.66-.86-5.22-1-7.87a19.46,19.46,0,0,0-1-4.12,61.14,61.14,0,0,0-4.18-11.33,53.13,53.13,0,0,0-5.88-9.43c-.22-.28-.76-.47-.51-.94s.71-.29,1.08-.25c2.48.32,5,.69,7.43,1,5.34.61,10.66,1.49,16,2,3.65.35,7.25,1.19,10.91,1.51,3.12.26,6.19.91,9.32,1.16,3.6.29,7.17.94,10.76,1.41,4,.51,8,1,11.95,1.48,4.56.58,9.12,1.21,13.68,1.76C318.42,61.33,318.29,62.12,318.3,62.91Z"/><path class="cls-50" d="M230.78,114.73a20.08,20.08,0,0,1,2.85-1.45c1.66-.77,2.47-.39,2.71,1.48a72.79,72.79,0,0,1,.34,7.95c0,.4,0,.79,0,1.19a1.15,1.15,0,0,0,.74,1.16,1.13,1.13,0,0,0,1.2-.34c2.07-1.69,2.32-2.93,1-5.19a2.82,2.82,0,0,1,0-3.33,2.89,2.89,0,0,1,2.91-1,2.55,2.55,0,0,1,2.09,2.39,23.94,23.94,0,0,1-.43,9.23,58.75,58.75,0,0,1-5.62,13.81,34.41,34.41,0,0,0-3,7.77c-.16.63-.35,1.32-1.09,1.45s-.94-.56-1.24-1.05c-.17-.29-.33-.67-.75-.61s-.46.44-.56.77a9.63,9.63,0,0,1-1.93,3.27,4.44,4.44,0,0,0-1,3.15,67.65,67.65,0,0,1-1,12.15,36.6,36.6,0,0,1-6.95,17.07,45.3,45.3,0,0,1-9.58,8.91,30.82,30.82,0,0,1-6.88,3.92,3.27,3.27,0,0,1-4-.77c-.39-.39-.68-.93-1.33-.51a1.14,1.14,0,0,0-.37,1.45A6.61,6.61,0,0,1,197.4,204c-.46-.53-.1-1,.09-1.5.52-1.42,1.07-2.79.49-4.39a2.64,2.64,0,0,1,.6-2.76,1.91,1.91,0,0,0,.42-1.91,31,31,0,0,0-2-6.3,13,13,0,0,1-1.26-7.87,2.58,2.58,0,0,0-.14-1.8c-.68.26-.63.93-.82,1.43-.37,1-1,1.76-2.12,1.7s-1.5-1-1.57-2a1.65,1.65,0,0,0-2-1.73c-.34,0-.69,0-1,0-.93,0-2-.35-2.76,0-.93.5-.26,1.71-.5,2.57-.1.35-.06.83-.64.8,0-1.08,0-2.16,0-3.25a3.77,3.77,0,0,0-3.16-3.8,4.71,4.71,0,0,1-1.05-.46c-1.08-.5-1.19-1-.08-1.56,2.23-1.13,4.51-1.91,7.06-1.1a4.36,4.36,0,0,0,1.31.12c4.26.06,8.56.35,12.68-1a21.62,21.62,0,0,0,3.78-1.29c1.66-.88,4.6.8,4.56,2.69a24.66,24.66,0,0,0,.63,6.41c.14.57.23,1.19.92,1.39s1.07-.2,1.49-.68a9,9,0,0,0,2.1-4.8c.29-2.05.67-4.11,2.35-5.8a11.29,11.29,0,0,0,3.17-8.12,4.62,4.62,0,0,1,.89-3c2.49-4,1.22-6.82-1.32-9.2-2.79-2.63-5.21-5.6-7.77-8.44a19.33,19.33,0,0,0-3.71-3.11c-2-1.32-4.3-1.2-6.55-.84-.88.13-1.39.88-1.94,1.5a3,3,0,0,0,.07,2.91c.85,1.69.44,2.59-1.16,3.64a16.42,16.42,0,0,1-4.63,2.3,15,15,0,0,1-5.07.5,12.74,12.74,0,0,1-6-2.24c-.27-1.29-.62-2.57-.87-3.85a10,10,0,0,1,.34-5.53,20.47,20.47,0,0,0,1.57-8.79c-.12-1.84.51-3.6.76-5.4.16-1.21-.26-2.45.27-3.62a22.22,22.22,0,0,1,2.47-.32c1.9.08,2.42.71,2.89,2.55a10.36,10.36,0,0,0,3.11,5.64c1,.81,2,.4,2.85-.23s1.62-1.46,1.11-2.73a3.49,3.49,0,0,1-.29-.66c-.06-.38-.19-.85.14-1.12s.64.11.94.25c1,.5,2,1.35,3.11,1.48,2.58.31,5,2.14,7.78.9a6.41,6.41,0,0,1,2.88-.46,5.84,5.84,0,0,0,1.62-.06c.78-.17,1.45-.81,2.36-.26a4,4,0,0,1,1.81,2.4,3.73,3.73,0,0,0-.11,2,5.56,5.56,0,0,1-1.51,5.63.76.76,0,0,0-.26.55c.41.5,1.15-.17,1.56.37,0,1-.72.89-1.37.89s-1.84-.12-1.75,1a1.84,1.84,0,0,0,2,1.69,9.11,9.11,0,0,0,6.35-2.51c2.27-2.37,4.52-4.8,4.51-8.42h0c.8-.95.64-2.15.85-3.26h0a4.28,4.28,0,0,0,.72-2.47C228.42,116.86,229.46,115.74,230.78,114.73Z"/><path class="cls-49" d="M184.1,180.32c.61-1,.15-2.1.28-3.15.06-.5,0-1.07.79-.86a17,17,0,0,0,4.1.17c1.77.05,2.09.26,2.19,2,0,.88,0,1.79,1.19,1.83s1.54-.66,1.79-1.63c.2-.8.17-2.15,1.27-1.95s.59,1.49.45,2.2c-.6,3.2.25,6,1.6,8.9a42.5,42.5,0,0,1,1.92,6.6c.12.43-.13.64-.44.83a2.27,2.27,0,0,0-.86,3c.8,1.8-.12,3.17-.69,4.65a2.16,2.16,0,0,0-.29,1.1h0a32.78,32.78,0,0,0-2.92,3.62c-.24,1-1.33,1.58-1.54,2.63s-.88,2-1,3.2c-.07.79-.74,1-1.41.37-.86.14-1.2-.64-1.78-1-1.21-.8-1.94-2.14-3.22-2.86l-.38-.31c-1.3-1.51-2.64-3-3.91-4.52-2.6-3.15-4.48-6.57-4.32-10.86,0-1,.73-1.73.59-2.69.59-3.19,2.19-6.14,2.12-9.48a9.52,9.52,0,0,0-.61-3.59c-.11-.26-.37-.56,0-.75a.65.65,0,0,1,.91.22c.5.77,1,1.52,1.54,2.28C182.44,181.66,182.94,181.67,184.1,180.32Z"/><path class="cls-39" d="M199.45,136c.13-1.63,1.42-1.86,2.62-2.05,4.1-.62,7.13,1.26,9.77,4.18s5.12,5.95,8,8.64c2,1.88,3.15,4.05,2.42,6.93a3.77,3.77,0,0,1-1.51,2.39,14.42,14.42,0,0,1-1-3.79,4.82,4.82,0,0,0-2.74-2.7,11.44,11.44,0,0,1-4.68-3.71c-2.12-3-4.13-6.15-7.24-8.34A7.84,7.84,0,0,0,199.45,136Z"/><path class="cls-51" d="M184.7,115.91c.66,1.9.16,3.81-.15,5.66a19.77,19.77,0,0,0-.45,4.65c.17,2.63-.69,5-1.52,7.44a9.52,9.52,0,0,0-.06,6.59,3.76,3.76,0,0,1,.11,2.85c-1.85-1.13-2.56-3.15-3.7-4.82a2.31,2.31,0,0,1-.13-1.73,45.82,45.82,0,0,1,1.49-5.27c.57-1.87,1.45-3.7,1.44-5.73,0-1.77,0-3.54,0-5.31a6.09,6.09,0,0,1,2-4.08A1.21,1.21,0,0,1,184.7,115.91Z"/><path class="cls-52" d="M217.16,131.85c-.74-.1-1.67.84-2.16,0s.67-1.14,1.07-1.7a5,5,0,0,0,1-4.51c-.24-.81-.55-1.73.41-2.37.78.86,1.82.54,2.77.59,1.68.08,2,.5,1.59,2.2A8.47,8.47,0,0,1,217.16,131.85Z"/><path class="cls-50" d="M173.17,126.54a6.73,6.73,0,0,1-3.54,5,15.72,15.72,0,0,1-7.7,2.15c-.63,0-1.6-.29-1.57.76a1.65,1.65,0,0,0,1.53,1.56,7.77,7.77,0,0,0,2-.1c1.25-.19,2.48-.44,3.85-.69-.6,2-2.24,3.27-2.3,5.26-.79,1.46-2.47,1.23-3.68,1.9-2.11,1.16-2.24,1-3.51-1a20.42,20.42,0,0,1-2.92-6,2,2,0,0,0-2.11-1.66c-1.08,0-1.6-1.17-2.51-1.68a13.44,13.44,0,0,1-5.41-6c-.44-.9-.69-2.13.07-2.75a2.42,2.42,0,0,1,3.2-.33c3.25,2.28,3.31,2.23,6.14-.62a8.74,8.74,0,0,1,3.65-2,17,17,0,0,1,4.09,0,8.3,8.3,0,0,1,3.26.66,11.9,11.9,0,0,0,3.86,0,6.91,6.91,0,0,1,2.06-.76c.29-.07.6-.21.78.11a.58.58,0,0,1-.23.77,2.64,2.64,0,0,0-.88,2.51,2.85,2.85,0,0,0-4,2.6,6.69,6.69,0,0,1-2,4.74c-.34.39-.91.61-1,1.39,3.11-.36,5.74-1.33,7.42-4.12C172.08,127.56,172.19,126.65,173.17,126.54Z"/><path class="cls-53" d="M173.17,126.54a24.5,24.5,0,0,0-1.35,2.23c-1.78,2.6-4.5,3.56-7.48,4a.61.61,0,0,1-.73-.36.68.68,0,0,1,.34-.75,8.39,8.39,0,0,0,1.77-1.75,5.23,5.23,0,0,0,1.22-4.1c-.18-1.29.25-2.1,1.66-2.22a1.4,1.4,0,0,0,.8-.33c.85-.89,1.42-.48,1.94.35a3.74,3.74,0,0,0,1.21,1.23C172.58,125.44,173.69,125.7,173.17,126.54Z"/><path class="cls-29" d="M162.49,120.29H158.4A7,7,0,0,1,162.49,120.29Z"/><path class="cls-29" d="M169.61,120.94a6,6,0,0,1-3.86,0Z"/><path class="cls-50" d="M198.29,107a18.24,18.24,0,0,0-6.31,3.55,7.37,7.37,0,0,1-3.17.06l-.3-.06a11.33,11.33,0,0,0-3.81,0,.58.58,0,0,1-.29.05,10.17,10.17,0,0,1-4.46,0c-1.45-.78-2.52-2-3.93-2.92a22.58,22.58,0,0,0-6.46-2.65c-1.14-.74-2.47-.6-3.73-.79a11.94,11.94,0,0,1-2.15-.13h0a54.19,54.19,0,0,0-6.48-.6h0a13,13,0,0,0-3.63-.14c-.8,0-1.12-.3-.88-1.06,1.14-3.59.69-7.41,1.76-11,1.55-5.23,2.82-10.53,5-15.55A48.38,48.38,0,0,1,163.65,68c.95-1.41,2.15-2.64,3-4.13h0a58.42,58.42,0,0,1,9.72,0c.25.33.63.23,1,.31a11,11,0,0,0,2.65.56h0a6.11,6.11,0,0,0,2.36.86,7.4,7.4,0,0,0,2.36,1.11l.3.14c1.36.47,2.08-.5,2.88-1.28a4.37,4.37,0,0,1,1.44-1.16,2,2,0,0,0,1-2,16.15,16.15,0,0,1,4.73-3.59,10.85,10.85,0,0,1,8.47-1.36A73.65,73.65,0,0,1,220,63.55a14.48,14.48,0,0,1,2.28,1.86A28.91,28.91,0,0,1,230,74.55c.79,1.55,1.23,3.28,2.53,4.58a1.12,1.12,0,0,1,0,1.61c-.44-.46-.44-1.19-1-1.6-.33-.24-.42-.89-1-.63-.42.19-.4.66-.38,1,.15,2.2.32,4.39.48,6.58a4.56,4.56,0,0,1,.09,1.46c-.94,3.6.81,6.5,2.57,9.29a16.57,16.57,0,0,1,2.37,9.51c0,1-.32,1.34-1.46,1-1.4-.38-2.92-.29-4.35-.7-.89-.68-2-.24-2.95-.54l-2.66-.06a7.76,7.76,0,0,0-2.18-.24c-4,.14-7.93-.48-11.91-.35-2.51.08-5,.33-7.47.59l-1.19,0A7.19,7.19,0,0,0,198.29,107Z"/><path class="cls-49" d="M232.55,80.74a1.93,1.93,0,0,0-.4-1.67c-2.09-2.11-2.5-5.19-4.33-7.44a27.94,27.94,0,0,0-2.23-2.71,66.92,66.92,0,0,0-5.05-4.47,26,26,0,0,0-6.27-3.16,65.09,65.09,0,0,0-12.87-3.84c-2.07-.39-3.74.55-5.46,1.31A37.35,37.35,0,0,0,192.16,61c-.35.2-.72.38-.67.86.14,1.37-.59.74-1.15.51-.71-1.51-2.22-2.19-3.39-3.23a25.13,25.13,0,0,0-2.57-1.81,46.28,46.28,0,0,0-5-2.87c-.4-.23-.86-.13-1.25-.33h0c-.59-.83-1.54-.7-2.37-.9h0c-.88-1-2.17-.6-3.25-.92h0a9.75,9.75,0,0,0-4.8-.76,4,4,0,0,1-1.72-.11h0a12.55,12.55,0,0,0-6.18,0h0a10.14,10.14,0,0,1-2.75.1,12.34,12.34,0,0,0-4.66.77h0a15.81,15.81,0,0,0-4.55,1,2.5,2.5,0,0,1-1.74-.07c-.69-1.23.66-1.5,1.11-2.08a11.75,11.75,0,0,1,2.42-1.83,7.51,7.51,0,0,0,2.74-1.73h0a11.55,11.55,0,0,0,3.23-1.81h0a3.09,3.09,0,0,0,1.79-.89c1.71-1,3.68-1.28,5.47-2.06.57-.25.92-.54.83-1.2a1,1,0,0,0-1.14-.91c-.93,0-1.83-.4-2.77-.07a.87.87,0,0,1-1.16-.38c-.25-.55.08-.9.51-1.23a17.1,17.1,0,0,1,5.59-2.53A76.86,76.86,0,0,1,177.18,34a54,54,0,0,1,17.88.34c2.83.61,5.68,1.09,8.44,2a68.28,68.28,0,0,1,10.79,4.5,50.47,50.47,0,0,1,9.91,6.51,52.39,52.39,0,0,1,12.35,15.44c3.7,7.12,5.27,14.75,5.86,22.73A95.32,95.32,0,0,1,242,98.69c-.36.43-.47,1.21-1.21,1.14s-.92-.84-1.1-1.43c-1.22-4-2.91-7.85-4.47-11.74a3.51,3.51,0,0,0-.9-2.08h0a11.43,11.43,0,0,0-1.77-3.85Z"/><path class="cls-50" d="M159.87,51.5a6.83,6.83,0,0,1,6.18,0Z"/><path class="cls-50" d="M178.15,54.15c2-.1,3.37,1.35,5,2.18.42.22,1.2.25,1.25,1l-4.84-2.46C179.07,54.65,178.61,54.4,178.15,54.15Z"/><path class="cls-50" d="M152.47,52.36c1.45-1.31,3.23-.84,4.9-.9.84,0,1.67,0,2.51,0Z"/><path class="cls-50" d="M166,51.48c1.4,0,2.8,0,4.2,0a2.71,2.71,0,0,1,2.32.91A65,65,0,0,0,166,51.48Z"/><path class="cls-50" d="M146.19,53.26c2.17.18,4.06-1.51,6.29-.9C150.37,52.59,148.43,54,146.19,53.26Z"/><path class="cls-50" d="M155.7,45.81a4.47,4.47,0,0,1-3.23,1.81A14.62,14.62,0,0,1,155.7,45.81Z"/><path class="cls-50" d="M172.55,52.35c1.12.17,2.51-.6,3.25.92Z"/><path class="cls-50" d="M152.46,47.62a3.26,3.26,0,0,1-2.74,1.73A17.79,17.79,0,0,1,152.46,47.62Z"/><path class="cls-54" d="M187.87,65.58c-.67,1.09-1.41,2-2.88,1.28C186.2,67,187,66.1,187.87,65.58Z"/><path class="cls-50" d="M175.79,53.26c.88.06,2-.48,2.37.9Z"/><path class="cls-50" d="M157.47,44.93c-.24,1-1,1-1.79.89Z"/><path class="cls-54" d="M166.64,63.85c-.11,1.34-1,2.21-1.78,3.21a37.52,37.52,0,0,0-4.48,7.49,58.76,58.76,0,0,0-3.37,9c-.77,2.77-1.46,5.58-2.28,8.32-.93,3.06-.45,6.24-1.37,9.25a6.83,6.83,0,0,1-.3,1.12c-.41.8,0,.88.67,1,1.14.11,2.34-.33,3.45.27-3.29.14-6.59-.09-9.87.26-.53.06-1.09,0-1.61.09-2,.37-2.36.16-2.54-1.83-.21-2.31.29-4.3,2.55-5.45a3.86,3.86,0,0,0,2-3.26,71.57,71.57,0,0,1,1.7-8.46,36,36,0,0,1,2.93-8c2.27-4.41,4.83-8.68,9.22-11.38A9.58,9.58,0,0,1,166.64,63.85Z"/><path class="cls-54" d="M202.72,106.11a20.9,20.9,0,0,1,5.76-.84c4.47-.28,8.93.41,13.4.32a5.08,5.08,0,0,1,2.4.52c-3.33-.11-6.65-.16-10-.37a61.12,61.12,0,0,0-10.55.37A8.85,8.85,0,0,1,202.72,106.11Z"/><path class="cls-54" d="M176.35,63.88l-9.72,0a21.47,21.47,0,0,1,5.87-.37A8.88,8.88,0,0,1,176.35,63.88Z"/><path class="cls-54" d="M157.19,103.5a18.38,18.38,0,0,1,6.48.6A33.61,33.61,0,0,1,157.19,103.5Z"/><path class="cls-54" d="M163.68,104.1a27.56,27.56,0,0,1,4.89.26c.46,0,.87.13,1,.66a17.29,17.29,0,0,0-4.63-.63C164.49,104.4,164,104.47,163.68,104.1Z"/><path class="cls-54" d="M180,110.59l4.46,0C182.92,111.06,181.43,111.63,180,110.59Z"/><path class="cls-50" d="M232.55,80.73a5.27,5.27,0,0,1,1.77,3.85Z"/><path class="cls-54" d="M198.29,107c.9-1,2.06-1,3.24-.84Z"/><path class="cls-54" d="M184.7,110.57a5.27,5.27,0,0,1,3.81,0Z"/><path class="cls-54" d="M226.94,106.17c1,.08,2.13-.49,2.95.54Z"/><path class="cls-54" d="M188.81,110.61l3.17-.06A3.89,3.89,0,0,1,188.81,110.61Z"/><path class="cls-54" d="M182.33,65.61a2.33,2.33,0,0,1-2.36-.86A6.84,6.84,0,0,1,182.33,65.61Z"/><path class="cls-54" d="M180,64.75c-.92,0-1.9.25-2.65-.56A6.7,6.7,0,0,1,180,64.75Z"/><path class="cls-50" d="M234.31,84.58c1,.39,1,1.23.9,2.08Z"/><path class="cls-18" d="M230.78,114.73c-1.35,1.34-2.4,2.8-2.09,4.88.1.66-.4,1.16-.88,1.58a42.49,42.49,0,0,1,1-4.66A2.35,2.35,0,0,1,230.78,114.73Z"/><path class="cls-39" d="M190.56,213.81c.54.15,1.21.29,1.17-.52,0-1.24.71-2.08,1.21-3,.23,1.26-.51,2.33-.75,3.5C192,214.55,191.16,214.84,190.56,213.81Z"/><path class="cls-50" d="M194.48,207.61A7.48,7.48,0,0,1,197.4,204C196.51,205.27,195.81,206.69,194.48,207.61Z"/><path class="cls-39" d="M185.56,210c1.48.49,2.23,1.82,3.22,2.86C187.37,212.24,186.65,210.89,185.56,210Z"/><path class="cls-18" d="M227.8,121.2c-.08,1.14.57,2.47-.85,3.26C227.23,123.37,227.52,122.29,227.8,121.2Z"/><path class="cls-13" d="M153.92,230.25c-1.06-2.54-2.2-5-3.14-7.62a59.18,59.18,0,0,1-1.87-6.43,84.49,84.49,0,0,1-1.85-9,29.3,29.3,0,0,1,.1-9.06c.37-.42.59-.09.82.16a93.7,93.7,0,0,0,12.3,11.34c.48.35,1.17.61,1.07,1.43-.3.66-1.12.62-1.53,1.12s-1.18.67-1.78,1a3,3,0,0,0-1.88,2.76c-.06,3.38-.21,6.76.85,10.07.73,2.29,2.18,3.57,4.58,3.58,2.79,0,5.6.21,8.34-.53.35-.1.8-.28.87.36-.45,1-1.55,1.52-1.73,2.66-.85,1.61-1.71,3.21-2.55,4.82a1,1,0,0,0,.2,1.33c.56.51.8-.1,1-.35q1.69-2,3.29-4a26.11,26.11,0,0,1,5.62-5.13c1.15,0,1.49.31.93,1.15-3.17,4.75-5.42,10-8.83,14.64a6.71,6.71,0,0,0-.95,1.49,1.55,1.55,0,0,1-1.43,1.06l-1.85.07c-3.17.15-6.34.11-9.5.29-2.52.14-5,.46-7.55.52l-4.22.09c-2.64,0-5.28.48-7.91,0a4.06,4.06,0,0,1-1.26-3.63c-.55-4.21-.06-8.42,0-12.64.13-1.8-.27-3.63.36-5.4.3-1.54.37-3.1.54-4.65a4.71,4.71,0,0,1,.33-2.46c.29-1.13.38-2.29.58-3.43L136,215c.81-.49,1,0,1.16.69a45.49,45.49,0,0,0,7.42,17,65.25,65.25,0,0,0,8.63,10.63,4.54,4.54,0,0,0,7-.63,3.91,3.91,0,0,0,.26-.59,3.32,3.32,0,0,0-.75-2.41,40.05,40.05,0,0,1-4.87-8C154.54,231.19,153.81,231,153.92,230.25Z"/><path class="cls-14" d="M160.46,242.7c-1.24,2.54-5.15,3.16-7.31,1.13A72.17,72.17,0,0,1,144,232.55c-3.24-4.63-5.25-9.81-7-15.1a5,5,0,0,1-.14-1.6c0-.59-.15-1-.83-.9l.13-.37c.82-.3.71-1.08.84-1.72s-.08-1.06.13-1.58c.16-1,1.21-1.08,1.74-1.7,1.23-.41,2-.12,2.22,1.28.09.65.6,1.1.82,1.69v0c.26.81.15,1.75.88,2.39a21.1,21.1,0,0,0,1.8,4.66,16.13,16.13,0,0,0,1.76,4.2h0c.21.73,0,1.63.89,2.09-.06.76.51,1.21.87,1.77a16.84,16.84,0,0,0,2.66,4.44,44.83,44.83,0,0,0,3.84,5.64,17.55,17.55,0,0,0,3.53,3.82h0A2.3,2.3,0,0,0,160.46,242.7Z"/><path class="cls-20" d="M166.38,247.1c.9-.24.92-1.16,1.36-1.76a114.89,114.89,0,0,0,8.32-13.91,9.13,9.13,0,0,1,1.15-1.51c.69-.82.3-1.09-.55-1.16a11.56,11.56,0,0,1,4.84-3.16c1.26-.39,1.74.08,1.3,1.4a38.72,38.72,0,0,1-2,4.71c-1.94,4-4.35,7.7-6.53,11.55C172.48,246.46,169.93,247.7,166.38,247.1Z"/><path class="cls-20" d="M147.48,248c.16-.11.31-.31.47-.32,5.53-.16,11-.88,16.58-.49a2.65,2.65,0,0,1-.68.21C158.38,247.31,153,248.1,147.48,248Z"/><path class="cls-20" d="M134.09,231.8a52.1,52.1,0,0,1-.17,7.28c-.24,1.75.47,3.56.17,5.36a21,21,0,0,1-.33-6.67,27.86,27.86,0,0,0,.1-4.39A2.86,2.86,0,0,1,134.09,231.8Z"/><path class="cls-20" d="M135.35,248.07h7.91C140.62,248.19,138,249.07,135.35,248.07Z"/><path class="cls-20" d="M158.06,241.53c-1.82-.68-2.62-2.3-3.53-3.82Z"/><path class="cls-20" d="M150.69,232.07c-1.28-1.24-2.55-2.5-2.66-4.44Z"/><path class="cls-20" d="M146.27,223.78a6.33,6.33,0,0,1-1.76-4.2A32.14,32.14,0,0,1,146.27,223.78Z"/><path class="cls-20" d="M141.84,212.55a2.49,2.49,0,0,1-1-1.54c-.1-1.4-1-1.53-2.09-1.43,1.21-.55,2.17-.51,2.38,1.09C141.27,211.35,142,211.81,141.84,212.55Z"/><path class="cls-20" d="M135,221.75a9.34,9.34,0,0,1-.54,4.65A15.54,15.54,0,0,1,135,221.75Z"/><path class="cls-20" d="M160.46,242.7c-1.2.75-1.84.44-2.39-1.16.74.32,1.29,1.42,2.31.55C160.41,242.3,160.43,242.5,160.46,242.7Z"/><path class="cls-20" d="M137.06,211.28c0,.82,0,1.65,0,2.47s-.35.93-1,.83C136.71,213.57,136.65,212.36,137.06,211.28Z"/><path class="cls-20" d="M142.71,214.92c-1.31-.42-.79-1.51-.88-2.39C142.13,213.33,142.42,214.12,142.71,214.92Z"/><path class="cls-20" d="M135.9,215.86a6.14,6.14,0,0,1-.58,3.43A9.14,9.14,0,0,1,135.9,215.86Z"/><path class="cls-20" d="M147.16,225.86c-1.67-.1-.65-1.37-.89-2.09Z"/><path class="cls-14" d="M209.55,226.44l.27-.57,2.08.08a.84.84,0,0,0,.8,1.1c0,.6-.42.55-.76.49A3.5,3.5,0,0,1,209.55,226.44Z"/><path class="cls-14" d="M209.78,225.85c-1-.11-2,.19-2.91-.24A6.24,6.24,0,0,1,209.78,225.85Z"/><path class="cls-51" d="M161.35,211.07a10.44,10.44,0,0,0-2.83-2.3,40,40,0,0,1-4.82-4.28c-1.64-1.61-3.3-3.2-5-4.7-.58-.51-.66-1.43-1.51-1.65a2.29,2.29,0,0,0,.89-2.16,2.92,2.92,0,0,1,.22-1.85c.77-1.33,1.42-1.47,2.19-.15.38.65,1.86.77,1.11,2-.16.66-.67.75-1.24.81-1,.12-1.13.8-.66,1.48,1.15,1.65,2.71,3,4,4.55.39.49,1.84,0,2-.65s-.26-.62-.64-.53a2,2,0,0,1-1.57-.1,1.24,1.24,0,0,1-.74-1.28c0-.83.41-2.13-1.32-1.81-.39.08-.43-.33-.32-.64a3.45,3.45,0,0,1,.88-1.83c.52-.33.84,0,1.1.38,2.36,3.19,5.7,5.23,8.7,7.69,1.51,1.24,3.19,2.24,4.67,3.53a7.56,7.56,0,0,0,2.39,1.09c.5.16.91.33,1.05.87-.22.45-.51.12-.76.09A12.76,12.76,0,0,0,161.35,211.07Z"/><path class="cls-14" d="M170.8,229.4c-1.35.19-2.69.48-4,.56-1.72.1-3.44,0-5.16,0-2.78,0-4.28-1.5-5.06-4.14-.89-3-.69-6-.87-9s1.59-4.26,4.15-4.63l0,6.92c0,.38.1.83-.22,1.12-1.35,1.21-.61,2.26,0,3.6,1.07,2.58,3,3,5.38,2.91a66.17,66.17,0,0,0,7-.15c.53-.08.7.32.37.57C171.58,227.75,171.57,228.83,170.8,229.4Z"/><path class="cls-14" d="M151.87,196l-.62,2.24c.54,0,1.28-.89,1.48-.31a4.94,4.94,0,0,1,.39,2.24c-.05.3-.51.59,0,.84s.9.79,1.46.38,1.13-.4,1.51.35-.34.93-.75,1.28c-1.12.94-1.77.59-2.54-.56a32.62,32.62,0,0,0-3-3.37c-.49-.54-1-1.06-.72-1.92s.84-.95,1.64-.69c.21.07.57-.31.86-.48Z"/><path class="cls-49" d="M277.48,218.46a.69.69,0,0,0,0,.25c-.2,1-.63,2-.85,3q-1.72,6.45-3.46,12.89a5.58,5.58,0,0,0-.11,1c-.77,2.52-1.5,5.06-2,7.65-.08.36-.06.86-.6.87s-.59-.46-.7-.83c-1.32-4.49-2.61-9-4-13.49-.75-2.52-1.61-5-2.42-7.5.15-2-.84-3.7-1.4-5.49-.35-1.14-.68-2.34-1-3.48a75.46,75.46,0,0,1-2.39-8.11c-.23-1.27.29-1.6,1.4-1.56,2.81.12,5.46,1.08,8.22,1.5,2.46.38,4.88,1.05,7.34,1.45,1.41.23,2.69.86,4.14,1,1,.08.41,1,.27,1.53-.76,2.78-1.57,5.53-2.34,8.31A4.3,4.3,0,0,0,277.48,218.46Z"/><path class="cls-55" d="M163.87,114.1a14.68,14.68,0,0,0-7,1.75c-1.52.73-3.09,1.53-4.89,1.25-.36-.06-.88.14-.95-.43a.92.92,0,0,1,.66-.9c3.16-1,5.69-3.33,8.86-4.4,2.27-.77,5.14-.07,6.24,1.82.17.29.5.53.22.91a.85.85,0,0,1-.95.21A7.69,7.69,0,0,0,163.87,114.1Z"/><path class="cls-56" d="M209.87,112a8,8,0,0,1,4.76,2.36,39.51,39.51,0,0,0,4.23,3.63c.23.15.78.24.5.71-.18.31-.56.33-.93.29a8.65,8.65,0,0,1-4.5-2.25c-2.19-1.82-4.44-2.55-7.19-1.67-.7.23-1.79.64-2.12-.15s.77-1.26,1.41-1.61A7.32,7.32,0,0,1,209.87,112Z"/><path class="cls-57" d="M172.23,139.54a3.55,3.55,0,0,1,1.25-3.44,1.45,1.45,0,0,1,1.76-.21c.59.32.66.87.49,1.53a7.57,7.57,0,0,0,.24,4.75,1.12,1.12,0,0,1-.25,1.45c-.52.44-1,.23-1.47-.06A3.72,3.72,0,0,1,172.23,139.54Z"/><path class="cls-32" d="M276.59,221.71a5.67,5.67,0,0,1,.85-3c.24,1.07-.51,1.95-.59,3l-.13,0Z"/><path class="cls-58" d="M228.31,110c.4,0,.79,0,1.18,0,.62,0,1.41-.07,1.35.89-.05.79-.27,1.6-1.28,1.69-.68.06-1.37,0-2.05,0-1,0-1.73-.2-1.75-1.41s.79-1.26,1.68-1.2C227.73,110,228,110,228.31,110Z"/><path class="cls-59" d="M138.57,108.81c.44,0,.88,0,1.32,0,1.24-.07,1.61.58,1.61,1.72s-.53,1.59-1.63,1.52c-.53,0-1.07,0-1.61,0-1,0-2,.32-2.13-1.23s.62-1.9,1.92-1.8c.17,0,.35-.14.52-.21Z"/><path class="cls-2" d="M124.69,290.61c-.26.84-.53,1.67-.77,2.52a.79.79,0,0,0,.18.82c.28.26.57.12.79-.07,3.37-2.91,7.16-5.27,10.44-8.27a54.47,54.47,0,0,0,6.82-5.06c1.42-1.16,1.16-2.37-.57-3.13-.55-.24-1.42-.12-1.07-1.13s.5-2,1.84-2c.59,0,1.18,0,1.77,0,6.31,0,12.61,0,18.92,0,.52,0,1.42-.32,1.37.59s-.06,2.05-1.21,2.25a11.81,11.81,0,0,0-5.35,2.86c-5.51,4.44-11,8.85-16.54,13.29-1.73,1.39-1.7,1.4-.44,3.34q4.17,6.41,8.33,12.8c1.48,2.29,3.11,4.42,5.66,5.63.18.08.32.23.5.3.54.21,1.47,0,1.56.58a5.71,5.71,0,0,1-.45,2.24c-.17.62-.69.62-1.2.62a78.15,78.15,0,0,1-9.44-.09c-2.69-.34-5.49-.15-8.08-1.37a11.34,11.34,0,0,1-4.13-3c-2.41-3-4.76-6.12-6.9-9.35-1.18-1.84-2.31-3.71-3.55-5.51-.56-.81-1.12-.47-1.35.33A106.3,106.3,0,0,0,119,310.43a3.22,3.22,0,0,1-.29.84c-.8,1.65-.51,2.64,1.07,3.66s1.75,1.67,1,3.3c-.23.49-.62.39-1,.39H99c-.5,0-1.17.05-1.09-.63.11-.84.2-1.91,1.23-2.15,3-.71,4.15-3,5.22-5.53a70.45,70.45,0,0,0,2.37-8c.74-2.64,1.4-5.34,2.15-8a22,22,0,0,1,1.39-4.73,14.49,14.49,0,0,0,.88-3.53c.36-1.51,1-2.94,1.23-4.49a3.6,3.6,0,0,0-2.09-4.24c-1-.51-.75-1.14-.67-1.88.11-.95.79-.84,1.43-.84q9.54,0,19.06,0c.53,0,1.44-.31,1.46.48a1.86,1.86,0,0,1-1,1.82c-3,1.16-3.65,3.68-4.25,6.44a32.55,32.55,0,0,1-1.29,4.61A4.79,4.79,0,0,0,124.69,290.61Z"/><path class="cls-2" d="M193.55,301.53a7.11,7.11,0,0,0-4.18-1.21c-2.71-.06-5.42,0-8.13,0-1.25,0-1.78.5-2.07,1.75-.62,2.72-1.41,5.41-2.23,8.08s-.63,3.55,1.55,5.05c1,.68.87,1.41.58,2.29a1.69,1.69,0,0,1-1.78,1.42q-8.78,0-17.57,0c-1.22,0-.95-.58-.75-1.32.8-2.88,1.57-5.77,2.35-8.66,1.42-4.08,2.37-8.3,3.57-12.45.73-2.54,1.49-5.1,2-7.72a34.77,34.77,0,0,0,.91-3.48h0a10.29,10.29,0,0,0,.9-3.25h0c.61-1.94.29-3-1.2-4.1l-.31-.27c-.86-.46-1.75-.9-1.17-2.14h0c.58-1.3,1.71-1,2.78-1q12.67,0,25.36,0c3.73,0,7.46.13,11.19-.09,1.15-.07,1.17.6.91,1.44-.11.48-.22.95-.34,1.43a11.64,11.64,0,0,0-1.42,4.6c-.15,1.28-.74,2.39-1,3.61-.12.61-.81,1-1.37.07a5.22,5.22,0,0,0-4.89-2.38c-3.59,0-7.18,0-10.77,0-2.1,0-2.34.32-2.81,2.3-.36,1.5-.76,3-1.24,4.49-.61,1.9-.54,2.12,1.49,2.12h11.94c1.55,0,1.67.17,1.26,1.58a48.94,48.94,0,0,0-1.63,6.52C195.33,301.32,194.88,302.07,193.55,301.53Z"/><path class="cls-44" d="M206.27,275.83c.11-.86-.18-1.19-1.13-1.19q-18.57,0-37.15,0a3.59,3.59,0,0,0-2,.86c0-1.12.75-1.34,1.7-1.34,12.22,0,24.45.09,36.67.08,2.19,0,2.37,0,2.08,1.39C206.46,275.71,206.34,275.76,206.27,275.83Z"/><path class="cls-44" d="M167.81,285.26c.31,2.07-.85,3.83-1.25,5.75-.63,2.92-1.49,5.8-2.37,8.64-1,3.08-1.29,6.37-2.87,9.26-.14-1.05.6-1.9.67-2.9,1.51-5.37,3.07-10.73,4.49-16.12C166.89,288.33,167.37,286.8,167.81,285.26Z"/><path class="cls-44" d="M167.51,277.91a2.64,2.64,0,0,1,1.2,4.1C168.85,280.48,168.83,279,167.51,277.91Z"/><path class="cls-44" d="M168.71,282a3.66,3.66,0,0,1-.9,3.25A10.41,10.41,0,0,1,168.71,282Z"/><path class="cls-44" d="M166,275.5c-.39,1.14.72,1.46,1.17,2.14C165.84,277.46,165.27,276.84,166,275.5Z"/><path class="cls-60" d="M209.55,226.44c1.09,0,1.95,1.2,3.15.61.86-.72,1.34-.36,1.42.58a2.81,2.81,0,0,1-.18,2.07,1,1,0,0,1-.29-.49c-.14-.41.09-1.12-.32-1.2a6.55,6.55,0,0,0-1.85.15.39.39,0,0,0-.32.44c0,.25.23.26.43.25a2.18,2.18,0,0,1,2.06,1.15c-1,.48-2-.47-3,0-.28.12-.43-.43-.46-.78s.14-1-.29-1.37c-.52.34-.36.86-.41,1.32s0,.88-.5.91-.64-.48-.67-.94a4.24,4.24,0,0,0-.12-.87C207.7,226.56,207.7,226.56,209.55,226.44Z"/><path class="cls-61" d="M213.65,230c-1-.11-1.65-1.68-2.9-.31-.11-1.38-.4-2.65,1.57-1.84,2.52-1.3,1.15,1.05,1.59,1.71a.49.49,0,0,1,0,.14Z"/><path class="cls-62" d="M138.86,111.73a6.59,6.59,0,0,1-1.74-.17c-.69-.23-.63-.93-.53-1.51s2.24-1,3.73-.71c1.08.23.73,1.11.61,1.65C140.67,112.23,139.55,111.43,138.86,111.73Z"/></g></g></svg>