<svg xmlns="http://www.w3.org/2000/svg" xmlns:xlink="http://www.w3.org/1999/xlink" viewBox="0 0 146.92 146.11"><defs><style>.cls-1{fill:url(#linear-gradient);}.cls-2{fill:#fff;}</style><linearGradient id="linear-gradient" y1="73.05" x2="146.92" y2="73.05" gradientUnits="userSpaceOnUse"><stop offset="0" stop-color="#226d37"/><stop offset="0.59" stop-color="#215529"/><stop offset="1" stop-color="#21421d"/></linearGradient></defs><title>lev-3</title><g id="Layer_2" data-name="Layer 2"><g id="Layer_1-2" data-name="Layer 1"><ellipse class="cls-1" cx="73.46" cy="73.05" rx="73.46" ry="73.05"/><path class="cls-2" d="M44.18,116.24h-.31a2,2,0,0,1-1-.64L26.13,99a2,2,0,0,1-.64-1v-.31a2,2,0,0,1,.64-1L44.77,78.13a.7.7,0,0,0,.21-.47l.42-3.78c.17-1.55.35-3.09.52-4.63l.51-4.58.51-4.62c.16-1.4.31-2.79.47-4.19l.51-4.62.51-4.58c.17-1.54.35-3.08.52-4.63s.31-2.81.47-4.22c.07-.64.13-1.28.2-1.92h.13s0,0,.08,0l4.54.5,4.61.51,4.62.51,4.63.51,4.67.51,4.23.47,4.61.51,4.2.46,4.68.51,4.22.47,4.63.51,4.23.47,2.68.28v.14a1,1,0,0,0,0,.1c-.19,1.74-.39,3.48-.58,5.22-.23,2.07-.45,4.14-.68,6.21s-.5,4.4-.74,6.6-.49,4.41-.73,6.61l-.75,6.6q-.36,3.31-.73,6.61L101.26,88c-.28,2.54-.57,5.07-.84,7.6a.49.49,0,0,1-.19.35Q91,103.22,81.7,110.47a1,1,0,0,1-1,.28,2,2,0,0,0-.42,0l-4.21-.46-4.65-.52-4.61-.5-4.65-.52L58,108.24l-4.6-.51a.49.49,0,0,0-.43.15l-7.76,7.74A2,2,0,0,1,44.18,116.24Zm54.06-24q2.66-23.94,5.33-47.85l-51.69-5.7c-1.35,12.13-2.7,24.23-4.05,36.37l.19-.17c.39-.39.79-.78,1.18-1.18a1.37,1.37,0,0,1,.85-.39l4.75-.46,7.51-.73L69,71.48a1.28,1.28,0,0,1,1.44,1.44c-.18,1.8-.35,3.6-.52,5.41-.18,2-.37,4-.55,5.93-.22,2.36-.46,4.71-.65,7.06A2.56,2.56,0,0,1,67.92,93q-6.15,6.08-12.27,12.19l-.21.22,24.08,2.65c.6-5.9,1.2-11.76,1.8-17.64ZM33.77,102.92l5.1,5.07L60,87l-5.1-5.07Q44.37,92.38,33.77,102.92ZM44,113.13,65.19,92.07,61.91,88.8,40.73,109.87Zm-12.09-12,21.2-21-3.3-3.28L28.64,97.82Zm50.28,5.76L97.69,94.73l-14.1-1.51ZM52.42,75.63,66.31,89.45c0-.2,0-.42.07-.64l.51-5.49a.48.48,0,0,0-.1-.29l-7.93-7.89a.45.45,0,0,0-.29-.1l-3.93.37Zm9.71-.94,5.1,5.07.53-5.62Z"/><path class="cls-2" d="M74.77,70.22l2.68.22a19.88,19.88,0,0,1,5.24,1,6,6,0,0,1,2.58,1.67,4.1,4.1,0,0,1,1,2.17,1.26,1.26,0,0,1-1.08,1.41,1.24,1.24,0,0,1-1.42-1,2.13,2.13,0,0,0-1.13-1.53,6.81,6.81,0,0,0-2.51-.82c-1.27-.19-2.56-.32-3.84-.45A22.48,22.48,0,0,1,73,72.47a3.39,3.39,0,0,1-.87-.33,1.69,1.69,0,0,1-.57-2.48,4.84,4.84,0,0,1,1.27-1.2,29.7,29.7,0,0,1,3.92-2.32c2.16-1.1,4.34-2.16,6.5-3.25a19.82,19.82,0,0,0,3.31-2,7,7,0,0,0,1-1c.35-.39.29-.69-.2-.9a3.69,3.69,0,0,0-1-.26,15.1,15.1,0,0,0-3.74.11c-3.08.4-6.16.86-9.24,1.29a53.77,53.77,0,0,1-6.2.61,11.2,11.2,0,0,1-3.21-.32,3.32,3.32,0,0,1-2.53-2.94A4.54,4.54,0,0,1,63,53.38a11.5,11.5,0,0,1,3.61-2.15,29.8,29.8,0,0,1,5.87-1.59,52.59,52.59,0,0,1,6.13-.74c1.72-.11,3.44-.16,5.16-.22a1.25,1.25,0,0,1,1.32,1.07,1.27,1.27,0,0,1-1,1.42,1,1,0,0,1-.24,0c-1.44.06-2.89.09-4.32.18A46,46,0,0,0,69.22,53a15.42,15.42,0,0,0-3.07,1.24,6,6,0,0,0-1.65,1.23A1.93,1.93,0,0,0,63.89,57a2,2,0,0,0,.21.74.75.75,0,0,0,.46.34,6.37,6.37,0,0,0,1.56.21c1.31,0,2.62-.07,3.91-.23,3.16-.41,6.31-.89,9.46-1.33a38.29,38.29,0,0,1,5.86-.49,7.71,7.71,0,0,1,2.82.44,3.2,3.2,0,0,1,2.13,2.47A2.63,2.63,0,0,1,89.89,61a6.62,6.62,0,0,1-1.8,1.89,26.5,26.5,0,0,1-4.64,2.7c-2.51,1.23-5,2.44-7.46,3.82-.42.24-.83.49-1.24.74Z"/></g></g></svg>