<svg xmlns="http://www.w3.org/2000/svg" xmlns:xlink="http://www.w3.org/1999/xlink" viewBox="0 0 146.92 146.11"><defs><style>.cls-1{fill:url(#linear-gradient);}.cls-2{fill:#fff;}</style><linearGradient id="linear-gradient" y1="73.05" x2="146.92" y2="73.05" gradientUnits="userSpaceOnUse"><stop offset="0" stop-color="#226d37"/><stop offset="0.59" stop-color="#215529"/><stop offset="1" stop-color="#21421d"/></linearGradient></defs><title>lev-6</title><g id="Layer_2" data-name="Layer 2"><g id="Layer_1-2" data-name="Layer 1"><ellipse class="cls-1" cx="73.46" cy="73.05" rx="73.46" ry="73.05"/><path class="cls-2" d="M20.34,49.08a3.14,3.14,0,0,0,.18-.31,1.82,1.82,0,0,1,1.76-1.18c3.18,0,6.36-.06,9.54,0a9.18,9.18,0,0,1,8.59,6.57c.77,2.6,1.5,5.2,2.25,7.79l.13.43H55.51a3.28,3.28,0,0,1,.63,0,1.85,1.85,0,0,1-.31,3.65h-12c.05.19.08.34.12.48q4.13,14.3,8.24,28.61a5.44,5.44,0,0,0,4.05,4,6.28,6.28,0,0,0,1.62.17c7.46,0,14.92,0,22.38,0H91.37a5.64,5.64,0,0,0,5.37-3.77l3.27-8.9a2,2,0,0,1,1.15-1.29,1.76,1.76,0,0,1,1.94.38,1.71,1.71,0,0,1,.5,1.9c-.25.77-.55,1.54-.83,2.3-.84,2.3-1.66,4.59-2.53,6.88a9.17,9.17,0,0,1-6.85,6,9.85,9.85,0,0,1-2,.21c-3,0-6,0-9,0-8.25,0-16.49,0-24.73,0a9.08,9.08,0,0,1-7.65-4,8.72,8.72,0,0,1-1.29-2.74L36.91,55.44a5.44,5.44,0,0,0-4.46-4.06,5.71,5.71,0,0,0-1.17-.08H22.62a4.87,4.87,0,0,1-.54,0,1.85,1.85,0,0,1-1.56-1.17c-.05-.12-.12-.24-.18-.36Z"/><path class="cls-2" d="M60.33,121.56c-.21,0-.42-.11-.64-.15a7.44,7.44,0,1,1,2.92.07,2.76,2.76,0,0,0-.27.08ZM65,114.2a3.72,3.72,0,0,0-7.43,0,3.72,3.72,0,0,0,7.43,0Z"/><path class="cls-2" d="M86.36,121.56l-.6-.15a7.42,7.42,0,1,1,2.84.08,1.55,1.55,0,0,0-.23.07Zm-2.71-7.37a3.71,3.71,0,1,0,3.72-3.7A3.72,3.72,0,0,0,83.65,114.19Z"/><path class="cls-2" d="M85.66,61.46c.15-.15.27-.26.38-.38L97,50.2c.11-.11.21-.22.33-.32a1.87,1.87,0,0,1,2.51.09,1.85,1.85,0,0,1,.12,2.5l-.25.27L87,65.42a2,2,0,0,1-1.18.65A1.88,1.88,0,0,1,84,65.33c-.77-1-1.55-1.92-2.32-2.89-1.66-2-3.31-4.11-5-6.17a2,2,0,0,1-.5-1.29,1.85,1.85,0,0,1,1.13-1.7,1.88,1.88,0,0,1,2,.41,4.15,4.15,0,0,1,.27.32l5.64,7Z"/><path class="cls-2" d="M87.54,80.91a24.34,24.34,0,1,1,17.27-7.11A24.3,24.3,0,0,1,87.54,80.91Zm0-45.52A21.24,21.24,0,1,0,108.9,56.63,21.32,21.32,0,0,0,87.54,35.39Z"/></g></g></svg>