<svg xmlns="http://www.w3.org/2000/svg" xmlns:xlink="http://www.w3.org/1999/xlink" viewBox="0 0 146.92 146.11"><defs><style>.cls-1{fill:url(#linear-gradient);}.cls-2{fill:#fff;}</style><linearGradient id="linear-gradient" y1="73.05" x2="146.92" y2="73.05" gradientUnits="userSpaceOnUse"><stop offset="0" stop-color="#226d37"/><stop offset="0.59" stop-color="#215529"/><stop offset="1" stop-color="#21421d"/></linearGradient></defs><title>lev-4</title><g id="Layer_2" data-name="Layer 2"><g id="Layer_1-2" data-name="Layer 1"><ellipse class="cls-1" cx="73.46" cy="73.05" rx="73.46" ry="73.05"/><path class="cls-2" d="M40.58,42.89h67.9l.3.08a4.81,4.81,0,0,1,3.86,3.45,4.75,4.75,0,0,1,.14.54v1.57c-.06.23-.1.46-.18.68a4.79,4.79,0,0,1-2.74,3l-.39.17v.49q0,18.3,0,36.6A10.5,10.5,0,0,1,98.8,100.18H92c0,.14,0,.25.07.35.43,1.6.87,3.21,1.3,4.82.69,2.57,1.4,5.13,2.07,7.71a4.81,4.81,0,0,1-3.5,5.85l-.47.14H90a.52.52,0,0,0-.13-.06A4.82,4.82,0,0,1,86,115.31q-1.81-6.74-3.64-13.49c-.14-.54-.29-1.07-.44-1.62H67.19c0,.13-.08.24-.11.35-.32,1.18-.63,2.37-1,3.55-1,3.79-2,7.6-3.08,11.39A4.74,4.74,0,0,1,59.33,119l-.23.08H57.66a.46.46,0,0,0-.16-.07,4.85,4.85,0,0,1-3.82-6.07c1.12-4.08,2.21-8.17,3.31-12.25,0-.15.07-.29.12-.48h-.48c-2.09,0-4.18,0-6.27,0a11.75,11.75,0,0,1-1.68-.1,10.44,10.44,0,0,1-9.06-10.53q0-15,0-30V52.39l-.08-.07-.2-.08a4.79,4.79,0,0,1-3-3.63c0-.13-.09-.25-.13-.37v-1a3,3,0,0,0,.13-.39A4.86,4.86,0,0,1,40.07,43C40.24,43,40.41,42.93,40.58,42.89Zm65.89,9.69h-44c-.16,0-.31,0-.47,0a1.49,1.49,0,0,1-.18-2.95,3.08,3.08,0,0,1,.61,0H108A1.88,1.88,0,0,0,109.83,48a1.84,1.84,0,0,0-1.37-2,2.91,2.91,0,0,0-.78-.07H41a1.86,1.86,0,0,0,.17,3.71h7.54a1.47,1.47,0,0,1,1.35,1.26,1.44,1.44,0,0,1-1,1.61,2.32,2.32,0,0,1-.7.1c-1.79,0-3.59,0-5.38,0h-.42v37a7.73,7.73,0,0,0,.45,2.7A7.49,7.49,0,0,0,50.2,97.2H99.07a7.13,7.13,0,0,0,3.56-1,7.26,7.26,0,0,0,3.84-6.58q0-18.35,0-36.68ZM85,100.2c0,.14.06.25.09.36q1.48,5.56,3,11.13c.27,1,.54,2,.84,3.06A1.84,1.84,0,0,0,91.4,116a1.91,1.91,0,0,0,1.12-2.31q-1.8-6.59-3.56-13.18c0-.09-.06-.18-.1-.27Zm-24.82,0c0,.15-.07.27-.11.4-.8,3-1.61,6-2.41,9-.38,1.41-.77,2.82-1.14,4.23a1.86,1.86,0,0,0,3.35,1.48,2.5,2.5,0,0,0,.32-.75L64,100.61c0-.13.06-.25.09-.41Z"/><path class="cls-2" d="M55.1,74.88A19.45,19.45,0,1,1,74.52,94.22,19.42,19.42,0,0,1,55.1,74.88ZM81.41,89.71a2.12,2.12,0,0,0-.11-.21L73.83,76.62a.45.45,0,0,0-.45-.25H58.6l-.41,0A16.39,16.39,0,0,0,81.41,89.71ZM76.59,75.43c2.49,4.28,5,8.53,7.44,12.82A16.43,16.43,0,0,0,89,82.77,16.1,16.1,0,0,0,90.89,73,15.58,15.58,0,0,0,89.47,68ZM73,58.61A16.34,16.34,0,0,0,58.21,73.37H73Zm3,13.63c.36-.11,11.69-6.64,11.89-6.85a16.62,16.62,0,0,0-11.89-6.81Z"/><path class="cls-2" d="M53.84,51.07a1.49,1.49,0,1,1,1.49,1.51A1.48,1.48,0,0,1,53.84,51.07Z"/></g></g></svg>