<svg xmlns="http://www.w3.org/2000/svg" xmlns:xlink="http://www.w3.org/1999/xlink" viewBox="0 0 146.92 146.11"><defs><style>.cls-1{fill:url(#linear-gradient);}.cls-2{fill:#fff;}</style><linearGradient id="linear-gradient" y1="73.05" x2="146.92" y2="73.05" gradientUnits="userSpaceOnUse"><stop offset="0" stop-color="#226d37"/><stop offset="0.59" stop-color="#215529"/><stop offset="1" stop-color="#21421d"/></linearGradient></defs><title>lev-1</title><g id="Layer_2" data-name="Layer 2"><g id="Layer_1-2" data-name="Layer 1"><ellipse class="cls-1" cx="73.46" cy="73.05" rx="73.46" ry="73.05"/><path class="cls-2" d="M61.88,83c0-.12,0-.25,0-.38,0-2.48,0-5,0-7.44,0-1.76.06-3.53.08-5.29,0-.41-.08-.81-.08-1.22q0-6.16,0-12.31a1,1,0,0,0-.64-1,14.55,14.55,0,0,1-7.77-9.58,14.8,14.8,0,0,1,8.08-17.14,15,15,0,0,1,18.55,4.78,14.2,14.2,0,0,1,2.63,10.92,14.56,14.56,0,0,1-7.9,10.94,1,1,0,0,0-.64,1c0,1.13,0,2.27,0,3.41,0,.2,0,.39,0,.61,4.27-1.32,7.58-.52,9.38,3.94l.49-.22a6.27,6.27,0,0,1,8.7,3.22c.15.36.24.74.37,1.17l.5-.23a6.32,6.32,0,0,1,6.83.88,5.83,5.83,0,0,1,1.79,3.71c.13,1.35.24,2.71.34,4.06A92,92,0,0,1,103,88.64a54.82,54.82,0,0,1-1.5,10.12,37.85,37.85,0,0,1-1.72,5.61,22,22,0,0,1-8.1,9.95A20,20,0,0,1,82,117.7a33.52,33.52,0,0,1-12.9-1.38A22.59,22.59,0,0,1,59,110a19.28,19.28,0,0,1-4.29-7.27C53.49,99.12,52.25,95.5,51,91.87,50,88.78,49,85.68,48,82.58a5.86,5.86,0,0,1,.17-4.32A6.82,6.82,0,0,1,48.91,77a5.63,5.63,0,0,1,3.75-2.44,14.16,14.16,0,0,1,1.85-.08,5.52,5.52,0,0,1,4.79,2.54,7.75,7.75,0,0,1,1,2.12c.41,1.14.82,2.28,1.24,3.42a2,2,0,0,0,.22.41Zm9.48-25.78h0c0-4.69,0-9.37,0-14a5.71,5.71,0,0,0-.22-1.65,3.2,3.2,0,0,0-4.61-2,3.08,3.08,0,0,0-1.79,3.05c0,2.31,0,4.63,0,6.94V63.38c0,2.31,0,4.63,0,6.94s0,4.61,0,6.92c0,4.41,0,8.81,0,13.21,0,.39,0,.79,0,1.18a1.42,1.42,0,0,1-2.71.54,5.52,5.52,0,0,1-.27-.67c-1.46-4-2.94-8-4.38-11.93a4,4,0,0,0-2.6-2.36.78.78,0,0,0-.34,0c-.6.12-1.21.22-1.81.39A2.76,2.76,0,0,0,51,78.82a3.24,3.24,0,0,0-.37,2.75c.3.9.59,1.81.89,2.71q1.92,5.79,3.85,11.58c.74,2.24,1.46,4.51,2.22,6.75a15.69,15.69,0,0,0,4.1,6.27,21.12,21.12,0,0,0,10.36,5.32A34.12,34.12,0,0,0,80,115a18.2,18.2,0,0,0,7.88-1.81A18.62,18.62,0,0,0,97.57,102a51.15,51.15,0,0,0,2.6-15.62c.06-3.75-.2-7.48-.51-11.22-.06-.65-.09-1.3-.17-1.95-.19-1.54-.68-2.26-2-2.69a3.8,3.8,0,0,0-2.84.35,1.84,1.84,0,0,0-.81.75,4.94,4.94,0,0,0-.53,1.57,15.83,15.83,0,0,0-.07,2.18c0,1,0,2,0,3A1.41,1.41,0,0,1,91,79.45a1.43,1.43,0,0,1-.67-1.28V75.38c0-1.56.05-3.12,0-4.69,0-.48,0-1,0-1.44A3.25,3.25,0,0,0,86,66.32a3,3,0,0,0-2.23,2.9c0,1.26,0,2.52,0,3.78,0,.34,0,.67,0,1,0,.63.08,1.27,0,1.9a2.44,2.44,0,0,1-.34,1.15,1.23,1.23,0,0,1-1.34.5,1.31,1.31,0,0,1-1.1-1,4.22,4.22,0,0,1-.09-.94c0-2.44,0-4.89,0-7.33,0-.86,0-1.72,0-2.58a3.1,3.1,0,0,0-2-3,4.22,4.22,0,0,0-3,.08A2.19,2.19,0,0,0,74.4,64.5a8.35,8.35,0,0,0-.17,1.66c0,2.49,0,5,0,7.48a3.46,3.46,0,0,1,0,.56,1.33,1.33,0,0,1-.72,1.07,1.41,1.41,0,0,1-2.11-1.2c0-.88,0-1.75,0-2.62C71.34,66.69,71.36,61.93,71.36,57.18Zm-9.46-5v-.71c0-3,0-6,0-9a6.19,6.19,0,0,1,.45-2.52,6,6,0,0,1,5.88-3.71,5.77,5.77,0,0,1,5.46,3.72,7.38,7.38,0,0,1,.57,3.11v8.34c0,.21,0,.42.06.66a11.78,11.78,0,0,0,5.48-12.81,12.11,12.11,0,0,0-23.86,1.72,11.7,11.7,0,0,0,2.42,8.19C59.38,50.64,61.05,52.06,61.9,52.23Z"/></g></g></svg>