<svg xmlns="http://www.w3.org/2000/svg" xmlns:xlink="http://www.w3.org/1999/xlink" viewBox="0 0 146.92 146.11"><defs><style>.cls-1{fill:url(#linear-gradient);}.cls-2{fill:#fff;}</style><linearGradient id="linear-gradient" y1="73.05" x2="146.92" y2="73.05" gradientUnits="userSpaceOnUse"><stop offset="0" stop-color="#226d37"/><stop offset="0.59" stop-color="#215529"/><stop offset="1" stop-color="#21421d"/></linearGradient></defs><title>lev-2</title><g id="Layer_2" data-name="Layer 2"><g id="Layer_1-2" data-name="Layer 1"><ellipse class="cls-1" cx="73.46" cy="73.05" rx="73.46" ry="73.05"/><path class="cls-2" d="M75.09,65.89a8.92,8.92,0,0,1-12.5-1.34,8.8,8.8,0,0,1,.68-11.8A8.86,8.86,0,0,1,76.38,64.62a.58.58,0,0,1,.18.11l6.23,6.18c.36.36.36.55,0,.91l-.49.49a.48.48,0,0,1-.76,0l-.39-.38L75.23,66A1.85,1.85,0,0,1,75.09,65.89ZM62.51,59a7,7,0,1,0,7-7A7,7,0,0,0,62.51,59Z"/><path class="cls-2" d="M81.92,72.89a1,1,0,0,1-.66-.3L81,72.32l-1.6-1.59-4.33-4.31a9.21,9.21,0,0,1-6.52,1.78,9.39,9.39,0,0,1-6.26-3.4A9.15,9.15,0,0,1,63,52.47a9.32,9.32,0,0,1,12.39-.59A9.22,9.22,0,0,1,77,64.54l5.55,5.52.57.57a.9.9,0,0,1,0,1.48l-.14.14-.35.34A.93.93,0,0,1,81.92,72.89Zm-6.81-7.53.3.28.1.11,6,6c.09.08.17.17.26.26s.1.07.11.07A.29.29,0,0,0,82,72l.34-.33.14-.15a.7.7,0,0,0,.15-.17.55.55,0,0,0-.15-.17l-.57-.57L76.29,65h0L76.18,65l-.41-.23.29-.36A8.45,8.45,0,0,0,63.55,53a8.36,8.36,0,0,0-.64,11.26,8.53,8.53,0,0,0,5.72,3.1,8.32,8.32,0,0,0,6.2-1.82Zm-5.62,1h0A7.38,7.38,0,0,1,62.11,59a7.29,7.29,0,0,1,2.17-5.21,7.4,7.4,0,0,1,5.23-2.15h0a7.37,7.37,0,1,1,0,14.73Zm-7-7.37h.4a6.59,6.59,0,0,0,6.57,6.57h0a6.57,6.57,0,1,0,0-13.13h0a6.55,6.55,0,0,0-4.66,1.92A6.48,6.48,0,0,0,62.91,59Z"/><path class="cls-2" d="M98.2,111.86H47.91l-.2-.1a1.2,1.2,0,0,1,.53-2.27h.38c2.84,0,5.68,0,8.52,0a5.63,5.63,0,0,0,5.14-3.84c.4-1.51.86-3,1.29-4.51,0-.12,0-.24.09-.41H37.89a6,6,0,0,1-5.73-4.93,2.16,2.16,0,0,0-.14-.43V41.69a3.09,3.09,0,0,0,.14-.43,6,6,0,0,1,4.75-4.85l.64-.14h71l.32.08a5.94,5.94,0,0,1,4.91,4.41c.06.21.1.42.14.63V95.68c0,.19-.08.39-.13.58A5.76,5.76,0,0,1,112,99.21a6,6,0,0,1-4.1,1.53H82.41a2.92,2.92,0,0,0,.08.34c.44,1.53.9,3,1.31,4.58A5.62,5.62,0,0,0,89,109.5c2.85,0,5.7,0,8.55,0h.43a1.19,1.19,0,0,1,.56,2.19ZM111.59,84V42.58c0-.2,0-.39,0-.58a3.57,3.57,0,0,0-2.47-3.14,4.38,4.38,0,0,0-1.44-.17H37.93a3.55,3.55,0,0,0-3.31,2.62,4.81,4.81,0,0,0-.14,1.2q0,15.27,0,30.54V84Zm-77.1,2.44c0,.13,0,.23,0,.33v8a3.4,3.4,0,0,0,0,.45,3.58,3.58,0,0,0,3.65,3.11h69.71a3.66,3.66,0,0,0,3.73-3.64c0-2.66,0-5.32,0-8,0-.09,0-.19,0-.3Zm28.26,23H83.3c-.09-.11-.14-.19-.21-.26a7.66,7.66,0,0,1-1.64-3c-.47-1.69-1-3.37-1.45-5.06l-.12-.36H66.19c0,.16-.11.32-.15.48q-.74,2.54-1.46,5.09a7.38,7.38,0,0,1-1.53,2.8Z"/><path class="cls-2" d="M98.32,112.26H47.81l-.15-.08-.14-.07a1.59,1.59,0,0,1,.7-3h3c2,0,4,0,6,0h0a5.27,5.27,0,0,0,4.71-3.55c.27-1,.58-2,.87-3l.39-1.36H37.88a6.37,6.37,0,0,1-6.11-5.27,1,1,0,0,0-.08-.21.88.88,0,0,1-.05-.15l0-.06V41.63l0-.06a.88.88,0,0,1,.05-.15,1.44,1.44,0,0,0,.07-.23A6.38,6.38,0,0,1,36.83,36l.43-.09.2,0h71.21l.11,0L109,36a6.34,6.34,0,0,1,5.22,4.69,4.35,4.35,0,0,1,.11.46l0,.19V95.77a1.16,1.16,0,0,1,0,.18l-.09.41a6.21,6.21,0,0,1-1.93,3.15,6.4,6.4,0,0,1-4.36,1.63h0c-2.5,0-5.05,0-7.5,0H82.92c.13.43.25.86.38,1.29.3,1,.61,2.09.89,3.14a5.25,5.25,0,0,0,4.75,3.53c2,0,4,0,6,0h3a1.61,1.61,0,0,1,1.43,1.19,1.59,1.59,0,0,1-.68,1.73l-.21.13ZM48,111.46H98.09l.18-.11a.79.79,0,0,0-.37-1.45H95c-2,0-4,0-6,0h0a6,6,0,0,1-5.49-4.12c-.28-1-.59-2.1-.89-3.12l-.42-1.46c0-.07,0-.14,0-.22a1,1,0,0,0,0-.14l-.11-.47.49,0h18c2.45,0,5,0,7.5,0h0a5.55,5.55,0,0,0,3.82-1.42,5.45,5.45,0,0,0,1.69-2.76l.09-.38,0-.15V41.43l0-.17-.09-.38a5.52,5.52,0,0,0-4.6-4.13l-.26-.07h-71l-.16,0L37,36.8a5.56,5.56,0,0,0-4.43,4.53,2.68,2.68,0,0,1-.12.37l0,.06V95.3l0,.06a1.79,1.79,0,0,1,.12.37,5.58,5.58,0,0,0,5.34,4.6H64.17l-.11.49a1.13,1.13,0,0,0,0,.15,2.29,2.29,0,0,1-.07.28l-.42,1.46c-.29,1-.59,2-.87,3a6,6,0,0,1-5.48,4.14h0c-2,0-4,0-6,0H48.25a.8.8,0,0,0-.78.59.79.79,0,0,0,.43.93Zm36.11-1.59H61.87l.87-1a6.8,6.8,0,0,0,1.45-2.64c.37-1.31.76-2.64,1.13-3.93l.33-1.16c0-.11.07-.23.11-.34a1.42,1.42,0,0,1,0-.16l.09-.27H80.17l.09.27s0,.08,0,.11l.09.27c.13.46.27.93.4,1.4.35,1.2.71,2.44,1,3.66a6.94,6.94,0,0,0,1.56,2.87l.14.19.08.1Zm-20.51-.8H82.46a8.1,8.1,0,0,1-1.4-2.78c-.34-1.23-.69-2.46-1-3.66l-.41-1.4a.14.14,0,0,0,0-.07H66.48a1.05,1.05,0,0,0,0,.19l-.34,1.16c-.37,1.29-.75,2.62-1.13,3.93A7.4,7.4,0,0,1,63.61,109.07Zm44.26-10.31H38.15a4,4,0,0,1-4-3.44,4.17,4.17,0,0,1,0-.52c0-2.67,0-5.35,0-8,0-.07,0-.15,0-.23a.45.45,0,0,0,0-.12l0-.38h77.81l0,.36s0,.06,0,.09a1.9,1.9,0,0,1,0,.25c0,.9,0,1.81,0,2.71,0,1.73,0,3.51,0,5.27a4,4,0,0,1-1.16,2.82A4.2,4.2,0,0,1,107.87,98.76Zm-36-.81h36a3.42,3.42,0,0,0,2.4-1,3.17,3.17,0,0,0,.93-2.26c0-1.76,0-3.54,0-5.27V86.84H34.88v8a2.21,2.21,0,0,0,0,.39A3.19,3.19,0,0,0,38.16,98h33.7ZM112,84.4H34.07V68.5c0-8.51,0-17.32,0-26a5,5,0,0,1,.15-1.3,4,4,0,0,1,3.68-2.92h69.76a4.82,4.82,0,0,1,1.57.19A4,4,0,0,1,112,42c0,.21,0,.42,0,.6V84.4Zm-77.12-.8h76.31v-41c0-.17,0-.36,0-.55a3.16,3.16,0,0,0-2.2-2.79,4.16,4.16,0,0,0-1.31-.15H37.94A3.13,3.13,0,0,0,35,41.41a4,4,0,0,0-.13,1.1V83.6Z"/><path class="cls-2" d="M105.37,78.49V44.23H40.71c0,.16,0,.31,0,.46V58.74a2.91,2.91,0,0,1,0,.51,1.12,1.12,0,0,1-1.08,1,1.14,1.14,0,0,1-1.15-.84,2.12,2.12,0,0,1,0-.44V43.2a2.1,2.1,0,0,1,0-.43,1.1,1.1,0,0,1,1-.84h67.17a1.11,1.11,0,0,1,1,1c0,.12,0,.24,0,.36V79.4c0,.12,0,.24,0,.36a1.12,1.12,0,0,1-1,1H39.81c-1,0-1.43-.4-1.43-1.41V63.91a2.29,2.29,0,0,1,.06-.58,1.14,1.14,0,0,1,2.22.12,2.85,2.85,0,0,1,0,.51V78.49Z"/><path class="cls-2" d="M106.44,81.17H39.81c-1.24,0-1.81-.57-1.81-1.79v-.22c0-5.09,0-10.17,0-15.25a2.85,2.85,0,0,1,.07-.68,1.52,1.52,0,0,1,3,.16,3.83,3.83,0,0,1,0,.57q0,6,0,12v2.1H105V44.61H41.08V51.5c0,2.41,0,4.83,0,7.24h0a5.43,5.43,0,0,1,0,.56,1.53,1.53,0,0,1-3,.15,2.2,2.2,0,0,1-.06-.53c0-5.17,0-10.46,0-15.73a2.18,2.18,0,0,1,.06-.52,1.49,1.49,0,0,1,1.38-1.14h67.21a1.52,1.52,0,0,1,1.41,1.4c0,.11,0,.21,0,.32V79.47c0,.11,0,.21,0,.33a1.51,1.51,0,0,1-1.38,1.37Zm-.16-.76h.33a.73.73,0,0,0,.68-.67,1,1,0,0,0,0-.25V43.25a1.13,1.13,0,0,0,0-.26.73.73,0,0,0-.69-.68H39.49a.72.72,0,0,0-.68.55,1.27,1.27,0,0,0,0,.34V58.93a1.22,1.22,0,0,0,0,.34.76.76,0,0,0,.76.56.73.73,0,0,0,.71-.64,3,3,0,0,0,0-.44h0V51.5q0-3.41,0-6.81c0-.11,0-.23,0-.33a.76.76,0,0,1,0-.15v-.37h65.41v35H40.3V64a3.31,3.31,0,0,0,0-.45.74.74,0,0,0-.7-.63.77.77,0,0,0-.77.55,2,2,0,0,0,0,.48V79.38c0,.8.23,1,1,1Z"/><path class="cls-2" d="M75.91,92.4a2.88,2.88,0,1,1-2.85-2.87A2.87,2.87,0,0,1,75.91,92.4Zm-2.87-1a1,1,0,0,0-1,.95.94.94,0,0,0,.94,1,1,1,0,0,0,1-1A1,1,0,0,0,73,91.43Z"/><path class="cls-2" d="M73,95.57a3.18,3.18,0,1,1,0-6.36h0a3.18,3.18,0,0,1,3.16,3.19h0A3.19,3.19,0,0,1,73,95.57Zm0-5.72a2.56,2.56,0,0,0-2.56,2.53,2.52,2.52,0,0,0,.74,1.8,2.58,2.58,0,0,0,1.82.75h0a2.56,2.56,0,0,0,2.55-2.53h0a2.55,2.55,0,0,0-2.53-2.55Zm0,3.8h0a1.26,1.26,0,0,1-1.27-1.27,1.28,1.28,0,0,1,.39-.9,1.26,1.26,0,0,1,.89-.37h0a1.3,1.3,0,0,1,1.28,1.28A1.28,1.28,0,0,1,73,93.65Zm0-1.9a.63.63,0,0,0-.62.63.6.6,0,0,0,.18.45A.64.64,0,0,0,73,93h0a.63.63,0,0,0,.64-.63.65.65,0,0,0-.63-.64h0Z"/></g></g></svg>