<svg xmlns="http://www.w3.org/2000/svg" xmlns:xlink="http://www.w3.org/1999/xlink" viewBox="0 0 146.92 146.11"><defs><style>.cls-1{fill:#e7e7e7;}.cls-2{fill:url(#linear-gradient);}.cls-3{fill:#fff;}</style><linearGradient id="linear-gradient" y1="73.05" x2="146.92" y2="73.05" gradientUnits="userSpaceOnUse"><stop offset="0" stop-color="#226d37"/><stop offset="0.59" stop-color="#215529"/><stop offset="1" stop-color="#21421d"/></linearGradient></defs><title>lev-5</title><g id="Layer_2" data-name="Layer 2"><g id="Layer_1-2" data-name="Layer 1"><path class="cls-1" d="M72.83,77.18a1.64,1.64,0,0,1-1,.24l-48.64.71H23v0l.11.1,15,14.52a1,1,0,0,1,.3,1.2,1.08,1.08,0,0,1-1.61.51l-.07,0L19.55,77.79a.21.21,0,0,0,0-.06,1.06,1.06,0,0,1-.05-1.18l.07-.13L36.18,59.27l.12-.07a1.08,1.08,0,0,1,1.37,1.64l-.11.11L23.1,75.84,23,76h.16l5.51-.08,43.17-.64a1.6,1.6,0,0,1,1,.21l.17.17,0,.06a1.06,1.06,0,0,1,.06,1.18L73,77Z"/><ellipse class="cls-2" cx="73.46" cy="73.05" rx="73.46" ry="73.05"/><rect class="cls-3" x="98.95" y="98.96" width="12.56" height="3.56"/><rect class="cls-3" x="44.11" y="35.49" width="3.58" height="48.38"/><polygon class="cls-3" points="100.74 84.64 97.16 84.64 97.16 51.12 33.33 51.12 33.33 47.56 100.74 47.56 100.74 84.64"/><rect class="cls-3" x="97.16" y="100.74" width="3.58" height="13.85"/><path class="cls-3" d="M100.74,102.52H44.11V83.33L61.52,57.11,77.6,81,88.36,69.41,100.74,84ZM47.69,99H97.16V85.29l-8.92-10.5L77.15,86.73,61.54,63.54,47.69,84.4Z"/><path class="cls-3" d="M77.92,85.9l-1.14-.44-.19-.08-.49-.21-7.87-11.7v-.59a13.62,13.62,0,0,1,27.23,0,13.44,13.44,0,0,1-1,5.17l-1.12,2.71-5.07-6Zm-6.1-13.49L77.6,81,88.36,69.41l3.5,4.12c0-.22,0-.43,0-.65a10,10,0,0,0-20.06-.47Z"/></g></g></svg>