<svg xmlns="http://www.w3.org/2000/svg" viewBox="0 0 80.92 51.38"><defs><style>.cls-1{fill:#ececec;}.cls-2{fill:#1b1f71;}.cls-3{fill:#f69b1b;}</style></defs><title>pp-1</title><g id="Layer_2" data-name="Layer 2"><g id="Layer_1-2" data-name="Layer 1"><rect class="cls-1" width="80.92" height="51.38" rx="8.25"/><path class="cls-2" d="M41.44,13.09c-8.91,0-17.83,0-26.74,0-1.13,0-1.4-.35-1.31-1.41a20.47,20.47,0,0,0,0-2.93c-.05-.73.23-1,.88-.87a2.44,2.44,0,0,0,.47,0q26.69,0,53.37,0c1.17,0,1.52.32,1.39,1.48a9.49,9.49,0,0,0,0,2.44c.15,1.15-.34,1.31-1.32,1.3C59.27,13.08,50.36,13.09,41.44,13.09Z"/><path class="cls-3" d="M41.48,38.89c8.91,0,17.83,0,26.74,0,1,0,1.39.18,1.26,1.25-.15,1.28.54,3-.28,3.74s-2.33.2-3.55.2q-25.44,0-50.89,0c-1,0-1.5-.22-1.36-1.38s-.5-2.9.27-3.61,2.25-.21,3.42-.21Z"/><path class="cls-2" d="M58.58,18.85c1.89,0,1.86,0,2.24,1.91Q61.91,26.37,63.1,32c.18.88,0,1.31-.92,1.16a3.76,3.76,0,0,0-1.06,0c-.86.12-1.34-.16-1.37-1.14,0-.69-.35-1.09-1.13-1a8.53,8.53,0,0,1-1.89,0c-1.24-.16-2.16.08-2.33,1.58,0,.47-.37.55-.77.55-.63,0-1.26,0-1.89,0-1.3,0-1.27,0-.74-1.28,1.52-3.69,3-7.38,4.52-11.09C56.22,19,56.37,18.85,58.58,18.85ZM58,23.08l-.23,0-1.15,3.24c-.72,2.07-.72,2,1.45,2,.79,0,1-.3.83-1Z"/><path class="cls-2" d="M19.16,18.85c2,0,4.07-.08,6.1,0a1.84,1.84,0,0,1,1.68,1.74c.37,2.36.81,4.71,1.22,7.06a5.13,5.13,0,0,0,.27.74c1.09-2.87,2.17-5.57,3.13-8.31a1.6,1.6,0,0,1,1.85-1.31c2.65.09,2.59,0,1.47,2.44-1,2.2-1.88,4.46-2.79,6.71a28.75,28.75,0,0,1-1.91,4.67c-.71,1.13-2.18.23-3.28.46-.6.13-.7-.26-.8-.74-.26-1.14-.57-2.25-.86-3.38-.53-2.11-1.16-4.21-1.54-6.36a3.14,3.14,0,0,0-2.54-2.77c-.7-.18-1.37-.43-2.06-.65Z"/><path class="cls-2" d="M50.73,22.18a7.29,7.29,0,0,0-3.37-.58c-.73.07-1.53.26-1.65,1.09s.61,1.18,1.24,1.51a10.68,10.68,0,0,1,2.33,1.42,4.05,4.05,0,0,1-.57,6.49c-2.43,1.62-5,1.38-7.56.72-.48-.12-.67-.36-.54-.86.09-.35.16-.71.24-1.07.28-1.35.23-1.15,1.57-.77a5.27,5.27,0,0,0,3.73-.07A1.12,1.12,0,0,0,46.37,28a9.86,9.86,0,0,0-1.67-1.06c-1.34-.66-2.55-1.53-2.66-3.27a4,4,0,0,1,2.12-3.93,5.6,5.6,0,0,1,3.42-.93,12,12,0,0,1,3.1.2c.5.16.75.31.57.91S50.91,21.39,50.73,22.18Z"/><path class="cls-2" d="M34.45,33.1c1-4.66,1.91-9.2,2.83-13.76.09-.44.27-.52.62-.49H38c3-.16,3-.16,2.37,2.82-.7,3.45-1.45,6.88-2.12,10.34-.17.86-.5,1.21-1.38,1.11A21.83,21.83,0,0,0,34.45,33.1Z"/></g></g></svg>