<svg xmlns="http://www.w3.org/2000/svg" viewBox="0 0 80.92 51.38"><defs><style>.cls-1{fill:#ececec;}.cls-2{fill:#ea001b;}.cls-3{fill:#f69d1b;}.cls-4{fill:#040404;}.cls-5{fill:#fe5f00;}</style></defs><title>pp-2</title><g id="Layer_2" data-name="Layer 2"><g id="Layer_1-2" data-name="Layer 1"><rect class="cls-1" width="80.92" height="51.38" rx="8.25"/><path class="cls-2" d="M31,7.87h1.82s0,0,.09,0a15.92,15.92,0,0,1,1.69.21,15.26,15.26,0,0,1,6.68,3l-.88.76A15.69,15.69,0,0,0,38,14.74a15,15,0,0,0-2.46,7.41,14.48,14.48,0,0,0,.11,2.79A15.16,15.16,0,0,0,40,33.75a15.85,15.85,0,0,0,1.31,1.15l-.05.05a15.14,15.14,0,0,1-12,2.95,14.27,14.27,0,0,1-7.53-3.65,14.67,14.67,0,0,1-4.74-14.31,14.43,14.43,0,0,1,5.74-9A15,15,0,0,1,30,8,8.1,8.1,0,0,0,31,7.87Z"/><path class="cls-3" d="M49.86,7.87h1.82s.07,0,.11,0a12.83,12.83,0,0,1,2.13.29A15.1,15.1,0,0,1,65,17.53a14,14,0,0,1,1,4.74v.25a14.38,14.38,0,0,1-.23,3.21A14.72,14.72,0,0,1,61.27,34a15.09,15.09,0,0,1-11.85,4.1,14.68,14.68,0,0,1-6.31-2,11.48,11.48,0,0,1-1.75-1.19c.26-.28.58-.49.85-.74a15.62,15.62,0,0,0,2.3-2.64,14.82,14.82,0,0,0,2-4.29A15.56,15.56,0,0,0,47.15,23c0-.46,0-.91-.08-1.36a11.68,11.68,0,0,0-.26-1.76,14.47,14.47,0,0,0-2.08-5,15.23,15.23,0,0,0-2.89-3.32,2,2,0,0,1-.48-.43,5.61,5.61,0,0,1,.62-.47A15.2,15.2,0,0,1,48.91,8,5.13,5.13,0,0,0,49.86,7.87Z"/><path class="cls-4" d="M61.15,45.88a.07.07,0,0,0-.07,0,2,2,0,0,1-1.61-2.33,2,2,0,0,1,2.29-1.82,1.45,1.45,0,0,1,1,.51c.07-.05,0-.12,0-.18,0-.55,0-1.1,0-1.65,0-.19.06-.24.24-.22h.49c.15,0,.18.05.18.19,0,1.76,0,3.51,0,5.27,0,.14,0,.2-.18.19a2.53,2.53,0,0,0-.55,0c-.15,0-.19,0-.17-.18s0-.17,0-.32a1.58,1.58,0,0,1-1,.58Zm1.69-2.12A1.24,1.24,0,0,0,62,42.53a1.22,1.22,0,0,0-1.62,1A1.26,1.26,0,0,0,61.9,45,1.25,1.25,0,0,0,62.84,43.76Z"/><path class="cls-4" d="M53,45.88c0-.06-.07,0-.11-.05a2.07,2.07,0,0,1-1.58-2.23,2,2,0,0,1,1.94-1.93,1.56,1.56,0,0,1,1.33.53s0,0,0,0c0-.41,0-.41.45-.41s.46,0,.46.46c0,1.12,0,2.24,0,3.36,0,.2-.06.24-.24.23a2.9,2.9,0,0,0-.51,0c-.12,0-.18,0-.16-.16a.9.9,0,0,0,0-.28,1.78,1.78,0,0,1-1,.52Zm1.7-2.11a1.23,1.23,0,0,0-1.8-1.16,1.28,1.28,0,0,0-.65,1.27,1.23,1.23,0,1,0,2.45-.11Z"/><path class="cls-4" d="M28.08,45.88c0-.07-.12-.05-.18-.07a2.08,2.08,0,0,1-1.46-2.55,2,2,0,0,1,2.31-1.56,1.47,1.47,0,0,1,.92.51s0,0,0-.05,0-.31,0-.38.28,0,.43,0c.44,0,.44,0,.44.43v3.43c0,.15,0,.2-.18.19a2.53,2.53,0,0,0-.55,0c-.15,0-.18,0-.17-.18s0-.18,0-.33a1.53,1.53,0,0,1-1,.59Zm1.66-2.1a1.23,1.23,0,1,0-2.46,0,1.23,1.23,0,1,0,2.46,0Z"/><path class="cls-4" d="M41.19,45.88c0-.07-.08,0-.12-.05A1.94,1.94,0,0,1,39.51,44a2.06,2.06,0,0,1,.76-1.88,2,2,0,0,1,2.06-.25,1.75,1.75,0,0,1,1.06,1.6c0,.18,0,.36,0,.54s0,.19-.18.19h-2.6c-.25,0-.25,0-.16.24a1.2,1.2,0,0,0,1.32.71,2,2,0,0,0,.91-.34c.1-.07.14-.06.19,0l.21.31c.15.22.15.22-.08.37a2.62,2.62,0,0,1-1,.35s-.08,0-.09,0Zm.3-2.48h.93c.12,0,.14,0,.12-.15a1,1,0,0,0-1-.82,1.05,1.05,0,0,0-1.07.82c0,.12,0,.15.11.15Z"/><path class="cls-4" d="M32.69,45.88c-.23-.07-.47-.12-.69-.2-.65-.23-.64-.23-.3-.8.1-.16.16-.16.31-.07a2.24,2.24,0,0,0,1.52.27.82.82,0,0,0,.43-.17.32.32,0,0,0-.07-.57,2.39,2.39,0,0,0-.8-.18,2.64,2.64,0,0,1-.87-.21A1.12,1.12,0,0,1,32,42.06a1.83,1.83,0,0,1,1.12-.38,3.2,3.2,0,0,1,1.64.3c.14.07.2.13.1.28s-.15.41-.3.49-.35-.11-.53-.16a2.5,2.5,0,0,0-.94-.1.74.74,0,0,0-.25,0c-.18.07-.32.18-.31.39s.17.27.34.32c.34.09.7.06,1,.15a3.57,3.57,0,0,1,.46.16,1.12,1.12,0,0,1,.16,1.95,2.06,2.06,0,0,1-.88.33c-.05,0-.11,0-.13,0Z"/><path class="cls-4" d="M37.47,45.88s0,0,0,0a1.16,1.16,0,0,1-1-1.26c0-.56,0-1.13,0-1.69,0-.33,0-.33-.35-.33-.11,0-.22,0-.34,0s-.12,0-.12-.12a5.42,5.42,0,0,0,0-.57c0-.11,0-.12.14-.12h.51c.13,0,.17,0,.16-.16,0-.3,0-.6,0-.9,0-.11,0-.17.14-.16h.62c.11,0,.14,0,.14.14,0,.32,0,.63,0,.94,0,.11,0,.14.14.14h1.14c.13,0,.18,0,.17.16a1.93,1.93,0,0,0,0,.48c0,.15-.06.17-.18.17h-1.1c-.13,0-.17,0-.17.16,0,.56,0,1.13,0,1.69a.58.58,0,0,0,.72.63,1.2,1.2,0,0,0,.53-.15c.09-.06.12,0,.15.07a3.45,3.45,0,0,0,.18.51c0,.11,0,.14-.09.18a4.68,4.68,0,0,1-.72.24Z"/><path class="cls-4" d="M49,45.88c-.06-.08-.15-.06-.22-.08A2,2,0,0,1,47.24,44a2,2,0,0,1,1.34-2.17,2.43,2.43,0,0,1,2.13.23c.11.07.13.13,0,.24s-.19.3-.27.45-.1.11-.2.05A1.51,1.51,0,0,0,49,42.54a1.32,1.32,0,0,0-.77,1.7,1.22,1.22,0,0,0,1.58.78,1.85,1.85,0,0,0,.55-.26c.07-.06.11,0,.15,0l.3.51c.07.09,0,.13,0,.19a1.82,1.82,0,0,1-.89.35s-.08,0-.11,0Z"/><path class="cls-5" d="M41.28,11.1h.08a2,2,0,0,0,.48.43,15.23,15.23,0,0,1,2.89,3.32,14.47,14.47,0,0,1,2.08,5,11.68,11.68,0,0,1,.26,1.76c0,.45.09.9.08,1.36a15.56,15.56,0,0,1-.61,4.23,14.82,14.82,0,0,1-2,4.29,15.62,15.62,0,0,1-2.3,2.64c-.27.25-.59.46-.85.74h-.08A15.85,15.85,0,0,1,40,33.75a15.16,15.16,0,0,1-4.37-8.81,14.48,14.48,0,0,1-.11-2.79A15,15,0,0,1,38,14.74a15.69,15.69,0,0,1,2.45-2.88Z"/><path class="cls-4" d="M20,42.2a1.61,1.61,0,0,1,2.53.17,1.77,1.77,0,0,1,1.8-.67,1.43,1.43,0,0,1,1.25,1.46c0,.83,0,1.67,0,2.51,0,.1,0,.13-.13.13h-.68c-.13,0-.18,0-.18-.17,0-.64,0-1.29,0-1.93a2.31,2.31,0,0,0,0-.37.8.8,0,0,0-.9-.81.86.86,0,0,0-.92.86c0,.65,0,1.3,0,1.95,0,.46,0,.46-.46.46s-.44,0-.44-.43V43.68a2,2,0,0,0,0-.49.79.79,0,0,0-.9-.67.84.84,0,0,0-.89.72,3.32,3.32,0,0,0,0,.55c0,.6,0,1.21,0,1.82,0,.13,0,.2-.18.19s-.55.09-.68,0,0-.44,0-.67c0-1,0-2.09,0-3.14,0-.15,0-.22.19-.19h.19c.16,0,.34,0,.46,0S19.93,42.05,20,42.2Z"/><path class="cls-4" d="M45.28,42.18a1.55,1.55,0,0,1,1.55-.49c.09,0,.1,0,.07.12l-.19.64c0,.09-.08.09-.15.08a3.49,3.49,0,0,0-.44-.05.77.77,0,0,0-.82.84c0,.74,0,1.48,0,2.22,0,.21,0,.28-.27.25s-.48.09-.6,0,0-.39,0-.59c0-1.06,0-2.13,0-3.2,0-.17,0-.23.22-.21h.49c.16,0,.21,0,.19.2A1.76,1.76,0,0,0,45.28,42.18Z"/><path class="cls-4" d="M57.55,42.24a1.42,1.42,0,0,1,1.51-.55c.11,0,.15,0,.11.14s-.13.4-.18.6-.08.12-.17.1a1.3,1.3,0,0,0-.44-.05.8.8,0,0,0-.82.89c0,.73,0,1.47,0,2.21,0,.18,0,.23-.22.21s-.52.1-.64,0,0-.41,0-.63c0-1.06,0-2.12,0-3.17,0-.16,0-.22.19-.2h.45c.2,0,.31,0,.26.25A1.85,1.85,0,0,0,57.55,42.24Z"/></g></g></svg>