<svg xmlns="http://www.w3.org/2000/svg" viewBox="0 0 80.92 51.38"><defs><style>.cls-1{fill:#ececec;}.cls-2{fill:#259ad5;}.cls-3{fill:#84b640;}.cls-4{fill:#292b2f;}.cls-5{fill:#ddebcb;}</style></defs><title>pp-3</title><g id="Layer_2" data-name="Layer 2"><g id="Layer_1-2" data-name="Layer 1"><rect class="cls-1" width="80.92" height="51.38" rx="8.25"/><path class="cls-2" d="M34.29,15.56c0,.07,0,.15,0,.22v8.44c0,.23,0,.23-.23.23H8.71a.47.47,0,0,0-.26,0V15.71c0-.12,0-.15.15-.15Z"/><path class="cls-3" d="M34.27,36.55H8.45V27.7H34.27Z"/><path class="cls-4" d="M69.36,20.21v.08a.23.23,0,0,0,0,.21v.09s-.05,0,0,.05l0,.09s-.07.06,0,.12l0,.08c-.06,0-.06.1-.07.16l0,.09s0,0,0,.06l0,.07s0,0,0,.09a2.92,2.92,0,0,1-.89,1.08s0,0,0,0l-.37.24a.12.12,0,0,0-.13.07l-.07,0a1,1,0,0,0-.33.13l-.08,0s0,0,0,0h-.08a.14.14,0,0,0-.15,0l-.11,0s-.09,0-.12,0h-.12c-.08,0-.15,0-.21,0h-.09a7.86,7.86,0,0,0-.84,0h-.15c0-.06-.09-.05-.15,0l-.15,0a.25.25,0,0,0-.21,0l-.12,0s0,0-.06,0l-.11,0s-.06-.07-.11,0l-.09,0a0,0,0,0,0-.06,0l-.1,0a.23.23,0,0,0-.32,0h-.12a.3.3,0,0,0-.24.05l-.11,0s-.07,0-.1,0H63c-.13,0-.25,0-.39,0H52.93v-.1a.28.28,0,0,0,0-.25l0-.15a.1.1,0,0,0,0-.14l0-.15a.28.28,0,0,0,0-.25l0-.15a.09.09,0,0,0,0-.13l0-.12s0,0,0,0c1.12,0,2.25,0,3.37,0,0,.06.07.05.11,0a.43.43,0,0,1,.16,0c.12.11.14,0,.14-.08v-2s0-.08,0-.1l0-.37a.31.31,0,0,0,0-.28l0-.11s0-.08,0-.1l0-.09a.53.53,0,0,0-.12-.32l0-.08s0-.05,0-.06l0-.05s0,0,0,0a2.28,2.28,0,0,0-.29-.33s0-.05-.06,0L56,17.34a.68.68,0,0,0-.44-.09c-.58,0-1.16,0-1.74,0-.16,0-.22-.05-.18-.21a.35.35,0,0,0,0-.28v-.13c.06,0,.05-.1,0-.16v-.12a.45.45,0,0,0,.05-.28v-.16c.06,0,0-.12.08-.18h1.9a.42.42,0,0,0,.31,0l.16,0c0,.06.1,0,.16,0l.11,0s.08.07.14,0l.08,0s0,0,.07,0l.07,0a.35.35,0,0,0,.22.08l.08,0s0,0,.06,0l.14.07c0,.06.06.07.12.07l0,0s0,.05.06,0l0,0s0,.05.06,0l.11.09s0,.06.05,0a2,2,0,0,1,.29.29s0,.06,0,.06l.09.12s0,.05,0,.05a2.73,2.73,0,0,1,.3.56,1.22,1.22,0,0,0,.15.4l0,.07s0,.06,0,.07l0,.09a.19.19,0,0,0,0,.19l0,.11c0,.05,0,.09,0,.12l0,.16a1.51,1.51,0,0,0,0,.52c0,.67,0,1.34,0,2,0,.14,0,.17.18.17h3.35c.14,0,.23,0,.26-.18s0,0,0-.05l0-.19c.05-.06,0-.13,0-.19,0-1,0-2,0-3a1.29,1.29,0,0,0,0-.34v-.12s0,0,0,0l0-.09s0,0,0-.05l0-.09a.36.36,0,0,0,.09-.23l0-.08s0,0,0-.06a1.51,1.51,0,0,1,.54-.58.17.17,0,0,0,.14-.09l.14-.07s.05,0,.06,0l.17-.08a.1.1,0,0,0,.12,0l.08,0s0,0,.06,0l.08,0a.12.12,0,0,0,.15,0l.07,0s.08,0,.1,0l.12,0a.34.34,0,0,0,.24,0l.11,0a4.11,4.11,0,0,0,.7,0H66a1.5,1.5,0,0,0,.47,0l.11,0a.21.21,0,0,0,.2,0l.09,0s0,.05,0,0l.28.09a.17.17,0,0,0,.16.06A3.23,3.23,0,0,1,69.2,18c.1.27.12.55.21.82v1.06A.61.61,0,0,0,69.36,20.21Zm-4.67-.58v1.52c0,.11,0,.16.14.18a6.75,6.75,0,0,0,1.19.11,1.28,1.28,0,0,0,1.3-1,3.79,3.79,0,0,0,0-2.06,1.2,1.2,0,0,0-1.25-1,4,4,0,0,0-.84.07,2.51,2.51,0,0,0-.59.18c-.07,0-.1.06-.06.15a1.26,1.26,0,0,1,.07.51Z"/><path class="cls-5" d="M34.26,27.69H8.45v-.07H34C34.11,27.63,34.2,27.59,34.26,27.69Z"/><path class="cls-4" d="M44.93,23.81c-1.49,0-3,0-4.48,0a3.08,3.08,0,0,1-1.8-.57A3,3,0,0,1,37.46,21a8.24,8.24,0,0,1,0-2.43,3.09,3.09,0,0,1,2.18-2.65,3.48,3.48,0,0,1,1-.13h2.37c.15,0,.17.05.15.19-.07.39-.12.78-.17,1.17,0,.14-.06.16-.19.16H41.22a1.53,1.53,0,0,0-1.64,1.41,7.16,7.16,0,0,0,0,2.4,1.41,1.41,0,0,0,1.3,1.2l.36,0,7.64,0a1.55,1.55,0,0,0,.57-.09A1,1,0,0,0,50,21.17a.91.91,0,0,0-.9-.85c-.64,0-1.29,0-1.94,0A3.16,3.16,0,0,1,45.78,20a1.9,1.9,0,0,1-1.05-1.52A2.56,2.56,0,0,1,44.91,17a2.26,2.26,0,0,1,1.52-1.18,5.16,5.16,0,0,1,1.46-.17h4.24c.14,0,.18,0,.16.18-.07.38-.13.76-.18,1.15,0,.17-.08.19-.23.19h-4a1.85,1.85,0,0,0-.57.06.78.78,0,0,0-.63.91.82.82,0,0,0,.76.83h.3c.68,0,1.36,0,2,0a2.32,2.32,0,0,1,1.62.67,2.39,2.39,0,0,1,.63,2,2.12,2.12,0,0,1-.84,1.66,3,3,0,0,1-1.21.44,7.79,7.79,0,0,1-1.28.08H44.93Z"/><path class="cls-4" d="M37.41,33.39v-2.6a1.59,1.59,0,0,1,.09-.61,1,1,0,0,1,.63-.55,6.6,6.6,0,0,1,3.38-.31,2,2,0,0,1,.83.34.21.21,0,0,0,.25,0,4.83,4.83,0,0,1,2.9-.37,2,2,0,0,1,1.73,1.91c0,.23,0,.46,0,.7,0,1.41,0,2.82,0,4.23,0,.15,0,.21-.19.21-.55,0-1.1,0-1.66,0-.13,0-.16,0-.16-.17V32a2,2,0,0,0,0-.48.73.73,0,0,0-.63-.57,2.25,2.25,0,0,0-1.25.21c-.07,0-.09.07,0,.15a1,1,0,0,1,.08.43v4.47c0,.12,0,.14-.14.14H41.5c-.14,0-.16,0-.16-.17V32a3.15,3.15,0,0,0,0-.44.72.72,0,0,0-.65-.64,2.52,2.52,0,0,0-1.12.15.11.11,0,0,0-.08.11v.12c0,1.61,0,3.22,0,4.82,0,.16,0,.2-.19.2H37.61c-.15,0-.2,0-.2-.2C37.42,35.23,37.41,34.31,37.41,33.39Z"/><path class="cls-4" d="M62.14,30.68v4.13c0,.81-.18,1.07-.94,1.31a6.27,6.27,0,0,1-3.13.19,2.79,2.79,0,0,1-2.24-2.21,5.32,5.32,0,0,1,.1-3,2.58,2.58,0,0,1,2.39-1.87,3.82,3.82,0,0,1,1.64.22c.12,0,.14,0,.14-.12,0-.93,0-1.85,0-2.78,0-.13,0-.18.16-.2L62,26.08c.14,0,.12.07.12.14v4.46Zm-2,2.23v-1.7c0-.09,0-.16-.11-.19a3.8,3.8,0,0,0-.88-.17,1.19,1.19,0,0,0-1.3.93,3.78,3.78,0,0,0,0,2.16,1.29,1.29,0,0,0,1.27,1,6,6,0,0,0,.84-.1c.12,0,.16-.08.15-.2Z"/><path class="cls-4" d="M54.58,33.74c0,1,0,1.83,0,2.66,0,.15,0,.17-.17.14-.59-.12-1.18-.23-1.78-.33a2.12,2.12,0,0,0-.74.12,5.29,5.29,0,0,1-2.06,0,1.93,1.93,0,0,1-1.48-2,1.89,1.89,0,0,1,1-1.76,3.78,3.78,0,0,1,1.18-.33,15.55,15.55,0,0,1,1.93,0c.13,0,.18,0,.17-.19a4.36,4.36,0,0,0,0-.51.8.8,0,0,0-.66-.62,3.62,3.62,0,0,0-1.27,0,7.9,7.9,0,0,0-1.76.47c-.11,0-.13,0-.15-.1,0-.42-.11-.84-.17-1.26,0-.07,0-.11.07-.14a9.54,9.54,0,0,1,3.38-.62,3.43,3.43,0,0,1,1.47.36,1.92,1.92,0,0,1,1,1.56C54.63,32.06,54.55,33,54.58,33.74Zm-1.9.36h0c0-.19,0-.37,0-.56s0-.16-.16-.16H51.45a1.9,1.9,0,0,0-.58.09.81.81,0,0,0-.55.8.74.74,0,0,0,.5.75,1.58,1.58,0,0,0,.72.06,9.35,9.35,0,0,0,1-.23.14.14,0,0,0,.12-.18Z"/><path class="cls-4" d="M69.44,31.23c0,.19,0,.37,0,.56V36.3c0,.08,0,.16,0,.24a8.33,8.33,0,0,1-1-.16l-1-.17a2.4,2.4,0,0,0-.75.12,5,5,0,0,1-2,0,2,2,0,0,1-1.48-2.25,1.93,1.93,0,0,1,1.62-1.75,6.26,6.26,0,0,1,1.56-.16h1c.1,0,.14,0,.13-.13a3.14,3.14,0,0,0,0-.53.79.79,0,0,0-.66-.65,3.61,3.61,0,0,0-1.27,0,8.21,8.21,0,0,0-1.75.46c-.11,0-.14,0-.15-.1L63.51,30c0-.09,0-.14.09-.16a11.46,11.46,0,0,1,2.65-.61,4.14,4.14,0,0,1,2,.25A1.94,1.94,0,0,1,69.44,31.23Zm-2.63,2.15a5.7,5.7,0,0,0-.83,0l-.19,0a.79.79,0,0,0-.57.76.74.74,0,0,0,.47.78,1.1,1.1,0,0,0,.51.08,5.18,5.18,0,0,0,1.29-.26c.09,0,.09-.07.09-.14V33.51c0-.1,0-.13-.13-.13Z"/><path class="cls-5" d="M34.27,36.55V27.69c.07,0,0,.1,0,.15v8.57C34.32,36.46,34.34,36.52,34.27,36.55Z"/></g></g></svg>