<svg xmlns="http://www.w3.org/2000/svg" viewBox="0 0 80.92 51.38"><defs><style>.cls-1{fill:#ececec;}.cls-2{fill:#fff;}</style></defs><title>pp-4</title><g id="Layer_2" data-name="Layer 2"><g id="Layer_1-2" data-name="Layer 1"><rect class="cls-1" width="80.92" height="51.38" rx="8.25"/><path class="cls-2" d="M24.57,24.7a4.63,4.63,0,0,1,2.16-4.3,5.56,5.56,0,0,0-.42-.54,4.51,4.51,0,0,0-4.72-1.34,12.81,12.81,0,0,0-1.67.6,1.85,1.85,0,0,1-1.46,0c-.32-.14-.65-.26-1-.39a4.12,4.12,0,0,0-2.95-.16,5.09,5.09,0,0,0-3.23,3.14,8.51,8.51,0,0,0-.42,4.47A12.85,12.85,0,0,0,13,31.77a10.73,10.73,0,0,0,1.41,1.74,2.32,2.32,0,0,0,2.63.51l.89-.37a3.47,3.47,0,0,1,2.08-.23,7.7,7.7,0,0,1,1.3.45,2.68,2.68,0,0,0,3.43-.77A12.58,12.58,0,0,0,27,29.49c.11-.27.21-.56.31-.85A4.52,4.52,0,0,1,24.57,24.7ZM70.09,20H67.31c-.1,0-.13,0-.15.14-.2.67-.4,1.34-.61,2-.92,3.05-1.83,6.1-2.75,9.15a1.34,1.34,0,0,1-.07.18h0L60.24,20h-3l.07.17.71,2q2.06,5.82,4.09,11.66a.47.47,0,0,1,0,.26c-.08.33-.17.67-.28,1a2.24,2.24,0,0,1-2.41,1.76h-.82v2.29a.5.5,0,0,0,.13,0,12.29,12.29,0,0,0,1.92,0,4.13,4.13,0,0,0,3.17-1.82A10.23,10.23,0,0,0,65,34.94l5.07-14.79s0-.08,0-.12Zm-47-6.77A4.54,4.54,0,0,0,19,18h.07a2.91,2.91,0,0,0,1.64-.33A4.47,4.47,0,0,0,22.87,15,4,4,0,0,0,23.08,13.25Z"/><path d="M26.73,20.4a4.63,4.63,0,0,0-2.16,4.3,4.52,4.52,0,0,0,2.72,3.94c-.1.29-.2.58-.31.85a12.58,12.58,0,0,1-2.2,3.61,2.68,2.68,0,0,1-3.43.77,7.7,7.7,0,0,0-1.3-.45,3.46,3.46,0,0,0-2.08.23l-.89.37a2.32,2.32,0,0,1-2.63-.51A10.73,10.73,0,0,1,13,31.77a12.85,12.85,0,0,1-2.15-5.57,8.51,8.51,0,0,1,.42-4.47,5.09,5.09,0,0,1,3.23-3.14,4.12,4.12,0,0,1,2.95.16c.32.13.65.25,1,.39a1.85,1.85,0,0,0,1.46,0,12.81,12.81,0,0,1,1.67-.6,4.51,4.51,0,0,1,4.72,1.34A5.56,5.56,0,0,1,26.73,20.4Z"/><path d="M33.49,27.4V34h-2.9V14.73l.13,0c2.38,0,4.76,0,7.13,0A5.76,5.76,0,0,1,42,16.42a5.88,5.88,0,0,1,1.64,3.2,7.32,7.32,0,0,1-.24,3.77,5.71,5.71,0,0,1-4.22,3.81,7.1,7.1,0,0,1-1.78.2c-1.22,0-2.45,0-3.67,0Zm0-2.5h3.38a4.74,4.74,0,0,0,1.62-.26,3.14,3.14,0,0,0,2.12-2.27,4.89,4.89,0,0,0,0-2.76,3,3,0,0,0-1.74-2,4.74,4.74,0,0,0-1.85-.37H33.46Z"/><path d="M47.75,24.13H45.07c.06-.32.09-.63.17-.93a4.35,4.35,0,0,1,2.09-2.67,6.56,6.56,0,0,1,3.44-.82,6.76,6.76,0,0,1,2.55.45,4.2,4.2,0,0,1,2.57,2.6,5,5,0,0,1,.25,1.68q0,4.69,0,9.41s0,.1,0,.16H53.48V31.7l-.1.12a4.64,4.64,0,0,1-3.46,2.39,5,5,0,0,1-3.41-.58,3.89,3.89,0,0,1-2-3.42,3.61,3.61,0,0,1,1.63-3.32,5.55,5.55,0,0,1,1.91-.8,13.56,13.56,0,0,1,2.38-.27l2.76-.14c.06,0,.15,0,.15-.1A13.72,13.72,0,0,0,53.26,24a2,2,0,0,0-1.42-1.69,3.6,3.6,0,0,0-2.79.12A2.33,2.33,0,0,0,47.75,24.13Zm5.56,3.54H53.2L50,27.85a4.28,4.28,0,0,0-1.57.36,1.79,1.79,0,0,0-1.09,1.48,1.84,1.84,0,0,0,.77,1.82A2.8,2.8,0,0,0,50,32a3.56,3.56,0,0,0,2.52-1.06A3.84,3.84,0,0,0,53.31,27.67Z"/><path d="M57.23,20h3l3.45,11.45h0a1.34,1.34,0,0,0,.07-.18c.92-3.05,1.83-6.1,2.75-9.14.21-.67.41-1.34.61-2,0-.09,0-.14.15-.14h2.84s0,.08,0,.12L65,34.94a10.23,10.23,0,0,1-1.2,2.52,4.13,4.13,0,0,1-3.17,1.82,12.29,12.29,0,0,1-1.92,0,.5.5,0,0,1-.13,0V36.92h.82a2.24,2.24,0,0,0,2.41-1.76c.11-.33.2-.67.29-1a.59.59,0,0,0,0-.26q-2-5.83-4.09-11.66c-.24-.68-.48-1.36-.71-2Z"/><path d="M23.08,13.25A4,4,0,0,1,22.87,15a4.47,4.47,0,0,1-2.16,2.67,2.91,2.91,0,0,1-1.64.33H19A4.54,4.54,0,0,1,23.08,13.25Z"/></g></g></svg>