<svg xmlns="http://www.w3.org/2000/svg" viewBox="0 0 80.92 51.38"><defs><style>.cls-1{fill:#ececec;}</style></defs><title>pp-5</title><g id="Layer_2" data-name="Layer 2"><g id="Layer_1-2" data-name="Layer 1"><rect class="cls-1" width="80.92" height="51.38" rx="8.25"/><path d="M55.24,22.54v.15c0,.72,0,1.44,0,2.16,0,.46-.31.75-.85.77h-.55l.19,10.73h.55c.55,0,.88.26.89.73l0,1.91v.14h.17l2.42-.05a.81.81,0,0,1,.84.5.83.83,0,0,1,0,.22L59.07,43c0,.46-.32.75-.85.76h-.11l-36.6.72a1.79,1.79,0,0,1-.33,0,.7.7,0,0,1-.64-.64l-.06-3.32c0-.4.35-.68.84-.69l2.41-.05h.18v-.13l0-1.91c0-.48.31-.76.87-.78h.54l-.2-10.73h-.56c-.53,0-.87-.27-.88-.72,0-.73,0-1.45,0-2.17v-.15h-.19l-3.81.07a.82.82,0,0,1-.83-.42A.62.62,0,0,1,19,22l1.71-1.32,10.66-8.21L38.53,7a.92.92,0,0,1,1.22,0l12,8.53,8.06,5.73a.62.62,0,0,1,.29.7.72.72,0,0,1-.57.51,1.23,1.23,0,0,1-.33,0l-3.75.08Zm1.87-1.42-18-12.77L21.69,21.81ZM36.55,26H36c-.59,0-.92-.26-.92-.77,0-.7,0-1.41,0-2.12V23l-2.7.05v.15c0,.71,0,1.42,0,2.12,0,.5-.32.78-.89.8H31l.2,10.73h.53a.78.78,0,0,1,.92.75c0,.63,0,1.26,0,1.89v.14l2.7-.06v-.15c0-.64,0-1.28,0-1.91a.76.76,0,0,1,.84-.75h.42c.14,0,.17,0,.16-.16-.06-3.48-.13-7-.19-10.44ZM46.81,39.3v-.15l0-1.91c0-.46.32-.74.85-.75h.56L48,25.74h-.17c-1,.07-1.31-.19-1.28-1.06,0-.61,0-1.21,0-1.82v-.15l-2.7.06v.14c0,.71,0,1.42,0,2.13,0,.49-.31.78-.88.79h-.53l.2,10.73h.54c.55,0,.89.27.9.74l0,1.91v.13ZM57.4,40.49l-35.28.69,0,1.89,35.29-.7ZM29.55,36.83l-.2-10.71-2.63.05.2,10.71Zm8.81-.18,2.63,0L40.8,25.89l-2.63.05ZM49.62,25.71l.19,10.72,2.62,0-.19-10.72ZM30.73,23l-5.5.11,0,1.64,5.5-.11Zm5.95-.12,0,1.65,5.49-.11,0-1.65Zm16.94-.33-5.5.11,0,1.64,5.5-.1ZM42.48,39.38l0-1.4L37,38.09l0,1.39ZM31,39.6l0-1.4-5.5.11,0,1.4ZM53.9,37.75l-5.5.11,0,1.4,5.5-.11Z"/><path d="M41.53,16.49a2.25,2.25,0,0,1-4.5.09,2.21,2.21,0,0,1,2.22-2.19A2.19,2.19,0,0,1,41.53,16.49Zm-1.07,0a1.18,1.18,0,1,0-1.16,1.14A1.15,1.15,0,0,0,40.46,16.51Z"/></g></g></svg>