<svg xmlns="http://www.w3.org/2000/svg" viewBox="0 0 79.39 91.57"><defs><style>.cls-1{fill:#fff;}</style></defs><title>q-1</title><g id="Layer_2" data-name="Layer 2"><g id="Layer_1-2" data-name="Layer 1"><path class="cls-1" d="M40.86,13A25.09,25.09,0,0,0,14.61,38.08a25.13,25.13,0,0,0,8.52,18.84,9.59,9.59,0,0,1,3.32,7.17v14A13.44,13.44,0,0,0,39.37,91.57h.33A13.25,13.25,0,0,0,52.94,78.33V64.09A9.3,9.3,0,0,1,56.12,57,25.08,25.08,0,0,0,40.86,13Zm6.75,52.2v6.33H31.78V65.22ZM45.29,83.93a7.89,7.89,0,0,1-5.79,2.31,8.07,8.07,0,0,1-7.72-8.12V76.88H47.61v1.45A7.87,7.87,0,0,1,45.29,83.93ZM52.63,53a14.52,14.52,0,0,0-4.41,6.88H31.15a15,15,0,0,0-4.5-7,19.8,19.8,0,0,1-6.71-14.84A19.76,19.76,0,0,1,39.69,18.32l.92,0A19.76,19.76,0,0,1,52.63,53Z"/><path class="cls-1" d="M9.84,38H1.64a1.64,1.64,0,0,0,0,3.28h8.2a1.64,1.64,0,0,0,0-3.28Z"/><path class="cls-1" d="M15.29,25.53a1.63,1.63,0,0,0-.6-2.24l-7.1-4.1A1.64,1.64,0,0,0,6,22l7.1,4.1a1.64,1.64,0,0,0,2.24-.6Z"/><path class="cls-1" d="M23.41,14.63A1.64,1.64,0,0,0,26.25,13L22.14,5.88A1.64,1.64,0,0,0,19.3,7.52Z"/><path class="cls-1" d="M39.76,11.48A1.63,1.63,0,0,0,41.4,9.84V1.64a1.64,1.64,0,0,0-3.28,0v8.2A1.64,1.64,0,0,0,39.76,11.48Z"/><path class="cls-1" d="M53.86,15.29a1.64,1.64,0,0,0,2.24-.6l4.1-7.1A1.64,1.64,0,1,0,57.36,6l-4.1,7.1A1.64,1.64,0,0,0,53.86,15.29Z"/><path class="cls-1" d="M74.1,19.9a1.64,1.64,0,0,0-2.24-.6l-7.1,4.11a1.64,1.64,0,0,0-.6,2.24,1.67,1.67,0,0,0,1.42.82,1.74,1.74,0,0,0,.82-.22l7.1-4.11A1.63,1.63,0,0,0,74.1,19.9Z"/><path class="cls-1" d="M77.75,38.12h-8.2a1.64,1.64,0,1,0,0,3.28h8.2a1.64,1.64,0,0,0,0-3.28Z"/></g></g></svg>