<svg xmlns="http://www.w3.org/2000/svg" viewBox="0 0 98.87 99.15"><defs><style>.cls-1{fill:#235e2f;}</style></defs><title>q-2</title><g id="Layer_2" data-name="Layer 2"><g id="Layer_1-2" data-name="Layer 1"><path class="cls-1" d="M62.94,45.14l-4.6,4.61A19.85,19.85,0,1,1,49,40.63L53.65,36a26.1,26.1,0,1,0,9.29,9.15Z"/><path class="cls-1" d="M52.57,58.54a12,12,0,1,1-9.71-11.75l-4.74,4.73a6.52,6.52,0,1,0,9.22,9.23l4.92-4.93A12.13,12.13,0,0,1,52.57,58.54Z"/><path class="cls-1" d="M73.45,34.64,69,39.14A34.36,34.36,0,1,1,59.68,30l4.51-4.51a40.68,40.68,0,1,0,9.26,9.18Z"/><path class="cls-1" d="M87.94,0,72.39,15.55l1.53,5-33.4,33.4a3.13,3.13,0,0,0,4.42,4.43L78.35,24.94l5,1.54L98.87,10.92,90.52,8.35Z"/></g></g></svg>