<svg xmlns="http://www.w3.org/2000/svg" viewBox="0 0 86.32 88.24"><defs><style>.cls-1{fill:#235e2f;}.cls-2{fill:#fff;}</style></defs><title>q-3</title><g id="Layer_2" data-name="Layer 2"><g id="Layer_1-2" data-name="Layer 1"><path class="cls-1" d="M86.31,3c0-2-1-3-3-3-3,0-6.11,0-9.16,0-2,0-2.94,1-3,3,0,.63-.13,1.27-.19,1.88a3.25,3.25,0,0,1-.79.26c-6.19,0-12.37.07-18.55,0a3.11,3.11,0,0,1-2-1.39c-3.43-4.93-9.53-4.94-13-.07a3.86,3.86,0,0,1-2.61,1.46c-5.62.13-11.25.07-16.87.06A13.8,13.8,0,0,1,15.44,5C14.78,0,14.78,0,10.05,0,7.81,0,5.56.05,3.31,0S0,.92,0,3.21c0,3.05,0,6.08,0,9.12,0,2.17,1,3.2,3.06,3.21,3,0,5.94,0,8.92,0,2,0,3.17-.93,3.22-3.09,0-.63.11-1.27.17-1.94h9.76L23,12.26a33.57,33.57,0,0,0-12.3,21.58c-.28,1.8-.64,3-2.32,4.14C4.65,40.42,4.21,45.75,7.14,49.2a7.49,7.49,0,0,0,11.14.3c3-3.24,2.89-8.87-.76-11.26-2.19-1.44-2-2.86-1.62-4.87,2-10.53,11-20.26,20.39-21.93,4.44,5.5,8,5.49,14,0A28.37,28.37,0,0,1,70.69,35.35a3.08,3.08,0,0,1-1.24,2.17,8,8,0,0,0-3.19,8.84,7.53,7.53,0,0,0,14.53-.19c.92-3.37-.41-6.58-3.43-8.74A4,4,0,0,1,75.82,35,34.12,34.12,0,0,0,62.88,12c-.51-.41-1-.85-1.62-1.42H71c.22,2.27-.22,4.93,3,5s6.27.05,9.4,0c1.94,0,2.92-1.09,2.91-3.12C86.28,9.28,86.32,6.16,86.31,3ZM10,10.23H5.23V5.38H10Zm3,36.36a3.45,3.45,0,0,1-2.45-2.27c-.09-1,1.09-2.07,1.71-3.11.34,0,.68,0,1-.05.71.91,1.8,1.75,2,2.77A2.12,2.12,0,0,1,12.93,46.59ZM43.24,10.22a2.09,2.09,0,0,1-2.51-2.43c.11-1,1.15-1.94,1.79-2.9.35,0,.71,0,1.07,0,.7,1,2,2,1.93,2.94A3.5,3.5,0,0,1,43.24,10.22ZM73.33,40.45c1.26,1.69,2.55,2.67,2.55,3.66a3.57,3.57,0,0,1-2.28,2.48,2.1,2.1,0,0,1-2.52-2.44C71.2,43.11,72.23,42.19,73.33,40.45Zm7.73-30.26H76.32V5.34h4.74Z"/><path class="cls-1" d="M64.27,57.37c1.75-1.88,1.89-3.44.45-5.6C58.41,42.27,52.22,32.69,46,23.14c-2-3-3.65-3.06-5.6-.09Q31,37.38,21.69,51.71c-1.79,2.75-1.75,3.24.48,5.73a33.23,33.23,0,0,1,7.77,15.84,4.43,4.43,0,0,1-.94,3.5,27.47,27.47,0,0,0-3.34,7.68c-.67,2.72.49,3.75,3.22,3.76,4.75,0,9.49,0,14.22,0s9.47,0,14.21,0c2.88,0,4-1,3.35-3.9a24.5,24.5,0,0,0-3.28-7.46,4.52,4.52,0,0,1-1-3.71A31.72,31.72,0,0,1,64.27,57.37ZM43.28,52c1,.19,1.85,1.29,3.49,2.54C45,55.68,44,56.94,43,56.88s-2.13-1.48-2.29-2.46A2.1,2.1,0,0,1,43.28,52ZM31.46,82.77a6.45,6.45,0,0,1,6-4.94c3.76-.09,7.54-.11,11.3,0,3,.1,4.95,1.9,6.44,4.92ZM51.31,72.68H35a39.94,39.94,0,0,0-8-17.59A2.25,2.25,0,0,1,27,53c4.3-6.72,8.67-13.4,13.31-20.53a21.63,21.63,0,0,1,.26,2.18c0,2.54-.08,5.1,0,7.62.12,2.75-.13,4.89-2.7,6.85-3.42,2.61-3,8.11.19,11.07A7.44,7.44,0,0,0,49,59.31a7.62,7.62,0,0,0-1.45-11,3.79,3.79,0,0,1-1.87-3.77c.13-3.68,0-7.38.07-11.07,0-.13.12-.26.33-.7,1.23,1.85,2.39,3.55,3.52,5.29,3.16,4.83,6.35,9.66,9.44,14.56a2.86,2.86,0,0,1,.26,2.48A40.31,40.31,0,0,0,51.31,72.68Z"/><circle class="cls-2" cx="73.47" cy="44.06" r="3.61"/><circle class="cls-2" cx="43.16" cy="54.54" r="3.61"/><circle class="cls-2" cx="12.88" cy="44.06" r="3.61"/><circle class="cls-2" cx="43.06" cy="7.56" r="3.61"/></g></g></svg>