<svg xmlns="http://www.w3.org/2000/svg" viewBox="0 0 97.08 62.86"><defs><style>.cls-1{fill:#235e2f;}.cls-2{fill:#fff;}</style></defs><title>q-4</title><g id="Layer_2" data-name="Layer 2"><g id="Layer_1-2" data-name="Layer 1"><path class="cls-1" d="M92.73,17.3c3.79-.22,4.34-.8,4.34-4.56,0-3.08,0-6.14,0-9.22C97.09,1.21,96,0,93.63,0c-3.42,0-6.86,0-10.29,0C81,0,79.87,1.14,79.8,3.45c0,.68-.15,1.37-.22,2.05H17.41c-.05-.72-.09-1.25-.12-1.77C17.12.9,16.27,0,13.46,0c-3.33,0-6.69,0-10,0C1.24,0,0,1,0,3.27c0,3.6,0,7.21,0,10.82,0,2,1.09,3,3,3.18.78.08,1.58.1,2.46.15V45.5C.16,45.92,0,46.09,0,51.2c0,2.7,0,5.42,0,8.13,0,2.23,1.09,3.42,3.25,3.47,3.61.08,7.22.07,10.82,0,2.05,0,3.13-1.19,3.2-3.25,0-.71.09-1.43.14-2.33H79.68c0,.9.1,1.62.12,2.33.07,2.06,1.16,3.22,3.2,3.25,3.6.07,7.23.08,10.84,0a3,3,0,0,0,3.23-3.2c0-3.61,0-7.23,0-10.84,0-2-1.16-2.92-3-3.09-.79-.07-1.57-.12-2.45-.17v-28C92.05,17.41,92.39,17.32,92.73,17.3ZM5.92,5.9h5.35v5.47H5.92Zm5.45,51H5.89V51.67h5.48ZM31.55,51.3c3.91-5.21,7.47-9.95,11.29-15.06,3.8,5,7.42,9.87,11.3,15.06Zm31.32.07a3.59,3.59,0,0,1-2.4-1.25q-4.19-5.31-8.1-10.82A2.54,2.54,0,0,1,52.15,37c2.45-3.88,5-7.65,7.78-11.77L77.37,51.43C72,51.43,67.45,51.49,62.87,51.37Zm22.68-5.93L80.62,46Q72.34,33.61,64,21.08c-.41-.59-.78-1.21-1.21-1.79-1.94-2.72-3.86-2.75-5.73,0-2.59,3.79-5.11,7.66-7.66,11.47-.49.73-1,1.43-1.67,2.33-.76-1-1.37-1.69-2-2.45C43.71,28,42,27.94,40,30.61Q33.61,39,27.28,47.49c-3.34,4.47-3.78,4.64-9.72,3.65-.88-5.25-.88-5.25-6-5.64v-28c5.36-.76,5.36-.76,5.87-6H79.59c.58,5.28.58,5.28,6,6ZM85.69,6h5.44v5.28H85.69Zm5.49,50.87H85.75V51.57h5.43Z"/><path class="cls-1" d="M25.9,17.3a8.49,8.49,0,1,0-.22,17,8.49,8.49,0,0,0,.22-17Zm-.1,11.15c-1,0-2.47-1.48-2.71-2.54a2.37,2.37,0,0,1,2.67-2.86c1.14.11,2.16,1.31,3.23,2,0,.37,0,.76.07,1.14C28,27,26.89,28.45,25.8,28.45Z"/><circle class="cls-2" cx="25.78" cy="25.74" r="4.04"/></g></g></svg>