<svg xmlns="http://www.w3.org/2000/svg" viewBox="0 0 85.27 85.26"><defs><style>.cls-1{fill:#235e2f;}</style></defs><title>q-5</title><g id="Layer_2" data-name="Layer 2"><g id="Layer_1-2" data-name="Layer 1"><path class="cls-1" d="M71.28,66.61V82.06c0,2.2-1,3.19-3.09,3.19q-25.57,0-51.13,0c-2.09,0-3.06-1-3.07-3.08,0-4.69,0-9.38,0-14.07V66.61c-2.1,0-4.08,0-6.06,0A7.92,7.92,0,0,1,.2,60.33,10.5,10.5,0,0,1,0,58Q0,44,0,29.89c0-5.3,3.32-8.57,8.66-8.57h5.25c0-.51.07-.94.07-1.37V3.32C14,.91,14.9,0,17.32,0H68c2.41,0,3.31.91,3.32,3.33v18c1.9,0,3.68,0,5.46,0,5.16,0,8.51,3.31,8.52,8.47q0,14.19,0,28.37c0,5.09-3.35,8.43-8.43,8.45C75.05,66.62,73.26,66.61,71.28,66.61Zm0-5.35h5.13c2.68,0,3.5-.82,3.5-3.51V30.24c0-2.77-.8-3.57-3.55-3.57H8.87c-2.69,0-3.51.81-3.51,3.49V57.79a7,7,0,0,0,0,1.22,2.31,2.31,0,0,0,2.15,2.17c2.09.13,4.2,0,6.43,0V59.79c0-4.72,0-9.45,0-14.18,0-1.93.95-2.89,2.81-2.9,2.8,0,5.61-.08,8.42-.08l23.9,0c6.42,0,12.85,0,19.27,0,1.94,0,2.89,1,2.89,3ZM19.35,79.82H65.82V48H19.35Zm0-58.59H65.83V5.44H19.39Z"/><path class="cls-1" d="M72,37.29a2.63,2.63,0,0,1-2.73-2.65A2.68,2.68,0,0,1,71.87,32a2.73,2.73,0,0,1,2.75,2.67A2.67,2.67,0,0,1,72,37.29Z"/><path class="cls-1" d="M42.67,69.32c-5,0-9.94,0-14.91,0-1.87,0-3-1-3-2.58s1.12-2.76,3-2.76h30a2.69,2.69,0,1,1,0,5.34C52.7,69.33,47.69,69.32,42.67,69.32Z"/><path class="cls-1" d="M42.69,53.35c5.06,0,10.11,0,15.16,0a2.65,2.65,0,0,1,2.54,3.87,2.81,2.81,0,0,1-2.85,1.47c-6.28,0-12.55,0-18.83,0H27.47a2.52,2.52,0,0,1-2.62-1.81A2.38,2.38,0,0,1,25.64,54a4,4,0,0,1,2.14-.64C32.75,53.32,37.72,53.35,42.69,53.35Z"/></g></g></svg>