<svg xmlns="http://www.w3.org/2000/svg" viewBox="0 0 438.06 223.76"><defs><style>.cls-1{fill:#fff;}</style></defs><title>sign-logo</title><g id="Layer_2" data-name="Layer 2"><g id="Layer_1-2" data-name="Layer 1"><path class="cls-1" d="M7.47,191.6a9.31,9.31,0,0,1-1.78-.39,7.26,7.26,0,0,1-1.52-.69,8.4,8.4,0,0,1-1.31-1,5,5,0,0,1-1.43-2.44A11.84,11.84,0,0,1,1,184V175.2H5.3v8.31a6.51,6.51,0,0,0,.22,1.85,2.34,2.34,0,0,0,.73,1.18,3.41,3.41,0,0,0,1.56.71,10.13,10.13,0,0,0,2.07.19H11.6V175.2h4.27v16.51H9.62A20,20,0,0,1,7.47,191.6ZM6.87,173a2,2,0,0,1-.75-1.69,2,2,0,0,1,.71-1.62,2.54,2.54,0,0,1,1.73-.61,2.55,2.55,0,0,1,1.74.61,2,2,0,0,1,.71,1.62,2,2,0,0,1-.75,1.69,2.81,2.81,0,0,1-3.39,0Z"/><path class="cls-1" d="M25.84,184.23a5.22,5.22,0,0,0,1.52-.21,3.27,3.27,0,0,0,1.18-.59,2.74,2.74,0,0,0,.7-1,3.64,3.64,0,0,0,.25-1.46V165.08h5.94v4.26H33.76v11.55a9.43,9.43,0,0,1-.25,2.26c.63.72,1.86,1.08,3.67,1.08v4.27a9.37,9.37,0,0,1-2.42-.25,5.52,5.52,0,0,1-1.45-.63,3.68,3.68,0,0,1-1-.86,3.14,3.14,0,0,0-.36-.45s0,.07-.26.26a6.79,6.79,0,0,1-2.84,1.49,15,15,0,0,1-3.79.44H18.64l-.51-4.27Zm.26-14.84v14.22H21.83V169.39Z"/><path class="cls-1" d="M41.73,184.23v4.27H36v-4.27Z"/><path class="cls-1" d="M46.29,184.23v4.27H40.55v-4.27Z"/><path class="cls-1" d="M50.84,184.23v4.27H45.1v-4.27Z"/><path class="cls-1" d="M55.39,184.23v4.27H49.65v-4.27Z"/><path class="cls-1" d="M59.94,184.23v4.27H54.2v-4.27Z"/><path class="cls-1" d="M64.49,184.23v4.27H58.76v-4.27Z"/><path class="cls-1" d="M65.9,184.23a15.51,15.51,0,0,1-.54-1.56,8.39,8.39,0,0,1-.33-2.4,7.14,7.14,0,0,1,.76-3.38,7.64,7.64,0,0,1,1.94-2.43,6.52,6.52,0,0,1,2.2-1.2,8.9,8.9,0,0,1,2.68-.39,10,10,0,0,1,2.83.38,16.46,16.46,0,0,1,2.93,1.21l-1.44,3.91a10.92,10.92,0,0,0-2.08-1,5.68,5.68,0,0,0-1.8-.31,3.94,3.94,0,0,0-2.6.79,3.08,3.08,0,0,0-.87,1.2,4,4,0,0,0-.26,1.45,6.08,6.08,0,0,0,.34,2.12,5,5,0,0,0,.84,1.56h8.33v4.27H63.31v-4.27Z"/><path class="cls-1" d="M88.22,184.23a5.22,5.22,0,0,0,1.52-.21,3.36,3.36,0,0,0,1.18-.59,2.72,2.72,0,0,0,.69-1,3.47,3.47,0,0,0,.26-1.46V165.08h5.94v4.26H96.14v11.55a10.25,10.25,0,0,1-.5,3.17,6,6,0,0,1-1.53,2.51,6.85,6.85,0,0,1-2.84,1.49,15,15,0,0,1-3.79.44H81l-.51-4.27ZM83.68,194a3.39,3.39,0,0,1-1-2.72v-1.51h6v2.59H85.45a.63.63,0,0,0,.21.39,1.19,1.19,0,0,0,.84.23h1.41v1.83H86.29A4,4,0,0,1,83.68,194Zm4.8-24.65v14.22H84.21V169.39Z"/><path class="cls-1" d="M105.94,167V188.5h-4.27V167Z"/><path class="cls-1" d="M121.8,190a5.46,5.46,0,0,1-1.14,2.22,5.28,5.28,0,0,1-2.16,1.45,9.4,9.4,0,0,1-3.31.51c-.36,0-.69,0-1,0a8.46,8.46,0,0,1-.88-.11l-.9-.18-1.29-.36-.31-4.35a20.26,20.26,0,0,0,2.37.62,10.26,10.26,0,0,0,1.75.16,10.82,10.82,0,0,0,1.24-.07,2.38,2.38,0,0,0,.86-.24,1.26,1.26,0,0,0,.53-.52,1.56,1.56,0,0,0,.22-.56h0a14.53,14.53,0,0,1-3.56-.43,8.31,8.31,0,0,1-2.9-1.34,6.32,6.32,0,0,1-2-2.36,7.71,7.71,0,0,1-.72-3.46,6.92,6.92,0,0,1,2.61-5.55,8.7,8.7,0,0,1,2.89-1.49,12.48,12.48,0,0,1,3.65-.52h4.4l0,13.84A11,11,0,0,1,121.8,190Zm-8.62-7.62a2.9,2.9,0,0,0,.79,1,3.57,3.57,0,0,0,1.21.63,5,5,0,0,0,1.53.22h1.18v-6.61h-1.18a4.21,4.21,0,0,0-1.45.25,4.08,4.08,0,0,0-1.24.66,3.17,3.17,0,0,0-.83,1,2.86,2.86,0,0,0-.31,1.35A3.25,3.25,0,0,0,113.18,182.35Z"/><path class="cls-1" d="M148.1,188.5h-6.81a13.9,13.9,0,0,1-3.64-.45,8.23,8.23,0,0,1-2.88-1.4,6.73,6.73,0,0,1-1.91-2.38,7.56,7.56,0,0,1-.7-3.33,7.44,7.44,0,0,1,.62-3,6.78,6.78,0,0,1,1.8-2.4,8.5,8.5,0,0,1,2.88-1.58,12,12,0,0,1,3.83-.57h.18v-1.28h4.27v12.16h2.36ZM136,170.27a2,2,0,0,1-.69-1.62,2,2,0,0,1,.68-1.57,2.63,2.63,0,0,1,3.32,0,2.19,2.19,0,0,1,0,3.19,2.7,2.7,0,0,1-3.29,0Zm5.45,7.35h-1.05a4.91,4.91,0,0,0-1.47.23,4.43,4.43,0,0,0-1.28.66,3.07,3.07,0,0,0-.9,1,2.77,2.77,0,0,0-.34,1.4,3,3,0,0,0,.31,1.42,2.88,2.88,0,0,0,.84,1,3.82,3.82,0,0,0,1.22.63,4.61,4.61,0,0,0,1.44.22h1.23Zm.13-7.35a2,2,0,0,1-.69-1.62,2,2,0,0,1,.68-1.57,2.44,2.44,0,0,1,1.65-.59,2.48,2.48,0,0,1,1.68.59,2,2,0,0,1,.66,1.57,2,2,0,0,1-.69,1.62,2.7,2.7,0,0,1-3.29,0Z"/><path class="cls-1" d="M152.35,184.23V173.35h4.27V188.5H147v-4.27Zm-3.82,9.19a1.92,1.92,0,0,1-.71-1.61,2,2,0,0,1,.69-1.58,2.4,2.4,0,0,1,1.65-.6,2.42,2.42,0,0,1,1.66.6,2,2,0,0,1,.68,1.58,1.91,1.91,0,0,1-.7,1.61,2.6,2.6,0,0,1-1.64.55A2.57,2.57,0,0,1,148.53,193.42Zm5.58,0a1.92,1.92,0,0,1-.71-1.61,2,2,0,0,1,.68-1.58,2.44,2.44,0,0,1,1.66-.6,2.39,2.39,0,0,1,1.67.6,2,2,0,0,1,.67,1.58,1.89,1.89,0,0,1-.71,1.61,2.69,2.69,0,0,1-3.26,0Z"/><path class="cls-1" d="M165.51,167v17.25h3.29v4.27h-7.55V167Z"/><path class="cls-1" d="M170.22,184.23a11.62,11.62,0,0,1-.54-1.56,8.38,8.38,0,0,1-.34-2.4,7.26,7.26,0,0,1,.76-3.38,7.92,7.92,0,0,1,1.94-2.43,6.62,6.62,0,0,1,2.2-1.2,9,9,0,0,1,2.69-.39,10.08,10.08,0,0,1,2.83.38,16.46,16.46,0,0,1,2.93,1.21l-1.44,3.91a11.2,11.2,0,0,0-2.08-1,5.77,5.77,0,0,0-1.8-.31,3.92,3.92,0,0,0-2.6.79,3.08,3.08,0,0,0-.87,1.2,3.78,3.78,0,0,0-.26,1.45,6.33,6.33,0,0,0,.33,2.12,5,5,0,0,0,.85,1.56h8.33v4.27H167.62v-4.27Z"/><path class="cls-1" d="M193.33,184.23v-3.6a4.6,4.6,0,0,0-.15-1.25,2.69,2.69,0,0,0-.46-.91,2,2,0,0,0-.8-.62,2.78,2.78,0,0,0-1.13-.23h-1.88v-4.27h1.52a9.56,9.56,0,0,1,3.17.48,6,6,0,0,1,2.41,1.55,5.16,5.16,0,0,1,1.24,2.36,12.19,12.19,0,0,1,.35,3v3.45h2.78v4.27h-16v-4.27Z"/><path class="cls-1" d="M201.74,184.23V167H206v17.25h3.29v4.27H199.22v-4.27Z"/><path class="cls-1" d="M210.64,184.23V167h5.94v4.26h-1.67V188.5h-6.79v-4.27Z"/><path class="cls-1" d="M226,191a11.62,11.62,0,0,1-.57-3.79,15.3,15.3,0,0,1,.28-2.93h1.67a15.51,15.51,0,0,1-.54-1.56,8.39,8.39,0,0,1-.33-2.4,7.14,7.14,0,0,1,.76-3.38,7.64,7.64,0,0,1,1.94-2.43,6.52,6.52,0,0,1,2.2-1.2,8.9,8.9,0,0,1,2.68-.39,10,10,0,0,1,2.83.38,16.46,16.46,0,0,1,2.93,1.21l-1.44,3.91a10.92,10.92,0,0,0-2.08-1,5.68,5.68,0,0,0-1.8-.31,3.94,3.94,0,0,0-2.6.79,3.08,3.08,0,0,0-.87,1.2,4,4,0,0,0-.26,1.45,6.08,6.08,0,0,0,.34,2.12,4.82,4.82,0,0,0,.85,1.56h8.33v4.27H229.77v.05a6.35,6.35,0,0,0,.27,1.81,10.82,10.82,0,0,0,1.07,2.3l-3.37,1.57A12.47,12.47,0,0,1,226,191Z"/><path class="cls-1" d="M248,167V188.5h-4.27V167Z"/><path class="cls-1" d="M259.08,184.23v-3.6a4.6,4.6,0,0,0-.15-1.25,2.71,2.71,0,0,0-.47-.91,2,2,0,0,0-.79-.62,2.82,2.82,0,0,0-1.13-.23h-1.88v-4.27h1.51a9.66,9.66,0,0,1,3.18.48,5.92,5.92,0,0,1,2.4,1.55,5.17,5.17,0,0,1,1.25,2.36,12.68,12.68,0,0,1,.35,3v3.45h2.77v4.27h-16v-4.27Z"/><path class="cls-1" d="M270.7,184.23v4.27H265v-4.27Z"/><path class="cls-1" d="M275.25,184.23v4.27h-5.73v-4.27Z"/><path class="cls-1" d="M279.8,184.23v4.27h-5.73v-4.27Z"/><path class="cls-1" d="M281.81,184.23V173.35h4.27V188.5h-7.46v-4.27Zm.49,9.16a2,2,0,0,1-.75-1.68,2,2,0,0,1,.71-1.62,2.74,2.74,0,0,1,3.47,0,2,2,0,0,1,.71,1.62,2,2,0,0,1-.75,1.68,2.77,2.77,0,0,1-3.39,0Z"/><path class="cls-1" d="M296,184.23a5.15,5.15,0,0,0,1.51-.21,3.32,3.32,0,0,0,1.19-.59,2.72,2.72,0,0,0,.69-1,3.63,3.63,0,0,0,.26-1.46V165.08h5.94v4.26H304v11.55a10.25,10.25,0,0,1-.5,3.17,6,6,0,0,1-1.53,2.51,6.85,6.85,0,0,1-2.84,1.49,15,15,0,0,1-3.8.44h-6.45l-.51-4.27ZM291.49,194a3.39,3.39,0,0,1-1-2.72v-1.51h6v2.59h-3.29a.6.6,0,0,0,.22.39,1.17,1.17,0,0,0,.84.23h1.41v1.83H294.1A3.92,3.92,0,0,1,291.49,194Zm4.8-24.65v14.22H292V169.39Z"/><path class="cls-1" d="M313.75,167V188.5h-4.27V167Z"/><path class="cls-1" d="M328.6,191.62a12.69,12.69,0,0,1-1.86-.3,8.66,8.66,0,0,1-1.63-.54,20.4,20.4,0,0,1-1.93-1L324.9,186a11.13,11.13,0,0,0,2.63,1.14,9.37,9.37,0,0,0,2.28.27h4.68v-6.91a9.14,9.14,0,0,1,.56-3.33,5.56,5.56,0,0,1,1.78-2.41,6.34,6.34,0,0,1,2.26-1.09,11.26,11.26,0,0,1,2.86-.35h5.19V188.5h-4.27V177.62h-1.31a4.1,4.1,0,0,0-1.1.13,2.2,2.2,0,0,0-.86.44,2.13,2.13,0,0,0-.61.9,3.32,3.32,0,0,0-.23,1.2v11.42H331Q329.61,191.71,328.6,191.62Zm.13-11.54a2.25,2.25,0,0,1,0-3.31,2.54,2.54,0,0,1,1.73-.61,2.57,2.57,0,0,1,1.74.61,2.26,2.26,0,0,1,0,3.31,2.82,2.82,0,0,1-3.4,0Zm0,5.45a2.25,2.25,0,0,1,0-3.31,2.54,2.54,0,0,1,1.73-.61,2.57,2.57,0,0,1,1.74.61,2.06,2.06,0,0,1,.7,1.62,2,2,0,0,1-.74,1.69,2.82,2.82,0,0,1-3.4,0Z"/><path class="cls-1" d="M350.15,194.09a6,6,0,0,1-1.08-.25l-.3-4.29c.61.15,1.05.25,1.29.28a4.87,4.87,0,0,0,.76.06,1.45,1.45,0,0,0,1.25-.48,3.07,3.07,0,0,0,.35-1.71V173.35h4.26v13.84a14,14,0,0,1-.29,3.08,5.64,5.64,0,0,1-1,2.19,3.87,3.87,0,0,1-1.72,1.28,6.7,6.7,0,0,1-2.49.41A9.28,9.28,0,0,1,350.15,194.09Z"/><path class="cls-1" d="M366.63,184.23a5.22,5.22,0,0,0,1.52-.21,3.27,3.27,0,0,0,1.18-.59,2.74,2.74,0,0,0,.7-1,3.64,3.64,0,0,0,.25-1.46V165.08h5.94v4.26h-1.67v11.55a9.43,9.43,0,0,1-.25,2.26c.63.72,1.86,1.08,3.67,1.08v4.27a9.23,9.23,0,0,1-2.41-.25,5.45,5.45,0,0,1-1.46-.63,3.68,3.68,0,0,1-1-.86,3.14,3.14,0,0,0-.36-.45s0,.07-.26.26a6.79,6.79,0,0,1-2.84,1.49,15,15,0,0,1-3.79.44h-6.45l-.52-4.27Zm.26-14.84v14.22h-4.27V169.39Z"/><path class="cls-1" d="M382.53,184.23v4.27h-5.74v-4.27Z"/><path class="cls-1" d="M387.08,184.23v4.27h-5.74v-4.27Z"/><path class="cls-1" d="M391.63,184.23v4.27h-5.74v-4.27Z"/><path class="cls-1" d="M396.18,184.23v4.27h-5.74v-4.27Z"/><path class="cls-1" d="M400.73,184.23v4.27H395v-4.27Z"/><path class="cls-1" d="M405.28,184.23v4.27h-5.73v-4.27Z"/><path class="cls-1" d="M409.83,184.23v4.27H404.1v-4.27Z"/><path class="cls-1" d="M414.38,184.23v4.27h-5.73v-4.27Z"/><path class="cls-1" d="M418.93,184.23v4.27H413.2v-4.27Z"/><path class="cls-1" d="M423.48,184.23v4.27h-5.73v-4.27Z"/><path class="cls-1" d="M425.41,184.23a5.1,5.1,0,0,1-.55-1.21,6.14,6.14,0,0,1-.35-2.11,7.34,7.34,0,0,1,.66-3.17,6.65,6.65,0,0,1,1.85-2.39,8,8,0,0,1,2.84-1.49,12.18,12.18,0,0,1,3.62-.51h4.58V188.5H422.3v-4.27Zm2.6-13a2.19,2.19,0,0,1,0-3.19,2.63,2.63,0,0,1,3.32,0,2.2,2.2,0,0,1,0,3.19,2.66,2.66,0,0,1-3.29,0Zm1.26,11.6a4,4,0,0,0,1.23,1.36h3.29v-6.61h-1.18a4.69,4.69,0,0,0-1.43.22,4,4,0,0,0-1.23.63,3,3,0,0,0-1.17,2.44A3.83,3.83,0,0,0,429.27,182.87Zm4.32-11.6a2,2,0,0,1-.7-1.62,2,2,0,0,1,.68-1.57,2.48,2.48,0,0,1,1.66-.59,2.43,2.43,0,0,1,1.67.59,2.21,2.21,0,0,1,0,3.19,2.53,2.53,0,0,1-1.65.57A2.5,2.5,0,0,1,433.59,171.27Z"/><path class="cls-1" d="M6.53,217.45A10.2,10.2,0,0,1,3,215.11a10.67,10.67,0,0,1-2.24-3.54,12.77,12.77,0,0,1,0-8.79A10.57,10.57,0,0,1,3,199.24a10.2,10.2,0,0,1,3.51-2.34,12.27,12.27,0,0,1,4.6-.83,17.92,17.92,0,0,1,4.36.5,12.47,12.47,0,0,1,3.66,1.5L17.48,202a10.64,10.64,0,0,0-2.92-1.29,12.51,12.51,0,0,0-3.27-.41,8,8,0,0,0-2.57.41,5.64,5.64,0,0,0-2.12,1.27,6.29,6.29,0,0,0-1.46,2.16,9,9,0,0,0,0,6.15,6.33,6.33,0,0,0,1.46,2.17,5.69,5.69,0,0,0,2.12,1.29,8,8,0,0,0,2.57.41,11,11,0,0,0,2.14-.22,8.06,8.06,0,0,0,1.79-.56v-3.21H10.57V206h9v10.25a9.22,9.22,0,0,1-1.94,1,17.36,17.36,0,0,1-2.12.6,20.92,20.92,0,0,1-2.24.37,18.11,18.11,0,0,1-2.16.13A12.27,12.27,0,0,1,6.53,217.45Z"/><path class="cls-1" d="M23.58,196.45h4.27V218H23.58Z"/><path class="cls-1" d="M35.06,218a7.42,7.42,0,0,1-2.29-.86,4.77,4.77,0,0,1-1.61-1.58,4.52,4.52,0,0,1-.61-2.43,4.75,4.75,0,0,1,.54-2.29,4.65,4.65,0,0,1,1.49-1.66,6.86,6.86,0,0,1,2.23-1,11.34,11.34,0,0,1,2.81-.33c.39,0,.83,0,1.31,0s.92.08,1.34.14a1.61,1.61,0,0,0-1-1.24,5.26,5.26,0,0,0-2.21-.38,7.4,7.4,0,0,0-1.18.11c-.43.07-.87.16-1.31.27a10.9,10.9,0,0,0-1.3.4c-.42.15-1,.4-1.71.74l.57-4.47a12,12,0,0,1,2.46-.85,12.85,12.85,0,0,1,3-.33,10.42,10.42,0,0,1,2.68.32,5.74,5.74,0,0,1,2.15,1,4.73,4.73,0,0,1,1.44,1.89,6.84,6.84,0,0,1,.52,2.81v8.67a16.16,16.16,0,0,1-3.31.93,18.89,18.89,0,0,1-3.32.3A13.2,13.2,0,0,1,35.06,218Zm4.16-6.53a8.88,8.88,0,0,0-1.22-.09,7.9,7.9,0,0,0-1.23.09,4.08,4.08,0,0,0-1,.27,1.6,1.6,0,0,0-.62.46,1.2,1.2,0,0,0-.2.7,1.17,1.17,0,0,0,.78,1.12,5.19,5.19,0,0,0,2,.34,8.44,8.44,0,0,0,1.31-.1,10.14,10.14,0,0,0,1-.2v-2.45Z"/><path class="cls-1" d="M54.28,206.71l-.59,0a7.65,7.65,0,0,0-.81.05c-.29,0-.68.07-1.19.14s-.45,0,.17-.21V218H47.59v-14.7c.64-.12,1.21-.22,1.73-.3s1-.14,1.53-.19,1-.1,1.47-.13.91-.05,1.29-.05h3.06v4.11Z"/><path class="cls-1" d="M60.37,219.13c.43.12.87.23,1.33.33a10.76,10.76,0,0,0,1.32.23,8.38,8.38,0,0,0,1.16.08,7.07,7.07,0,0,0,1.44-.13,3.25,3.25,0,0,0,1.09-.39,1.94,1.94,0,0,0,.68-.65l.23-.37.16-.46a13.61,13.61,0,0,1-2.7.25,12.23,12.23,0,0,1-2.64-.27,5.13,5.13,0,0,1-2.12-1,4.62,4.62,0,0,1-1.39-1.94,8.44,8.44,0,0,1-.49-3.07V202.8h4.3v7.92a6.68,6.68,0,0,0,.15,1.56,2.49,2.49,0,0,0,.44.94,1.52,1.52,0,0,0,.76.47,3.94,3.94,0,0,0,1.17.14,10,10,0,0,0,1.19-.07,6.72,6.72,0,0,0,1.17-.24V202.8h4.27v13.73a13,13,0,0,1-.38,3.36,4.78,4.78,0,0,1-1.34,2.25,5.49,5.49,0,0,1-2.44,1.24,15.51,15.51,0,0,1-3.71.38c-.3,0-.64,0-1,0l-1.12-.15c-.38-.05-.75-.12-1.12-.2a11.25,11.25,0,0,1-1.19-.32l-.95-4.58A13.42,13.42,0,0,0,60.37,219.13Z"/><path class="cls-1" d="M90.89,200.67a5.8,5.8,0,0,0-2.12,1.27,6.27,6.27,0,0,0-1.45,2.16,9,9,0,0,0,0,6.15,6.31,6.31,0,0,0,1.45,2.17,5.85,5.85,0,0,0,2.12,1.29,8.09,8.09,0,0,0,2.57.41,9.09,9.09,0,0,0,2.77-.41,12.65,12.65,0,0,0,2.71-1.32l1.7,3.91a12.62,12.62,0,0,1-3.46,1.49,14.87,14.87,0,0,1-3.87.49,12.24,12.24,0,0,1-4.6-.83,10.2,10.2,0,0,1-3.51-2.34A10.51,10.51,0,0,1,83,211.57a12.77,12.77,0,0,1,0-8.79,10.41,10.41,0,0,1,2.24-3.54,10.2,10.2,0,0,1,3.51-2.34,12.24,12.24,0,0,1,4.6-.83,14.46,14.46,0,0,1,3.87.5,13,13,0,0,1,3.46,1.5L98.94,202a11.75,11.75,0,0,0-2.7-1.29,9.2,9.2,0,0,0-2.78-.41A8.09,8.09,0,0,0,90.89,200.67Z"/><path class="cls-1" d="M109.18,206.71l-.6,0a8,8,0,0,0-.81.05c-.28,0-.67.07-1.18.14s-.45,0,.17-.21V218h-4.27v-14.7l1.72-.3c.52-.08,1-.14,1.53-.19s1-.1,1.48-.13.91-.05,1.29-.05h3.06v4.11Z"/><path class="cls-1" d="M122.43,214c.4-.07.79-.16,1.16-.26a6.5,6.5,0,0,0,1-.37,4.38,4.38,0,0,0,1-.79l1.93,3.91a15.69,15.69,0,0,1-3,1.31,12.47,12.47,0,0,1-3.74.49,8.83,8.83,0,0,1-3.29-.6,8.36,8.36,0,0,1-2.64-1.67,7.59,7.59,0,0,1-1.73-2.54,7.88,7.88,0,0,1-.62-3.16,8,8,0,0,1,.63-3.21,7.87,7.87,0,0,1,1.72-2.54,7.78,7.78,0,0,1,2.55-1.65,8,8,0,0,1,3.12-.59,8.2,8.2,0,0,1,3.21.61,6.8,6.8,0,0,1,2.52,1.82,7.93,7.93,0,0,1,1.61,2.9,12.42,12.42,0,0,1,.48,4.18H117a2.59,2.59,0,0,0,1.26,1.61,5,5,0,0,0,2.65.65h.39A6.68,6.68,0,0,0,122.43,214Zm-4.22-7.12a2.81,2.81,0,0,0-1.09,1.31h6.71a2.34,2.34,0,0,0-1.08-1.4,3.91,3.91,0,0,0-2.26-.61A3.62,3.62,0,0,0,118.21,206.87Z"/><path class="cls-1" d="M134.46,218a7.36,7.36,0,0,1-2.28-.86,4.68,4.68,0,0,1-1.61-1.58,4.52,4.52,0,0,1-.62-2.43,4.63,4.63,0,0,1,2-3.95,6.91,6.91,0,0,1,2.24-1,11.26,11.26,0,0,1,2.8-.33c.4,0,.83,0,1.31,0s.93.08,1.34.14a1.6,1.6,0,0,0-.95-1.24,5.29,5.29,0,0,0-2.21-.38,7.3,7.3,0,0,0-1.18.11q-.65.1-1.32.27a10.74,10.74,0,0,0-1.29.4c-.42.15-1,.4-1.71.74l.56-4.47a11.9,11.9,0,0,1,2.47-.85,12.78,12.78,0,0,1,3-.33,10.29,10.29,0,0,1,2.67.32,5.86,5.86,0,0,1,2.16,1,4.73,4.73,0,0,1,1.44,1.89,7,7,0,0,1,.51,2.81v8.67a16.25,16.25,0,0,1-3.3.93,18.91,18.91,0,0,1-3.33.3A13.2,13.2,0,0,1,134.46,218Zm4.17-6.53a9.11,9.11,0,0,0-1.22-.09,7.94,7.94,0,0,0-1.24.09,4,4,0,0,0-1,.27,1.53,1.53,0,0,0-.62.46,1.14,1.14,0,0,0-.21.7,1.18,1.18,0,0,0,.79,1.12,5.1,5.1,0,0,0,2,.34,8.35,8.35,0,0,0,1.31-.1,9.55,9.55,0,0,0,1-.2v-2.45C139.36,211.59,139.07,211.54,138.63,211.48Z"/><path class="cls-1" d="M148.16,202.83v-5.3h4.26v5.3h5.51v4h-5.51v4.91a4.25,4.25,0,0,0,.12,1.12,1.31,1.31,0,0,0,.35.64,1.47,1.47,0,0,0,.66.34,4.88,4.88,0,0,0,1.11.11H158v4h-3.76a13.19,13.19,0,0,1-2.68-.24,4.73,4.73,0,0,1-1.93-.84,3.33,3.33,0,0,1-1.14-1.54,6.55,6.55,0,0,1-.36-2.31v-6.2h-2.73v-4Z"/><path class="cls-1" d="M161,200.66a2,2,0,0,1-.75-1.69,2,2,0,0,1,.71-1.62,2.76,2.76,0,0,1,3.46,0,2.07,2.07,0,0,1,.69,1.62,2.09,2.09,0,0,1-.68,1.65,2.48,2.48,0,0,1-1.74.61A2.7,2.7,0,0,1,161,200.66Zm3.83,2.17V218H160.6V202.83Z"/><path class="cls-1" d="M166.39,202.83h4.47l3.45,10.33,3.44-10.33h4.47L177,218h-5.39Z"/><path class="cls-1" d="M184.2,200.66a2.25,2.25,0,0,1,0-3.31,2.54,2.54,0,0,1,1.73-.61,2.48,2.48,0,0,1,1.72.61,2,2,0,0,1,.7,1.62,2.13,2.13,0,0,1-.68,1.65,2.51,2.51,0,0,1-1.74.61A2.74,2.74,0,0,1,184.2,200.66Zm3.83,2.17V218h-4.26V202.83Z"/><path class="cls-1" d="M192.66,202.83v-5.3h4.27v5.3h5.5v4h-5.5v4.91a4.25,4.25,0,0,0,.12,1.12,1.23,1.23,0,0,0,.35.64,1.47,1.47,0,0,0,.66.34,4.88,4.88,0,0,0,1.11.11h3.37v4h-3.76a13.12,13.12,0,0,1-2.68-.24,4.67,4.67,0,0,1-1.93-.84,3.42,3.42,0,0,1-1.15-1.54,6.55,6.55,0,0,1-.36-2.31v-6.2h-2.72v-4Z"/><path class="cls-1" d="M206.63,219.13q.63.18,1.32.33a10.76,10.76,0,0,0,1.32.23,8.38,8.38,0,0,0,1.16.08,7.07,7.07,0,0,0,1.44-.13,3.25,3.25,0,0,0,1.09-.39,1.94,1.94,0,0,0,.68-.65l.23-.37.16-.46a13.61,13.61,0,0,1-2.7.25,12.14,12.14,0,0,1-2.63-.27,5.11,5.11,0,0,1-2.13-1,4.52,4.52,0,0,1-1.38-1.94,8.23,8.23,0,0,1-.49-3.07V202.8H209v7.92a6.68,6.68,0,0,0,.15,1.56,2.49,2.49,0,0,0,.44.94,1.52,1.52,0,0,0,.76.47,4,4,0,0,0,1.17.14,10.12,10.12,0,0,0,1.2-.07,6.6,6.6,0,0,0,1.16-.24V202.8h4.27v13.73a12.54,12.54,0,0,1-.38,3.36,4.71,4.71,0,0,1-1.34,2.25,5.43,5.43,0,0,1-2.44,1.24,15.48,15.48,0,0,1-3.7.38c-.31,0-.65,0-1,0l-1.12-.15c-.38-.05-.75-.12-1.12-.2s-.76-.18-1.19-.32l-1-4.58A12.92,12.92,0,0,0,206.63,219.13Z"/><path class="cls-1" d="M229.84,196.45h14v4.12h-9.59v4.29h8.67V209h-8.67V218h-4.37Z"/><path class="cls-1" d="M249.19,217.66a8.31,8.31,0,0,1-2.58-1.67,7.48,7.48,0,0,1-1.74-2.52,7.89,7.89,0,0,1-.63-3.16,7.76,7.76,0,0,1,.63-3.14,8.1,8.1,0,0,1,4.32-4.24,8.86,8.86,0,0,1,6.46,0,8.07,8.07,0,0,1,2.58,1.71,8.22,8.22,0,0,1,1.74,2.53,7.93,7.93,0,0,1,.62,3.14,8.06,8.06,0,0,1-.62,3.16,7.62,7.62,0,0,1-1.74,2.52,8.31,8.31,0,0,1-2.58,1.67,8.72,8.72,0,0,1-6.46,0ZM254,213.8a3.63,3.63,0,0,0,1.17-.8,3.39,3.39,0,0,0,.75-1.2,4.4,4.4,0,0,0,0-3,3.39,3.39,0,0,0-.75-1.2,3.65,3.65,0,0,0-2.72-1.11,3.88,3.88,0,0,0-1.56.3,4.07,4.07,0,0,0-1.17.81,3.51,3.51,0,0,0-.74,1.2,4.4,4.4,0,0,0,0,3,3.51,3.51,0,0,0,.74,1.2,3.86,3.86,0,0,0,1.17.8,4.05,4.05,0,0,0,1.56.29A4,4,0,0,0,254,213.8Z"/><path class="cls-1" d="M269.54,206.71l-.59,0a8,8,0,0,0-.81.05c-.28,0-.67.07-1.18.14s-.45,0,.17-.21V218h-4.27v-14.7c.63-.12,1.21-.22,1.72-.3s1-.14,1.53-.19,1-.1,1.48-.13.91-.05,1.28-.05h3.06v4.11Z"/><path class="cls-1" d="M296.16,218l-1.78-4.91h-8.17L284.46,218h-4.6l8-21.52h5l8,21.52Zm-3.24-9.05-2.63-7.33-2.62,7.33Z"/><path class="cls-1" d="M316,196.45v21a23,23,0,0,1-6.15.82,10.56,10.56,0,0,1-3.68-.6,8.28,8.28,0,0,1-2.78-1.67,7.21,7.21,0,0,1-1.74-2.52,8.37,8.37,0,0,1-.59-3.15,8,8,0,0,1,.61-3.15,7.54,7.54,0,0,1,1.73-2.55,8.18,8.18,0,0,1,2.7-1.71,9.44,9.44,0,0,1,3.47-.61c.34,0,.73,0,1.15.05s.75.07,1,.1v-6Zm-9.35,16.74a5,5,0,0,0,3.18.9,8.78,8.78,0,0,0,1.9-.21v-7.14a6.19,6.19,0,0,0-.91-.17,8.74,8.74,0,0,0-1-.06,4.9,4.9,0,0,0-3.16.93,3.49,3.49,0,0,0-1.16,2.9A3.41,3.41,0,0,0,306.63,213.19Z"/><path class="cls-1" d="M317.52,202.83H322l3.44,10.33,3.45-10.33h4.47L328.14,218h-5.4Z"/><path class="cls-1" d="M343.33,214c.4-.07.78-.16,1.15-.26a6.26,6.26,0,0,0,1-.37,4.59,4.59,0,0,0,1-.79l1.92,3.91a15.17,15.17,0,0,1-3,1.31,12.38,12.38,0,0,1-3.74.49,8.87,8.87,0,0,1-3.29-.6,8.2,8.2,0,0,1-2.63-1.67,7.47,7.47,0,0,1-1.74-2.54,8.43,8.43,0,0,1,0-6.37,7.89,7.89,0,0,1,1.73-2.54,7.74,7.74,0,0,1,2.54-1.65,8.11,8.11,0,0,1,3.13-.59,8.23,8.23,0,0,1,3.21.61,6.8,6.8,0,0,1,2.52,1.82,8.08,8.08,0,0,1,1.61,2.9,12.7,12.7,0,0,1,.47,4.18H337.89a2.59,2.59,0,0,0,1.26,1.61,5,5,0,0,0,2.65.65h.38A6.79,6.79,0,0,0,343.33,214Zm-4.22-7.12a2.81,2.81,0,0,0-1.09,1.31h6.71a2.34,2.34,0,0,0-1.08-1.4,3.94,3.94,0,0,0-2.27-.61A3.61,3.61,0,0,0,339.11,206.87Z"/><path class="cls-1" d="M358.07,206.71l-.59,0a7.65,7.65,0,0,0-.81.05c-.28,0-.68.07-1.18.14s-.45,0,.16-.21V218h-4.26v-14.7c.63-.12,1.21-.22,1.72-.3s1-.14,1.53-.19,1-.1,1.48-.13.91-.05,1.28-.05h3.06v4.11Z"/><path class="cls-1" d="M363.81,202.83v-5.3h4.26v5.3h5.51v4h-5.51v4.91a4.25,4.25,0,0,0,.12,1.12,1.31,1.31,0,0,0,.35.64,1.51,1.51,0,0,0,.67.34,4.79,4.79,0,0,0,1.1.11h3.37v4h-3.75a13.23,13.23,0,0,1-2.69-.24,4.73,4.73,0,0,1-1.93-.84,3.4,3.4,0,0,1-1.14-1.54,6.55,6.55,0,0,1-.36-2.31v-6.2h-2.73v-4Z"/><path class="cls-1" d="M376.69,200.66a2,2,0,0,1-.75-1.69,2,2,0,0,1,.71-1.62,2.54,2.54,0,0,1,1.73-.61,2.51,2.51,0,0,1,1.73.61,2.07,2.07,0,0,1,.69,1.62,2.13,2.13,0,0,1-.68,1.65,2.48,2.48,0,0,1-1.74.61A2.7,2.7,0,0,1,376.69,200.66Zm3.83,2.17V218h-4.27V202.83Z"/><path class="cls-1" d="M391.56,213.88c.44-.13.66-.33.66-.59a.73.73,0,0,0-.4-.63,6.3,6.3,0,0,0-1.71-.5L389,212a9.46,9.46,0,0,1-4-1.65,3.79,3.79,0,0,1-1.49-3.19,4.17,4.17,0,0,1,1.72-3.51,7.59,7.59,0,0,1,4.65-1.29,16.71,16.71,0,0,1,3.41.34,11.3,11.3,0,0,1,3.15,1.17l-1.54,4a11.79,11.79,0,0,0-1.41-.62c-.4-.13-.81-.25-1.24-.36a11.58,11.58,0,0,0-1.31-.23,11.39,11.39,0,0,0-1.26-.07c-1.29,0-1.93.2-1.93.61a.71.71,0,0,0,.41.57,5.72,5.72,0,0,0,1.7.49l1.13.2a9.5,9.5,0,0,1,4.42,1.8,4.37,4.37,0,0,1-.41,6.76,6.4,6.4,0,0,1-2.17,1,11.34,11.34,0,0,1-3,.35,15.51,15.51,0,0,1-1.8-.1,17.2,17.2,0,0,1-1.77-.3,12.93,12.93,0,0,1-1.66-.47,10.37,10.37,0,0,1-1.66-.8l1.62-4.16a9.91,9.91,0,0,0,2.62,1.24,9.43,9.43,0,0,0,2.75.4A5.68,5.68,0,0,0,391.56,213.88Z"/><path class="cls-1" d="M399.83,200.66a2,2,0,0,1-.75-1.69,2,2,0,0,1,.71-1.62,2.55,2.55,0,0,1,1.74-.61,2.5,2.5,0,0,1,1.72.61,2.07,2.07,0,0,1,.69,1.62,2.09,2.09,0,0,1-.68,1.65,2.47,2.47,0,0,1-1.73.61A2.72,2.72,0,0,1,399.83,200.66Zm3.83,2.17V218h-4.27V202.83Z"/><path class="cls-1" d="M409.16,202.77c.6-.1,1.19-.18,1.78-.24l1.64-.15c.52,0,1-.06,1.39-.06a13.72,13.72,0,0,1,2.69.26,5.88,5.88,0,0,1,2.23,1,4.91,4.91,0,0,1,1.53,2,7.25,7.25,0,0,1,.57,3.07V218h-4.27v-8.35a3.26,3.26,0,0,0-.72-2.47,3.19,3.19,0,0,0-2.18-.64,11.34,11.34,0,0,0-1.25.07c-.46,0-.84.11-1.17.16V218h-4.27V203.11C407.89,203,408.56,202.86,409.16,202.77Z"/><path class="cls-1" d="M423.56,207a6.94,6.94,0,0,1,1.74-2.47,8,8,0,0,1,2.78-1.63,10.56,10.56,0,0,1,3.68-.59,22.38,22.38,0,0,1,6.15.84v13.37a12.5,12.5,0,0,1-.39,3.36,4.69,4.69,0,0,1-1.33,2.25,5.47,5.47,0,0,1-2.45,1.24,15.36,15.36,0,0,1-3.7.38c-.31,0-.64,0-1,0l-1.12-.15c-.38-.05-.75-.12-1.12-.2a11.25,11.25,0,0,1-1.19-.32l-1-4.58a13.45,13.45,0,0,0,1.75.67c.43.12.87.23,1.33.33a10.76,10.76,0,0,0,1.32.23,8.28,8.28,0,0,0,1.16.08,7.07,7.07,0,0,0,1.44-.13,3.34,3.34,0,0,0,1.09-.39,1.94,1.94,0,0,0,.68-.65,1.64,1.64,0,0,0,.23-.91v.08a6.71,6.71,0,0,1-1,.11c-.44,0-.82,0-1.15,0a9.65,9.65,0,0,1-3.47-.6,8.55,8.55,0,0,1-2.7-1.65,7,7,0,0,1-1.73-2.47,7.71,7.71,0,0,1-.61-3.09A8.07,8.07,0,0,1,423.56,207Zm9.22-.41a6.55,6.55,0,0,0-1-.09,5.18,5.18,0,0,0-3.18.86,3.2,3.2,0,0,0-1.14,2.74,3.24,3.24,0,0,0,1.14,2.73,5.05,5.05,0,0,0,3.18.89,8.74,8.74,0,0,0,1-.06c.35,0,.65-.09.91-.15v-6.78Z"/><path class="cls-1" d="M223.94,0a73.84,73.84,0,1,0,75.34,72.29A73.83,73.83,0,0,0,223.94,0ZM268.11,114.8a59.14,59.14,0,1,1-85.32-81.91,59.42,59.42,0,0,1,18.53-13.06,59.35,59.35,0,0,1,46-.95c1.65.67,3.29,1.4,4.87,2.21a.88.88,0,0,0-.33-.13,4.56,4.56,0,0,0-.6-.18,8,8,0,0,1,1.93.91h0a5.86,5.86,0,0,0,.6.45,3.75,3.75,0,0,1,.35.33l.33.35a6,6,0,0,0,.5.53s0,0,.05,0,0,.05,0,.07,0,0,0,0l.5.72c.05.1.13.21.2.33a1.49,1.49,0,0,1,.23.43.07.07,0,0,1,0,.05,5.66,5.66,0,0,1,.27.68.31.31,0,0,1,.05.17,1.39,1.39,0,0,1,.1.33.37.37,0,0,1,.05.17.27.27,0,0,1,0,.15v0c.07.26.1.53.15.78a1.1,1.1,0,0,1,0,.41.26.26,0,0,1,0,.2v.2a9.92,9.92,0,0,1-.1,1.43s0,0,0,.07a12,12,0,0,1-.48,1.64.3.3,0,0,1,0,.15,7.67,7.67,0,0,1-.43.8,2.28,2.28,0,0,1-.17.3v0c-.1.17-.23.32-.35.5a.87.87,0,0,0-.13.15,1.56,1.56,0,0,1-.27.35,1.73,1.73,0,0,1-.26.28l-.42.4a1.06,1.06,0,0,1-.15.15h0s0,0,0,0a7.68,7.68,0,0,1-1.83,1.16l0,0s0,0,0,0a5.54,5.54,0,0,1-.68.25c-.35.1-.7.2-1.08.28a.59.59,0,0,1-.2,0l-.65.08-.2,0H249c-.35,0-.7,0-1.06,0a.82.82,0,0,0-.22,0,5.63,5.63,0,0,1-1-.23.83.83,0,0,1-.2,0c-.13-.05-.25-.07-.35-.1s-.23-.07-.33-.12,0,0-.05,0h0l-.18-.08a6,6,0,0,1-.7-.4h0c-.28-.17-.56-.37-.83-.57a2.08,2.08,0,0,0,.4.32,1.61,1.61,0,0,0,.38.28,42.75,42.75,0,0,0-20.22-4.57,43.17,43.17,0,1,0,44.05,42.26,42.74,42.74,0,0,0-4-17.28L246,69.43l-1.46,1.08a10.2,10.2,0,0,1-1.61.75c-2.61.93-5.3,1.66-7.93,2.59a1.7,1.7,0,0,0-1,1.12,13.39,13.39,0,0,1-1.26,4.25c-1.71,3.39-4.87,5.47-8.84,6.68a23.88,23.88,0,0,1-13.93-.33c-.81-.25-2-1.08-2-1.71a3.4,3.4,0,0,1,1.48-2.38c2.84-1.81,4.17-4.5,5-7.56,1-3.84,3-6.83,6.85-8.34a9.06,9.06,0,0,1,3.92-.6,9.45,9.45,0,0,1,3.24.85,18.36,18.36,0,0,0,1.75-2.33A20.14,20.14,0,0,1,235,57.65l1.74-1.28,18.53-13.69,13-9.59A59.39,59.39,0,0,1,277.66,46c.65,1.21,1.23,2.44,1.8,3.67a59,59,0,0,1-11.35,65.11ZM231.6,67a1.79,1.79,0,0,0,.23,1.64c.6.78,1.53,2,2.13,1.91A63.63,63.63,0,0,0,241,68.47l-5.12-7.26C234.39,63.22,232.91,65.08,231.6,67Zm-7.46,1.18a7,7,0,0,0-6.2,5.13c-.22.75-.45,1.5-.7,2.26a17.23,17.23,0,0,1-4.4,7.41c3.44.55,6.68.8,9.8-.1.35-.1.68-.21,1-.33a14.08,14.08,0,0,0,4.79-3.16c2.39-2.29,2.82-5,1.41-7.56C228.66,69.65,226.88,68.09,224.14,68.19Z"/></g></g></svg>